<?xml version="1.0" encoding="UTF-8"?>
<svg id="Ebene_2" data-name="Ebene 2" xmlns="http://www.w3.org/2000/svg" viewBox="0 0 994.78 994.78">
  <defs>
    <style>
      .cls-1 {
        fill: #fff;
      }

      .cls-2 {
        fill: #575756;
      }

      .cls-3 {
        fill: #353738;
      }

      .cls-4 {
        fill: #575756;
      }

      .cls-5 {
        fill: #242626;
      }
    </style>
  </defs>
  <g id="logo">
    <rect class="cls-1" x="40" y="40" width="914.78" height="914.78" rx="60.44" ry="60.44"/>
    <g>
      <path class="cls-3" d="M118.96,309.83l1.04-.46v-1.24l-1.04,1.7ZM118.96,309.83l1.04-.46v-1.24l-1.04,1.7ZM874.78,307.98v.54l.45.2-.45-.74ZM874.78,207.42v31.12l55.45-16.31-55.45-14.81ZM894.33,40H100.45c-33.39,0-60.45,27.06-60.45,60.45v116.26l53.55-32.33-35.43-106.84,100.57,42.46h2.05l43.75-71.67,30.01,71.67h524.72l30.47-72.78,44.17,72.36,102.2-43.15-35.42,106.84,54.14,32.69v-115.51c0-33.39-27.06-60.45-60.45-60.45ZM884.79,266.86l26.69,68.54-36.7-19.94v559.32H120V316.24l-37.3,20.27,26.7-68.53-69.4-40.93v667.28c0,33.39,27.06,60.45,60.45,60.45h793.88c33.39,0,60.45-27.06,60.45-60.45V225.59l-69.99,41.27ZM118.96,309.83l1.04-.46v-1.24l-1.04,1.7ZM118.96,309.83l1.04-.46v-1.24l-1.04,1.7Z"/>
      <path class="cls-1" d="M894.33,40c33.38,0,60.44,27.06,60.44,60.44v793.89c0,33.38-27.06,60.44-60.44,60.44H100.44c-33.38,0-60.44-27.06-60.44-60.44V100.44c0-33.38,27.06-60.44,60.44-60.44h793.89ZM894.33,0H100.44C45.06,0,0,45.06,0,100.44v793.89c0,55.39,45.06,100.44,100.44,100.44h793.89c55.39,0,100.44-45.06,100.44-100.44V100.44c0-55.39-45.06-100.44-100.44-100.44h0Z"/>
    </g>
    <g>
      <g>
        <polygon class="cls-4" points="909.93 107.8 817.66 166.22 794.15 92.36 771.6 185 710.35 151.4 743 217.09 808.66 279.71 875.82 309.22 839.36 249.63 930.83 222.73 855.94 202.73 909.93 107.8"/>
        <polygon class="cls-3" points="909.93 107.8 817.66 166.22 794.15 92.36 771.6 185 710.35 151.4 743 217.09 771.58 244.35 746.79 187.36 778.59 205.06 793.81 138.69 806.22 192.09 863.48 156.5 830.64 215.38 884.57 225.25 818.99 243.59 838.17 274.52 776.66 249.19 808.66 279.71 875.82 309.22 839.36 249.63 930.83 222.73 855.94 202.73 909.93 107.8"/>
      </g>
      <g>
        <path class="cls-3" d="M190.06,844.16l-6.42-6.15c-5.48-5.25-4.24-15.42,2.77-22.6l27.01-27.7,26.03,25.57-26.68,27.36c-7,7.18-17.22,8.76-22.7,3.52Z"/>
        <path class="cls-5" d="M344.34,673.23c-.6-.58-1.28-1.06-1.98-1.47l.29.28c5.48,5.25,4.24,15.42-2.77,22.6l-135.23,138.67c-6.23,6.39-15,8.33-20.72,4.99l6.13,5.87c5.48,5.25,15.7,3.67,22.7-3.52l135.23-138.67c7-7.18,8.25-17.35,2.77-22.6l-6.42-6.15Z"/>
        <path class="cls-3" d="M453.34,646.68l16.08,16.82-106.25,111.12h-.01l-8.94,9.36-21.17,22.13-.11.12-7.25,7.58c-1,1-2.01,1.96-3.01,2.9-.46.42-.92.84-1.38,1.25-.53.48-1.07.96-1.6,1.41-.02.02-.03.04-.05.05-16.27,14.03-32.85,19.55-48.42,19.55s-30.71-5.74-43.11-14.06c-3.09-2.07-6.03-4.3-8.79-6.65-2.14-1.8-4.17-3.68-6.09-5.6-2.04-2.04-4.06-4.2-6.01-6.45-.38-.43-.75-.86-1.11-1.29-.04-.05-.08-.09-.11-.13-.4-.48-.8-.96-1.2-1.45-.52-.64-1.04-1.29-1.55-1.95-.31-.39-.61-.79-.91-1.2-.11-.14-.21-.28-.31-.42-.01,0-.01-.01-.02-.01-.05-.06-.1-.13-.14-.2-9.28-12.49-16.13-27.47-16.13-44.08,0-14.54,5.24-30.31,18.7-46.76.32-.4.64-.79.97-1.17.23-.29.48-.58.73-.88,1.05-1.22,2.15-2.45,3.29-3.69,1.07-1.15,2.18-2.3,3.34-3.46.17-.18.33-.34.5-.5l3.97-3.79s-.01,0,0-.01l.03-.03,22.26-21.28,9.48-9.06,115.81-110.73,11.45,11.98,7.74,8.09c-.23,1.24-.42,2.48-.56,3.72-1.23,10.18.13,20.42,4,29.93.37.9.76,1.77,1.18,2.63,2.85,6.17,6.69,11.74,11.44,16.6l2.06,2.11c10.22,10.44,23.62,16.67,38.16,17.82,1.64.13,3.3.2,4.97.2,2.72,0,5.41-.18,8.07-.52Z"/>
        <path class="cls-3" d="M791.69,326.48l-8.32,8.7h0s-12.97,13.57-12.97,13.57l-19.58,20.47-.17.17-8.88,9.3-21.48,22.46-.07.08-12.84,13.42-79.31,82.94-8.99-8.59c.75-3.65,1.16-7.38,1.22-11.13.09-5.8-.63-11.48-2.11-16.91-2.64-9.69-7.7-18.58-14.89-25.93l-2.06-2.11c-4.81-4.91-10.38-8.91-16.59-11.92-.74-.38-1.5-.74-2.27-1.08-.79-.35-1.47-.61-1.96-.8-7.12-2.82-14.65-4.24-22.37-4.24-3.41-.01-6.78.27-10.09.82-1.54.25-3.06.56-4.57.93l-6.96-6.65-10.42-9.97,83.08-79.44,13.39-12.8h0l22.48-21.5,9.3-8.89.17-.16,20.75-19.85,13.33-12.74.06-.06,10.84-10.36,69.31,69.32,22.96,22.95Z"/>
        <path class="cls-5" d="M453.34,646.68l16.08,16.82-106.25,111.12h-.01l-8.94,9.36-21.17,22.13-.11.12-7.25,7.58c-1,1-2.01,1.96-3.01,2.9-.46.42-.92.84-1.38,1.25-.53.48-1.07.96-1.6,1.41-.02.02-.03.04-.05.05-16.27,14.03-32.85,19.55-48.42,19.55s-30.71-5.74-43.11-14.06c-3.09-2.07-6.03-4.3-8.79-6.65-2.14-1.8-4.17-3.68-6.09-5.6-2.04-2.04-4.06-4.2-6.01-6.45-.38-.43-.75-.86-1.11-1.29-.04-.05-.08-.09-.11-.13-.4-.48-.8-.96-1.2-1.45-.52-.64-1.04-1.29-1.55-1.95-.31-.39-.61-.79-.91-1.2-.11-.14-.22-.29-.33-.43.01,0,.01.01.02.01,6.99,5.1,14.85,9.41,23.31,12.31,3.97,1.36,8.07,2.41,12.28,3.07,18.36,2.94,38.68-1.33,58.57-18.26,2.18-1.85,4.36-3.86,6.53-6.03l6.76-7.07.04-.04,21.27-22.25,9.05-9.46,100.45-105.04c1.64.13,3.3.2,4.97.2,2.72,0,5.41-.18,8.07-.52Z"/>
        <path class="cls-5" d="M791.69,326.48l-8.32,8.7h0s-12.97,13.57-12.97,13.57l-19.58,20.47-.17.17-8.88,9.3-21.48,22.46-.07.08-12.84,13.42-79.31,82.94-8.99-8.59c.75-3.65,1.16-7.38,1.22-11.13.09-5.8-.63-11.48-2.11-16.91l65.74-68.75,12.83-13.41.05-.06,21.48-22.46,8.89-9.3.16-.17,19.64-20.54,12.91-13.5h.02s8.82-9.24,8.82-9.24l22.96,22.95Z"/>
      </g>
      <g>
        <path class="cls-3" d="M362.57,802.24l-2.06,2.11c-7.88,8.06-21.28,7.98-29.77-.17l-113.1-108.57c-8.49-8.15-8.99-21.41-1.11-29.47l2.06-2.11c7.88-8.06,21.28-7.98,29.77.17l113.1,108.57c8.49,8.15,8.99,21.41,1.11,29.47Z"/>
        <path class="cls-2" d="M361.46,772.78c6.53,6.27,8.33,15.55,5.23,23.18l-141.87-136.19c7.59-3.32,17.01-1.82,23.54,4.44l113.1,108.57Z"/>
        <path class="cls-5" d="M217.28,695.19c-4.43,4.11-8.77,8.47-12.83,13.52l115.2,110.7c4.4-3.8,8.84-8.29,13.3-13.19l-115.67-111.03Z"/>
      </g>
      <g>
        <path class="cls-3" d="M750.64,397.72l-2.07,2.11c-7.89,8.05-20.5,8.75-28.02,1.57l-100.19-95.66c-7.52-7.18-7.22-19.64.67-27.69l2.07-2.11c7.89-8.05,20.5-8.75,28.02-1.57l100.19,95.66c7.52,7.18,7.22,19.64-.67,27.69Z"/>
        <path class="cls-2" d="M751.4,369.78c5.78,5.52,6.93,14.15,3.56,21.51l-125.56-119.87c7.34-3.57,16.12-2.71,21.9,2.8l100.09,95.56Z"/>
        <polygon class="cls-5" points="622.48 307.77 609.09 320.57 707.79 415.04 720.64 401.63 622.48 307.77"/>
      </g>
      <g>
        <path class="cls-3" d="M815.19,333.17l-2.07,2.11c-7.89,8.05-20.5,8.75-28.02,1.57l-100.19-95.66c-7.52-7.18-7.22-19.64.67-27.69l2.07-2.11c7.89-8.05,20.5-8.75,28.02-1.57l100.19,95.66c7.52,7.18,7.22,19.64-.67,27.69Z"/>
        <path class="cls-2" d="M815.78,305.39c5.78,5.52,6.93,14.15,3.56,21.51l-125.56-119.87c7.34-3.57,16.12-2.71,21.9,2.8l100.09,95.56Z"/>
        <polygon class="cls-5" points="688.58 244.57 675.19 257.37 770.4 348.75 783.37 335.19 688.58 244.57"/>
      </g>
      <path class="cls-2" d="M384.02,574.19c-.23,1.24-.42,2.48-.56,3.72l-98.16,98.14c-2.11,2.11-5.52,2.12-7.65.01l-2.91-2.91c-2.19-2.16-2.18-5.73.03-7.87l101.51-99.18,7.74,8.09Z"/>
      <path class="cls-2" d="M611.46,349.93c0,1.41-.53,2.82-1.61,3.9l-61.89,61.87c-1.54.25-3.06.56-4.57.93l-6.96-6.65,65.8-64.02c2.05-1.99,5.27-2.06,7.4-.14,1.22,1.09,1.83,2.6,1.83,4.11Z"/>
      <path class="cls-2" d="M670.97,278.37l6.66-6.02c2.03-2.01,5.26-2.11,7.4-.22h0c2.37,2.09,2.5,5.76.3,8.01l-6.63,6.27c-2.09,2.14-4.92,2.77-7.07.69l-1.57-1.52c-2.21-2.15-1.28-5.03.9-7.2Z"/>
      <path class="cls-2" d="M186.64,823.17l12.97-12.85c1.08-1.11,2.81-1.16,3.96-.11h0c1.27,1.16,1.35,3.19.17,4.43l-12.95,12.99c-1.12,1.18-2.63,1.53-3.78.37l-.84-.85c-1.19-1.19-.69-2.79.47-3.99Z"/>
      <path class="cls-2" d="M196.35,754.57l9.04-19.71c.77-1.74,3.92-2.42,5.66-1.6l1.09.41c1.92.91,3.48,4.26,2.66,6.19l-9.28,20.42c-.78,1.83-3.59,2.16-5.37,1.21l-1.66-.88c-1.83-.98-2.97-4.18-2.14-6.05Z"/>
    </g>
    <g>
      <g>
        <polygon class="cls-4" points="84.85 108.41 177.12 166.83 200.63 92.97 223.18 185.61 284.43 152.01 251.78 217.7 186.12 280.32 118.96 309.83 155.42 250.24 63.95 223.34 138.84 203.34 84.85 108.41"/>
        <polygon class="cls-3" points="84.85 108.41 177.12 166.83 200.63 92.97 223.18 185.61 284.43 152.01 251.78 217.7 223.2 244.96 247.99 187.97 216.19 205.67 200.97 139.3 188.55 192.7 131.3 157.11 164.14 215.99 110.21 225.86 175.79 244.2 156.6 275.13 218.12 249.8 186.12 280.32 118.96 309.83 155.42 250.24 63.95 223.34 138.84 203.34 84.85 108.41"/>
      </g>
      <g>
        <path class="cls-3" d="M804.72,844.77l6.42-6.15c5.48-5.25,4.24-15.42-2.77-22.6l-27.01-27.7-26.03,25.57,26.68,27.36c7,7.18,17.22,8.76,22.7,3.52Z"/>
        <path class="cls-5" d="M650.44,673.84c.6-.58,1.28-1.06,1.98-1.47l-.29.28c-5.48,5.25-4.24,15.42,2.77,22.6l135.23,138.67c6.23,6.39,15,8.33,20.72,4.99l-6.13,5.87c-5.48,5.25-15.7,3.67-22.7-3.52l-135.23-138.67c-7-7.18-8.25-17.35-2.77-22.6l6.42-6.15Z"/>
        <path class="cls-3" d="M203.09,327.09l466.01,487.34c41.96,41.96,87.07,24.22,112.44-1.16h0c25.38-25.38,46.35-67.25.22-113.39L295.36,234.82l-92.27,92.27Z"/>
        <path class="cls-5" d="M792.76,800.37c-3.48,4.66-7.3,8.98-11.22,12.9h0c-25.38,25.38-70.48,43.12-112.44,1.16L203.09,327.09l22.96-22.96,466.01,487.34c36.1,36.1,74.52,28.01,100.7,8.9Z"/>
      </g>
      <g>
        <path class="cls-3" d="M632.21,802.85l2.06,2.11c7.88,8.06,21.28,7.98,29.77-.17l113.1-108.57c8.49-8.15,8.99-21.41,1.11-29.47l-2.06-2.11c-7.88-8.06-21.28-7.98-29.77.17l-113.1,108.57c-8.49,8.15-8.99,21.41-1.11,29.47Z"/>
        <path class="cls-2" d="M633.32,773.39c-6.53,6.27-8.33,15.55-5.23,23.18l141.87-136.19c-7.59-3.32-17.01-1.82-23.54,4.44l-113.1,108.57Z"/>
        <path class="cls-5" d="M777.5,695.8c4.43,4.11,8.77,8.47,12.83,13.52l-115.2,110.7c-4.4-3.8-8.84-8.29-13.3-13.19l115.67-111.03Z"/>
      </g>
      <g>
        <path class="cls-3" d="M428.67,599.09l2.06,2.11c7.88,8.06,21.28,7.98,29.77-.17l113.1-108.57c8.49-8.15,8.99-21.41,1.11-29.47l-2.06-2.11c-7.88-8.06-21.28-7.98-29.77.17l-113.1,108.57c-8.49,8.15-8.99,21.41-1.11,29.47Z"/>
        <path class="cls-2" d="M429.74,569.59c-6.53,6.27-8.33,15.55-5.23,23.18l141.87-136.19c-7.59-3.32-17.01-1.82-23.54,4.44l-113.1,108.57Z"/>
        <polygon class="cls-5" points="569.26 496.66 582.62 509.49 475.27 612.5 462.28 599.32 569.26 496.66"/>
      </g>
      <g>
        <path class="cls-3" d="M244.14,398.33l2.07,2.11c7.89,8.05,20.5,8.75,28.02,1.57l100.19-95.66c7.52-7.18,7.22-19.64-.67-27.69l-2.07-2.11c-7.89-8.05-20.5-8.75-28.02-1.57l-100.19,95.66c-7.52,7.18-7.22,19.64.67,27.69Z"/>
        <path class="cls-2" d="M243.38,370.39c-5.78,5.52-6.93,14.15-3.56,21.51l125.56-119.87c-7.34-3.57-16.12-2.71-21.9,2.8l-100.09,95.56Z"/>
        <polygon class="cls-5" points="372.29 308.38 385.69 321.18 286.99 415.65 274.14 402.24 372.29 308.38"/>
      </g>
      <g>
        <path class="cls-3" d="M179.59,333.78l2.07,2.11c7.89,8.05,20.5,8.75,28.02,1.57l100.19-95.66c7.52-7.18,7.22-19.64-.67-27.69l-2.07-2.11c-7.89-8.05-20.5-8.75-28.02-1.57l-100.19,95.66c-7.52,7.18-7.22,19.64.67,27.69Z"/>
        <path class="cls-2" d="M179,306c-5.78,5.52-6.93,14.15-3.56,21.51l125.56-119.87c-7.34-3.57-16.12-2.71-21.9,2.8l-100.09,95.56Z"/>
        <polygon class="cls-5" points="306.2 245.18 319.59 257.98 224.38 349.36 211.41 335.8 306.2 245.18"/>
      </g>
      <path class="cls-2" d="M720.01,665.89l-135.72-132.61c-2.05-1.99-5.34-2.19-8.42.88-3.07,3.06-2.79,6.13-.56,8.36l134.17,134.15c2.12,2.12,5.52,2.12,7.65.01l2.91-2.91c2.19-2.17,2.18-5.73-.03-7.88Z"/>
      <path class="cls-2" d="M507.91,458.81l-115.36-112.24c-2.05-1.99-5.28-2.06-7.4-.14h0c-2.35,2.11-2.45,5.78-.22,8.01l113.8,113.78c2.12,2.12,5.52,2.12,7.65.01l1.55-1.54c2.19-2.17,2.18-5.73-.03-7.88Z"/>
      <path class="cls-2" d="M323.81,278.98l-6.66-6.02c-2.03-2.01-5.26-2.11-7.4-.22h0c-2.37,2.09-2.5,5.76-.3,8.01l6.63,6.27c2.09,2.14,4.92,2.77,7.07.69l1.57-1.52c2.21-2.15,1.28-5.03-.9-7.2Z"/>
      <path class="cls-2" d="M808.14,823.78l-12.97-12.85c-1.08-1.11-2.81-1.16-3.96-.11h0c-1.27,1.16-1.35,3.19-.17,4.43l12.95,12.99c1.12,1.18,2.63,1.53,3.78.37l.84-.85c1.19-1.19.69-2.79-.47-3.99Z"/>
      <path class="cls-2" d="M798.43,755.18l-9.04-19.71c-.77-1.74-3.92-2.42-5.66-1.6l-1.09.41c-1.92.91-3.48,4.26-2.66,6.19l9.28,20.42c.78,1.83,3.59,2.16,5.37,1.21l1.66-.88c1.83-.98,2.97-4.18,2.14-6.05Z"/>
    </g>
  </g>
</svg>