<?xml version="1.0" encoding="UTF-8"?>
<svg xmlns="http://www.w3.org/2000/svg" viewBox="0 0 1600 500" width="1600" height="500" role="img" aria-label="CannonadeCommand">
  <rect width="1600" height="500" fill="#ffffff"/>
  <g transform="translate(120,50) scale(0.402099)">

  <defs>
    <style>
      .cls-1 {
        fill: #fff;
      }

      .cls-2 {
        fill: #575756;
      }

      .cls-3 {
        fill: #353738;
      }

      .cls-4 {
        fill: #575756;
      }

      .cls-5 {
        fill: #242626;
      }
    </style>
  </defs>
  <g id="logo">
    <rect class="cls-1" x="40" y="40" width="914.78" height="914.78" rx="60.44" ry="60.44"/>
    <g>
      <path class="cls-3" d="M118.96,309.83l1.04-.46v-1.24l-1.04,1.7ZM118.96,309.83l1.04-.46v-1.24l-1.04,1.7ZM874.78,307.98v.54l.45.2-.45-.74ZM874.78,207.42v31.12l55.45-16.31-55.45-14.81ZM894.33,40H100.45c-33.39,0-60.45,27.06-60.45,60.45v116.26l53.55-32.33-35.43-106.84,100.57,42.46h2.05l43.75-71.67,30.01,71.67h524.72l30.47-72.78,44.17,72.36,102.2-43.15-35.42,106.84,54.14,32.69v-115.51c0-33.39-27.06-60.45-60.45-60.45ZM884.79,266.86l26.69,68.54-36.7-19.94v559.32H120V316.24l-37.3,20.27,26.7-68.53-69.4-40.93v667.28c0,33.39,27.06,60.45,60.45,60.45h793.88c33.39,0,60.45-27.06,60.45-60.45V225.59l-69.99,41.27ZM118.96,309.83l1.04-.46v-1.24l-1.04,1.7ZM118.96,309.83l1.04-.46v-1.24l-1.04,1.7Z"/>
      <path class="cls-1" d="M894.33,40c33.38,0,60.44,27.06,60.44,60.44v793.89c0,33.38-27.06,60.44-60.44,60.44H100.44c-33.38,0-60.44-27.06-60.44-60.44V100.44c0-33.38,27.06-60.44,60.44-60.44h793.89ZM894.33,0H100.44C45.06,0,0,45.06,0,100.44v793.89c0,55.39,45.06,100.44,100.44,100.44h793.89c55.39,0,100.44-45.06,100.44-100.44V100.44c0-55.39-45.06-100.44-100.44-100.44h0Z"/>
    </g>
    <g>
      <g>
        <polygon class="cls-4" points="909.93 107.8 817.66 166.22 794.15 92.36 771.6 185 710.35 151.4 743 217.09 808.66 279.71 875.82 309.22 839.36 249.63 930.83 222.73 855.94 202.73 909.93 107.8"/>
        <polygon class="cls-3" points="909.93 107.8 817.66 166.22 794.15 92.36 771.6 185 710.35 151.4 743 217.09 771.58 244.35 746.79 187.36 778.59 205.06 793.81 138.69 806.22 192.09 863.48 156.5 830.64 215.38 884.57 225.25 818.99 243.59 838.17 274.52 776.66 249.19 808.66 279.71 875.82 309.22 839.36 249.63 930.83 222.73 855.94 202.73 909.93 107.8"/>
      </g>
      <g>
        <path class="cls-3" d="M190.06,844.16l-6.42-6.15c-5.48-5.25-4.24-15.42,2.77-22.6l27.01-27.7,26.03,25.57-26.68,27.36c-7,7.18-17.22,8.76-22.7,3.52Z"/>
        <path class="cls-5" d="M344.34,673.23c-.6-.58-1.28-1.06-1.98-1.47l.29.28c5.48,5.25,4.24,15.42-2.77,22.6l-135.23,138.67c-6.23,6.39-15,8.33-20.72,4.99l6.13,5.87c5.48,5.25,15.7,3.67,22.7-3.52l135.23-138.67c7-7.18,8.25-17.35,2.77-22.6l-6.42-6.15Z"/>
        <path class="cls-3" d="M453.34,646.68l16.08,16.82-106.25,111.12h-.01l-8.94,9.36-21.17,22.13-.11.12-7.25,7.58c-1,1-2.01,1.96-3.01,2.9-.46.42-.92.84-1.38,1.25-.53.48-1.07.96-1.6,1.41-.02.02-.03.04-.05.05-16.27,14.03-32.85,19.55-48.42,19.55s-30.71-5.74-43.11-14.06c-3.09-2.07-6.03-4.3-8.79-6.65-2.14-1.8-4.17-3.68-6.09-5.6-2.04-2.04-4.06-4.2-6.01-6.45-.38-.43-.75-.86-1.11-1.29-.04-.05-.08-.09-.11-.13-.4-.48-.8-.96-1.2-1.45-.52-.64-1.04-1.29-1.55-1.95-.31-.39-.61-.79-.91-1.2-.11-.14-.21-.28-.31-.42-.01,0-.01-.01-.02-.01-.05-.06-.1-.13-.14-.2-9.28-12.49-16.13-27.47-16.13-44.08,0-14.54,5.24-30.31,18.7-46.76.32-.4.64-.79.97-1.17.23-.29.48-.58.73-.88,1.05-1.22,2.15-2.45,3.29-3.69,1.07-1.15,2.18-2.3,3.34-3.46.17-.18.33-.34.5-.5l3.97-3.79s-.01,0,0-.01l.03-.03,22.26-21.28,9.48-9.06,115.81-110.73,11.45,11.98,7.74,8.09c-.23,1.24-.42,2.48-.56,3.72-1.23,10.18.13,20.42,4,29.93.37.9.76,1.77,1.18,2.63,2.85,6.17,6.69,11.74,11.44,16.6l2.06,2.11c10.22,10.44,23.62,16.67,38.16,17.82,1.64.13,3.3.2,4.97.2,2.72,0,5.41-.18,8.07-.52Z"/>
        <path class="cls-3" d="M791.69,326.48l-8.32,8.7h0s-12.97,13.57-12.97,13.57l-19.58,20.47-.17.17-8.88,9.3-21.48,22.46-.07.08-12.84,13.42-79.31,82.94-8.99-8.59c.75-3.65,1.16-7.38,1.22-11.13.09-5.8-.63-11.48-2.11-16.91-2.64-9.69-7.7-18.58-14.89-25.93l-2.06-2.11c-4.81-4.91-10.38-8.91-16.59-11.92-.74-.38-1.5-.74-2.27-1.08-.79-.35-1.47-.61-1.96-.8-7.12-2.82-14.65-4.24-22.37-4.24-3.41-.01-6.78.27-10.09.82-1.54.25-3.06.56-4.57.93l-6.96-6.65-10.42-9.97,83.08-79.44,13.39-12.8h0l22.48-21.5,9.3-8.89.17-.16,20.75-19.85,13.33-12.74.06-.06,10.84-10.36,69.31,69.32,22.96,22.95Z"/>
        <path class="cls-5" d="M453.34,646.68l16.08,16.82-106.25,111.12h-.01l-8.94,9.36-21.17,22.13-.11.12-7.25,7.58c-1,1-2.01,1.96-3.01,2.9-.46.42-.92.84-1.38,1.25-.53.48-1.07.96-1.6,1.41-.02.02-.03.04-.05.05-16.27,14.03-32.85,19.55-48.42,19.55s-30.71-5.74-43.11-14.06c-3.09-2.07-6.03-4.3-8.79-6.65-2.14-1.8-4.17-3.68-6.09-5.6-2.04-2.04-4.06-4.2-6.01-6.45-.38-.43-.75-.86-1.11-1.29-.04-.05-.08-.09-.11-.13-.4-.48-.8-.96-1.2-1.45-.52-.64-1.04-1.29-1.55-1.95-.31-.39-.61-.79-.91-1.2-.11-.14-.22-.29-.33-.43.01,0,.01.01.02.01,6.99,5.1,14.85,9.41,23.31,12.31,3.97,1.36,8.07,2.41,12.28,3.07,18.36,2.94,38.68-1.33,58.57-18.26,2.18-1.85,4.36-3.86,6.53-6.03l6.76-7.07.04-.04,21.27-22.25,9.05-9.46,100.45-105.04c1.64.13,3.3.2,4.97.2,2.72,0,5.41-.18,8.07-.52Z"/>
        <path class="cls-5" d="M791.69,326.48l-8.32,8.7h0s-12.97,13.57-12.97,13.57l-19.58,20.47-.17.17-8.88,9.3-21.48,22.46-.07.08-12.84,13.42-79.31,82.94-8.99-8.59c.75-3.65,1.16-7.38,1.22-11.13.09-5.8-.63-11.48-2.11-16.91l65.74-68.75,12.83-13.41.05-.06,21.48-22.46,8.89-9.3.16-.17,19.64-20.54,12.91-13.5h.02s8.82-9.24,8.82-9.24l22.96,22.95Z"/>
      </g>
      <g>
        <path class="cls-3" d="M362.57,802.24l-2.06,2.11c-7.88,8.06-21.28,7.98-29.77-.17l-113.1-108.57c-8.49-8.15-8.99-21.41-1.11-29.47l2.06-2.11c7.88-8.06,21.28-7.98,29.77.17l113.1,108.57c8.49,8.15,8.99,21.41,1.11,29.47Z"/>
        <path class="cls-2" d="M361.46,772.78c6.53,6.27,8.33,15.55,5.23,23.18l-141.87-136.19c7.59-3.32,17.01-1.82,23.54,4.44l113.1,108.57Z"/>
        <path class="cls-5" d="M217.28,695.19c-4.43,4.11-8.77,8.47-12.83,13.52l115.2,110.7c4.4-3.8,8.84-8.29,13.3-13.19l-115.67-111.03Z"/>
      </g>
      <g>
        <path class="cls-3" d="M750.64,397.72l-2.07,2.11c-7.89,8.05-20.5,8.75-28.02,1.57l-100.19-95.66c-7.52-7.18-7.22-19.64.67-27.69l2.07-2.11c7.89-8.05,20.5-8.75,28.02-1.57l100.19,95.66c7.52,7.18,7.22,19.64-.67,27.69Z"/>
        <path class="cls-2" d="M751.4,369.78c5.78,5.52,6.93,14.15,3.56,21.51l-125.56-119.87c7.34-3.57,16.12-2.71,21.9,2.8l100.09,95.56Z"/>
        <polygon class="cls-5" points="622.48 307.77 609.09 320.57 707.79 415.04 720.64 401.63 622.48 307.77"/>
      </g>
      <g>
        <path class="cls-3" d="M815.19,333.17l-2.07,2.11c-7.89,8.05-20.5,8.75-28.02,1.57l-100.19-95.66c-7.52-7.18-7.22-19.64.67-27.69l2.07-2.11c7.89-8.05,20.5-8.75,28.02-1.57l100.19,95.66c7.52,7.18,7.22,19.64-.67,27.69Z"/>
        <path class="cls-2" d="M815.78,305.39c5.78,5.52,6.93,14.15,3.56,21.51l-125.56-119.87c7.34-3.57,16.12-2.71,21.9,2.8l100.09,95.56Z"/>
        <polygon class="cls-5" points="688.58 244.57 675.19 257.37 770.4 348.75 783.37 335.19 688.58 244.57"/>
      </g>
      <path class="cls-2" d="M384.02,574.19c-.23,1.24-.42,2.48-.56,3.72l-98.16,98.14c-2.11,2.11-5.52,2.12-7.65.01l-2.91-2.91c-2.19-2.16-2.18-5.73.03-7.87l101.51-99.18,7.74,8.09Z"/>
      <path class="cls-2" d="M611.46,349.93c0,1.41-.53,2.82-1.61,3.9l-61.89,61.87c-1.54.25-3.06.56-4.57.93l-6.96-6.65,65.8-64.02c2.05-1.99,5.27-2.06,7.4-.14,1.22,1.09,1.83,2.6,1.83,4.11Z"/>
      <path class="cls-2" d="M670.97,278.37l6.66-6.02c2.03-2.01,5.26-2.11,7.4-.22h0c2.37,2.09,2.5,5.76.3,8.01l-6.63,6.27c-2.09,2.14-4.92,2.77-7.07.69l-1.57-1.52c-2.21-2.15-1.28-5.03.9-7.2Z"/>
      <path class="cls-2" d="M186.64,823.17l12.97-12.85c1.08-1.11,2.81-1.16,3.96-.11h0c1.27,1.16,1.35,3.19.17,4.43l-12.95,12.99c-1.12,1.18-2.63,1.53-3.78.37l-.84-.85c-1.19-1.19-.69-2.79.47-3.99Z"/>
      <path class="cls-2" d="M196.35,754.57l9.04-19.71c.77-1.74,3.92-2.42,5.66-1.6l1.09.41c1.92.91,3.48,4.26,2.66,6.19l-9.28,20.42c-.78,1.83-3.59,2.16-5.37,1.21l-1.66-.88c-1.83-.98-2.97-4.18-2.14-6.05Z"/>
    </g>
    <g>
      <g>
        <polygon class="cls-4" points="84.85 108.41 177.12 166.83 200.63 92.97 223.18 185.61 284.43 152.01 251.78 217.7 186.12 280.32 118.96 309.83 155.42 250.24 63.95 223.34 138.84 203.34 84.85 108.41"/>
        <polygon class="cls-3" points="84.85 108.41 177.12 166.83 200.63 92.97 223.18 185.61 284.43 152.01 251.78 217.7 223.2 244.96 247.99 187.97 216.19 205.67 200.97 139.3 188.55 192.7 131.3 157.11 164.14 215.99 110.21 225.86 175.79 244.2 156.6 275.13 218.12 249.8 186.12 280.32 118.96 309.83 155.42 250.24 63.95 223.34 138.84 203.34 84.85 108.41"/>
      </g>
      <g>
        <path class="cls-3" d="M804.72,844.77l6.42-6.15c5.48-5.25,4.24-15.42-2.77-22.6l-27.01-27.7-26.03,25.57,26.68,27.36c7,7.18,17.22,8.76,22.7,3.52Z"/>
        <path class="cls-5" d="M650.44,673.84c.6-.58,1.28-1.06,1.98-1.47l-.29.28c-5.48,5.25-4.24,15.42,2.77,22.6l135.23,138.67c6.23,6.39,15,8.33,20.72,4.99l-6.13,5.87c-5.48,5.25-15.7,3.67-22.7-3.52l-135.23-138.67c-7-7.18-8.25-17.35-2.77-22.6l6.42-6.15Z"/>
        <path class="cls-3" d="M203.09,327.09l466.01,487.34c41.96,41.96,87.07,24.22,112.44-1.16h0c25.38-25.38,46.35-67.25.22-113.39L295.36,234.82l-92.27,92.27Z"/>
        <path class="cls-5" d="M792.76,800.37c-3.48,4.66-7.3,8.98-11.22,12.9h0c-25.38,25.38-70.48,43.12-112.44,1.16L203.09,327.09l22.96-22.96,466.01,487.34c36.1,36.1,74.52,28.01,100.7,8.9Z"/>
      </g>
      <g>
        <path class="cls-3" d="M632.21,802.85l2.06,2.11c7.88,8.06,21.28,7.98,29.77-.17l113.1-108.57c8.49-8.15,8.99-21.41,1.11-29.47l-2.06-2.11c-7.88-8.06-21.28-7.98-29.77.17l-113.1,108.57c-8.49,8.15-8.99,21.41-1.11,29.47Z"/>
        <path class="cls-2" d="M633.32,773.39c-6.53,6.27-8.33,15.55-5.23,23.18l141.87-136.19c-7.59-3.32-17.01-1.82-23.54,4.44l-113.1,108.57Z"/>
        <path class="cls-5" d="M777.5,695.8c4.43,4.11,8.77,8.47,12.83,13.52l-115.2,110.7c-4.4-3.8-8.84-8.29-13.3-13.19l115.67-111.03Z"/>
      </g>
      <g>
        <path class="cls-3" d="M428.67,599.09l2.06,2.11c7.88,8.06,21.28,7.98,29.77-.17l113.1-108.57c8.49-8.15,8.99-21.41,1.11-29.47l-2.06-2.11c-7.88-8.06-21.28-7.98-29.77.17l-113.1,108.57c-8.49,8.15-8.99,21.41-1.11,29.47Z"/>
        <path class="cls-2" d="M429.74,569.59c-6.53,6.27-8.33,15.55-5.23,23.18l141.87-136.19c-7.59-3.32-17.01-1.82-23.54,4.44l-113.1,108.57Z"/>
        <polygon class="cls-5" points="569.26 496.66 582.62 509.49 475.27 612.5 462.28 599.32 569.26 496.66"/>
      </g>
      <g>
        <path class="cls-3" d="M244.14,398.33l2.07,2.11c7.89,8.05,20.5,8.75,28.02,1.57l100.19-95.66c7.52-7.18,7.22-19.64-.67-27.69l-2.07-2.11c-7.89-8.05-20.5-8.75-28.02-1.57l-100.19,95.66c-7.52,7.18-7.22,19.64.67,27.69Z"/>
        <path class="cls-2" d="M243.38,370.39c-5.78,5.52-6.93,14.15-3.56,21.51l125.56-119.87c-7.34-3.57-16.12-2.71-21.9,2.8l-100.09,95.56Z"/>
        <polygon class="cls-5" points="372.29 308.38 385.69 321.18 286.99 415.65 274.14 402.24 372.29 308.38"/>
      </g>
      <g>
        <path class="cls-3" d="M179.59,333.78l2.07,2.11c7.89,8.05,20.5,8.75,28.02,1.57l100.19-95.66c7.52-7.18,7.22-19.64-.67-27.69l-2.07-2.11c-7.89-8.05-20.5-8.75-28.02-1.57l-100.19,95.66c-7.52,7.18-7.22,19.64.67,27.69Z"/>
        <path class="cls-2" d="M179,306c-5.78,5.52-6.93,14.15-3.56,21.51l125.56-119.87c-7.34-3.57-16.12-2.71-21.9,2.8l-100.09,95.56Z"/>
        <polygon class="cls-5" points="306.2 245.18 319.59 257.98 224.38 349.36 211.41 335.8 306.2 245.18"/>
      </g>
      <path class="cls-2" d="M720.01,665.89l-135.72-132.61c-2.05-1.99-5.34-2.19-8.42.88-3.07,3.06-2.79,6.13-.56,8.36l134.17,134.15c2.12,2.12,5.52,2.12,7.65.01l2.91-2.91c2.19-2.17,2.18-5.73-.03-7.88Z"/>
      <path class="cls-2" d="M507.91,458.81l-115.36-112.24c-2.05-1.99-5.28-2.06-7.4-.14h0c-2.35,2.11-2.45,5.78-.22,8.01l113.8,113.78c2.12,2.12,5.52,2.12,7.65.01l1.55-1.54c2.19-2.17,2.18-5.73-.03-7.88Z"/>
      <path class="cls-2" d="M323.81,278.98l-6.66-6.02c-2.03-2.01-5.26-2.11-7.4-.22h0c-2.37,2.09-2.5,5.76-.3,8.01l6.63,6.27c2.09,2.14,4.92,2.77,7.07.69l1.57-1.52c2.21-2.15,1.28-5.03-.9-7.2Z"/>
      <path class="cls-2" d="M808.14,823.78l-12.97-12.85c-1.08-1.11-2.81-1.16-3.96-.11h0c-1.27,1.16-1.35,3.19-.17,4.43l12.95,12.99c1.12,1.18,2.63,1.53,3.78.37l.84-.85c1.19-1.19.69-2.79-.47-3.99Z"/>
      <path class="cls-2" d="M798.43,755.18l-9.04-19.71c-.77-1.74-3.92-2.42-5.66-1.6l-1.09.41c-1.92.91-3.48,4.26-2.66,6.19l9.28,20.42c.78,1.83,3.59,2.16,5.37,1.21l1.66-.88c1.83-.98,2.97-4.18,2.14-6.05Z"/>
    </g>
  </g>

  </g>
  <path d="M630.11 203.57Q629.10 201.82 622.57 201.82Q614.01 201.82 609.60 207.62Q605.18 213.42 605.18 224.36Q605.18 247.09 622.20 247.09Q622.48 247.09 624.64 247.09Q626.80 247.09 628.73 246.49Q630.66 245.89 631.03 245.25Q631.40 244.60 631.40 243.22L631.40 235.86L640.78 236.51L640.78 252.42Q633.61 256.20 622.57 256.20Q608.49 256.20 601.09 248.28Q593.68 240.37 593.68 224.73Q593.68 216.08 596.16 209.64Q598.65 203.20 602.88 199.62Q611.16 192.72 622.57 192.72Q631.77 192.72 639.86 196.49L639.86 212.13L630.48 212.77L630.48 205.60Q630.48 204.22 630.11 203.57M689.73 210.56L689.73 244.79Q689.73 246.26 690.23 246.81Q690.74 247.36 692.03 247.46L694.97 247.64L694.97 255L680.34 255L680.34 249.66L680.07 249.57Q675.47 256.20 667.46 256.20Q658.08 256.20 653.57 250.22Q649.06 244.24 649.06 233.84Q649.06 221.33 655.14 214.34Q661.21 207.34 673.35 207.34Q681.17 207.34 689.73 210.56M679.06 240.37L679.06 216.54Q676.48 215.35 671.97 215.35Q665.81 215.35 663.05 220.32Q660.29 225.28 660.29 233.47Q660.29 248.38 669.86 248.38Q673.90 248.38 676.48 245.94Q679.06 243.50 679.06 240.37M703.90 216.36L700.03 216.08L700.03 208.72L715.58 208.72L715.58 214.70Q717.97 211.30 721.93 209.32Q725.88 207.34 730.48 207.34Q737.48 207.34 741.29 211.35Q745.11 215.35 745.11 223.35L745.11 247.36L750.36 247.64L750.36 255L728.46 255L728.46 248.01L731.50 247.73Q732.88 247.55 733.52 246.95Q734.16 246.35 734.16 244.70L734.16 225.74Q734.16 220.68 732.60 218.25Q731.04 215.81 726.67 215.81Q722.30 215.81 719.72 218.57Q717.14 221.33 717.14 225.10L717.14 247.36L722.39 247.64L722.39 255L700.49 255L700.49 248.01L703.53 247.73Q704.91 247.55 705.55 246.95Q706.20 246.35 706.20 244.70L706.20 219.21Q706.20 216.45 703.90 216.36M759.10 216.36L755.23 216.08L755.23 208.72L770.78 208.72L770.78 214.70Q773.17 211.30 777.13 209.32Q781.08 207.34 785.68 207.34Q792.68 207.34 796.49 211.35Q800.31 215.35 800.31 223.35L800.31 247.36L805.56 247.64L805.56 255L783.66 255L783.66 248.01L786.70 247.73Q788.08 247.55 788.72 246.95Q789.36 246.35 789.36 244.70L789.36 225.74Q789.36 220.68 787.80 218.25Q786.24 215.81 781.87 215.81Q777.50 215.81 774.92 218.57Q772.34 221.33 772.34 225.10L772.34 247.36L777.59 247.64L777.59 255L755.69 255L755.69 248.01L758.73 247.73Q760.11 247.55 760.75 246.95Q761.40 246.35 761.40 244.70L761.40 219.21Q761.40 216.45 759.10 216.36M831.22 248.28Q841.25 248.28 841.25 232.09Q841.25 223.90 839 219.67Q836.74 215.44 831.45 215.44Q826.16 215.44 823.68 219.49Q821.20 223.54 821.20 230.53Q821.20 243.50 825.98 246.81Q828.10 248.28 831.22 248.28M810.06 231.82Q810.06 225.01 812.09 219.99Q814.11 214.98 817.52 212.31Q824.05 207.34 831.96 207.34Q837.48 207.34 841.30 209.14Q845.12 210.93 847.28 213.28Q849.44 215.62 850.96 220.09Q852.48 224.55 852.48 230.62Q852.48 243.32 846.31 249.85Q840.15 256.38 830.53 256.38Q820.92 256.38 815.49 250.17Q810.06 243.96 810.06 231.82M861.95 216.36L858.09 216.08L858.09 208.72L873.64 208.72L873.64 214.70Q876.03 211.30 879.98 209.32Q883.94 207.34 888.54 207.34Q895.53 207.34 899.35 211.35Q903.17 215.35 903.17 223.35L903.17 247.36L908.41 247.64L908.41 255L886.52 255L886.52 248.01L889.55 247.73Q890.93 247.55 891.58 246.95Q892.22 246.35 892.22 244.70L892.22 225.74Q892.22 220.68 890.66 218.25Q889.09 215.81 884.72 215.81Q880.35 215.81 877.78 218.57Q875.20 221.33 875.20 225.10L875.20 247.36L880.44 247.64L880.44 255L858.55 255L858.55 248.01L861.58 247.73Q862.96 247.55 863.61 246.95Q864.25 246.35 864.25 244.70L864.25 219.21Q864.25 216.45 861.95 216.36M955.15 210.56L955.15 244.79Q955.15 246.26 955.65 246.81Q956.16 247.36 957.45 247.46L960.39 247.64L960.39 255L945.76 255L945.76 249.66L945.49 249.57Q940.89 256.20 932.88 256.20Q923.50 256.20 918.99 250.22Q914.48 244.24 914.48 233.84Q914.48 221.33 920.56 214.34Q926.63 207.34 938.77 207.34Q946.59 207.34 955.15 210.56M944.48 240.37L944.48 216.54Q941.90 215.35 937.39 215.35Q931.23 215.35 928.47 220.32Q925.71 225.28 925.71 233.47Q925.71 248.38 935.28 248.38Q939.32 248.38 941.90 245.94Q944.48 243.50 944.48 240.37M989.10 207.34Q993.05 207.34 996.64 208.45L996.64 199.16Q996.64 197.13 994.25 196.95L990.29 196.67L990.29 189.40L1007.40 189.40L1007.40 245.34Q1007.50 247.46 1009.70 247.46L1012.92 247.64L1012.92 255L998.02 255L998.02 249.57L997.74 249.48Q993.60 256.20 985.23 256.20Q974.74 256.20 970.51 249.20Q966.65 242.86 966.65 233.66Q966.65 221.70 972.58 214.52Q978.52 207.34 989.10 207.34M996.64 240.65L996.64 216.82Q993.33 215.35 989.65 215.35Q983.58 215.35 980.77 220.22Q977.96 225.10 977.96 232.64Q977.96 248.10 987.90 248.10Q991.67 248.10 994.16 245.94Q996.64 243.78 996.64 240.65M1041.35 207.34Q1048.25 207.34 1052.30 210.70Q1056.35 214.06 1056.35 220.13Q1056.35 224.18 1054.60 227.26Q1052.85 230.34 1050.28 232.09Q1047.70 233.84 1044.02 234.94Q1037.86 236.78 1030.13 236.78Q1030.40 241.66 1033.16 244.65Q1035.92 247.64 1041.63 247.64Q1047.33 247.64 1053.04 243.59L1056.53 251.04Q1054.69 252.70 1050.32 254.45Q1045.95 256.20 1040.34 256.20Q1029.12 256.20 1023.87 249.99Q1018.63 243.78 1018.63 232.92Q1018.63 222.06 1024.61 214.70Q1030.59 207.34 1041.35 207.34M1037.17 228.37Q1040.52 227.77 1043.38 225.70Q1046.23 223.63 1046.23 220.78Q1046.23 215.16 1040.71 215.16Q1035.56 215.16 1032.80 219.26Q1030.04 223.35 1029.76 229.06Q1033.81 228.96 1037.17 228.37" fill="#242626"/>
  <path d="M1099.86 203.57Q1098.85 201.82 1092.32 201.82Q1083.76 201.82 1079.35 207.62Q1074.93 213.42 1074.93 224.36Q1074.93 247.09 1091.95 247.09Q1092.23 247.09 1094.39 247.09Q1096.55 247.09 1098.48 246.49Q1100.42 245.89 1100.78 245.25Q1101.15 244.60 1101.15 243.22L1101.15 235.86L1110.54 236.51L1110.54 252.42Q1103.36 256.20 1092.32 256.20Q1078.24 256.20 1070.84 248.28Q1063.43 240.37 1063.43 224.73Q1063.43 216.08 1065.92 209.64Q1068.40 203.20 1072.63 199.62Q1080.91 192.72 1092.32 192.72Q1101.52 192.72 1109.62 196.49L1109.62 212.13L1100.23 212.77L1100.23 205.60Q1100.23 204.22 1099.86 203.57M1139.33 248.28Q1149.36 248.28 1149.36 232.09Q1149.36 223.90 1147.11 219.67Q1144.85 215.44 1139.56 215.44Q1134.27 215.44 1131.79 219.49Q1129.30 223.54 1129.30 230.53Q1129.30 243.50 1134.09 246.81Q1136.20 248.28 1139.33 248.28M1118.17 231.82Q1118.17 225.01 1120.20 219.99Q1122.22 214.98 1125.62 212.31Q1132.16 207.34 1140.07 207.34Q1145.59 207.34 1149.41 209.14Q1153.22 210.93 1155.39 213.28Q1157.55 215.62 1159.07 220.09Q1160.58 224.55 1160.58 230.62Q1160.58 243.32 1154.42 249.85Q1148.26 256.38 1138.64 256.38Q1129.03 256.38 1123.60 250.17Q1118.17 243.96 1118.17 231.82M1170.06 216.45L1166.20 216.18L1166.20 208.72L1181.74 208.72L1181.74 214.70Q1186.90 207.34 1195.87 207.34Q1204.84 207.34 1207.96 214.70Q1213.12 207.34 1221.95 207.34Q1228.57 207.34 1232.16 211.35Q1235.75 215.35 1235.75 223.35L1235.75 247.36L1240.99 247.64L1240.99 255L1219.10 255L1219.10 248.01L1222.13 247.73Q1223.51 247.55 1224.11 246.95Q1224.71 246.35 1224.80 244.79L1224.80 225.74Q1224.80 220.68 1223.65 218.25Q1222.50 215.81 1218.27 215.81Q1214.04 215.81 1211.78 218.38Q1209.53 220.96 1209.53 225.28L1209.53 247.36L1214.59 247.64L1214.59 255L1192.88 255L1192.88 248.01L1195.91 247.73Q1197.29 247.55 1197.94 246.95Q1198.58 246.35 1198.58 244.70L1198.58 225.74Q1198.58 220.68 1197.43 218.25Q1196.28 215.81 1192 215.81Q1187.72 215.81 1185.52 218.48Q1183.31 221.14 1183.31 225.10L1183.31 247.36L1188.28 247.64L1188.28 255L1166.56 255L1166.56 248.01L1169.60 247.73Q1170.98 247.55 1171.62 246.95Q1172.27 246.35 1172.27 244.70L1172.36 244.70L1172.36 219.30Q1172.36 217.74 1171.85 217.14Q1171.35 216.54 1170.06 216.45M1249.73 216.45L1245.87 216.18L1245.87 208.72L1261.42 208.72L1261.42 214.70Q1266.57 207.34 1275.54 207.34Q1284.51 207.34 1287.64 214.70Q1292.79 207.34 1301.62 207.34Q1308.24 207.34 1311.83 211.35Q1315.42 215.35 1315.42 223.35L1315.42 247.36L1320.66 247.64L1320.66 255L1298.77 255L1298.77 248.01L1301.80 247.73Q1303.18 247.55 1303.78 246.95Q1304.38 246.35 1304.47 244.79L1304.47 225.74Q1304.47 220.68 1303.32 218.25Q1302.17 215.81 1297.94 215.81Q1293.71 215.81 1291.45 218.38Q1289.20 220.96 1289.20 225.28L1289.20 247.36L1294.26 247.64L1294.26 255L1272.55 255L1272.55 248.01L1275.58 247.73Q1276.96 247.55 1277.61 246.95Q1278.25 246.35 1278.25 244.70L1278.25 225.74Q1278.25 220.68 1277.10 218.25Q1275.95 215.81 1271.67 215.81Q1267.40 215.81 1265.19 218.48Q1262.98 221.14 1262.98 225.10L1262.98 247.36L1267.95 247.64L1267.95 255L1246.24 255L1246.24 248.01L1249.27 247.73Q1250.65 247.55 1251.30 246.95Q1251.94 246.35 1251.94 244.70L1252.03 244.70L1252.03 219.30Q1252.03 217.74 1251.53 217.14Q1251.02 216.54 1249.73 216.45M1367.40 210.56L1367.40 244.79Q1367.40 246.26 1367.91 246.81Q1368.41 247.36 1369.70 247.46L1372.64 247.64L1372.64 255L1358.02 255L1358.02 249.66L1357.74 249.57Q1353.14 256.20 1345.14 256.20Q1335.75 256.20 1331.24 250.22Q1326.74 244.24 1326.74 233.84Q1326.74 221.33 1332.81 214.34Q1338.88 207.34 1351.02 207.34Q1358.84 207.34 1367.40 210.56M1356.73 240.37L1356.73 216.54Q1354.15 215.35 1349.64 215.35Q1343.48 215.35 1340.72 220.32Q1337.96 225.28 1337.96 233.47Q1337.96 248.38 1347.53 248.38Q1351.58 248.38 1354.15 245.94Q1356.73 243.50 1356.73 240.37M1381.57 216.36L1377.70 216.08L1377.70 208.72L1393.25 208.72L1393.25 214.70Q1395.64 211.30 1399.60 209.32Q1403.56 207.34 1408.16 207.34Q1415.15 207.34 1418.97 211.35Q1422.78 215.35 1422.78 223.35L1422.78 247.36L1428.03 247.64L1428.03 255L1406.13 255L1406.13 248.01L1409.17 247.73Q1410.55 247.55 1411.19 246.95Q1411.84 246.35 1411.84 244.70L1411.84 225.74Q1411.84 220.68 1410.27 218.25Q1408.71 215.81 1404.34 215.81Q1399.97 215.81 1397.39 218.57Q1394.82 221.33 1394.82 225.10L1394.82 247.36L1400.06 247.64L1400.06 255L1378.16 255L1378.16 248.01L1381.20 247.73Q1382.58 247.55 1383.22 246.95Q1383.87 246.35 1383.87 244.70L1383.87 219.21Q1383.87 216.45 1381.57 216.36M1456.55 207.34Q1460.50 207.34 1464.09 208.45L1464.09 199.16Q1464.09 197.13 1461.70 196.95L1457.74 196.67L1457.74 189.40L1474.86 189.40L1474.86 245.34Q1474.95 247.46 1477.16 247.46L1480.38 247.64L1480.38 255L1465.47 255L1465.47 249.57L1465.20 249.48Q1461.06 256.20 1452.68 256.20Q1442.20 256.20 1437.96 249.20Q1434.10 242.86 1434.10 233.66Q1434.10 221.70 1440.03 214.52Q1445.97 207.34 1456.55 207.34M1464.09 240.65L1464.09 216.82Q1460.78 215.35 1457.10 215.35Q1451.03 215.35 1448.22 220.22Q1445.42 225.10 1445.42 232.64Q1445.42 248.10 1455.35 248.10Q1459.12 248.10 1461.61 245.94Q1464.09 243.78 1464.09 240.65" fill="#575756"/>
  <path d="M607.96 311.14L607.28 312.47Q607.15 312.69 607 312.80Q606.85 312.90 606.63 312.90Q606.38 312.90 606.05 312.66Q605.72 312.41 605.22 312.11Q604.72 311.82 604.01 311.57Q603.31 311.32 602.31 311.32Q601.37 311.32 600.65 311.58Q599.93 311.83 599.44 312.27Q598.96 312.70 598.71 313.29Q598.47 313.88 598.47 314.56Q598.47 315.43 598.89 316Q599.32 316.57 600.02 316.98Q600.73 317.38 601.62 317.68Q602.51 317.98 603.45 318.30Q604.38 318.62 605.27 319.02Q606.17 319.42 606.87 320.02Q607.57 320.63 608 321.52Q608.43 322.40 608.43 323.69Q608.43 325.06 607.96 326.25Q607.50 327.45 606.61 328.33Q605.72 329.22 604.42 329.72Q603.12 330.23 601.47 330.23Q599.44 330.23 597.78 329.50Q596.13 328.77 594.96 327.52L595.77 326.19Q595.88 326.03 596.05 325.92Q596.22 325.81 596.42 325.81Q596.61 325.81 596.85 325.96Q597.09 326.11 597.39 326.35Q597.70 326.58 598.09 326.85Q598.48 327.13 598.98 327.36Q599.48 327.59 600.12 327.75Q600.76 327.90 601.55 327.90Q602.55 327.90 603.34 327.62Q604.12 327.35 604.66 326.85Q605.21 326.35 605.50 325.65Q605.79 324.95 605.79 324.10Q605.79 323.16 605.36 322.55Q604.93 321.95 604.24 321.55Q603.54 321.14 602.64 320.86Q601.74 320.57 600.82 320.28Q599.89 319.98 598.99 319.59Q598.09 319.20 597.39 318.57Q596.70 317.95 596.27 317.02Q595.84 316.08 595.84 314.70Q595.84 313.60 596.27 312.57Q596.70 311.54 597.52 310.74Q598.34 309.95 599.53 309.47Q600.73 308.99 602.28 308.99Q604.02 308.99 605.45 309.54Q606.88 310.09 607.96 311.14M614.37 308.64L614.37 317.27Q615.31 316.27 616.46 315.67Q617.61 315.08 619.10 315.08Q620.30 315.08 621.22 315.48Q622.14 315.88 622.76 316.61Q623.38 317.34 623.70 318.37Q624.01 319.40 624.01 320.65L624.01 330L621.42 330L621.42 320.65Q621.42 318.98 620.66 318.06Q619.90 317.14 618.35 317.14Q617.20 317.14 616.21 317.69Q615.21 318.24 614.37 319.18L614.37 330L611.78 330L611.78 308.64L614.37 308.64M634.15 315.08Q635.76 315.08 637.05 315.62Q638.34 316.15 639.25 317.14Q640.17 318.12 640.65 319.52Q641.14 320.92 641.14 322.65Q641.14 324.39 640.65 325.78Q640.17 327.17 639.25 328.16Q638.34 329.14 637.05 329.67Q635.76 330.20 634.15 330.20Q632.53 330.20 631.23 329.67Q629.93 329.14 629.02 328.16Q628.10 327.17 627.62 325.78Q627.13 324.39 627.13 322.65Q627.13 320.92 627.62 319.52Q628.10 318.12 629.02 317.14Q629.93 316.15 631.23 315.62Q632.53 315.08 634.15 315.08M634.15 328.19Q636.33 328.19 637.40 326.73Q638.47 325.27 638.47 322.66Q638.47 320.04 637.40 318.57Q636.33 317.11 634.15 317.11Q633.05 317.11 632.23 317.49Q631.41 317.86 630.87 318.57Q630.32 319.28 630.05 320.32Q629.79 321.36 629.79 322.66Q629.79 325.27 630.87 326.73Q631.95 328.19 634.15 328.19M650.59 315.08Q652.20 315.08 653.49 315.62Q654.78 316.15 655.70 317.14Q656.61 318.12 657.10 319.52Q657.58 320.92 657.58 322.65Q657.58 324.39 657.10 325.78Q656.61 327.17 655.70 328.16Q654.78 329.14 653.49 329.67Q652.20 330.20 650.59 330.20Q648.97 330.20 647.67 329.67Q646.37 329.14 645.46 328.16Q644.55 327.17 644.06 325.78Q643.58 324.39 643.58 322.65Q643.58 320.92 644.06 319.52Q644.55 318.12 645.46 317.14Q646.37 316.15 647.67 315.62Q648.97 315.08 650.59 315.08M650.59 328.19Q652.77 328.19 653.84 326.73Q654.91 325.27 654.91 322.66Q654.91 320.04 653.84 318.57Q652.77 317.11 650.59 317.11Q649.49 317.11 648.67 317.49Q647.85 317.86 647.31 318.57Q646.77 319.28 646.50 320.32Q646.23 321.36 646.23 322.66Q646.23 325.27 647.31 326.73Q648.39 328.19 650.59 328.19M665.35 330.23Q663.61 330.23 662.68 329.26Q661.74 328.29 661.74 326.46L661.74 317.47L659.97 317.47Q659.74 317.47 659.58 317.33Q659.42 317.20 659.42 316.91L659.42 315.88L661.83 315.57L662.43 311.03Q662.47 310.82 662.62 310.68Q662.77 310.54 663.02 310.54L664.32 310.54L664.32 315.60L668.57 315.60L668.57 317.47L664.32 317.47L664.32 326.29Q664.32 327.22 664.77 327.67Q665.22 328.12 665.93 328.12Q666.34 328.12 666.64 328.01Q666.93 327.90 667.15 327.77Q667.37 327.64 667.52 327.53Q667.67 327.42 667.79 327.42Q667.99 327.42 668.15 327.67L668.91 328.90Q668.24 329.52 667.30 329.88Q666.35 330.23 665.35 330.23M680.38 316.79L679.80 317.73Q679.62 318.05 679.26 318.05Q679.04 318.05 678.77 317.89Q678.49 317.73 678.09 317.54Q677.69 317.34 677.14 317.17Q676.59 317.01 675.84 317.01Q675.19 317.01 674.66 317.17Q674.14 317.34 673.77 317.63Q673.40 317.92 673.21 318.31Q673.01 318.69 673.01 319.14Q673.01 319.70 673.34 320.08Q673.66 320.46 674.20 320.73Q674.74 321.01 675.42 321.22Q676.10 321.43 676.82 321.67Q677.53 321.91 678.22 322.20Q678.90 322.49 679.43 322.92Q679.97 323.36 680.30 323.99Q680.62 324.62 680.62 325.50Q680.62 326.52 680.26 327.38Q679.90 328.25 679.19 328.88Q678.48 329.51 677.45 329.87Q676.42 330.23 675.07 330.23Q673.53 330.23 672.29 329.73Q671.04 329.23 670.17 328.45L670.78 327.46Q670.89 327.27 671.05 327.17Q671.21 327.07 671.46 327.07Q671.72 327.07 672.01 327.27Q672.30 327.48 672.71 327.72Q673.13 327.97 673.72 328.17Q674.32 328.38 675.20 328.38Q675.95 328.38 676.52 328.18Q677.08 327.98 677.46 327.65Q677.84 327.32 678.02 326.88Q678.20 326.45 678.20 325.95Q678.20 325.35 677.88 324.95Q677.55 324.55 677.01 324.27Q676.48 323.98 675.79 323.77Q675.10 323.56 674.38 323.33Q673.66 323.10 672.97 322.80Q672.29 322.50 671.75 322.05Q671.21 321.60 670.89 320.94Q670.56 320.29 670.56 319.34Q670.56 318.50 670.91 317.73Q671.26 316.95 671.92 316.36Q672.59 315.78 673.56 315.43Q674.53 315.08 675.78 315.08Q677.23 315.08 678.38 315.54Q679.54 315.99 680.38 316.79M701.85 315.31L703.90 315.31L695.70 334.34Q695.57 334.63 695.38 334.80Q695.18 334.97 694.77 334.97L692.86 334.97L695.54 329.14L689.48 315.31L691.72 315.31Q692.05 315.31 692.24 315.48Q692.44 315.64 692.51 315.85L696.44 325.10Q696.67 325.71 696.83 326.38Q697.04 325.69 697.27 325.08L701.08 315.85Q701.17 315.62 701.38 315.46Q701.59 315.31 701.85 315.31M712.36 315.08Q713.97 315.08 715.26 315.62Q716.55 316.15 717.47 317.14Q718.38 318.12 718.87 319.52Q719.35 320.92 719.35 322.65Q719.35 324.39 718.87 325.78Q718.38 327.17 717.47 328.16Q716.55 329.14 715.26 329.67Q713.97 330.20 712.36 330.20Q710.74 330.20 709.44 329.67Q708.14 329.14 707.23 328.16Q706.32 327.17 705.83 325.78Q705.35 324.39 705.35 322.65Q705.35 320.92 705.83 319.52Q706.32 318.12 707.23 317.14Q708.14 316.15 709.44 315.62Q710.74 315.08 712.36 315.08M712.36 328.19Q714.54 328.19 715.61 326.73Q716.68 325.27 716.68 322.66Q716.68 320.04 715.61 318.57Q714.54 317.11 712.36 317.11Q711.26 317.11 710.44 317.49Q709.62 317.86 709.08 318.57Q708.54 319.28 708.27 320.32Q708 321.36 708 322.66Q708 325.27 709.08 326.73Q710.16 328.19 712.36 328.19M732.11 315.31L734.69 315.31L734.69 330L733.16 330Q732.61 330 732.46 329.46L732.26 327.88Q731.30 328.94 730.11 329.59Q728.92 330.23 727.39 330.23Q726.18 330.23 725.26 329.83Q724.34 329.43 723.72 328.71Q723.09 327.98 722.78 326.95Q722.47 325.93 722.47 324.68L722.47 315.31L725.05 315.31L725.05 324.68Q725.05 326.35 725.81 327.26Q726.57 328.17 728.14 328.17Q729.28 328.17 730.28 327.63Q731.27 327.09 732.11 326.13L732.11 315.31M741.06 316.02L741.23 318.25Q741.93 316.75 742.94 315.90Q743.96 315.05 745.42 315.05Q745.89 315.05 746.32 315.15Q746.74 315.25 747.08 315.47L746.89 317.40Q746.80 317.76 746.45 317.76Q746.25 317.76 745.86 317.68Q745.47 317.59 744.97 317.59Q744.28 317.59 743.73 317.79Q743.19 317.99 742.76 318.39Q742.33 318.79 741.99 319.38Q741.65 319.97 741.38 320.72L741.38 330L738.78 330L738.78 315.31L740.26 315.31Q740.68 315.31 740.84 315.47Q741 315.63 741.06 316.02M767.67 316.99L766.98 317.92Q766.87 318.08 766.75 318.17Q766.64 318.25 766.43 318.25Q766.22 318.25 765.96 318.07Q765.69 317.89 765.31 317.68Q764.93 317.46 764.37 317.28Q763.81 317.10 763 317.10Q761.91 317.10 761.08 317.48Q760.26 317.86 759.70 318.59Q759.14 319.31 758.86 320.34Q758.57 321.37 758.57 322.65Q758.57 323.98 758.88 325.02Q759.18 326.06 759.74 326.76Q760.30 327.46 761.09 327.83Q761.88 328.20 762.87 328.20Q763.81 328.20 764.42 327.98Q765.03 327.75 765.43 327.48Q765.82 327.20 766.09 326.98Q766.36 326.75 766.62 326.75Q766.94 326.75 767.12 327L767.84 327.94Q767.36 328.54 766.75 328.96Q766.14 329.38 765.44 329.66Q764.74 329.94 763.97 330.07Q763.20 330.20 762.40 330.20Q761.03 330.20 759.84 329.70Q758.66 329.19 757.79 328.22Q756.92 327.26 756.43 325.85Q755.94 324.45 755.94 322.65Q755.94 321.01 756.39 319.62Q756.85 318.23 757.73 317.22Q758.60 316.21 759.89 315.64Q761.17 315.08 762.84 315.08Q764.39 315.08 765.57 315.58Q766.75 316.08 767.67 316.99M776.80 315.08Q778.41 315.08 779.70 315.62Q780.99 316.15 781.91 317.14Q782.82 318.12 783.30 319.52Q783.79 320.92 783.79 322.65Q783.79 324.39 783.30 325.78Q782.82 327.17 781.91 328.16Q780.99 329.14 779.70 329.67Q778.41 330.20 776.80 330.20Q775.18 330.20 773.88 329.67Q772.58 329.14 771.67 328.16Q770.75 327.17 770.27 325.78Q769.78 324.39 769.78 322.65Q769.78 320.92 770.27 319.52Q770.75 318.12 771.67 317.14Q772.58 316.15 773.88 315.62Q775.18 315.08 776.80 315.08M776.80 328.19Q778.98 328.19 780.05 326.73Q781.12 325.27 781.12 322.66Q781.12 320.04 780.05 318.57Q778.98 317.11 776.80 317.11Q775.70 317.11 774.88 317.49Q774.06 317.86 773.52 318.57Q772.97 319.28 772.71 320.32Q772.44 321.36 772.44 322.66Q772.44 325.27 773.52 326.73Q774.60 328.19 776.80 328.19M789.65 330L787.05 330L787.05 315.31L788.60 315.31Q789.16 315.31 789.29 315.85L789.47 317.36Q790.29 316.36 791.30 315.72Q792.32 315.08 793.65 315.08Q795.13 315.08 796.05 315.91Q796.97 316.73 797.38 318.14Q797.70 317.34 798.20 316.76Q798.70 316.18 799.32 315.80Q799.94 315.43 800.65 315.25Q801.35 315.08 802.07 315.08Q803.23 315.08 804.14 315.45Q805.05 315.82 805.68 316.53Q806.31 317.24 806.64 318.28Q806.98 319.31 806.98 320.65L806.98 330L804.38 330L804.38 320.65Q804.38 318.92 803.63 318.03Q802.87 317.14 801.45 317.14Q800.81 317.14 800.24 317.36Q799.67 317.59 799.23 318.02Q798.80 318.46 798.54 319.12Q798.29 319.78 798.29 320.65L798.29 330L795.69 330L795.69 320.65Q795.69 318.88 794.98 318.01Q794.27 317.14 792.91 317.14Q791.95 317.14 791.14 317.65Q790.33 318.17 789.65 319.05L789.65 330M813.50 330L810.91 330L810.91 315.31L812.46 315.31Q813.01 315.31 813.14 315.85L813.33 317.36Q814.14 316.36 815.15 315.72Q816.17 315.08 817.50 315.08Q818.98 315.08 819.90 315.91Q820.82 316.73 821.23 318.14Q821.55 317.34 822.05 316.76Q822.55 316.18 823.17 315.80Q823.80 315.43 824.50 315.25Q825.20 315.08 825.93 315.08Q827.09 315.08 827.99 315.45Q828.90 315.82 829.53 316.53Q830.16 317.24 830.49 318.28Q830.83 319.31 830.83 320.65L830.83 330L828.23 330L828.23 320.65Q828.23 318.92 827.48 318.03Q826.72 317.14 825.30 317.14Q824.67 317.14 824.09 317.36Q823.52 317.59 823.09 318.02Q822.65 318.46 822.40 319.12Q822.14 319.78 822.14 320.65L822.14 330L819.55 330L819.55 320.65Q819.55 318.88 818.84 318.01Q818.13 317.14 816.76 317.14Q815.81 317.14 814.99 317.65Q814.18 318.17 813.50 319.05L813.50 330M842.72 326.43L842.72 323.39Q840.93 323.45 839.68 323.67Q838.43 323.90 837.64 324.26Q836.85 324.62 836.49 325.11Q836.14 325.61 836.14 326.22Q836.14 326.80 836.32 327.22Q836.51 327.64 836.84 327.90Q837.16 328.17 837.61 328.30Q838.05 328.42 838.56 328.42Q839.24 328.42 839.80 328.28Q840.37 328.14 840.87 327.88Q841.37 327.62 841.83 327.26Q842.28 326.90 842.72 326.43M834.84 318.21L834.38 317.38Q835.60 316.21 837.01 315.63Q838.41 315.05 840.12 315.05Q841.36 315.05 842.31 315.46Q843.27 315.86 843.92 316.59Q844.57 317.31 844.91 318.34Q845.24 319.37 845.24 320.60L845.24 330L844.10 330Q843.72 330 843.52 329.88Q843.31 329.75 843.20 329.39L842.91 328Q842.33 328.54 841.78 328.95Q841.22 329.36 840.62 329.64Q840.01 329.93 839.32 330.08Q838.63 330.23 837.79 330.23Q836.93 330.23 836.18 329.99Q835.42 329.75 834.87 329.27Q834.31 328.80 833.98 328.06Q833.66 327.33 833.66 326.33Q833.66 325.46 834.13 324.66Q834.61 323.85 835.69 323.23Q836.76 322.61 838.48 322.21Q840.21 321.81 842.72 321.75L842.72 320.60Q842.72 318.89 841.98 318.02Q841.24 317.14 839.82 317.14Q838.86 317.14 838.22 317.38Q837.57 317.62 837.10 317.91Q836.63 318.21 836.29 318.45Q835.95 318.69 835.61 318.69Q835.35 318.69 835.16 318.55Q834.98 318.41 834.84 318.21M851.40 315.85L851.61 317.44Q852.09 316.91 852.62 316.47Q853.16 316.04 853.76 315.72Q854.36 315.41 855.04 315.25Q855.71 315.08 856.49 315.08Q857.70 315.08 858.62 315.48Q859.54 315.88 860.15 316.61Q860.77 317.34 861.09 318.37Q861.41 319.40 861.41 320.65L861.41 330L858.81 330L858.81 320.65Q858.81 318.98 858.05 318.06Q857.29 317.14 855.74 317.14Q854.59 317.14 853.60 317.69Q852.61 318.24 851.77 319.18L851.77 330L849.17 330L849.17 315.31L850.72 315.31Q851.27 315.31 851.40 315.85M874.92 325.90L874.92 318.81Q874.20 317.83 873.36 317.45Q872.52 317.07 871.47 317.07Q869.43 317.07 868.33 318.53Q867.22 320 867.22 322.71Q867.22 324.14 867.47 325.16Q867.72 326.19 868.19 326.85Q868.67 327.51 869.37 327.81Q870.07 328.12 870.95 328.12Q872.23 328.12 873.18 327.54Q874.13 326.95 874.92 325.90M874.92 308.64L877.50 308.64L877.50 330L875.97 330Q875.42 330 875.27 329.46L875.04 327.68Q874.10 328.81 872.89 329.51Q871.69 330.20 870.11 330.20Q868.85 330.20 867.82 329.72Q866.79 329.23 866.06 328.29Q865.34 327.35 864.95 325.94Q864.56 324.53 864.56 322.71Q864.56 321.08 864.99 319.68Q865.43 318.28 866.24 317.25Q867.05 316.23 868.23 315.64Q869.41 315.05 870.89 315.05Q872.24 315.05 873.20 315.51Q874.17 315.96 874.92 316.78L874.92 308.64M890.73 316.79L890.15 317.73Q889.97 318.05 889.61 318.05Q889.39 318.05 889.12 317.89Q888.84 317.73 888.44 317.54Q888.05 317.34 887.49 317.17Q886.94 317.01 886.19 317.01Q885.54 317.01 885.01 317.17Q884.49 317.34 884.12 317.63Q883.75 317.92 883.56 318.31Q883.36 318.69 883.36 319.14Q883.36 319.70 883.69 320.08Q884.01 320.46 884.55 320.73Q885.09 321.01 885.77 321.22Q886.45 321.43 887.17 321.67Q887.89 321.91 888.57 322.20Q889.25 322.49 889.79 322.92Q890.32 323.36 890.65 323.99Q890.97 324.62 890.97 325.50Q890.97 326.52 890.61 327.38Q890.25 328.25 889.54 328.88Q888.83 329.51 887.80 329.87Q886.77 330.23 885.42 330.23Q883.88 330.23 882.64 329.73Q881.39 329.23 880.52 328.45L881.13 327.46Q881.24 327.27 881.40 327.17Q881.56 327.07 881.81 327.07Q882.07 327.07 882.36 327.27Q882.65 327.48 883.06 327.72Q883.48 327.97 884.07 328.17Q884.67 328.38 885.55 328.38Q886.31 328.38 886.87 328.18Q887.44 327.98 887.81 327.65Q888.19 327.32 888.37 326.88Q888.55 326.45 888.55 325.95Q888.55 325.35 888.23 324.95Q887.90 324.55 887.36 324.27Q886.83 323.98 886.14 323.77Q885.45 323.56 884.73 323.33Q884.01 323.10 883.33 322.80Q882.64 322.50 882.10 322.05Q881.56 321.60 881.24 320.94Q880.91 320.29 880.91 319.34Q880.91 318.50 881.26 317.73Q881.61 316.95 882.27 316.36Q882.94 315.78 883.91 315.43Q884.88 315.08 886.13 315.08Q887.58 315.08 888.73 315.54Q889.89 315.99 890.73 316.79M919.89 315.31L921.83 315.31L917.07 330L915.03 330Q914.65 330 914.51 329.51L911.26 319.55Q911.14 319.21 911.07 318.87Q911 318.53 910.93 318.20Q910.85 318.53 910.78 318.87Q910.71 319.21 910.59 319.56L907.29 329.51Q907.16 330 906.71 330L904.76 330L900.01 315.31L902.04 315.31Q902.34 315.31 902.55 315.47Q902.76 315.63 902.84 315.85L905.65 325.30Q905.89 326.35 906.04 327.27Q906.17 326.80 906.31 326.30Q906.45 325.81 906.61 325.30L909.71 315.79Q909.78 315.57 909.96 315.43Q910.14 315.28 910.40 315.28L911.54 315.28Q911.83 315.28 912.01 315.43Q912.20 315.57 912.27 315.79L915.31 325.30Q915.46 325.81 915.60 326.30Q915.73 326.80 915.84 327.27Q915.91 326.80 916.02 326.31Q916.13 325.82 916.26 325.30L919.13 315.85Q919.21 315.62 919.41 315.46Q919.61 315.31 919.89 315.31M926.95 308.64L926.95 317.27Q927.89 316.27 929.04 315.67Q930.18 315.08 931.68 315.08Q932.88 315.08 933.80 315.48Q934.72 315.88 935.34 316.61Q935.95 317.34 936.27 318.37Q936.59 319.40 936.59 320.65L936.59 330L934 330L934 320.65Q934 318.98 933.23 318.06Q932.47 317.14 930.92 317.14Q929.78 317.14 928.78 317.69Q927.79 318.24 926.95 319.18L926.95 330L924.35 330L924.35 308.64L926.95 308.64M942.33 321.05L950.37 321.05Q950.37 320.15 950.11 319.41Q949.86 318.66 949.37 318.12Q948.89 317.57 948.19 317.28Q947.50 316.98 946.61 316.98Q944.75 316.98 943.67 318.06Q942.59 319.14 942.33 321.05M951.73 327L952.45 327.94Q951.98 328.52 951.31 328.95Q950.64 329.38 949.88 329.65Q949.12 329.93 948.31 330.07Q947.50 330.20 946.70 330.20Q945.18 330.20 943.89 329.69Q942.61 329.17 941.67 328.18Q940.74 327.19 940.22 325.72Q939.69 324.26 939.69 322.36Q939.69 320.82 940.17 319.49Q940.64 318.15 941.52 317.17Q942.41 316.20 943.68 315.64Q944.96 315.08 946.55 315.08Q947.87 315.08 949 315.52Q950.12 315.96 950.94 316.80Q951.76 317.63 952.22 318.86Q952.69 320.08 952.69 321.65Q952.69 322.26 952.56 322.46Q952.43 322.66 952.06 322.66L942.25 322.66Q942.29 324.06 942.63 325.08Q942.97 326.11 943.58 326.80Q944.19 327.49 945.03 327.83Q945.87 328.17 946.92 328.17Q947.89 328.17 948.59 327.95Q949.29 327.72 949.80 327.46Q950.31 327.20 950.65 326.98Q950.99 326.75 951.24 326.75Q951.56 326.75 951.73 327M958.12 316.02L958.30 318.25Q958.99 316.75 960.01 315.90Q961.02 315.05 962.49 315.05Q962.95 315.05 963.38 315.15Q963.81 315.25 964.14 315.47L963.95 317.40Q963.87 317.76 963.52 317.76Q963.31 317.76 962.92 317.68Q962.53 317.59 962.04 317.59Q961.34 317.59 960.80 317.79Q960.26 317.99 959.83 318.39Q959.40 318.79 959.06 319.38Q958.72 319.97 958.44 320.72L958.44 330L955.85 330L955.85 315.31L957.33 315.31Q957.75 315.31 957.91 315.47Q958.07 315.63 958.12 316.02M968.20 321.05L976.23 321.05Q976.23 320.15 975.98 319.41Q975.73 318.66 975.24 318.12Q974.76 317.57 974.06 317.28Q973.36 316.98 972.48 316.98Q970.62 316.98 969.54 318.06Q968.46 319.14 968.20 321.05M977.60 327L978.32 327.94Q977.84 328.52 977.18 328.95Q976.51 329.38 975.75 329.65Q974.99 329.93 974.18 330.07Q973.36 330.20 972.57 330.20Q971.04 330.20 969.76 329.69Q968.48 329.17 967.54 328.18Q966.61 327.19 966.08 325.72Q965.56 324.26 965.56 322.36Q965.56 320.82 966.03 319.49Q966.50 318.15 967.39 317.17Q968.27 316.20 969.55 315.64Q970.83 315.08 972.42 315.08Q973.74 315.08 974.86 315.52Q975.99 315.96 976.81 316.80Q977.63 317.63 978.09 318.86Q978.55 320.08 978.55 321.65Q978.55 322.26 978.42 322.46Q978.29 322.66 977.93 322.66L968.11 322.66Q968.16 324.06 968.50 325.08Q968.84 326.11 969.45 326.80Q970.06 327.49 970.90 327.83Q971.74 328.17 972.78 328.17Q973.75 328.17 974.46 327.95Q975.16 327.72 975.67 327.46Q976.18 327.20 976.52 326.98Q976.86 326.75 977.10 326.75Q977.42 326.75 977.60 327M999.77 315.31L1001.81 315.31L993.62 334.34Q993.49 334.63 993.29 334.80Q993.10 334.97 992.69 334.97L990.78 334.97L993.46 329.14L987.40 315.31L989.63 315.31Q989.97 315.31 990.16 315.48Q990.36 315.64 990.43 315.85L994.36 325.10Q994.59 325.71 994.75 326.38Q994.95 325.69 995.19 325.08L999 315.85Q999.09 315.62 999.30 315.46Q999.51 315.31 999.77 315.31M1010.28 315.08Q1011.89 315.08 1013.18 315.62Q1014.47 316.15 1015.38 317.14Q1016.30 318.12 1016.78 319.52Q1017.27 320.92 1017.27 322.65Q1017.27 324.39 1016.78 325.78Q1016.30 327.17 1015.38 328.16Q1014.47 329.14 1013.18 329.67Q1011.89 330.20 1010.28 330.20Q1008.66 330.20 1007.36 329.67Q1006.06 329.14 1005.15 328.16Q1004.23 327.17 1003.75 325.78Q1003.26 324.39 1003.26 322.65Q1003.26 320.92 1003.75 319.52Q1004.23 318.12 1005.15 317.14Q1006.06 316.15 1007.36 315.62Q1008.66 315.08 1010.28 315.08M1010.28 328.19Q1012.46 328.19 1013.53 326.73Q1014.60 325.27 1014.60 322.66Q1014.60 320.04 1013.53 318.57Q1012.46 317.11 1010.28 317.11Q1009.18 317.11 1008.36 317.49Q1007.54 317.86 1007 318.57Q1006.45 319.28 1006.18 320.32Q1005.92 321.36 1005.92 322.66Q1005.92 325.27 1007 326.73Q1008.08 328.19 1010.28 328.19M1030.03 315.31L1032.61 315.31L1032.61 330L1031.07 330Q1030.52 330 1030.38 329.46L1030.17 327.88Q1029.22 328.94 1028.03 329.59Q1026.84 330.23 1025.30 330.23Q1024.10 330.23 1023.18 329.83Q1022.26 329.43 1021.63 328.71Q1021.01 327.98 1020.70 326.95Q1020.39 325.93 1020.39 324.68L1020.39 315.31L1022.97 315.31L1022.97 324.68Q1022.97 326.35 1023.73 327.26Q1024.49 328.17 1026.06 328.17Q1027.20 328.17 1028.20 327.63Q1029.19 327.09 1030.03 326.13L1030.03 315.31M1046.36 315.85L1046.56 317.44Q1047.04 316.91 1047.57 316.47Q1048.11 316.04 1048.71 315.72Q1049.31 315.41 1049.99 315.25Q1050.66 315.08 1051.45 315.08Q1052.65 315.08 1053.57 315.48Q1054.49 315.88 1055.11 316.61Q1055.72 317.34 1056.04 318.37Q1056.36 319.40 1056.36 320.65L1056.36 330L1053.77 330L1053.77 320.65Q1053.77 318.98 1053 318.06Q1052.24 317.14 1050.69 317.14Q1049.55 317.14 1048.55 317.69Q1047.56 318.24 1046.72 319.18L1046.72 330L1044.12 330L1044.12 315.31L1045.67 315.31Q1046.23 315.31 1046.36 315.85M1062.10 321.05L1070.14 321.05Q1070.14 320.15 1069.88 319.41Q1069.63 318.66 1069.14 318.12Q1068.66 317.57 1067.96 317.28Q1067.27 316.98 1066.38 316.98Q1064.52 316.98 1063.44 318.06Q1062.36 319.14 1062.10 321.05M1071.50 327L1072.22 327.94Q1071.75 328.52 1071.08 328.95Q1070.41 329.38 1069.65 329.65Q1068.89 329.93 1068.08 330.07Q1067.27 330.20 1066.47 330.20Q1064.95 330.20 1063.66 329.69Q1062.38 329.17 1061.44 328.18Q1060.51 327.19 1059.99 325.72Q1059.46 324.26 1059.46 322.36Q1059.46 320.82 1059.94 319.49Q1060.41 318.15 1061.29 317.17Q1062.18 316.20 1063.45 315.64Q1064.73 315.08 1066.32 315.08Q1067.64 315.08 1068.77 315.52Q1069.89 315.96 1070.71 316.80Q1071.53 317.63 1071.99 318.86Q1072.46 320.08 1072.46 321.65Q1072.46 322.26 1072.33 322.46Q1072.20 322.66 1071.83 322.66L1062.02 322.66Q1062.06 324.06 1062.40 325.08Q1062.74 326.11 1063.35 326.80Q1063.96 327.49 1064.80 327.83Q1065.64 328.17 1066.69 328.17Q1067.66 328.17 1068.36 327.95Q1069.06 327.72 1069.57 327.46Q1070.08 327.20 1070.42 326.98Q1070.76 326.75 1071.01 326.75Q1071.33 326.75 1071.50 327M1077.42 321.05L1085.45 321.05Q1085.45 320.15 1085.19 319.41Q1084.94 318.66 1084.46 318.12Q1083.97 317.57 1083.27 317.28Q1082.58 316.98 1081.69 316.98Q1079.84 316.98 1078.76 318.06Q1077.68 319.14 1077.42 321.05M1086.81 327L1087.54 327.94Q1087.06 328.52 1086.39 328.95Q1085.72 329.38 1084.96 329.65Q1084.20 329.93 1083.39 330.07Q1082.58 330.20 1081.78 330.20Q1080.26 330.20 1078.97 329.69Q1077.69 329.17 1076.76 328.18Q1075.82 327.19 1075.30 325.72Q1074.78 324.26 1074.78 322.36Q1074.78 320.82 1075.25 319.49Q1075.72 318.15 1076.60 317.17Q1077.49 316.20 1078.76 315.64Q1080.04 315.08 1081.63 315.08Q1082.95 315.08 1084.08 315.52Q1085.20 315.96 1086.02 316.80Q1086.84 317.63 1087.30 318.86Q1087.77 320.08 1087.77 321.65Q1087.77 322.26 1087.64 322.46Q1087.51 322.66 1087.14 322.66L1077.33 322.66Q1077.37 324.06 1077.71 325.08Q1078.05 326.11 1078.66 326.80Q1079.27 327.49 1080.11 327.83Q1080.95 328.17 1082 328.17Q1082.97 328.17 1083.67 327.95Q1084.38 327.72 1084.88 327.46Q1085.39 327.20 1085.73 326.98Q1086.07 326.75 1086.32 326.75Q1086.64 326.75 1086.81 327M1100.50 325.90L1100.50 318.81Q1099.77 317.83 1098.93 317.45Q1098.09 317.07 1097.05 317.07Q1095 317.07 1093.90 318.53Q1092.80 320 1092.80 322.71Q1092.80 324.14 1093.05 325.16Q1093.29 326.19 1093.77 326.85Q1094.25 327.51 1094.95 327.81Q1095.64 328.12 1096.53 328.12Q1097.80 328.12 1098.75 327.54Q1099.70 326.95 1100.50 325.90M1100.50 308.64L1103.08 308.64L1103.08 330L1101.54 330Q1100.99 330 1100.85 329.46L1100.62 327.68Q1099.67 328.81 1098.47 329.51Q1097.27 330.20 1095.69 330.20Q1094.42 330.20 1093.39 329.72Q1092.36 329.23 1091.64 328.29Q1090.91 327.35 1090.52 325.94Q1090.13 324.53 1090.13 322.71Q1090.13 321.08 1090.57 319.68Q1091 318.28 1091.81 317.25Q1092.63 316.23 1093.81 315.64Q1094.99 315.05 1096.47 315.05Q1097.82 315.05 1098.78 315.51Q1099.75 315.96 1100.50 316.78L1100.50 308.64M1119.10 330.23Q1117.36 330.23 1116.43 329.26Q1115.49 328.29 1115.49 326.46L1115.49 317.47L1113.72 317.47Q1113.49 317.47 1113.33 317.33Q1113.17 317.20 1113.17 316.91L1113.17 315.88L1115.58 315.57L1116.17 311.03Q1116.22 310.82 1116.37 310.68Q1116.52 310.54 1116.77 310.54L1118.07 310.54L1118.07 315.60L1122.32 315.60L1122.32 317.47L1118.07 317.47L1118.07 326.29Q1118.07 327.22 1118.52 327.67Q1118.97 328.12 1119.68 328.12Q1120.09 328.12 1120.39 328.01Q1120.68 327.90 1120.90 327.77Q1121.12 327.64 1121.27 327.53Q1121.42 327.42 1121.54 327.42Q1121.74 327.42 1121.90 327.67L1122.66 328.90Q1121.99 329.52 1121.05 329.88Q1120.10 330.23 1119.10 330.23M1127.59 308.64L1127.59 317.27Q1128.53 316.27 1129.67 315.67Q1130.82 315.08 1132.31 315.08Q1133.52 315.08 1134.44 315.48Q1135.36 315.88 1135.97 316.61Q1136.59 317.34 1136.91 318.37Q1137.23 319.40 1137.23 320.65L1137.23 330L1134.63 330L1134.63 320.65Q1134.63 318.98 1133.87 318.06Q1133.11 317.14 1131.56 317.14Q1130.41 317.14 1129.42 317.69Q1128.43 318.24 1127.59 319.18L1127.59 330L1124.99 330L1124.99 308.64L1127.59 308.64M1142.97 321.05L1151 321.05Q1151 320.15 1150.75 319.41Q1150.50 318.66 1150.01 318.12Q1149.52 317.57 1148.83 317.28Q1148.13 316.98 1147.25 316.98Q1145.39 316.98 1144.31 318.06Q1143.23 319.14 1142.97 321.05M1152.37 327L1153.09 327.94Q1152.61 328.52 1151.95 328.95Q1151.28 329.38 1150.52 329.65Q1149.76 329.93 1148.94 330.07Q1148.13 330.20 1147.33 330.20Q1145.81 330.20 1144.53 329.69Q1143.25 329.17 1142.31 328.18Q1141.37 327.19 1140.85 325.72Q1140.33 324.26 1140.33 322.36Q1140.33 320.82 1140.80 319.49Q1141.27 318.15 1142.16 317.17Q1143.04 316.20 1144.32 315.64Q1145.59 315.08 1147.19 315.08Q1148.51 315.08 1149.63 315.52Q1150.76 315.96 1151.58 316.80Q1152.39 317.63 1152.86 318.86Q1153.32 320.08 1153.32 321.65Q1153.32 322.26 1153.19 322.46Q1153.06 322.66 1152.70 322.66L1142.88 322.66Q1142.93 324.06 1143.27 325.08Q1143.61 326.11 1144.22 326.80Q1144.83 327.49 1145.67 327.83Q1146.51 328.17 1147.55 328.17Q1148.52 328.17 1149.23 327.95Q1149.93 327.72 1150.44 327.46Q1150.94 327.20 1151.29 326.98Q1151.63 326.75 1151.87 326.75Q1152.19 326.75 1152.37 327M1159.08 330L1156.48 330L1156.48 315.31L1158.04 315.31Q1158.59 315.31 1158.72 315.85L1158.91 317.36Q1159.72 316.36 1160.73 315.72Q1161.75 315.08 1163.08 315.08Q1164.56 315.08 1165.48 315.91Q1166.40 316.73 1166.81 318.14Q1167.13 317.34 1167.63 316.76Q1168.13 316.18 1168.75 315.80Q1169.37 315.43 1170.08 315.25Q1170.78 315.08 1171.51 315.08Q1172.67 315.08 1173.57 315.45Q1174.48 315.82 1175.11 316.53Q1175.74 317.24 1176.07 318.28Q1176.41 319.31 1176.41 320.65L1176.41 330L1173.81 330L1173.81 320.65Q1173.81 318.92 1173.06 318.03Q1172.30 317.14 1170.88 317.14Q1170.24 317.14 1169.67 317.36Q1169.10 317.59 1168.66 318.02Q1168.23 318.46 1167.98 319.12Q1167.72 319.78 1167.72 320.65L1167.72 330L1165.13 330L1165.13 320.65Q1165.13 318.88 1164.42 318.01Q1163.70 317.14 1162.34 317.14Q1161.38 317.14 1160.57 317.65Q1159.76 318.17 1159.08 319.05L1159.08 330M1187.57 322.39L1187.57 320.50L1206.86 320.50L1206.86 322.39L1187.57 322.39M1226.16 326.43L1226.16 323.39Q1224.37 323.45 1223.12 323.67Q1221.86 323.90 1221.07 324.26Q1220.28 324.62 1219.93 325.11Q1219.57 325.61 1219.57 326.22Q1219.57 326.80 1219.76 327.22Q1219.95 327.64 1220.28 327.90Q1220.60 328.17 1221.05 328.30Q1221.49 328.42 1221.99 328.42Q1222.68 328.42 1223.24 328.28Q1223.81 328.14 1224.31 327.88Q1224.81 327.62 1225.26 327.26Q1225.72 326.90 1226.16 326.43M1218.28 318.21L1217.82 317.38Q1219.04 316.21 1220.44 315.63Q1221.85 315.05 1223.56 315.05Q1224.79 315.05 1225.75 315.46Q1226.71 315.86 1227.36 316.59Q1228.01 317.31 1228.35 318.34Q1228.68 319.37 1228.68 320.60L1228.68 330L1227.53 330Q1227.16 330 1226.95 329.88Q1226.75 329.75 1226.63 329.39L1226.34 328Q1225.76 328.54 1225.21 328.95Q1224.66 329.36 1224.05 329.64Q1223.44 329.93 1222.76 330.08Q1222.07 330.23 1221.23 330.23Q1220.37 330.23 1219.62 329.99Q1218.86 329.75 1218.30 329.27Q1217.75 328.80 1217.42 328.06Q1217.09 327.33 1217.09 326.33Q1217.09 325.46 1217.57 324.66Q1218.05 323.85 1219.12 323.23Q1220.20 322.61 1221.92 322.21Q1223.65 321.81 1226.16 321.75L1226.16 320.60Q1226.16 318.89 1225.42 318.02Q1224.68 317.14 1223.26 317.14Q1222.30 317.14 1221.65 317.38Q1221.01 317.62 1220.54 317.91Q1220.07 318.21 1219.73 318.45Q1219.38 318.69 1219.05 318.69Q1218.79 318.69 1218.60 318.55Q1218.41 318.41 1218.28 318.21M1234.84 315.85L1235.04 317.44Q1235.52 316.91 1236.06 316.47Q1236.60 316.04 1237.20 315.72Q1237.80 315.41 1238.47 315.25Q1239.15 315.08 1239.93 315.08Q1241.13 315.08 1242.06 315.48Q1242.98 315.88 1243.59 316.61Q1244.21 317.34 1244.53 318.37Q1244.85 319.40 1244.85 320.65L1244.85 330L1242.25 330L1242.25 320.65Q1242.25 318.98 1241.49 318.06Q1240.73 317.14 1239.18 317.14Q1238.03 317.14 1237.04 317.69Q1236.05 318.24 1235.20 319.18L1235.20 330L1232.61 330L1232.61 315.31L1234.16 315.31Q1234.71 315.31 1234.84 315.85M1258.36 325.90L1258.36 318.81Q1257.64 317.83 1256.79 317.45Q1255.95 317.07 1254.91 317.07Q1252.87 317.07 1251.76 318.53Q1250.66 320 1250.66 322.71Q1250.66 324.14 1250.91 325.16Q1251.15 326.19 1251.63 326.85Q1252.11 327.51 1252.81 327.81Q1253.50 328.12 1254.39 328.12Q1255.66 328.12 1256.61 327.54Q1257.56 326.95 1258.36 325.90M1258.36 308.64L1260.94 308.64L1260.94 330L1259.40 330Q1258.85 330 1258.71 329.46L1258.48 327.68Q1257.53 328.81 1256.33 329.51Q1255.13 330.20 1253.55 330.20Q1252.29 330.20 1251.26 329.72Q1250.23 329.23 1249.50 328.29Q1248.78 327.35 1248.38 325.94Q1247.99 324.53 1247.99 322.71Q1247.99 321.08 1248.43 319.68Q1248.86 318.28 1249.68 317.25Q1250.49 316.23 1251.67 315.64Q1252.85 315.05 1254.33 315.05Q1255.68 315.05 1256.64 315.51Q1257.61 315.96 1258.36 316.78L1258.36 308.64M1276.96 330.23Q1275.22 330.23 1274.29 329.26Q1273.35 328.29 1273.35 326.46L1273.35 317.47L1271.58 317.47Q1271.35 317.47 1271.19 317.33Q1271.03 317.20 1271.03 316.91L1271.03 315.88L1273.44 315.57L1274.04 311.03Q1274.08 310.82 1274.23 310.68Q1274.38 310.54 1274.63 310.54L1275.93 310.54L1275.93 315.60L1280.18 315.60L1280.18 317.47L1275.93 317.47L1275.93 326.29Q1275.93 327.22 1276.38 327.67Q1276.83 328.12 1277.54 328.12Q1277.95 328.12 1278.25 328.01Q1278.54 327.90 1278.76 327.77Q1278.98 327.64 1279.13 327.53Q1279.28 327.42 1279.40 327.42Q1279.60 327.42 1279.76 327.67L1280.52 328.90Q1279.85 329.52 1278.91 329.88Q1277.96 330.23 1276.96 330.23M1285.45 308.64L1285.45 317.27Q1286.39 316.27 1287.53 315.67Q1288.68 315.08 1290.17 315.08Q1291.38 315.08 1292.30 315.48Q1293.22 315.88 1293.84 316.61Q1294.45 317.34 1294.77 318.37Q1295.09 319.40 1295.09 320.65L1295.09 330L1292.49 330L1292.49 320.65Q1292.49 318.98 1291.73 318.06Q1290.97 317.14 1289.42 317.14Q1288.27 317.14 1287.28 317.69Q1286.29 318.24 1285.45 319.18L1285.45 330L1282.85 330L1282.85 308.64L1285.45 308.64M1306.99 326.43L1306.99 323.39Q1305.21 323.45 1303.96 323.67Q1302.70 323.90 1301.91 324.26Q1301.12 324.62 1300.77 325.11Q1300.41 325.61 1300.41 326.22Q1300.41 326.80 1300.60 327.22Q1300.79 327.64 1301.11 327.90Q1301.44 328.17 1301.88 328.30Q1302.32 328.42 1302.83 328.42Q1303.51 328.42 1304.08 328.28Q1304.64 328.14 1305.15 327.88Q1305.65 327.62 1306.10 327.26Q1306.56 326.90 1306.99 326.43M1299.12 318.21L1298.66 317.38Q1299.87 316.21 1301.28 315.63Q1302.69 315.05 1304.40 315.05Q1305.63 315.05 1306.59 315.46Q1307.54 315.86 1308.20 316.59Q1308.85 317.31 1309.18 318.34Q1309.52 319.37 1309.52 320.60L1309.52 330L1308.37 330Q1307.99 330 1307.79 329.88Q1307.59 329.75 1307.47 329.39L1307.18 328Q1306.60 328.54 1306.05 328.95Q1305.50 329.36 1304.89 329.64Q1304.28 329.93 1303.59 330.08Q1302.90 330.23 1302.06 330.23Q1301.21 330.23 1300.45 329.99Q1299.70 329.75 1299.14 329.27Q1298.58 328.80 1298.26 328.06Q1297.93 327.33 1297.93 326.33Q1297.93 325.46 1298.41 324.66Q1298.89 323.85 1299.96 323.23Q1301.03 322.61 1302.76 322.21Q1304.49 321.81 1306.99 321.75L1306.99 320.60Q1306.99 318.89 1306.25 318.02Q1305.51 317.14 1304.09 317.14Q1303.14 317.14 1302.49 317.38Q1301.85 317.62 1301.38 317.91Q1300.90 318.21 1300.56 318.45Q1300.22 318.69 1299.89 318.69Q1299.63 318.69 1299.44 318.55Q1299.25 318.41 1299.12 318.21M1317.96 330.23Q1316.22 330.23 1315.28 329.26Q1314.35 328.29 1314.35 326.46L1314.35 317.47L1312.58 317.47Q1312.34 317.47 1312.18 317.33Q1312.03 317.20 1312.03 316.91L1312.03 315.88L1314.43 315.57L1315.03 311.03Q1315.07 310.82 1315.22 310.68Q1315.37 310.54 1315.62 310.54L1316.93 310.54L1316.93 315.60L1321.17 315.60L1321.17 317.47L1316.93 317.47L1316.93 326.29Q1316.93 327.22 1317.38 327.67Q1317.83 328.12 1318.54 328.12Q1318.94 328.12 1319.24 328.01Q1319.54 327.90 1319.75 327.77Q1319.97 327.64 1320.12 327.53Q1320.28 327.42 1320.39 327.42Q1320.59 327.42 1320.75 327.67L1321.51 328.90Q1320.84 329.52 1319.90 329.88Q1318.96 330.23 1317.96 330.23M1341.84 315.31L1343.85 315.31L1337.86 330L1335.54 330L1329.56 315.31L1331.66 315.31Q1331.98 315.31 1332.18 315.47Q1332.38 315.63 1332.46 315.85L1336.18 325.30Q1336.36 325.84 1336.49 326.35Q1336.62 326.85 1336.73 327.36Q1336.85 326.85 1336.98 326.35Q1337.11 325.84 1337.30 325.30L1341.07 315.85Q1341.16 315.62 1341.36 315.46Q1341.56 315.31 1341.84 315.31M1348.03 321.05L1356.06 321.05Q1356.06 320.15 1355.81 319.41Q1355.55 318.66 1355.07 318.12Q1354.58 317.57 1353.89 317.28Q1353.19 316.98 1352.31 316.98Q1350.45 316.98 1349.37 318.06Q1348.29 319.14 1348.03 321.05M1357.42 327L1358.15 327.94Q1357.67 328.52 1357 328.95Q1356.34 329.38 1355.58 329.65Q1354.81 329.93 1354 330.07Q1353.19 330.20 1352.39 330.20Q1350.87 330.20 1349.59 329.69Q1348.30 329.17 1347.37 328.18Q1346.43 327.19 1345.91 325.72Q1345.39 324.26 1345.39 322.36Q1345.39 320.82 1345.86 319.49Q1346.33 318.15 1347.22 317.17Q1348.10 316.20 1349.38 315.64Q1350.65 315.08 1352.25 315.08Q1353.57 315.08 1354.69 315.52Q1355.82 315.96 1356.63 316.80Q1357.45 317.63 1357.92 318.86Q1358.38 320.08 1358.38 321.65Q1358.38 322.26 1358.25 322.46Q1358.12 322.66 1357.76 322.66L1347.94 322.66Q1347.99 324.06 1348.33 325.08Q1348.67 326.11 1349.28 326.80Q1349.88 327.49 1350.73 327.83Q1351.57 328.17 1352.61 328.17Q1353.58 328.17 1354.29 327.95Q1354.99 327.72 1355.50 327.46Q1356 327.20 1356.34 326.98Q1356.69 326.75 1356.93 326.75Q1357.25 326.75 1357.42 327M1363.82 316.02L1363.99 318.25Q1364.69 316.75 1365.70 315.90Q1366.72 315.05 1368.18 315.05Q1368.65 315.05 1369.08 315.15Q1369.50 315.25 1369.84 315.47L1369.65 317.40Q1369.56 317.76 1369.21 317.76Q1369.01 317.76 1368.62 317.68Q1368.23 317.59 1367.73 317.59Q1367.04 317.59 1366.49 317.79Q1365.95 317.99 1365.52 318.39Q1365.10 318.79 1364.75 319.38Q1364.41 319.97 1364.14 320.72L1364.14 330L1361.54 330L1361.54 315.31L1363.02 315.31Q1363.44 315.31 1363.60 315.47Q1363.76 315.63 1363.82 316.02M1382.73 315.31L1384.77 315.31L1376.58 334.34Q1376.45 334.63 1376.25 334.80Q1376.06 334.97 1375.65 334.97L1373.74 334.97L1376.42 329.14L1370.36 315.31L1372.59 315.31Q1372.93 315.31 1373.12 315.48Q1373.32 315.64 1373.39 315.85L1377.32 325.10Q1377.55 325.71 1377.71 326.38Q1377.91 325.69 1378.15 325.08L1381.96 315.85Q1382.05 315.62 1382.26 315.46Q1382.47 315.31 1382.73 315.31M1396.71 315.85L1396.91 317.44Q1397.39 316.91 1397.92 316.47Q1398.46 316.04 1399.06 315.72Q1399.66 315.41 1400.34 315.25Q1401.01 315.08 1401.79 315.08Q1403 315.08 1403.92 315.48Q1404.84 315.88 1405.46 316.61Q1406.07 317.34 1406.39 318.37Q1406.71 319.40 1406.71 320.65L1406.71 330L1404.11 330L1404.11 320.65Q1404.11 318.98 1403.35 318.06Q1402.59 317.14 1401.04 317.14Q1399.90 317.14 1398.90 317.69Q1397.91 318.24 1397.07 319.18L1397.07 330L1394.47 330L1394.47 315.31L1396.02 315.31Q1396.57 315.31 1396.71 315.85M1410.80 315.31L1413.38 315.31L1413.38 330L1410.80 330L1410.80 315.31M1413.93 310.70Q1413.93 311.08 1413.78 311.40Q1413.63 311.73 1413.37 311.98Q1413.12 312.24 1412.78 312.38Q1412.44 312.53 1412.06 312.53Q1411.68 312.53 1411.36 312.38Q1411.03 312.24 1410.78 311.98Q1410.54 311.73 1410.39 311.40Q1410.25 311.08 1410.25 310.70Q1410.25 310.32 1410.39 309.98Q1410.54 309.64 1410.78 309.39Q1411.03 309.13 1411.36 308.99Q1411.68 308.84 1412.06 308.84Q1412.44 308.84 1412.78 308.99Q1413.12 309.13 1413.37 309.39Q1413.63 309.64 1413.78 309.98Q1413.93 310.32 1413.93 310.70M1428.52 316.99L1427.84 317.92Q1427.72 318.08 1427.60 318.17Q1427.49 318.25 1427.29 318.25Q1427.07 318.25 1426.81 318.07Q1426.55 317.89 1426.16 317.68Q1425.78 317.46 1425.22 317.28Q1424.66 317.10 1423.85 317.10Q1422.76 317.10 1421.94 317.48Q1421.11 317.86 1420.55 318.59Q1419.99 319.31 1419.71 320.34Q1419.43 321.37 1419.43 322.65Q1419.43 323.98 1419.73 325.02Q1420.04 326.06 1420.59 326.76Q1421.15 327.46 1421.94 327.83Q1422.73 328.20 1423.72 328.20Q1424.66 328.20 1425.27 327.98Q1425.88 327.75 1426.28 327.48Q1426.68 327.20 1426.95 326.98Q1427.21 326.75 1427.47 326.75Q1427.79 326.75 1427.97 327L1428.69 327.94Q1428.21 328.54 1427.60 328.96Q1427 329.38 1426.29 329.66Q1425.59 329.94 1424.82 330.07Q1424.05 330.20 1423.25 330.20Q1421.88 330.20 1420.70 329.70Q1419.51 329.19 1418.64 328.22Q1417.77 327.26 1417.28 325.85Q1416.79 324.45 1416.79 322.65Q1416.79 321.01 1417.24 319.62Q1417.70 318.23 1418.58 317.22Q1419.46 316.21 1420.74 315.64Q1422.02 315.08 1423.69 315.08Q1425.24 315.08 1426.42 315.58Q1427.60 316.08 1428.52 316.99M1433.26 321.05L1441.29 321.05Q1441.29 320.15 1441.04 319.41Q1440.79 318.66 1440.30 318.12Q1439.81 317.57 1439.12 317.28Q1438.42 316.98 1437.54 316.98Q1435.68 316.98 1434.60 318.06Q1433.52 319.14 1433.26 321.05M1442.66 327L1443.38 327.94Q1442.90 328.52 1442.24 328.95Q1441.57 329.38 1440.81 329.65Q1440.05 329.93 1439.23 330.07Q1438.42 330.20 1437.62 330.20Q1436.10 330.20 1434.82 329.69Q1433.54 329.17 1432.60 328.18Q1431.66 327.19 1431.14 325.72Q1430.62 324.26 1430.62 322.36Q1430.62 320.82 1431.09 319.49Q1431.56 318.15 1432.45 317.17Q1433.33 316.20 1434.61 315.64Q1435.88 315.08 1437.48 315.08Q1438.80 315.08 1439.92 315.52Q1441.05 315.96 1441.87 316.80Q1442.68 317.63 1443.15 318.86Q1443.61 320.08 1443.61 321.65Q1443.61 322.26 1443.48 322.46Q1443.35 322.66 1442.99 322.66L1433.17 322.66Q1433.22 324.06 1433.56 325.08Q1433.90 326.11 1434.51 326.80Q1435.12 327.49 1435.96 327.83Q1436.80 328.17 1437.84 328.17Q1438.81 328.17 1439.52 327.95Q1440.22 327.72 1440.73 327.46Q1441.23 327.20 1441.58 326.98Q1441.92 326.75 1442.16 326.75Q1442.48 326.75 1442.66 327M1446.86 308.64L1449.44 308.64L1449.44 330L1446.86 330L1446.86 308.64M1464.25 315.31L1466.29 315.31L1458.10 334.34Q1457.97 334.63 1457.77 334.80Q1457.58 334.97 1457.17 334.97L1455.26 334.97L1457.94 329.14L1451.88 315.31L1454.11 315.31Q1454.44 315.31 1454.64 315.48Q1454.84 315.64 1454.91 315.85L1458.84 325.10Q1459.07 325.71 1459.23 326.38Q1459.43 325.69 1459.66 325.08L1463.48 315.85Q1463.56 315.62 1463.78 315.46Q1463.99 315.31 1464.25 315.31M1468.13 328.40Q1468.13 328.03 1468.27 327.69Q1468.41 327.36 1468.65 327.11Q1468.89 326.87 1469.22 326.72Q1469.55 326.58 1469.93 326.58Q1470.31 326.58 1470.64 326.72Q1470.97 326.87 1471.22 327.11Q1471.47 327.36 1471.61 327.69Q1471.76 328.03 1471.76 328.40Q1471.76 328.80 1471.61 329.12Q1471.47 329.45 1471.22 329.70Q1470.97 329.94 1470.64 330.08Q1470.31 330.22 1469.93 330.22Q1469.55 330.22 1469.22 330.08Q1468.89 329.94 1468.65 329.70Q1468.41 329.45 1468.27 329.12Q1468.13 328.80 1468.13 328.40" fill="#5a5d5e"/>
</svg>
