<?xml version="1.0" encoding="UTF-8"?>
<svg xmlns="http://www.w3.org/2000/svg" viewBox="0 0 1600 500" width="1600" height="500" role="img" aria-label="CannonadeCommand">
  <rect width="1600" height="500" fill="#0d1117"/>
  <g transform="translate(120,50) scale(0.416545)">

  <defs>
    <style>
      .cls-1 {
        fill: #786b25;
      }

      .cls-2 {
        fill: #fff;
      }

      .cls-3 {
        fill: #022107;
      }

      .cls-4 {
        fill: #6a85b4;
      }

      .cls-5 {
        fill: #5c9d63;
      }

      .cls-6 {
        fill: #2c5632;
      }

      .cls-7 {
        fill: #cec179;
      }

      .cls-8 {
        fill: #2f290c;
      }

      .cls-9 {
        fill: #575756;
      }

      .cls-10 {
        fill: #2a3f65;
      }

      .cls-11 {
        fill: #0e1a36;
      }
    </style>
  </defs>
  <g id="logo">
    <g id="kannonen">
      <g>
        <g>
          <path class="cls-10" d="M134.68,732.79l-.16-7.26c-.14-6.2,6.46-11.35,14.65-11.45l31.59-.4.27,29.8-31.21.39c-8.19.1-15-4.88-15.14-11.08Z"/>
          <path class="cls-11" d="M322.47,723.18c-.01-.68-.12-1.35-.29-2v.33c.14,6.2-6.45,11.35-14.64,11.45l-158.16,1.98c-7.29.09-13.47-3.85-14.85-9.08l.15,6.93c.14,6.2,6.95,11.18,15.14,11.08l158.16-1.98c8.19-.1,14.78-5.26,14.65-11.45l-.16-7.26Z"/>
          <path class="cls-10" d="M781.02,781.27l-550.51,12.32c-48.46,0-64.26-36.29-64.26-65.6h0c0-29.31,12.07-65.6,65.35-65.6l549.42,12.32v106.57Z"/>
          <path class="cls-11" d="M167.23,714.06c-.68,4.7-.97,9.4-.97,13.93h0c0,29.31,15.8,65.6,64.26,65.6l550.51-12.32v-26.51l-550.51,12.32c-41.69,0-59.2-26.85-63.29-53.02Z"/>
        </g>
        <g>
          <path class="cls-10" d="M256.89,808.39l-2.41-.02c-9.2-.08-16.74-8.01-16.75-17.62l-.09-128.03c0-9.61,7.52-17.41,16.72-17.33l2.41.02c9.2.08,16.74,8.01,16.75,17.62l.09,128.03c0,9.61-7.52,17.41-16.72,17.33Z"/>
          <path class="cls-4" d="M273.61,791.06c0,7.39-4.44,13.71-10.68,16.2l-.12-160.6c6.25,2.59,10.7,8.98,10.71,16.38l.1,128.03Z"/>
          <path class="cls-11" d="M237.69,662.52c-4.93-.28-9.95-.22-15.22.25l.03,130.51c4.73.44,9.88.36,15.29.21l-.09-130.96Z"/>
        </g>
        <g>
          <path class="cls-10" d="M502.48,808.45l-2.41-.02c-9.2-.07-16.75-7.99-16.77-17.6l-.24-128.03c-.02-9.61,7.5-17.42,16.7-17.35l2.41.02c9.2.07,16.75,7.99,16.77,17.6l.24,128.03c.02,9.61-7.5,17.42-16.7,17.35Z"/>
          <path class="cls-4" d="M519.23,791.11c.02,7.39-4.42,13.71-10.67,16.21l-.3-160.6c6.25,2.58,10.71,8.97,10.73,16.36l.24,128.03Z"/>
          <polygon class="cls-11" points="483.07 668.02 467.95 667.68 467.89 788.28 483.3 787.93 483.07 668.02"/>
        </g>
        <g>
          <path class="cls-10" d="M714.64,798.91l-2.41-.03c-9.2-.11-16.74-7.15-16.76-15.64l-.18-113.13c-.01-8.49,7.5-15.35,16.71-15.24l2.41.03c9.2.11,16.74,7.15,16.76,15.64l.18,113.13c.01,8.49-7.5,15.35-16.71,15.24Z"/>
          <path class="cls-4" d="M731.54,783.57c.01,6.52-4.43,12.08-10.67,14.25l-.24-141.76c6.25,2.31,10.71,7.97,10.72,14.5l.19,113.01Z"/>
          <polygon class="cls-11" points="695.29 672.78 680.17 672.44 680.21 783.42 695.47 783.24 695.29 672.78"/>
        </g>
        <g>
          <path class="cls-10" d="M789.23,798.9l-2.41-.03c-9.2-.1-16.75-7.14-16.77-15.63l-.25-113.13c-.02-8.49,7.5-15.36,16.7-15.25l2.41.03c9.2.1,16.75,7.14,16.77,15.63l.25,113.13c.02,8.49-7.5,15.36-16.7,15.25Z"/>
          <path class="cls-4" d="M805.93,783.55c.02,6.52-4.42,12.08-10.66,14.26l-.32-141.76c6.25,2.31,10.71,7.97,10.73,14.49l.26,113.01Z"/>
          <polygon class="cls-11" points="769.88 674.45 754.76 674.11 754.72 781.31 770.05 781.29 769.88 674.45"/>
        </g>
        <path class="cls-4" d="M286.89,678.41l154.94,1.8c2.33.03,4.35,1.82,4.35,5.37s-1.92,5.15-4.5,5.15h-154.94c-2.44-.01-4.41-1.98-4.43-4.42v-3.36c-.02-2.52,2.05-4.57,4.56-4.53Z"/>
        <path class="cls-4" d="M528.94,681.31l131.43,1.8c2.33.03,4.23,1.86,4.36,4.19h0c.14,2.57-1.92,4.75-4.5,4.75h-131.42c-2.44-.01-4.41-1.98-4.43-4.42v-1.79c-.02-2.52,2.05-4.57,4.56-4.53Z"/>
        <path class="cls-4" d="M739.1,683.78l7.32.37c2.33,0,4.25,1.82,4.4,4.15h0c.16,2.57-1.88,4.77-4.45,4.79l-7.45-.21c-2.44.02-4.44-1.24-4.48-3.68l-.03-1.79c-.04-2.52,2.17-3.64,4.68-3.64Z"/>
        <path class="cls-4" d="M144.83,718.69l14.91.07c1.27-.02,2.29.95,2.35,2.23h0c.07,1.4-1.06,2.62-2.46,2.66l-14.98.02c-1.33.04-2.4-.64-2.4-1.97v-.97c0-1.37,1.21-2.01,2.58-2.03Z"/>
        <path class="cls-4" d="M190.05,684.69l16.6-6.16c1.45-.56,3.66.87,4.19,2.34l.39.87c.58,1.63-.45,4.47-2.04,5.11l-17.15,6.43c-1.51.61-3.32-.82-3.8-2.4l-.45-1.47c-.49-1.62.7-4.13,2.26-4.73Z"/>
      </g>
      <g>
        <g>
          <path class="cls-6" d="M825.77,485.79l.16-7.26c.14-6.2-6.46-11.35-14.65-11.45l-31.59-.4-.27,29.8,31.21.39c8.19.1,15-4.88,15.14-11.08Z"/>
          <path class="cls-3" d="M637.98,476.18c.01-.68.12-1.35.29-2v.33c-.14,6.2,6.45,11.35,14.64,11.45l158.16,1.98c7.29.09,13.47-3.85,14.85-9.08l-.15,6.93c-.14,6.2-6.95,11.18-15.14,11.08l-158.16-1.98c-8.19-.1-14.78-5.26-14.65-11.45l.16-7.26Z"/>
          <path class="cls-6" d="M179.43,534.27l550.51,12.32c48.46,0,64.26-36.29,64.26-65.6h0c0-29.31-12.07-65.6-65.35-65.6l-549.42,12.32v106.57Z"/>
          <path class="cls-3" d="M793.22,467.06c.68,4.7.97,9.4.97,13.93h0c0,29.31-15.8,65.6-64.26,65.6l-550.51-12.32v-26.51s550.51,12.32,550.51,12.32c41.69,0,59.2-26.85,63.29-53.02Z"/>
        </g>
        <g>
          <path class="cls-6" d="M703.56,561.39l2.41-.02c9.2-.08,16.74-8.01,16.75-17.62l.09-128.03c0-9.61-7.52-17.41-16.72-17.33l-2.41.02c-9.2.08-16.74,8.01-16.75,17.62l-.09,128.03c0,9.61,7.52,17.41,16.72,17.33Z"/>
          <path class="cls-5" d="M686.84,544.06c0,7.39,4.44,13.71,10.68,16.2l.12-160.6c-6.25,2.59-10.7,8.98-10.71,16.38l-.1,128.03Z"/>
          <path class="cls-3" d="M722.76,415.52c4.93-.28,9.95-.22,15.22.25l-.03,130.51c-4.73.44-9.88.36-15.29.21l.09-130.96Z"/>
        </g>
        <g>
          <path class="cls-6" d="M457.97,561.45l2.41-.02c9.2-.07,16.75-7.99,16.77-17.6l.24-128.03c.02-9.61-7.5-17.42-16.7-17.35l-2.41.02c-9.2.07-16.75,7.99-16.77,17.6l-.24,128.03c-.02,9.61,7.5,17.42,16.7,17.35Z"/>
          <path class="cls-5" d="M441.22,544.11c-.02,7.39,4.42,13.71,10.67,16.21l.3-160.6c-6.25,2.58-10.71,8.97-10.73,16.36l-.24,128.03Z"/>
          <polygon class="cls-3" points="477.38 421.02 492.5 420.68 492.56 541.28 477.15 540.93 477.38 421.02"/>
        </g>
        <g>
          <path class="cls-6" d="M245.81,551.91l2.41-.03c9.2-.11,16.74-7.15,16.76-15.64l.18-113.13c.01-8.49-7.5-15.35-16.71-15.24l-2.41.03c-9.2.11-16.74,7.15-16.76,15.64l-.18,113.13c-.01,8.49,7.5,15.35,16.71,15.24Z"/>
          <path class="cls-5" d="M228.91,536.57c-.01,6.52,4.43,12.08,10.67,14.25l.24-141.76c-6.25,2.31-10.71,7.97-10.72,14.5l-.19,113.01Z"/>
          <polygon class="cls-3" points="265.16 425.78 280.28 425.44 280.24 536.42 264.98 536.24 265.16 425.78"/>
        </g>
        <g>
          <path class="cls-6" d="M171.22,551.9l2.41-.03c9.2-.1,16.75-7.14,16.77-15.63l.25-113.13c.02-8.49-7.5-15.36-16.7-15.25l-2.41.03c-9.2.1-16.75,7.14-16.77,15.63l-.25,113.13c-.02,8.49,7.5,15.36,16.7,15.25Z"/>
          <path class="cls-5" d="M154.52,536.55c-.02,6.52,4.42,12.08,10.66,14.26l.32-141.76c-6.25,2.31-10.71,7.97-10.73,14.49l-.26,113.01Z"/>
          <polygon class="cls-3" points="190.57 427.45 205.69 427.11 205.73 534.31 190.4 534.29 190.57 427.45"/>
        </g>
        <path class="cls-5" d="M673.56,431.41l-154.94,1.8c-2.33.03-4.35,1.82-4.35,5.37s1.92,5.15,4.5,5.15h154.94c2.44-.01,4.41-1.98,4.43-4.42v-3.36c.02-2.52-2.05-4.57-4.56-4.53Z"/>
        <path class="cls-5" d="M431.51,434.31l-131.43,1.8c-2.33.03-4.23,1.86-4.36,4.19h0c-.14,2.57,1.92,4.75,4.5,4.75h131.42c2.44-.01,4.41-1.98,4.43-4.42v-1.79c.02-2.52-2.05-4.57-4.56-4.53Z"/>
        <path class="cls-5" d="M221.35,436.78l-7.32.37c-2.33,0-4.25,1.82-4.4,4.15h0c-.16,2.57,1.88,4.77,4.45,4.79l7.45-.21c2.44.02,4.44-1.24,4.48-3.68l.03-1.79c.04-2.52-2.17-3.64-4.68-3.64Z"/>
        <path class="cls-5" d="M815.62,471.69l-14.91.07c-1.27-.02-2.29.95-2.35,2.23h0c-.07,1.4,1.06,2.62,2.46,2.66l14.98.02c1.33.04,2.4-.64,2.4-1.97v-.97c0-1.37-1.21-2.01-2.58-2.03Z"/>
        <path class="cls-5" d="M770.4,437.69l-16.6-6.16c-1.45-.56-3.66.87-4.19,2.34l-.39.87c-.58,1.63.45,4.47,2.04,5.11l17.15,6.43c1.51.61,3.32-.82,3.8-2.4l.45-1.47c.49-1.62-.7-4.13-2.26-4.73Z"/>
      </g>
      <g>
        <g>
          <path class="cls-1" d="M134.68,250.79l-.16-7.26c-.14-6.2,6.46-11.35,14.65-11.45l31.59-.4.27,29.8-31.21.39c-8.19.1-15-4.88-15.14-11.08Z"/>
          <path class="cls-8" d="M322.47,241.18c-.01-.68-.12-1.35-.29-2v.33c.14,6.2-6.45,11.35-14.64,11.45l-158.16,1.98c-7.29.09-13.47-3.85-14.85-9.08l.15,6.93c.14,6.2,6.95,11.18,15.14,11.08l158.16-1.98c8.19-.1,14.78-5.26,14.65-11.45l-.16-7.26Z"/>
          <path class="cls-1" d="M781.02,299.27l-550.51,12.32c-48.46,0-64.26-36.29-64.26-65.6h0c0-29.31,12.07-65.6,65.35-65.6l549.42,12.32v106.57Z"/>
          <path class="cls-8" d="M167.23,232.06c-.68,4.7-.97,9.4-.97,13.93h0c0,29.31,15.8,65.6,64.26,65.6l550.51-12.32v-26.51l-550.51,12.32c-41.69,0-59.2-26.85-63.29-53.02Z"/>
        </g>
        <g>
          <path class="cls-1" d="M256.89,326.39l-2.41-.02c-9.2-.08-16.74-8.01-16.75-17.62l-.09-128.03c0-9.61,7.52-17.41,16.72-17.33l2.41.02c9.2.08,16.74,8.01,16.75,17.62l.09,128.03c0,9.61-7.52,17.41-16.72,17.33Z"/>
          <path class="cls-7" d="M273.61,309.06c0,7.39-4.44,13.71-10.68,16.2l-.12-160.6c6.25,2.59,10.7,8.98,10.71,16.38l.1,128.03Z"/>
          <path class="cls-8" d="M237.69,180.52c-4.93-.28-9.95-.22-15.22.25l.03,130.51c4.73.44,9.88.36,15.29.21l-.09-130.96Z"/>
        </g>
        <g>
          <path class="cls-1" d="M502.48,326.45l-2.41-.02c-9.2-.07-16.75-7.99-16.77-17.6l-.24-128.03c-.02-9.61,7.5-17.42,16.7-17.35l2.41.02c9.2.07,16.75,7.99,16.77,17.6l.24,128.03c.02,9.61-7.5,17.42-16.7,17.35Z"/>
          <path class="cls-7" d="M519.23,309.11c.02,7.39-4.42,13.71-10.67,16.21l-.3-160.6c6.25,2.58,10.71,8.97,10.73,16.36l.24,128.03Z"/>
          <polygon class="cls-8" points="483.07 186.02 467.95 185.68 467.89 306.28 483.3 305.93 483.07 186.02"/>
        </g>
        <g>
          <path class="cls-1" d="M714.64,316.91l-2.41-.03c-9.2-.11-16.74-7.15-16.76-15.64l-.18-113.13c-.01-8.49,7.5-15.35,16.71-15.24l2.41.03c9.2.11,16.74,7.15,16.76,15.64l.18,113.13c.01,8.49-7.5,15.35-16.71,15.24Z"/>
          <path class="cls-7" d="M731.54,301.57c.01,6.52-4.43,12.08-10.67,14.25l-.24-141.76c6.25,2.31,10.71,7.97,10.72,14.5l.19,113.01Z"/>
          <polygon class="cls-8" points="695.29 190.78 680.17 190.44 680.21 301.42 695.47 301.24 695.29 190.78"/>
        </g>
        <g>
          <path class="cls-1" d="M789.23,316.9l-2.41-.03c-9.2-.1-16.75-7.14-16.77-15.63l-.25-113.13c-.02-8.49,7.5-15.36,16.7-15.25l2.41.03c9.2.1,16.75,7.14,16.77,15.63l.25,113.13c.02,8.49-7.5,15.36-16.7,15.25Z"/>
          <path class="cls-7" d="M805.93,301.55c.02,6.52-4.42,12.08-10.66,14.26l-.32-141.76c6.25,2.31,10.71,7.97,10.73,14.49l.26,113.01Z"/>
          <polygon class="cls-8" points="769.88 192.45 754.76 192.11 754.72 299.31 770.05 299.29 769.88 192.45"/>
        </g>
        <path class="cls-7" d="M286.89,196.41l154.94,1.8c2.33.03,4.35,1.82,4.35,5.37s-1.92,5.15-4.5,5.15h-154.94c-2.44-.01-4.41-1.98-4.43-4.42v-3.36c-.02-2.52,2.05-4.57,4.56-4.53Z"/>
        <path class="cls-7" d="M528.94,199.31l131.43,1.8c2.33.03,4.23,1.86,4.36,4.19h0c.14,2.57-1.92,4.75-4.5,4.75h-131.42c-2.44-.01-4.41-1.98-4.43-4.42v-1.79c-.02-2.52,2.05-4.57,4.56-4.53Z"/>
        <path class="cls-7" d="M739.1,201.78l7.32.37c2.33,0,4.25,1.82,4.4,4.15h0c.16,2.57-1.88,4.77-4.45,4.79l-7.45-.21c-2.44.02-4.44-1.24-4.48-3.68l-.03-1.79c-.04-2.52,2.17-3.64,4.68-3.64Z"/>
        <path class="cls-7" d="M144.83,236.69l14.91.07c1.27-.02,2.29.95,2.35,2.23h0c.07,1.4-1.06,2.62-2.46,2.66l-14.98.02c-1.33.04-2.4-.64-2.4-1.97v-.97c0-1.37,1.21-2.01,2.58-2.03Z"/>
        <path class="cls-7" d="M190.05,202.69l16.6-6.16c1.45-.56,3.66.87,4.19,2.34l.39.87c.58,1.63-.45,4.47-2.04,5.11l-17.15,6.43c-1.51.61-3.32-.82-3.8-2.4l-.45-1.47c-.49-1.62.7-4.13,2.26-4.73Z"/>
      </g>
    </g>
    <path id="rahmen_hell" class="cls-2" d="M865.8,94.48v771.32H94.48V94.48h771.32M896.83,0H63.45C28.41,0,0,28.41,0,63.45v833.38c0,35.04,28.41,63.45,63.45,63.45h833.38c35.04,0,63.45-28.41,63.45-63.45V63.45C960.28,28.41,931.87,0,896.83,0h0Z"/>
    <g id="schattierung">
      <path id="rahmen_dunkel" class="cls-9" d="M896.83,0H63.45C44.12,0,26.81,8.65,15.17,22.28c7.09-2.59,14.78-4,22.82-4h840.05c35.33,0,63.96,27.33,63.96,61.03v801.66c0,33.7-28.63,61.03-63.96,61.03H37.99c-8.04,0-15.73-1.41-22.82-4,11.64,13.63,28.95,22.28,48.28,22.28h833.38c35.04,0,63.45-28.41,63.45-63.45V63.45c0-35.04-28.41-63.45-63.45-63.45Z"/>
      <path id="rahmen_dunkel-2" data-name="rahmen_dunkel" class="cls-9" d="M865.8,94.48v-19.79l-794.14-.54v811.98h794.14v-20.33H94.48V94.48h771.32Z"/>
    </g>
  </g>

  </g>
  <path d="M630.11 183.57Q629.10 181.82 622.57 181.82Q614.01 181.82 609.60 187.62Q605.18 193.42 605.18 204.36Q605.18 227.09 622.20 227.09Q622.48 227.09 624.64 227.09Q626.80 227.09 628.73 226.49Q630.66 225.89 631.03 225.25Q631.40 224.60 631.40 223.22L631.40 215.86L640.78 216.51L640.78 232.42Q633.61 236.20 622.57 236.20Q608.49 236.20 601.09 228.28Q593.68 220.37 593.68 204.73Q593.68 196.08 596.16 189.64Q598.65 183.20 602.88 179.62Q611.16 172.72 622.57 172.72Q631.77 172.72 639.86 176.49L639.86 192.13L630.48 192.77L630.48 185.60Q630.48 184.22 630.11 183.57M689.73 190.56L689.73 224.79Q689.73 226.26 690.23 226.81Q690.74 227.36 692.03 227.46L694.97 227.64L694.97 235L680.34 235L680.34 229.66L680.07 229.57Q675.47 236.20 667.46 236.20Q658.08 236.20 653.57 230.22Q649.06 224.24 649.06 213.84Q649.06 201.33 655.14 194.34Q661.21 187.34 673.35 187.34Q681.17 187.34 689.73 190.56M679.06 220.37L679.06 196.54Q676.48 195.35 671.97 195.35Q665.81 195.35 663.05 200.32Q660.29 205.28 660.29 213.47Q660.29 228.38 669.86 228.38Q673.90 228.38 676.48 225.94Q679.06 223.50 679.06 220.37M703.90 196.36L700.03 196.08L700.03 188.72L715.58 188.72L715.58 194.70Q717.97 191.30 721.93 189.32Q725.88 187.34 730.48 187.34Q737.48 187.34 741.29 191.35Q745.11 195.35 745.11 203.35L745.11 227.36L750.36 227.64L750.36 235L728.46 235L728.46 228.01L731.50 227.73Q732.88 227.55 733.52 226.95Q734.16 226.35 734.16 224.70L734.16 205.74Q734.16 200.68 732.60 198.25Q731.04 195.81 726.67 195.81Q722.30 195.81 719.72 198.57Q717.14 201.33 717.14 205.10L717.14 227.36L722.39 227.64L722.39 235L700.49 235L700.49 228.01L703.53 227.73Q704.91 227.55 705.55 226.95Q706.20 226.35 706.20 224.70L706.20 199.21Q706.20 196.45 703.90 196.36M759.10 196.36L755.23 196.08L755.23 188.72L770.78 188.72L770.78 194.70Q773.17 191.30 777.13 189.32Q781.08 187.34 785.68 187.34Q792.68 187.34 796.49 191.35Q800.31 195.35 800.31 203.35L800.31 227.36L805.56 227.64L805.56 235L783.66 235L783.66 228.01L786.70 227.73Q788.08 227.55 788.72 226.95Q789.36 226.35 789.36 224.70L789.36 205.74Q789.36 200.68 787.80 198.25Q786.24 195.81 781.87 195.81Q777.50 195.81 774.92 198.57Q772.34 201.33 772.34 205.10L772.34 227.36L777.59 227.64L777.59 235L755.69 235L755.69 228.01L758.73 227.73Q760.11 227.55 760.75 226.95Q761.40 226.35 761.40 224.70L761.40 199.21Q761.40 196.45 759.10 196.36M831.22 228.28Q841.25 228.28 841.25 212.09Q841.25 203.90 839 199.67Q836.74 195.44 831.45 195.44Q826.16 195.44 823.68 199.49Q821.20 203.54 821.20 210.53Q821.20 223.50 825.98 226.81Q828.10 228.28 831.22 228.28M810.06 211.82Q810.06 205.01 812.09 199.99Q814.11 194.98 817.52 192.31Q824.05 187.34 831.96 187.34Q837.48 187.34 841.30 189.14Q845.12 190.93 847.28 193.28Q849.44 195.62 850.96 200.09Q852.48 204.55 852.48 210.62Q852.48 223.32 846.31 229.85Q840.15 236.38 830.53 236.38Q820.92 236.38 815.49 230.17Q810.06 223.96 810.06 211.82M861.95 196.36L858.09 196.08L858.09 188.72L873.64 188.72L873.64 194.70Q876.03 191.30 879.98 189.32Q883.94 187.34 888.54 187.34Q895.53 187.34 899.35 191.35Q903.17 195.35 903.17 203.35L903.17 227.36L908.41 227.64L908.41 235L886.52 235L886.52 228.01L889.55 227.73Q890.93 227.55 891.58 226.95Q892.22 226.35 892.22 224.70L892.22 205.74Q892.22 200.68 890.66 198.25Q889.09 195.81 884.72 195.81Q880.35 195.81 877.78 198.57Q875.20 201.33 875.20 205.10L875.20 227.36L880.44 227.64L880.44 235L858.55 235L858.55 228.01L861.58 227.73Q862.96 227.55 863.61 226.95Q864.25 226.35 864.25 224.70L864.25 199.21Q864.25 196.45 861.95 196.36M955.15 190.56L955.15 224.79Q955.15 226.26 955.65 226.81Q956.16 227.36 957.45 227.46L960.39 227.64L960.39 235L945.76 235L945.76 229.66L945.49 229.57Q940.89 236.20 932.88 236.20Q923.50 236.20 918.99 230.22Q914.48 224.24 914.48 213.84Q914.48 201.33 920.56 194.34Q926.63 187.34 938.77 187.34Q946.59 187.34 955.15 190.56M944.48 220.37L944.48 196.54Q941.90 195.35 937.39 195.35Q931.23 195.35 928.47 200.32Q925.71 205.28 925.71 213.47Q925.71 228.38 935.28 228.38Q939.32 228.38 941.90 225.94Q944.48 223.50 944.48 220.37M989.10 187.34Q993.05 187.34 996.64 188.45L996.64 179.16Q996.64 177.13 994.25 176.95L990.29 176.67L990.29 169.40L1007.40 169.40L1007.40 225.34Q1007.50 227.46 1009.70 227.46L1012.92 227.64L1012.92 235L998.02 235L998.02 229.57L997.74 229.48Q993.60 236.20 985.23 236.20Q974.74 236.20 970.51 229.20Q966.65 222.86 966.65 213.66Q966.65 201.70 972.58 194.52Q978.52 187.34 989.10 187.34M996.64 220.65L996.64 196.82Q993.33 195.35 989.65 195.35Q983.58 195.35 980.77 200.22Q977.96 205.10 977.96 212.64Q977.96 228.10 987.90 228.10Q991.67 228.10 994.16 225.94Q996.64 223.78 996.64 220.65M1041.35 187.34Q1048.25 187.34 1052.30 190.70Q1056.35 194.06 1056.35 200.13Q1056.35 204.18 1054.60 207.26Q1052.85 210.34 1050.28 212.09Q1047.70 213.84 1044.02 214.94Q1037.86 216.78 1030.13 216.78Q1030.40 221.66 1033.16 224.65Q1035.92 227.64 1041.63 227.64Q1047.33 227.64 1053.04 223.59L1056.53 231.04Q1054.69 232.70 1050.32 234.45Q1045.95 236.20 1040.34 236.20Q1029.12 236.20 1023.87 229.99Q1018.63 223.78 1018.63 212.92Q1018.63 202.06 1024.61 194.70Q1030.59 187.34 1041.35 187.34M1037.17 208.37Q1040.52 207.77 1043.38 205.70Q1046.23 203.63 1046.23 200.78Q1046.23 195.16 1040.71 195.16Q1035.56 195.16 1032.80 199.26Q1030.04 203.35 1029.76 209.06Q1033.81 208.96 1037.17 208.37M1099.86 183.57Q1098.85 181.82 1092.32 181.82Q1083.76 181.82 1079.35 187.62Q1074.93 193.42 1074.93 204.36Q1074.93 227.09 1091.95 227.09Q1092.23 227.09 1094.39 227.09Q1096.55 227.09 1098.48 226.49Q1100.42 225.89 1100.78 225.25Q1101.15 224.60 1101.15 223.22L1101.15 215.86L1110.54 216.51L1110.54 232.42Q1103.36 236.20 1092.32 236.20Q1078.24 236.20 1070.84 228.28Q1063.43 220.37 1063.43 204.73Q1063.43 196.08 1065.92 189.64Q1068.40 183.20 1072.63 179.62Q1080.91 172.72 1092.32 172.72Q1101.52 172.72 1109.62 176.49L1109.62 192.13L1100.23 192.77L1100.23 185.60Q1100.23 184.22 1099.86 183.57M1139.33 228.28Q1149.36 228.28 1149.36 212.09Q1149.36 203.90 1147.11 199.67Q1144.85 195.44 1139.56 195.44Q1134.27 195.44 1131.79 199.49Q1129.30 203.54 1129.30 210.53Q1129.30 223.50 1134.09 226.81Q1136.20 228.28 1139.33 228.28M1118.17 211.82Q1118.17 205.01 1120.20 199.99Q1122.22 194.98 1125.62 192.31Q1132.16 187.34 1140.07 187.34Q1145.59 187.34 1149.41 189.14Q1153.22 190.93 1155.39 193.28Q1157.55 195.62 1159.07 200.09Q1160.58 204.55 1160.58 210.62Q1160.58 223.32 1154.42 229.85Q1148.26 236.38 1138.64 236.38Q1129.03 236.38 1123.60 230.17Q1118.17 223.96 1118.17 211.82M1170.06 196.45L1166.20 196.18L1166.20 188.72L1181.74 188.72L1181.74 194.70Q1186.90 187.34 1195.87 187.34Q1204.84 187.34 1207.96 194.70Q1213.12 187.34 1221.95 187.34Q1228.57 187.34 1232.16 191.35Q1235.75 195.35 1235.75 203.35L1235.75 227.36L1240.99 227.64L1240.99 235L1219.10 235L1219.10 228.01L1222.13 227.73Q1223.51 227.55 1224.11 226.95Q1224.71 226.35 1224.80 224.79L1224.80 205.74Q1224.80 200.68 1223.65 198.25Q1222.50 195.81 1218.27 195.81Q1214.04 195.81 1211.78 198.38Q1209.53 200.96 1209.53 205.28L1209.53 227.36L1214.59 227.64L1214.59 235L1192.88 235L1192.88 228.01L1195.91 227.73Q1197.29 227.55 1197.94 226.95Q1198.58 226.35 1198.58 224.70L1198.58 205.74Q1198.58 200.68 1197.43 198.25Q1196.28 195.81 1192 195.81Q1187.72 195.81 1185.52 198.48Q1183.31 201.14 1183.31 205.10L1183.31 227.36L1188.28 227.64L1188.28 235L1166.56 235L1166.56 228.01L1169.60 227.73Q1170.98 227.55 1171.62 226.95Q1172.27 226.35 1172.27 224.70L1172.36 224.70L1172.36 199.30Q1172.36 197.74 1171.85 197.14Q1171.35 196.54 1170.06 196.45M1249.73 196.45L1245.87 196.18L1245.87 188.72L1261.42 188.72L1261.42 194.70Q1266.57 187.34 1275.54 187.34Q1284.51 187.34 1287.64 194.70Q1292.79 187.34 1301.62 187.34Q1308.24 187.34 1311.83 191.35Q1315.42 195.35 1315.42 203.35L1315.42 227.36L1320.66 227.64L1320.66 235L1298.77 235L1298.77 228.01L1301.80 227.73Q1303.18 227.55 1303.78 226.95Q1304.38 226.35 1304.47 224.79L1304.47 205.74Q1304.47 200.68 1303.32 198.25Q1302.17 195.81 1297.94 195.81Q1293.71 195.81 1291.45 198.38Q1289.20 200.96 1289.20 205.28L1289.20 227.36L1294.26 227.64L1294.26 235L1272.55 235L1272.55 228.01L1275.58 227.73Q1276.96 227.55 1277.61 226.95Q1278.25 226.35 1278.25 224.70L1278.25 205.74Q1278.25 200.68 1277.10 198.25Q1275.95 195.81 1271.67 195.81Q1267.40 195.81 1265.19 198.48Q1262.98 201.14 1262.98 205.10L1262.98 227.36L1267.95 227.64L1267.95 235L1246.24 235L1246.24 228.01L1249.27 227.73Q1250.65 227.55 1251.30 226.95Q1251.94 226.35 1251.94 224.70L1252.03 224.70L1252.03 199.30Q1252.03 197.74 1251.53 197.14Q1251.02 196.54 1249.73 196.45M1367.40 190.56L1367.40 224.79Q1367.40 226.26 1367.91 226.81Q1368.41 227.36 1369.70 227.46L1372.64 227.64L1372.64 235L1358.02 235L1358.02 229.66L1357.74 229.57Q1353.14 236.20 1345.14 236.20Q1335.75 236.20 1331.24 230.22Q1326.74 224.24 1326.74 213.84Q1326.74 201.33 1332.81 194.34Q1338.88 187.34 1351.02 187.34Q1358.84 187.34 1367.40 190.56M1356.73 220.37L1356.73 196.54Q1354.15 195.35 1349.64 195.35Q1343.48 195.35 1340.72 200.32Q1337.96 205.28 1337.96 213.47Q1337.96 228.38 1347.53 228.38Q1351.58 228.38 1354.15 225.94Q1356.73 223.50 1356.73 220.37M1381.57 196.36L1377.70 196.08L1377.70 188.72L1393.25 188.72L1393.25 194.70Q1395.64 191.30 1399.60 189.32Q1403.56 187.34 1408.16 187.34Q1415.15 187.34 1418.97 191.35Q1422.78 195.35 1422.78 203.35L1422.78 227.36L1428.03 227.64L1428.03 235L1406.13 235L1406.13 228.01L1409.17 227.73Q1410.55 227.55 1411.19 226.95Q1411.84 226.35 1411.84 224.70L1411.84 205.74Q1411.84 200.68 1410.27 198.25Q1408.71 195.81 1404.34 195.81Q1399.97 195.81 1397.39 198.57Q1394.82 201.33 1394.82 205.10L1394.82 227.36L1400.06 227.64L1400.06 235L1378.16 235L1378.16 228.01L1381.20 227.73Q1382.58 227.55 1383.22 226.95Q1383.87 226.35 1383.87 224.70L1383.87 199.21Q1383.87 196.45 1381.57 196.36M1456.55 187.34Q1460.50 187.34 1464.09 188.45L1464.09 179.16Q1464.09 177.13 1461.70 176.95L1457.74 176.67L1457.74 169.40L1474.86 169.40L1474.86 225.34Q1474.95 227.46 1477.16 227.46L1480.38 227.64L1480.38 235L1465.47 235L1465.47 229.57L1465.20 229.48Q1461.06 236.20 1452.68 236.20Q1442.20 236.20 1437.96 229.20Q1434.10 222.86 1434.10 213.66Q1434.10 201.70 1440.03 194.52Q1445.97 187.34 1456.55 187.34M1464.09 220.65L1464.09 196.82Q1460.78 195.35 1457.10 195.35Q1451.03 195.35 1448.22 200.22Q1445.42 205.10 1445.42 212.64Q1445.42 228.10 1455.35 228.10Q1459.12 228.10 1461.61 225.94Q1464.09 223.78 1464.09 220.65" fill="#e6edf3"/>
  <path d="M621.18 287.49L603.61 287.49L603.61 300.26L618.63 300.26L618.63 304.29L603.61 304.29L603.61 320L598.67 320L598.67 283.46L621.18 283.46L621.18 287.49M626.69 294.17L631.23 294.17L631.23 320L626.69 320L626.69 294.17M632.20 286.06Q632.20 286.72 631.93 287.30Q631.66 287.87 631.22 288.32Q630.77 288.76 630.17 289.02Q629.57 289.27 628.91 289.27Q628.25 289.27 627.67 289.02Q627.10 288.76 626.67 288.32Q626.23 287.87 625.98 287.30Q625.72 286.72 625.72 286.06Q625.72 285.40 625.98 284.80Q626.23 284.20 626.67 283.75Q627.10 283.31 627.67 283.05Q628.25 282.80 628.91 282.80Q629.57 282.80 630.17 283.05Q630.77 283.31 631.22 283.75Q631.66 284.20 631.93 284.80Q632.20 285.40 632.20 286.06M642.68 295.42L642.99 299.35Q644.21 296.69 645.99 295.20Q647.78 293.71 650.36 293.71Q651.17 293.71 651.92 293.89Q652.68 294.07 653.26 294.45L652.93 297.84Q652.78 298.48 652.17 298.48Q651.81 298.48 651.12 298.32Q650.43 298.17 649.56 298.17Q648.34 298.17 647.38 298.53Q646.43 298.89 645.68 299.59Q644.92 300.29 644.32 301.32Q643.73 302.35 643.24 303.68L643.24 320L638.68 320L638.68 294.17L641.28 294.17Q642.02 294.17 642.30 294.45Q642.58 294.73 642.68 295.42M660.40 304.27L674.53 304.27Q674.53 302.69 674.08 301.37Q673.64 300.06 672.78 299.10Q671.93 298.15 670.70 297.62Q669.48 297.10 667.92 297.10Q664.66 297.10 662.76 299Q660.86 300.90 660.40 304.27M676.93 314.72L678.20 316.38Q677.36 317.40 676.19 318.15Q675.01 318.90 673.67 319.39Q672.34 319.87 670.91 320.11Q669.48 320.36 668.08 320.36Q665.40 320.36 663.14 319.45Q660.89 318.55 659.24 316.80Q657.60 315.05 656.68 312.48Q655.76 309.90 655.76 306.56Q655.76 303.86 656.59 301.51Q657.42 299.17 658.97 297.45Q660.53 295.72 662.77 294.74Q665.02 293.76 667.82 293.76Q670.14 293.76 672.12 294.54Q674.10 295.32 675.54 296.78Q676.98 298.25 677.79 300.40Q678.61 302.56 678.61 305.31Q678.61 306.38 678.38 306.74Q678.15 307.10 677.51 307.10L660.25 307.10Q660.33 309.55 660.92 311.36Q661.52 313.17 662.60 314.38Q663.67 315.59 665.14 316.19Q666.62 316.79 668.46 316.79Q670.17 316.79 671.41 316.39Q672.64 316 673.53 315.54Q674.43 315.08 675.03 314.68Q675.63 314.29 676.06 314.29Q676.62 314.29 676.93 314.72M688.73 301.28L688.73 313.78Q689.98 315.46 691.46 316.15Q692.94 316.84 694.78 316.84Q698.40 316.84 700.34 314.26Q702.27 311.69 702.27 306.92Q702.27 304.39 701.83 302.58Q701.38 300.77 700.54 299.61Q699.70 298.45 698.47 297.92Q697.25 297.38 695.69 297.38Q693.48 297.38 691.81 298.40Q690.13 299.42 688.73 301.28M688.10 295.11L688.50 298.17Q690.13 296.16 692.28 294.93Q694.42 293.71 697.17 293.71Q699.42 293.71 701.23 294.56Q703.04 295.42 704.31 297.09Q705.59 298.76 706.28 301.23Q706.97 303.71 706.97 306.92Q706.97 309.77 706.20 312.24Q705.43 314.70 703.99 316.49Q702.55 318.29 700.48 319.32Q698.40 320.36 695.80 320.36Q693.42 320.36 691.73 319.55Q690.03 318.75 688.73 317.32L688.73 328.75L684.17 328.75L684.17 294.17L686.90 294.17Q687.87 294.17 688.10 295.11M723.64 293.76Q726.47 293.76 728.74 294.70Q731.01 295.65 732.62 297.38Q734.22 299.12 735.08 301.58Q735.93 304.04 735.93 307.07Q735.93 310.13 735.08 312.58Q734.22 315.03 732.62 316.76Q731.01 318.50 728.74 319.43Q726.47 320.36 723.64 320.36Q720.79 320.36 718.50 319.43Q716.22 318.50 714.62 316.76Q713.01 315.03 712.15 312.58Q711.30 310.13 711.30 307.07Q711.30 304.04 712.15 301.58Q713.01 299.12 714.62 297.38Q716.22 295.65 718.50 294.70Q720.79 293.76 723.64 293.76M723.64 316.81Q727.47 316.81 729.35 314.25Q731.24 311.69 731.24 307.10Q731.24 302.48 729.35 299.91Q727.47 297.33 723.64 297.33Q721.70 297.33 720.26 297.99Q718.82 298.66 717.87 299.91Q716.91 301.16 716.44 302.98Q715.97 304.80 715.97 307.10Q715.97 311.69 717.87 314.25Q719.77 316.81 723.64 316.81M773.88 294.17L777.29 294.17L768.93 320L765.33 320Q764.67 320 764.42 319.13L758.70 301.61Q758.50 301.03 758.37 300.43Q758.25 299.83 758.12 299.24Q757.99 299.83 757.86 300.43Q757.74 301.03 757.53 301.64L751.72 319.13Q751.49 320 750.70 320L747.28 320L738.92 294.17L742.49 294.17Q743.02 294.17 743.39 294.45Q743.76 294.73 743.89 295.11L748.84 311.74Q749.27 313.57 749.52 315.21Q749.75 314.36 750 313.50Q750.24 312.63 750.52 311.74L755.98 295.01Q756.10 294.63 756.42 294.37Q756.74 294.12 757.20 294.12L759.19 294.12Q759.70 294.12 760.03 294.37Q760.36 294.63 760.49 295.01L765.82 311.74Q766.10 312.63 766.33 313.50Q766.56 314.36 766.76 315.21Q766.89 314.36 767.08 313.51Q767.27 312.66 767.50 311.74L772.55 295.11Q772.68 294.70 773.04 294.44Q773.39 294.17 773.88 294.17M784.89 304.27L799.02 304.27Q799.02 302.69 798.57 301.37Q798.13 300.06 797.27 299.10Q796.42 298.15 795.20 297.62Q793.97 297.10 792.42 297.10Q789.15 297.10 787.25 299Q785.35 300.90 784.89 304.27M801.42 314.72L802.69 316.38Q801.85 317.40 800.68 318.15Q799.50 318.90 798.17 319.39Q796.83 319.87 795.40 320.11Q793.97 320.36 792.57 320.36Q789.89 320.36 787.63 319.45Q785.38 318.55 783.73 316.80Q782.09 315.05 781.17 312.48Q780.25 309.90 780.25 306.56Q780.25 303.86 781.08 301.51Q781.91 299.17 783.47 297.45Q785.02 295.72 787.26 294.74Q789.51 293.76 792.31 293.76Q794.63 293.76 796.61 294.54Q798.59 295.32 800.03 296.78Q801.47 298.25 802.28 300.40Q803.10 302.56 803.10 305.31Q803.10 306.38 802.87 306.74Q802.64 307.10 802 307.10L784.74 307.10Q784.82 309.55 785.42 311.36Q786.02 313.17 787.09 314.38Q788.16 315.59 789.64 316.19Q791.12 316.79 792.95 316.79Q794.66 316.79 795.90 316.39Q797.13 316 798.03 315.54Q798.92 315.08 799.52 314.68Q800.12 314.29 800.55 314.29Q801.11 314.29 801.42 314.72M812.66 295.42L812.97 299.35Q814.19 296.69 815.98 295.20Q817.76 293.71 820.34 293.71Q821.15 293.71 821.91 293.89Q822.66 294.07 823.25 294.45L822.91 297.84Q822.76 298.48 822.15 298.48Q821.79 298.48 821.10 298.32Q820.41 298.17 819.55 298.17Q818.32 298.17 817.37 298.53Q816.41 298.89 815.66 299.59Q814.91 300.29 814.31 301.32Q813.71 302.35 813.22 303.68L813.22 320L808.66 320L808.66 294.17L811.26 294.17Q812 294.17 812.28 294.45Q812.56 294.73 812.66 295.42M854.28 313.73L854.28 308.37Q851.14 308.47 848.94 308.87Q846.73 309.26 845.34 309.90Q843.95 310.54 843.33 311.41Q842.70 312.27 842.70 313.34Q842.70 314.36 843.03 315.10Q843.36 315.84 843.94 316.32Q844.51 316.79 845.29 317Q846.07 317.22 846.96 317.22Q848.16 317.22 849.15 316.98Q850.15 316.74 851.03 316.28Q851.91 315.82 852.71 315.18Q853.51 314.54 854.28 313.73M840.43 299.27L839.62 297.81Q841.76 295.75 844.23 294.73Q846.71 293.71 849.71 293.71Q851.88 293.71 853.56 294.42Q855.25 295.14 856.40 296.41Q857.54 297.69 858.13 299.50Q858.72 301.31 858.72 303.48L858.72 320L856.70 320Q856.04 320 855.68 319.78Q855.32 319.57 855.12 318.93L854.61 316.48Q853.59 317.42 852.62 318.15Q851.65 318.88 850.58 319.38Q849.51 319.87 848.30 320.14Q847.09 320.41 845.61 320.41Q844.10 320.41 842.78 319.99Q841.45 319.57 840.47 318.73Q839.49 317.88 838.91 316.60Q838.34 315.31 838.34 313.55Q838.34 312.02 839.18 310.60Q840.02 309.19 841.91 308.09Q843.80 307 846.83 306.29Q849.87 305.59 854.28 305.49L854.28 303.48Q854.28 300.47 852.98 298.92Q851.68 297.38 849.18 297.38Q847.50 297.38 846.36 297.80Q845.23 298.22 844.40 298.75Q843.57 299.27 842.97 299.69Q842.37 300.11 841.78 300.11Q841.32 300.11 840.99 299.87Q840.66 299.63 840.43 299.27M869.55 295.11L869.91 297.92Q870.75 296.97 871.70 296.21Q872.64 295.44 873.70 294.90Q874.76 294.35 875.94 294.05Q877.13 293.76 878.50 293.76Q880.62 293.76 882.24 294.46Q883.86 295.16 884.94 296.45Q886.03 297.74 886.59 299.55Q887.15 301.36 887.15 303.55L887.15 320L882.58 320L882.58 303.55Q882.58 300.62 881.24 299Q879.91 297.38 877.18 297.38Q875.16 297.38 873.42 298.35Q871.67 299.32 870.19 300.98L870.19 320L865.63 320L865.63 294.17L868.35 294.17Q869.32 294.17 869.55 295.11M910.91 312.78L910.91 300.31Q909.64 298.61 908.16 297.93Q906.68 297.25 904.85 297.25Q901.25 297.25 899.31 299.83Q897.37 302.40 897.37 307.17Q897.37 309.70 897.81 311.50Q898.24 313.29 899.08 314.45Q899.92 315.61 901.15 316.15Q902.37 316.69 903.93 316.69Q906.17 316.69 907.84 315.67Q909.51 314.64 910.91 312.78M910.91 282.44L915.45 282.44L915.45 320L912.75 320Q911.78 320 911.53 319.06L911.12 315.92Q909.46 317.91 907.34 319.13Q905.23 320.36 902.45 320.36Q900.23 320.36 898.42 319.50Q896.61 318.65 895.33 316.99Q894.06 315.33 893.37 312.86Q892.68 310.39 892.68 307.17Q892.68 304.32 893.45 301.86Q894.21 299.40 895.64 297.59Q897.07 295.77 899.15 294.74Q901.22 293.71 903.83 293.71Q906.20 293.71 907.89 294.51Q909.59 295.32 910.91 296.74L910.91 282.44M941.95 320L937.38 320L937.38 298.04L934.53 297.71Q933.99 297.59 933.65 297.32Q933.30 297.05 933.30 296.54L933.30 294.68L937.38 294.68L937.38 292.18Q937.38 289.96 938.01 288.24Q938.63 286.52 939.79 285.33Q940.95 284.15 942.59 283.53Q944.22 282.92 946.26 282.92Q947.99 282.92 949.44 283.43L949.34 285.70Q949.29 286.31 948.67 286.37Q948.04 286.42 947 286.42Q945.82 286.42 944.87 286.72Q943.91 287.03 943.22 287.72Q942.53 288.41 942.16 289.53Q941.79 290.65 941.79 292.31L941.79 294.68L949.24 294.68L949.24 297.97L941.95 297.97L941.95 320M953.83 294.17L958.37 294.17L958.37 320L953.83 320L953.83 294.17M959.34 286.06Q959.34 286.72 959.07 287.30Q958.80 287.87 958.36 288.32Q957.91 288.76 957.31 289.02Q956.71 289.27 956.05 289.27Q955.39 289.27 954.81 289.02Q954.24 288.76 953.81 288.32Q953.37 287.87 953.12 287.30Q952.86 286.72 952.86 286.06Q952.86 285.40 953.12 284.80Q953.37 284.20 953.81 283.75Q954.24 283.31 954.81 283.05Q955.39 282.80 956.05 282.80Q956.71 282.80 957.31 283.05Q957.91 283.31 958.36 283.75Q958.80 284.20 959.07 284.80Q959.34 285.40 959.34 286.06M969.74 295.11L970.10 297.92Q970.94 296.97 971.88 296.21Q972.83 295.44 973.89 294.90Q974.94 294.35 976.13 294.05Q977.32 293.76 978.69 293.76Q980.81 293.76 982.43 294.46Q984.05 295.16 985.13 296.45Q986.22 297.74 986.78 299.55Q987.34 301.36 987.34 303.55L987.34 320L982.77 320L982.77 303.55Q982.77 300.62 981.43 299Q980.10 297.38 977.37 297.38Q975.35 297.38 973.61 298.35Q971.86 299.32 970.38 300.98L970.38 320L965.82 320L965.82 294.17L968.54 294.17Q969.51 294.17 969.74 295.11M994.53 294.17L999.07 294.17L999.07 320L994.53 320L994.53 294.17M1000.04 286.06Q1000.04 286.72 999.77 287.30Q999.50 287.87 999.05 288.32Q998.61 288.76 998.01 289.02Q997.41 289.27 996.75 289.27Q996.08 289.27 995.51 289.02Q994.94 288.76 994.50 288.32Q994.07 287.87 993.81 287.30Q993.56 286.72 993.56 286.06Q993.56 285.40 993.81 284.80Q994.07 284.20 994.50 283.75Q994.94 283.31 995.51 283.05Q996.08 282.80 996.75 282.80Q997.41 282.80 998.01 283.05Q998.61 283.31 999.05 283.75Q999.50 284.20 999.77 284.80Q1000.04 285.40 1000.04 286.06M1022.58 296.77L1021.56 298.43Q1021.25 298.99 1020.62 298.99Q1020.23 298.99 1019.75 298.71Q1019.26 298.43 1018.56 298.08Q1017.86 297.74 1016.89 297.45Q1015.92 297.15 1014.60 297.15Q1013.45 297.15 1012.53 297.45Q1011.61 297.74 1010.96 298.25Q1010.31 298.76 1009.97 299.43Q1009.62 300.11 1009.62 300.90Q1009.62 301.89 1010.20 302.56Q1010.77 303.22 1011.72 303.71Q1012.66 304.19 1013.86 304.56Q1015.06 304.93 1016.32 305.35Q1017.58 305.77 1018.78 306.28Q1019.98 306.79 1020.92 307.56Q1021.86 308.32 1022.44 309.43Q1023.01 310.54 1023.01 312.10Q1023.01 313.88 1022.37 315.40Q1021.74 316.91 1020.49 318.02Q1019.24 319.13 1017.43 319.77Q1015.62 320.41 1013.25 320.41Q1010.54 320.41 1008.35 319.53Q1006.16 318.65 1004.63 317.27L1005.70 315.54Q1005.90 315.21 1006.18 315.03Q1006.46 314.85 1006.90 314.85Q1007.36 314.85 1007.87 315.21Q1008.38 315.56 1009.10 316Q1009.83 316.43 1010.87 316.79Q1011.92 317.14 1013.48 317.14Q1014.80 317.14 1015.80 316.80Q1016.79 316.46 1017.45 315.87Q1018.12 315.28 1018.43 314.52Q1018.75 313.75 1018.75 312.89Q1018.75 311.81 1018.18 311.11Q1017.61 310.41 1016.66 309.91Q1015.72 309.42 1014.51 309.05Q1013.30 308.68 1012.03 308.27Q1010.77 307.86 1009.56 307.34Q1008.35 306.82 1007.41 306.03Q1006.46 305.24 1005.89 304.08Q1005.32 302.92 1005.32 301.26Q1005.32 299.78 1005.93 298.41Q1006.54 297.05 1007.71 296.02Q1008.89 294.98 1010.59 294.37Q1012.30 293.76 1014.50 293.76Q1017.05 293.76 1019.07 294.56Q1021.10 295.37 1022.58 296.77M1033.16 282.44L1033.16 297.61Q1034.82 295.85 1036.83 294.81Q1038.85 293.76 1041.47 293.76Q1043.59 293.76 1045.21 294.46Q1046.83 295.16 1047.91 296.45Q1049 297.74 1049.56 299.55Q1050.12 301.36 1050.12 303.55L1050.12 320L1045.55 320L1045.55 303.55Q1045.55 300.62 1044.22 299Q1042.88 297.38 1040.15 297.38Q1038.13 297.38 1036.39 298.35Q1034.64 299.32 1033.16 300.98L1033.16 320L1028.60 320L1028.60 282.44L1033.16 282.44M1076.36 320L1071.79 320L1071.79 298.04L1068.94 297.71Q1068.40 297.59 1068.06 297.32Q1067.71 297.05 1067.71 296.54L1067.71 294.68L1071.79 294.68L1071.79 292.18Q1071.79 289.96 1072.42 288.24Q1073.04 286.52 1074.20 285.33Q1075.36 284.15 1077 283.53Q1078.63 282.92 1080.67 282.92Q1082.40 282.92 1083.86 283.43L1083.75 285.70Q1083.70 286.31 1083.08 286.37Q1082.45 286.42 1081.41 286.42Q1080.23 286.42 1079.28 286.72Q1078.32 287.03 1077.63 287.72Q1076.94 288.41 1076.57 289.53Q1076.21 290.65 1076.21 292.31L1076.21 294.68L1083.65 294.68L1083.65 297.97L1076.36 297.97L1076.36 320M1098.87 293.76Q1101.71 293.76 1103.97 294.70Q1106.24 295.65 1107.85 297.38Q1109.46 299.12 1110.31 301.58Q1111.17 304.04 1111.17 307.07Q1111.17 310.13 1110.31 312.58Q1109.46 315.03 1107.85 316.76Q1106.24 318.50 1103.97 319.43Q1101.71 320.36 1098.87 320.36Q1096.02 320.36 1093.74 319.43Q1091.45 318.50 1089.85 316.76Q1088.24 315.03 1087.39 312.58Q1086.53 310.13 1086.53 307.07Q1086.53 304.04 1087.39 301.58Q1088.24 299.12 1089.85 297.38Q1091.45 295.65 1093.74 294.70Q1096.02 293.76 1098.87 293.76M1098.87 316.81Q1102.70 316.81 1104.59 314.25Q1106.47 311.69 1106.47 307.10Q1106.47 302.48 1104.59 299.91Q1102.70 297.33 1098.87 297.33Q1096.94 297.33 1095.50 297.99Q1094.06 298.66 1093.10 299.91Q1092.14 301.16 1091.67 302.98Q1091.20 304.80 1091.20 307.10Q1091.20 311.69 1093.10 314.25Q1095 316.81 1098.87 316.81M1120.91 295.42L1121.21 299.35Q1122.44 296.69 1124.22 295.20Q1126.01 293.71 1128.58 293.71Q1129.40 293.71 1130.15 293.89Q1130.90 294.07 1131.49 294.45L1131.16 297.84Q1131 298.48 1130.39 298.48Q1130.04 298.48 1129.35 298.32Q1128.66 298.17 1127.79 298.17Q1126.57 298.17 1125.61 298.53Q1124.66 298.89 1123.90 299.59Q1123.15 300.29 1122.55 301.32Q1121.95 302.35 1121.47 303.68L1121.47 320L1116.90 320L1116.90 294.17L1119.50 294.17Q1120.24 294.17 1120.52 294.45Q1120.80 294.73 1120.91 295.42M1167.21 294.17L1170.81 294.17L1156.40 327.62Q1156.17 328.13 1155.83 328.44Q1155.48 328.75 1154.77 328.75L1151.40 328.75L1156.12 318.50L1145.46 294.17L1149.39 294.17Q1149.98 294.17 1150.32 294.46Q1150.67 294.75 1150.79 295.11L1157.70 311.38Q1158.11 312.45 1158.39 313.63Q1158.75 312.43 1159.16 311.36L1165.86 295.11Q1166.02 294.70 1166.39 294.44Q1166.76 294.17 1167.21 294.17M1185.70 293.76Q1188.53 293.76 1190.80 294.70Q1193.07 295.65 1194.68 297.38Q1196.28 299.12 1197.14 301.58Q1197.99 304.04 1197.99 307.07Q1197.99 310.13 1197.14 312.58Q1196.28 315.03 1194.68 316.76Q1193.07 318.50 1190.80 319.43Q1188.53 320.36 1185.70 320.36Q1182.85 320.36 1180.56 319.43Q1178.28 318.50 1176.68 316.76Q1175.07 315.03 1174.21 312.58Q1173.36 310.13 1173.36 307.07Q1173.36 304.04 1174.21 301.58Q1175.07 299.12 1176.68 297.38Q1178.28 295.65 1180.56 294.70Q1182.85 293.76 1185.70 293.76M1185.70 316.81Q1189.53 316.81 1191.41 314.25Q1193.30 311.69 1193.30 307.10Q1193.30 302.48 1191.41 299.91Q1189.53 297.33 1185.70 297.33Q1183.76 297.33 1182.32 297.99Q1180.88 298.66 1179.93 299.91Q1178.97 301.16 1178.50 302.98Q1178.03 304.80 1178.03 307.10Q1178.03 311.69 1179.93 314.25Q1181.83 316.81 1185.70 316.81M1220.43 294.17L1224.97 294.17L1224.97 320L1222.27 320Q1221.30 320 1221.05 319.06L1220.69 316.28Q1219.01 318.14 1216.91 319.27Q1214.82 320.41 1212.12 320.41Q1210 320.41 1208.38 319.71Q1206.77 319.01 1205.67 317.73Q1204.57 316.46 1204.02 314.64Q1203.48 312.83 1203.48 310.64L1203.48 294.17L1208.01 294.17L1208.01 310.64Q1208.01 313.57 1209.35 315.18Q1210.69 316.79 1213.45 316.79Q1215.46 316.79 1217.21 315.83Q1218.95 314.87 1220.43 313.19L1220.43 294.17M1236.17 295.42L1236.47 299.35Q1237.70 296.69 1239.48 295.20Q1241.27 293.71 1243.84 293.71Q1244.66 293.71 1245.41 293.89Q1246.16 294.07 1246.75 294.45L1246.42 297.84Q1246.26 298.48 1245.65 298.48Q1245.30 298.48 1244.61 298.32Q1243.92 298.17 1243.05 298.17Q1241.83 298.17 1240.87 298.53Q1239.92 298.89 1239.16 299.59Q1238.41 300.29 1237.81 301.32Q1237.21 302.35 1236.73 303.68L1236.73 320L1232.16 320L1232.16 294.17L1234.76 294.17Q1235.50 294.17 1235.78 294.45Q1236.06 294.73 1236.17 295.42M1295.99 294.17L1299.41 294.17L1291.04 320L1287.45 320Q1286.78 320 1286.53 319.13L1280.82 301.61Q1280.61 301.03 1280.49 300.43Q1280.36 299.83 1280.23 299.24Q1280.10 299.83 1279.98 300.43Q1279.85 301.03 1279.64 301.64L1273.83 319.13Q1273.60 320 1272.81 320L1269.39 320L1261.03 294.17L1264.60 294.17Q1265.13 294.17 1265.50 294.45Q1265.87 294.73 1266 295.11L1270.95 311.74Q1271.38 313.57 1271.64 315.21Q1271.87 314.36 1272.11 313.50Q1272.35 312.63 1272.63 311.74L1278.09 295.01Q1278.22 294.63 1278.53 294.37Q1278.85 294.12 1279.31 294.12L1281.30 294.12Q1281.81 294.12 1282.14 294.37Q1282.47 294.63 1282.60 295.01L1287.93 311.74Q1288.21 312.63 1288.44 313.50Q1288.67 314.36 1288.88 315.21Q1289 314.36 1289.19 313.51Q1289.39 312.66 1289.61 311.74L1294.66 295.11Q1294.79 294.70 1295.15 294.44Q1295.51 294.17 1295.99 294.17M1308.41 282.44L1308.41 297.61Q1310.07 295.85 1312.08 294.81Q1314.09 293.76 1316.72 293.76Q1318.84 293.76 1320.46 294.46Q1322.08 295.16 1323.16 296.45Q1324.24 297.74 1324.80 299.55Q1325.37 301.36 1325.37 303.55L1325.37 320L1320.80 320L1320.80 303.55Q1320.80 300.62 1319.46 299Q1318.12 297.38 1315.40 297.38Q1313.38 297.38 1311.63 298.35Q1309.89 299.32 1308.41 300.98L1308.41 320L1303.84 320L1303.84 282.44L1308.41 282.44M1343.19 293.76Q1346.02 293.76 1348.29 294.70Q1350.56 295.65 1352.17 297.38Q1353.77 299.12 1354.63 301.58Q1355.48 304.04 1355.48 307.07Q1355.48 310.13 1354.63 312.58Q1353.77 315.03 1352.17 316.76Q1350.56 318.50 1348.29 319.43Q1346.02 320.36 1343.19 320.36Q1340.33 320.36 1338.05 319.43Q1335.77 318.50 1334.16 316.76Q1332.56 315.03 1331.70 312.58Q1330.85 310.13 1330.85 307.07Q1330.85 304.04 1331.70 301.58Q1332.56 299.12 1334.16 297.38Q1335.77 295.65 1338.05 294.70Q1340.33 293.76 1343.19 293.76M1343.19 316.81Q1347.02 316.81 1348.90 314.25Q1350.79 311.69 1350.79 307.10Q1350.79 302.48 1348.90 299.91Q1347.02 297.33 1343.19 297.33Q1341.25 297.33 1339.81 297.99Q1338.37 298.66 1337.41 299.91Q1336.46 301.16 1335.99 302.98Q1335.51 304.80 1335.51 307.10Q1335.51 311.69 1337.41 314.25Q1339.31 316.81 1343.19 316.81M1361.37 282.44L1365.91 282.44L1365.91 320L1361.37 320L1361.37 282.44M1376.42 304.27L1390.54 304.27Q1390.54 302.69 1390.10 301.37Q1389.65 300.06 1388.80 299.10Q1387.94 298.15 1386.72 297.62Q1385.49 297.10 1383.94 297.10Q1380.68 297.10 1378.78 299Q1376.88 300.90 1376.42 304.27M1392.94 314.72L1394.22 316.38Q1393.37 317.40 1392.20 318.15Q1391.03 318.90 1389.69 319.39Q1388.35 319.87 1386.92 320.11Q1385.49 320.36 1384.09 320.36Q1381.41 320.36 1379.16 319.45Q1376.90 318.55 1375.26 316.80Q1373.61 315.05 1372.69 312.48Q1371.78 309.90 1371.78 306.56Q1371.78 303.86 1372.60 301.51Q1373.43 299.17 1374.99 297.45Q1376.54 295.72 1378.79 294.74Q1381.03 293.76 1383.84 293.76Q1386.16 293.76 1388.13 294.54Q1390.11 295.32 1391.55 296.78Q1392.99 298.25 1393.81 300.40Q1394.62 302.56 1394.62 305.31Q1394.62 306.38 1394.39 306.74Q1394.16 307.10 1393.53 307.10L1376.26 307.10Q1376.34 309.55 1376.94 311.36Q1377.54 313.17 1378.61 314.38Q1379.68 315.59 1381.16 316.19Q1382.64 316.79 1384.47 316.79Q1386.18 316.79 1387.42 316.39Q1388.66 316 1389.55 315.54Q1390.44 315.08 1391.04 314.68Q1391.64 314.29 1392.07 314.29Q1392.63 314.29 1392.94 314.72" fill="#9aa4ad"/>
  <path d="M612.77 381.07Q615.04 381.07 616.82 380.31Q618.61 379.54 619.84 378.17Q621.08 376.79 621.73 374.88Q622.38 372.96 622.38 370.67L622.38 348.46L627.30 348.46L627.30 370.67Q627.30 373.83 626.30 376.53Q625.29 379.24 623.41 381.21Q621.54 383.19 618.84 384.31Q616.13 385.43 612.77 385.43Q609.40 385.43 606.70 384.31Q604 383.19 602.11 381.21Q600.22 379.24 599.21 376.53Q598.21 373.83 598.21 370.67L598.21 348.46L603.13 348.46L603.13 370.64Q603.13 372.94 603.78 374.85Q604.43 376.76 605.67 378.14Q606.90 379.52 608.70 380.30Q610.50 381.07 612.77 381.07M639.03 360.11L639.39 362.92Q640.23 361.97 641.17 361.21Q642.12 360.44 643.18 359.90Q644.24 359.35 645.42 359.05Q646.61 358.76 647.98 358.76Q650.10 358.76 651.72 359.46Q653.34 360.16 654.42 361.45Q655.51 362.74 656.07 364.55Q656.63 366.36 656.63 368.55L656.63 385L652.06 385L652.06 368.55Q652.06 365.62 650.72 364Q649.39 362.38 646.66 362.38Q644.64 362.38 642.90 363.35Q641.15 364.32 639.67 365.98L639.67 385L635.11 385L635.11 359.17L637.83 359.17Q638.80 359.17 639.03 360.11M667.57 360.42L667.87 364.35Q669.10 361.69 670.88 360.20Q672.67 358.71 675.24 358.71Q676.06 358.71 676.81 358.89Q677.56 359.07 678.15 359.45L677.82 362.84Q677.67 363.48 677.05 363.48Q676.70 363.48 676.01 363.32Q675.32 363.17 674.45 363.17Q673.23 363.17 672.27 363.53Q671.32 363.89 670.56 364.59Q669.81 365.29 669.21 366.32Q668.61 367.35 668.13 368.68L668.13 385L663.56 385L663.56 359.17L666.16 359.17Q666.90 359.17 667.18 359.45Q667.47 359.73 667.57 360.42M696.13 378.73L696.13 373.37Q692.99 373.47 690.79 373.87Q688.58 374.26 687.19 374.90Q685.80 375.54 685.18 376.41Q684.55 377.27 684.55 378.34Q684.55 379.36 684.88 380.10Q685.21 380.84 685.79 381.32Q686.36 381.79 687.14 382Q687.92 382.22 688.81 382.22Q690.01 382.22 691 381.98Q692 381.74 692.88 381.28Q693.76 380.82 694.56 380.18Q695.36 379.54 696.13 378.73M682.28 364.27L681.46 362.81Q683.61 360.75 686.08 359.73Q688.55 358.71 691.56 358.71Q693.73 358.71 695.41 359.42Q697.10 360.14 698.24 361.41Q699.39 362.69 699.98 364.50Q700.56 366.31 700.56 368.48L700.56 385L698.55 385Q697.89 385 697.53 384.78Q697.17 384.57 696.97 383.93L696.46 381.48Q695.44 382.42 694.47 383.15Q693.50 383.88 692.43 384.38Q691.36 384.87 690.15 385.14Q688.94 385.41 687.46 385.41Q685.95 385.41 684.63 384.99Q683.30 384.57 682.32 383.73Q681.34 382.88 680.76 381.60Q680.19 380.31 680.19 378.55Q680.19 377.02 681.03 375.60Q681.87 374.19 683.76 373.09Q685.65 372 688.68 371.29Q691.72 370.59 696.13 370.49L696.13 368.48Q696.13 365.47 694.83 363.92Q693.53 362.38 691.03 362.38Q689.34 362.38 688.21 362.80Q687.07 363.22 686.25 363.75Q685.42 364.27 684.82 364.69Q684.22 365.11 683.63 365.11Q683.17 365.11 682.84 364.87Q682.51 364.63 682.28 364.27M707.73 359.17L712.27 359.17L712.27 385L707.73 385L707.73 359.17M713.24 351.06Q713.24 351.72 712.97 352.30Q712.70 352.87 712.26 353.32Q711.81 353.76 711.21 354.02Q710.61 354.27 709.95 354.27Q709.29 354.27 708.71 354.02Q708.14 353.76 707.70 353.32Q707.27 352.87 707.02 352.30Q706.76 351.72 706.76 351.06Q706.76 350.40 707.02 349.80Q707.27 349.20 707.70 348.75Q708.14 348.31 708.71 348.05Q709.29 347.80 709.95 347.80Q710.61 347.80 711.21 348.05Q711.81 348.31 712.26 348.75Q712.70 349.20 712.97 349.80Q713.24 350.40 713.24 351.06M736.54 377.78L736.54 365.31Q735.27 363.61 733.79 362.93Q732.31 362.25 730.48 362.25Q726.88 362.25 724.94 364.83Q723 367.40 723 372.17Q723 374.70 723.44 376.50Q723.87 378.29 724.71 379.45Q725.55 380.61 726.78 381.15Q728 381.69 729.56 381.69Q731.80 381.69 733.47 380.67Q735.14 379.64 736.54 377.78M736.54 347.44L741.08 347.44L741.08 385L738.38 385Q737.41 385 737.16 384.06L736.75 380.92Q735.09 382.91 732.97 384.13Q730.86 385.36 728.08 385.36Q725.86 385.36 724.05 384.50Q722.24 383.65 720.96 381.99Q719.69 380.33 719 377.86Q718.31 375.39 718.31 372.17Q718.31 369.32 719.08 366.86Q719.84 364.40 721.27 362.59Q722.70 360.77 724.78 359.74Q726.85 358.71 729.46 358.71Q731.83 358.71 733.52 359.51Q735.22 360.32 736.54 361.74L736.54 347.44M778.16 377.78L778.16 365.31Q776.89 363.61 775.41 362.93Q773.93 362.25 772.09 362.25Q768.50 362.25 766.56 364.83Q764.62 367.40 764.62 372.17Q764.62 374.70 765.05 376.50Q765.49 378.29 766.33 379.45Q767.17 380.61 768.39 381.15Q769.62 381.69 771.17 381.69Q773.42 381.69 775.09 380.67Q776.76 379.64 778.16 377.78M778.16 347.44L782.70 347.44L782.70 385L780 385Q779.03 385 778.77 384.06L778.37 380.92Q776.71 382.91 774.59 384.13Q772.47 385.36 769.70 385.36Q767.48 385.36 765.67 384.50Q763.86 383.65 762.58 381.99Q761.31 380.33 760.62 377.86Q759.93 375.39 759.93 372.17Q759.93 369.32 760.69 366.86Q761.46 364.40 762.89 362.59Q764.31 360.77 766.39 359.74Q768.47 358.71 771.07 358.71Q773.44 358.71 775.14 359.51Q776.84 360.32 778.16 361.74L778.16 347.44M803.89 378.73L803.89 373.37Q800.75 373.47 798.55 373.87Q796.34 374.26 794.95 374.90Q793.56 375.54 792.94 376.41Q792.31 377.27 792.31 378.34Q792.31 379.36 792.64 380.10Q792.98 380.84 793.55 381.32Q794.12 381.79 794.90 382Q795.68 382.22 796.57 382.22Q797.77 382.22 798.76 381.98Q799.76 381.74 800.64 381.28Q801.52 380.82 802.32 380.18Q803.13 379.54 803.89 378.73M790.04 364.27L789.23 362.81Q791.37 360.75 793.84 359.73Q796.32 358.71 799.33 358.71Q801.49 358.71 803.18 359.42Q804.86 360.14 806.01 361.41Q807.15 362.69 807.74 364.50Q808.33 366.31 808.33 368.48L808.33 385L806.31 385Q805.65 385 805.29 384.78Q804.94 384.57 804.73 383.93L804.22 381.48Q803.20 382.42 802.23 383.15Q801.26 383.88 800.19 384.38Q799.12 384.87 797.91 385.14Q796.70 385.41 795.22 385.41Q793.72 385.41 792.39 384.99Q791.06 384.57 790.08 383.73Q789.10 382.88 788.53 381.60Q787.95 380.31 787.95 378.55Q787.95 377.02 788.79 375.60Q789.64 374.19 791.52 373.09Q793.41 372 796.44 371.29Q799.48 370.59 803.89 370.49L803.89 368.48Q803.89 365.47 802.59 363.92Q801.29 362.38 798.79 362.38Q797.11 362.38 795.97 362.80Q794.84 363.22 794.01 363.75Q793.18 364.27 792.58 364.69Q791.98 365.11 791.40 365.11Q790.94 365.11 790.60 364.87Q790.27 364.63 790.04 364.27M831.30 361.77L830.28 363.43Q829.98 363.99 829.34 363.99Q828.96 363.99 828.47 363.71Q827.99 363.43 827.29 363.08Q826.59 362.74 825.62 362.45Q824.65 362.15 823.32 362.15Q822.17 362.15 821.26 362.45Q820.34 362.74 819.69 363.25Q819.04 363.76 818.69 364.43Q818.35 365.11 818.35 365.90Q818.35 366.89 818.92 367.56Q819.50 368.22 820.44 368.71Q821.38 369.19 822.58 369.56Q823.78 369.93 825.04 370.35Q826.30 370.77 827.50 371.28Q828.70 371.79 829.65 372.56Q830.59 373.32 831.16 374.43Q831.74 375.54 831.74 377.10Q831.74 378.88 831.10 380.40Q830.46 381.91 829.21 383.02Q827.96 384.13 826.15 384.77Q824.34 385.41 821.97 385.41Q819.27 385.41 817.07 384.53Q814.88 383.65 813.35 382.27L814.42 380.54Q814.63 380.21 814.91 380.03Q815.19 379.85 815.62 379.85Q816.08 379.85 816.59 380.21Q817.10 380.56 817.83 381Q818.55 381.43 819.60 381.79Q820.64 382.14 822.20 382.14Q823.53 382.14 824.52 381.80Q825.51 381.46 826.18 380.87Q826.84 380.28 827.16 379.52Q827.48 378.75 827.48 377.89Q827.48 376.81 826.90 376.11Q826.33 375.41 825.39 374.91Q824.44 374.42 823.23 374.05Q822.02 373.68 820.76 373.27Q819.50 372.86 818.29 372.34Q817.07 371.82 816.13 371.03Q815.19 370.24 814.61 369.08Q814.04 367.92 814.04 366.26Q814.04 364.78 814.65 363.41Q815.26 362.05 816.44 361.02Q817.61 359.98 819.32 359.37Q821.03 358.76 823.22 358.76Q825.77 358.76 827.80 359.56Q829.82 360.37 831.30 361.77M841.89 347.44L841.89 362.61Q843.54 360.85 845.56 359.81Q847.57 358.76 850.20 358.76Q852.31 358.76 853.93 359.46Q855.55 360.16 856.64 361.45Q857.72 362.74 858.28 364.55Q858.84 366.36 858.84 368.55L858.84 385L854.28 385L854.28 368.55Q854.28 365.62 852.94 364Q851.60 362.38 848.87 362.38Q846.86 362.38 845.11 363.35Q843.36 364.32 841.89 365.98L841.89 385L837.32 385L837.32 347.44L841.89 347.44M870.34 366.28L870.34 378.78Q871.59 380.46 873.08 381.15Q874.58 381.84 876.36 381.84Q880.01 381.84 881.95 379.26Q883.88 376.69 883.88 371.59Q883.88 366.84 882.16 364.61Q880.44 362.38 877.25 362.38Q875.04 362.38 873.39 363.40Q871.75 364.42 870.34 366.28M870.34 347.44L870.34 362.89Q871.98 361 874.03 359.88Q876.08 358.76 878.76 358.76Q881.03 358.76 882.85 359.63Q884.67 360.49 885.95 362.14Q887.22 363.78 887.90 366.13Q888.58 368.48 888.58 371.41Q888.58 374.55 887.81 377.12Q887.05 379.70 885.61 381.52Q884.16 383.34 882.10 384.35Q880.03 385.36 877.46 385.36Q874.91 385.36 873.16 384.40Q871.41 383.44 870.11 381.69L869.88 384.03Q869.68 385 868.71 385L865.78 385L865.78 347.44L870.34 347.44M905.23 358.76Q908.06 358.76 910.33 359.70Q912.60 360.65 914.20 362.38Q915.81 364.12 916.66 366.58Q917.52 369.04 917.52 372.07Q917.52 375.13 916.66 377.58Q915.81 380.03 914.20 381.76Q912.60 383.50 910.33 384.43Q908.06 385.36 905.23 385.36Q902.37 385.36 900.09 384.43Q897.81 383.50 896.20 381.76Q894.59 380.03 893.74 377.58Q892.89 375.13 892.89 372.07Q892.89 369.04 893.74 366.58Q894.59 364.12 896.20 362.38Q897.81 360.65 900.09 359.70Q902.37 358.76 905.23 358.76M905.23 381.81Q909.05 381.81 910.94 379.25Q912.83 376.69 912.83 372.10Q912.83 367.48 910.94 364.91Q909.05 362.33 905.23 362.33Q903.29 362.33 901.85 362.99Q900.41 363.66 899.45 364.91Q898.50 366.16 898.02 367.98Q897.55 369.80 897.55 372.10Q897.55 376.69 899.45 379.25Q901.35 381.81 905.23 381.81M937.26 378.73L937.26 373.37Q934.12 373.47 931.91 373.87Q929.71 374.26 928.32 374.90Q926.93 375.54 926.30 376.41Q925.68 377.27 925.68 378.34Q925.68 379.36 926.01 380.10Q926.34 380.84 926.92 381.32Q927.49 381.79 928.27 382Q929.04 382.22 929.94 382.22Q931.14 382.22 932.13 381.98Q933.12 381.74 934 381.28Q934.88 380.82 935.69 380.18Q936.49 379.54 937.26 378.73M923.41 364.27L922.59 362.81Q924.73 360.75 927.21 359.73Q929.68 358.71 932.69 358.71Q934.86 358.71 936.54 359.42Q938.22 360.14 939.37 361.41Q940.52 362.69 941.11 364.50Q941.69 366.31 941.69 368.48L941.69 385L939.68 385Q939.01 385 938.66 384.78Q938.30 384.57 938.10 383.93L937.59 381.48Q936.57 382.42 935.60 383.15Q934.63 383.88 933.56 384.38Q932.49 384.87 931.28 385.14Q930.06 385.41 928.59 385.41Q927.08 385.41 925.75 384.99Q924.43 384.57 923.45 383.73Q922.47 382.88 921.89 381.60Q921.32 380.31 921.32 378.55Q921.32 377.02 922.16 375.60Q923 374.19 924.89 373.09Q926.77 372 929.81 371.29Q932.84 370.59 937.26 370.49L937.26 368.48Q937.26 365.47 935.95 363.92Q934.65 362.38 932.16 362.38Q930.47 362.38 929.34 362.80Q928.20 363.22 927.37 363.75Q926.55 364.27 925.95 364.69Q925.35 365.11 924.76 365.11Q924.30 365.11 923.97 364.87Q923.64 364.63 923.41 364.27M952.61 360.42L952.91 364.35Q954.14 361.69 955.92 360.20Q957.71 358.71 960.28 358.71Q961.10 358.71 961.85 358.89Q962.60 359.07 963.19 359.45L962.86 362.84Q962.70 363.48 962.09 363.48Q961.74 363.48 961.05 363.32Q960.36 363.17 959.49 363.17Q958.27 363.17 957.31 363.53Q956.35 363.89 955.60 364.59Q954.85 365.29 954.25 366.32Q953.65 367.35 953.17 368.68L953.17 385L948.60 385L948.60 359.17L951.20 359.17Q951.94 359.17 952.22 359.45Q952.50 359.73 952.61 360.42M984 377.78L984 365.31Q982.72 363.61 981.24 362.93Q979.76 362.25 977.93 362.25Q974.33 362.25 972.39 364.83Q970.46 367.40 970.46 372.17Q970.46 374.70 970.89 376.50Q971.32 378.29 972.16 379.45Q973.01 380.61 974.23 381.15Q975.45 381.69 977.01 381.69Q979.25 381.69 980.92 380.67Q982.59 379.64 984 377.78M984 347.44L988.54 347.44L988.54 385L985.83 385Q984.86 385 984.61 384.06L984.20 380.92Q982.54 382.91 980.43 384.13Q978.31 385.36 975.53 385.36Q973.31 385.36 971.50 384.50Q969.69 383.65 968.42 381.99Q967.14 380.33 966.45 377.86Q965.76 375.39 965.76 372.17Q965.76 369.32 966.53 366.86Q967.29 364.40 968.72 362.59Q970.15 360.77 972.23 359.74Q974.31 358.71 976.91 358.71Q979.28 358.71 980.98 359.51Q982.67 360.32 984 361.74L984 347.44M994.96 382.19Q994.96 381.53 995.20 380.95Q995.45 380.36 995.87 379.93Q996.29 379.49 996.87 379.24Q997.46 378.98 998.12 378.98Q998.79 378.98 999.37 379.24Q999.96 379.49 1000.39 379.93Q1000.83 380.36 1001.08 380.95Q1001.34 381.53 1001.34 382.19Q1001.34 382.88 1001.08 383.46Q1000.83 384.03 1000.39 384.46Q999.96 384.90 999.37 385.14Q998.79 385.38 998.12 385.38Q997.46 385.38 996.87 385.14Q996.29 384.90 995.87 384.46Q995.45 384.03 995.20 383.46Q994.96 382.88 994.96 382.19M1044.41 352.49L1026.84 352.49L1026.84 365.26L1041.86 365.26L1041.86 369.29L1026.84 369.29L1026.84 385L1021.89 385L1021.89 348.46L1044.41 348.46L1044.41 352.49M1049.91 359.17L1054.45 359.17L1054.45 385L1049.91 385L1049.91 359.17M1055.42 351.06Q1055.42 351.72 1055.15 352.30Q1054.89 352.87 1054.44 353.32Q1053.99 353.76 1053.40 354.02Q1052.80 354.27 1052.13 354.27Q1051.47 354.27 1050.90 354.02Q1050.32 353.76 1049.89 353.32Q1049.46 352.87 1049.20 352.30Q1048.95 351.72 1048.95 351.06Q1048.95 350.40 1049.20 349.80Q1049.46 349.20 1049.89 348.75Q1050.32 348.31 1050.90 348.05Q1051.47 347.80 1052.13 347.80Q1052.80 347.80 1053.40 348.05Q1053.99 348.31 1054.44 348.75Q1054.89 349.20 1055.15 349.80Q1055.42 350.40 1055.42 351.06M1065.90 360.42L1066.21 364.35Q1067.43 361.69 1069.22 360.20Q1071 358.71 1073.58 358.71Q1074.39 358.71 1075.15 358.89Q1075.90 359.07 1076.49 359.45L1076.15 362.84Q1076 363.48 1075.39 363.48Q1075.03 363.48 1074.34 363.32Q1073.65 363.17 1072.79 363.17Q1071.56 363.17 1070.61 363.53Q1069.65 363.89 1068.90 364.59Q1068.15 365.29 1067.55 366.32Q1066.95 367.35 1066.46 368.68L1066.46 385L1061.90 385L1061.90 359.17L1064.50 359.17Q1065.24 359.17 1065.52 359.45Q1065.80 359.73 1065.90 360.42M1083.63 369.27L1097.75 369.27Q1097.75 367.69 1097.31 366.37Q1096.86 365.06 1096.01 364.10Q1095.15 363.15 1093.93 362.62Q1092.70 362.10 1091.15 362.10Q1087.88 362.10 1085.98 364Q1084.08 365.90 1083.63 369.27M1100.15 379.72L1101.42 381.38Q1100.58 382.40 1099.41 383.15Q1098.24 383.90 1096.90 384.39Q1095.56 384.87 1094.13 385.11Q1092.70 385.36 1091.30 385.36Q1088.62 385.36 1086.37 384.45Q1084.11 383.55 1082.47 381.80Q1080.82 380.05 1079.90 377.48Q1078.98 374.90 1078.98 371.56Q1078.98 368.86 1079.81 366.51Q1080.64 364.17 1082.20 362.45Q1083.75 360.72 1086 359.74Q1088.24 358.76 1091.05 358.76Q1093.37 358.76 1095.34 359.54Q1097.32 360.32 1098.76 361.78Q1100.20 363.25 1101.02 365.40Q1101.83 367.56 1101.83 370.31Q1101.83 371.38 1101.60 371.74Q1101.37 372.10 1100.74 372.10L1083.47 372.10Q1083.55 374.55 1084.15 376.36Q1084.75 378.17 1085.82 379.38Q1086.89 380.59 1088.37 381.19Q1089.85 381.79 1091.68 381.79Q1093.39 381.79 1094.63 381.39Q1095.87 381 1096.76 380.54Q1097.65 380.08 1098.25 379.68Q1098.85 379.29 1099.28 379.29Q1099.84 379.29 1100.15 379.72M1152.65 359.17L1156.07 359.17L1147.71 385L1144.11 385Q1143.45 385 1143.19 384.13L1137.48 366.61Q1137.28 366.03 1137.15 365.43Q1137.02 364.83 1136.89 364.24Q1136.77 364.83 1136.64 365.43Q1136.51 366.03 1136.31 366.64L1130.49 384.13Q1130.27 385 1129.47 385L1126.06 385L1117.69 359.17L1121.26 359.17Q1121.80 359.17 1122.17 359.45Q1122.54 359.73 1122.67 360.11L1127.61 376.74Q1128.05 378.57 1128.30 380.21Q1128.53 379.36 1128.77 378.50Q1129.02 377.63 1129.30 376.74L1134.75 360.01Q1134.88 359.63 1135.20 359.37Q1135.52 359.12 1135.98 359.12L1137.97 359.12Q1138.48 359.12 1138.81 359.37Q1139.14 359.63 1139.27 360.01L1144.60 376.74Q1144.88 377.63 1145.11 378.50Q1145.34 379.36 1145.54 380.21Q1145.67 379.36 1145.86 378.51Q1146.05 377.66 1146.28 376.74L1151.33 360.11Q1151.46 359.70 1151.81 359.44Q1152.17 359.17 1152.65 359.17M1165.07 347.44L1165.07 362.61Q1166.73 360.85 1168.74 359.81Q1170.76 358.76 1173.39 358.76Q1175.50 358.76 1177.12 359.46Q1178.74 360.16 1179.82 361.45Q1180.91 362.74 1181.47 364.55Q1182.03 366.36 1182.03 368.55L1182.03 385L1177.47 385L1177.47 368.55Q1177.47 365.62 1176.13 364Q1174.79 362.38 1172.06 362.38Q1170.05 362.38 1168.30 363.35Q1166.55 364.32 1165.07 365.98L1165.07 385L1160.51 385L1160.51 347.44L1165.07 347.44M1192.13 369.27L1206.26 369.27Q1206.26 367.69 1205.81 366.37Q1205.36 365.06 1204.51 364.10Q1203.65 363.15 1202.43 362.62Q1201.21 362.10 1199.65 362.10Q1196.39 362.10 1194.49 364Q1192.59 365.90 1192.13 369.27M1208.65 379.72L1209.93 381.38Q1209.09 382.40 1207.91 383.15Q1206.74 383.90 1205.40 384.39Q1204.06 384.87 1202.63 385.11Q1201.21 385.36 1199.80 385.36Q1197.13 385.36 1194.87 384.45Q1192.61 383.55 1190.97 381.80Q1189.32 380.05 1188.41 377.48Q1187.49 374.90 1187.49 371.56Q1187.49 368.86 1188.32 366.51Q1189.14 364.17 1190.70 362.45Q1192.26 360.72 1194.50 359.74Q1196.74 358.76 1199.55 358.76Q1201.87 358.76 1203.85 359.54Q1205.82 360.32 1207.26 361.78Q1208.70 363.25 1209.52 365.40Q1210.34 367.56 1210.34 370.31Q1210.34 371.38 1210.11 371.74Q1209.88 372.10 1209.24 372.10L1191.98 372.10Q1192.05 374.55 1192.65 376.36Q1193.25 378.17 1194.32 379.38Q1195.39 380.59 1196.87 381.19Q1198.35 381.79 1200.19 381.79Q1201.89 381.79 1203.13 381.39Q1204.37 381 1205.26 380.54Q1206.15 380.08 1206.75 379.68Q1207.35 379.29 1207.79 379.29Q1208.35 379.29 1208.65 379.72M1219.82 360.11L1220.18 362.92Q1221.02 361.97 1221.96 361.21Q1222.91 360.44 1223.96 359.90Q1225.02 359.35 1226.21 359.05Q1227.39 358.76 1228.77 358.76Q1230.89 358.76 1232.51 359.46Q1234.13 360.16 1235.21 361.45Q1236.29 362.74 1236.86 364.55Q1237.42 366.36 1237.42 368.55L1237.42 385L1232.85 385L1232.85 368.55Q1232.85 365.62 1231.51 364Q1230.17 362.38 1227.45 362.38Q1225.43 362.38 1223.68 363.35Q1221.94 364.32 1220.46 365.98L1220.46 385L1215.89 385L1215.89 359.17L1218.62 359.17Q1219.59 359.17 1219.82 360.11M1261.41 360.42L1261.72 364.35Q1262.94 361.69 1264.73 360.20Q1266.51 358.71 1269.09 358.71Q1269.90 358.71 1270.66 358.89Q1271.41 359.07 1271.99 359.45L1271.66 362.84Q1271.51 363.48 1270.90 363.48Q1270.54 363.48 1269.85 363.32Q1269.16 363.17 1268.30 363.17Q1267.07 363.17 1266.12 363.53Q1265.16 363.89 1264.41 364.59Q1263.66 365.29 1263.06 366.32Q1262.46 367.35 1261.97 368.68L1261.97 385L1257.41 385L1257.41 359.17L1260.01 359.17Q1260.75 359.17 1261.03 359.45Q1261.31 359.73 1261.41 360.42M1279.13 369.27L1293.26 369.27Q1293.26 367.69 1292.81 366.37Q1292.37 365.06 1291.51 364.10Q1290.66 363.15 1289.44 362.62Q1288.21 362.10 1286.66 362.10Q1283.39 362.10 1281.49 364Q1279.59 365.90 1279.13 369.27M1295.66 379.72L1296.93 381.38Q1296.09 382.40 1294.92 383.15Q1293.75 383.90 1292.41 384.39Q1291.07 384.87 1289.64 385.11Q1288.21 385.36 1286.81 385.36Q1284.13 385.36 1281.88 384.45Q1279.62 383.55 1277.97 381.80Q1276.33 380.05 1275.41 377.48Q1274.49 374.90 1274.49 371.56Q1274.49 368.86 1275.32 366.51Q1276.15 364.17 1277.71 362.45Q1279.26 360.72 1281.51 359.74Q1283.75 358.76 1286.55 358.76Q1288.88 358.76 1290.85 359.54Q1292.83 360.32 1294.27 361.78Q1295.71 363.25 1296.53 365.40Q1297.34 367.56 1297.34 370.31Q1297.34 371.38 1297.11 371.74Q1296.88 372.10 1296.24 372.10L1278.98 372.10Q1279.06 374.55 1279.66 376.36Q1280.26 378.17 1281.33 379.38Q1282.40 380.59 1283.88 381.19Q1285.36 381.79 1287.19 381.79Q1288.90 381.79 1290.14 381.39Q1291.37 381 1292.27 380.54Q1293.16 380.08 1293.76 379.68Q1294.36 379.29 1294.79 379.29Q1295.35 379.29 1295.66 379.72M1316.90 378.73L1316.90 373.37Q1313.76 373.47 1311.56 373.87Q1309.35 374.26 1307.96 374.90Q1306.57 375.54 1305.95 376.41Q1305.32 377.27 1305.32 378.34Q1305.32 379.36 1305.65 380.10Q1305.99 380.84 1306.56 381.32Q1307.13 381.79 1307.91 382Q1308.69 382.22 1309.58 382.22Q1310.78 382.22 1311.77 381.98Q1312.77 381.74 1313.65 381.28Q1314.53 380.82 1315.33 380.18Q1316.13 379.54 1316.90 378.73M1303.05 364.27L1302.24 362.81Q1304.38 360.75 1306.85 359.73Q1309.33 358.71 1312.34 358.71Q1314.50 358.71 1316.19 359.42Q1317.87 360.14 1319.02 361.41Q1320.16 362.69 1320.75 364.50Q1321.34 366.31 1321.34 368.48L1321.34 385L1319.32 385Q1318.66 385 1318.30 384.78Q1317.95 384.57 1317.74 383.93L1317.23 381.48Q1316.21 382.42 1315.24 383.15Q1314.27 383.88 1313.20 384.38Q1312.13 384.87 1310.92 385.14Q1309.71 385.41 1308.23 385.41Q1306.73 385.41 1305.40 384.99Q1304.07 384.57 1303.09 383.73Q1302.11 382.88 1301.54 381.60Q1300.96 380.31 1300.96 378.55Q1300.96 377.02 1301.80 375.60Q1302.65 374.19 1304.53 373.09Q1306.42 372 1309.45 371.29Q1312.49 370.59 1316.90 370.49L1316.90 368.48Q1316.90 365.47 1315.60 363.92Q1314.30 362.38 1311.80 362.38Q1310.12 362.38 1308.98 362.80Q1307.85 363.22 1307.02 363.75Q1306.19 364.27 1305.59 364.69Q1304.99 365.11 1304.40 365.11Q1303.95 365.11 1303.61 364.87Q1303.28 364.63 1303.05 364.27M1345.08 377.78L1345.08 365.31Q1343.80 363.61 1342.32 362.93Q1340.84 362.25 1339.01 362.25Q1335.41 362.25 1333.47 364.83Q1331.54 367.40 1331.54 372.17Q1331.54 374.70 1331.97 376.50Q1332.40 378.29 1333.25 379.45Q1334.09 380.61 1335.31 381.15Q1336.53 381.69 1338.09 381.69Q1340.33 381.69 1342 380.67Q1343.67 379.64 1345.08 377.78M1345.08 347.44L1349.62 347.44L1349.62 385L1346.91 385Q1345.94 385 1345.69 384.06L1345.28 380.92Q1343.62 382.91 1341.51 384.13Q1339.39 385.36 1336.61 385.36Q1334.39 385.36 1332.58 384.50Q1330.77 383.65 1329.50 381.99Q1328.22 380.33 1327.53 377.86Q1326.84 375.39 1326.84 372.17Q1326.84 369.32 1327.61 366.86Q1328.37 364.40 1329.80 362.59Q1331.23 360.77 1333.31 359.74Q1335.39 358.71 1337.99 358.71Q1340.36 358.71 1342.06 359.51Q1343.75 360.32 1345.08 361.74L1345.08 347.44M1375.50 359.17L1379.09 359.17L1364.69 392.62Q1364.46 393.13 1364.11 393.44Q1363.77 393.75 1363.05 393.75L1359.69 393.75L1364.41 383.50L1353.75 359.17L1357.67 359.17Q1358.26 359.17 1358.60 359.46Q1358.95 359.75 1359.08 360.11L1365.99 376.38Q1366.40 377.45 1366.68 378.63Q1367.03 377.43 1367.44 376.36L1374.15 360.11Q1374.30 359.70 1374.67 359.44Q1375.04 359.17 1375.50 359.17M1382.33 382.19Q1382.33 381.53 1382.57 380.95Q1382.82 380.36 1383.24 379.93Q1383.66 379.49 1384.25 379.24Q1384.83 378.98 1385.49 378.98Q1386.16 378.98 1386.74 379.24Q1387.33 379.49 1387.76 379.93Q1388.20 380.36 1388.45 380.95Q1388.71 381.53 1388.71 382.19Q1388.71 382.88 1388.45 383.46Q1388.20 384.03 1387.76 384.46Q1387.33 384.90 1386.74 385.14Q1386.16 385.38 1385.49 385.38Q1384.83 385.38 1384.25 385.14Q1383.66 384.90 1383.24 384.46Q1382.82 384.03 1382.57 383.46Q1382.33 382.88 1382.33 382.19" fill="#9aa4ad"/>
</svg>
