<?xml version="1.0" encoding="UTF-8"?>
<svg id="Ebene_2" data-name="Ebene 2" xmlns="http://www.w3.org/2000/svg" viewBox="0 0 1000.28 1000.28">
  <defs>
    <style>
      .cls-1 {
        fill: #1d1b1b;
      }

      .cls-2 {
        fill: #786b25;
      }

      .cls-3 {
        fill: #fff;
      }

      .cls-4 {
        fill: #022107;
      }

      .cls-5 {
        fill: #6a85b4;
      }

      .cls-6 {
        fill: #5c9d63;
      }

      .cls-7 {
        fill: #2c5632;
      }

      .cls-8 {
        fill: #cec179;
      }

      .cls-9 {
        fill: #2f290c;
      }

      .cls-10 {
        fill: #2a3f65;
      }

      .cls-11 {
        fill: #3c3c3b;
      }

      .cls-12 {
        fill: #0e1a36;
      }
    </style>
  </defs>
  <g id="logo">
    <g id="kannonen">
      <g>
        <g>
          <path class="cls-10" d="M154.68,752.79l-.16-7.26c-.14-6.2,6.46-11.35,14.65-11.45l31.59-.4.27,29.8-31.21.39c-8.19.1-15-4.88-15.14-11.08Z"/>
          <path class="cls-12" d="M342.47,743.18c-.01-.68-.12-1.35-.29-2v.33c.14,6.2-6.45,11.35-14.64,11.45l-158.16,1.98c-7.29.09-13.47-3.85-14.85-9.08l.15,6.93c.14,6.2,6.95,11.18,15.14,11.08l158.16-1.98c8.19-.1,14.78-5.26,14.65-11.45l-.16-7.26Z"/>
          <path class="cls-10" d="M801.02,801.27l-550.51,12.32c-48.46,0-64.26-36.29-64.26-65.6h0c0-29.31,12.07-65.6,65.35-65.6l549.42,12.32v106.57Z"/>
          <path class="cls-12" d="M187.23,734.06c-.68,4.7-.97,9.4-.97,13.93h0c0,29.31,15.8,65.6,64.26,65.6l550.51-12.32v-26.51l-550.51,12.32c-41.69,0-59.2-26.85-63.29-53.02Z"/>
        </g>
        <g>
          <path class="cls-10" d="M276.89,828.39l-2.41-.02c-9.2-.08-16.74-8.01-16.75-17.62l-.09-128.03c0-9.61,7.52-17.41,16.72-17.33l2.41.02c9.2.08,16.74,8.01,16.75,17.62l.09,128.03c0,9.61-7.52,17.41-16.72,17.33Z"/>
          <path class="cls-5" d="M293.61,811.06c0,7.39-4.44,13.71-10.68,16.2l-.12-160.6c6.25,2.59,10.7,8.98,10.71,16.38l.1,128.03Z"/>
          <path class="cls-12" d="M257.69,682.52c-4.93-.28-9.95-.22-15.22.25l.03,130.51c4.73.44,9.88.36,15.29.21l-.09-130.96Z"/>
        </g>
        <g>
          <path class="cls-10" d="M522.48,828.45l-2.41-.02c-9.2-.07-16.75-7.99-16.77-17.6l-.24-128.03c-.02-9.61,7.5-17.42,16.7-17.35l2.41.02c9.2.07,16.75,7.99,16.77,17.6l.24,128.03c.02,9.61-7.5,17.42-16.7,17.35Z"/>
          <path class="cls-5" d="M539.23,811.11c.02,7.39-4.42,13.71-10.67,16.21l-.3-160.6c6.25,2.58,10.71,8.97,10.73,16.36l.24,128.03Z"/>
          <polygon class="cls-12" points="503.07 688.02 487.95 687.68 487.89 808.27 503.3 807.93 503.07 688.02"/>
        </g>
        <g>
          <path class="cls-10" d="M734.64,818.9l-2.41-.03c-9.2-.11-16.74-7.15-16.76-15.64l-.18-113.13c-.01-8.49,7.5-15.35,16.71-15.24l2.41.03c9.2.11,16.74,7.15,16.76,15.64l.18,113.13c.01,8.49-7.5,15.35-16.71,15.24Z"/>
          <path class="cls-5" d="M751.54,803.56c.01,6.52-4.43,12.08-10.67,14.25l-.24-141.76c6.25,2.31,10.71,7.97,10.72,14.5l.19,113.01Z"/>
          <polygon class="cls-12" points="715.29 692.78 700.17 692.44 700.21 803.42 715.47 803.24 715.29 692.78"/>
        </g>
        <g>
          <path class="cls-10" d="M809.23,818.9l-2.41-.03c-9.2-.1-16.75-7.14-16.77-15.63l-.25-113.13c-.02-8.49,7.5-15.36,16.7-15.25l2.41.03c9.2.1,16.75,7.14,16.77,15.63l.25,113.13c.02,8.49-7.5,15.36-16.7,15.25Z"/>
          <path class="cls-5" d="M825.93,803.55c.02,6.52-4.42,12.08-10.66,14.26l-.32-141.76c6.25,2.31,10.71,7.97,10.73,14.49l.26,113.01Z"/>
          <polygon class="cls-12" points="789.88 694.45 774.76 694.11 774.72 801.31 790.05 801.28 789.88 694.45"/>
        </g>
        <path class="cls-5" d="M306.89,698.41l154.94,1.8c2.33.03,4.35,1.82,4.35,5.37s-1.92,5.15-4.5,5.15h-154.94c-2.44-.01-4.41-1.98-4.43-4.42v-3.36c-.02-2.52,2.05-4.57,4.56-4.53Z"/>
        <path class="cls-5" d="M548.94,701.31l131.43,1.8c2.33.03,4.23,1.86,4.36,4.19h0c.14,2.57-1.92,4.75-4.5,4.75h-131.42c-2.44-.01-4.41-1.98-4.43-4.42v-1.79c-.02-2.52,2.05-4.57,4.56-4.53Z"/>
        <path class="cls-5" d="M759.1,703.78l7.32.37c2.33,0,4.25,1.82,4.4,4.15h0c.16,2.57-1.88,4.77-4.45,4.79l-7.45-.21c-2.44.02-4.44-1.24-4.48-3.68l-.03-1.79c-.04-2.52,2.17-3.64,4.68-3.64Z"/>
        <path class="cls-5" d="M164.83,738.69l14.91.07c1.27-.02,2.29.95,2.35,2.23h0c.07,1.4-1.06,2.62-2.46,2.66l-14.98.02c-1.33.04-2.4-.64-2.4-1.97v-.97c0-1.37,1.21-2.01,2.58-2.03Z"/>
        <path class="cls-5" d="M210.05,704.69l16.6-6.16c1.45-.56,3.66.87,4.19,2.34l.39.87c.58,1.63-.45,4.47-2.04,5.11l-17.15,6.43c-1.51.61-3.32-.82-3.8-2.4l-.45-1.47c-.49-1.62.7-4.13,2.26-4.73Z"/>
      </g>
      <g>
        <g>
          <path class="cls-7" d="M845.77,505.79l.16-7.26c.14-6.2-6.46-11.35-14.65-11.45l-31.59-.4-.27,29.8,31.21.39c8.19.1,15-4.88,15.14-11.08Z"/>
          <path class="cls-4" d="M657.98,496.18c.01-.68.12-1.35.29-2v.33c-.14,6.2,6.45,11.35,14.64,11.45l158.16,1.98c7.29.09,13.47-3.85,14.85-9.08l-.15,6.93c-.14,6.2-6.95,11.18-15.14,11.08l-158.16-1.98c-8.19-.1-14.78-5.26-14.65-11.45l.16-7.26Z"/>
          <path class="cls-7" d="M199.43,554.27l550.51,12.32c48.46,0,64.26-36.29,64.26-65.6h0c0-29.31-12.07-65.6-65.35-65.6l-549.42,12.32v106.57Z"/>
          <path class="cls-4" d="M813.22,487.06c.68,4.7.97,9.4.97,13.93h0c0,29.31-15.8,65.6-64.26,65.6l-550.51-12.32v-26.51s550.51,12.32,550.51,12.32c41.69,0,59.2-26.85,63.29-53.02Z"/>
        </g>
        <g>
          <path class="cls-7" d="M723.56,581.39l2.41-.02c9.2-.08,16.74-8.01,16.75-17.62l.09-128.03c0-9.61-7.52-17.41-16.72-17.33l-2.41.02c-9.2.08-16.74,8.01-16.75,17.62l-.09,128.03c0,9.61,7.52,17.41,16.72,17.33Z"/>
          <path class="cls-6" d="M706.84,564.06c0,7.39,4.44,13.71,10.68,16.2l.12-160.6c-6.25,2.59-10.7,8.98-10.71,16.38l-.1,128.03Z"/>
          <path class="cls-4" d="M742.76,435.52c4.93-.28,9.95-.22,15.22.25l-.03,130.51c-4.73.44-9.88.36-15.29.21l.09-130.96Z"/>
        </g>
        <g>
          <path class="cls-7" d="M477.97,581.45l2.41-.02c9.2-.07,16.75-7.99,16.77-17.6l.24-128.03c.02-9.61-7.5-17.42-16.7-17.35l-2.41.02c-9.2.07-16.75,7.99-16.77,17.6l-.24,128.03c-.02,9.61,7.5,17.42,16.7,17.35Z"/>
          <path class="cls-6" d="M461.22,564.11c-.02,7.39,4.42,13.71,10.67,16.21l.3-160.6c-6.25,2.58-10.71,8.97-10.73,16.36l-.24,128.03Z"/>
          <polygon class="cls-4" points="497.38 441.02 512.5 440.68 512.56 561.27 497.15 560.93 497.38 441.02"/>
        </g>
        <g>
          <path class="cls-7" d="M265.81,571.9l2.41-.03c9.2-.11,16.74-7.15,16.76-15.64l.18-113.13c.01-8.49-7.5-15.35-16.71-15.24l-2.41.03c-9.2.11-16.74,7.15-16.76,15.64l-.18,113.13c-.01,8.49,7.5,15.35,16.71,15.24Z"/>
          <path class="cls-6" d="M248.91,556.56c-.01,6.52,4.43,12.08,10.67,14.25l.24-141.76c-6.25,2.31-10.71,7.97-10.72,14.5l-.19,113.01Z"/>
          <polygon class="cls-4" points="285.16 445.78 300.28 445.44 300.24 556.42 284.98 556.24 285.16 445.78"/>
        </g>
        <g>
          <path class="cls-7" d="M191.22,571.9l2.41-.03c9.2-.1,16.75-7.14,16.77-15.63l.25-113.13c.02-8.49-7.5-15.36-16.7-15.25l-2.41.03c-9.2.1-16.75,7.14-16.77,15.63l-.25,113.13c-.02,8.49,7.5,15.36,16.7,15.25Z"/>
          <path class="cls-6" d="M174.52,556.55c-.02,6.52,4.42,12.08,10.66,14.26l.32-141.76c-6.25,2.31-10.71,7.97-10.73,14.49l-.26,113.01Z"/>
          <polygon class="cls-4" points="210.57 447.45 225.69 447.11 225.73 554.31 210.4 554.28 210.57 447.45"/>
        </g>
        <path class="cls-6" d="M693.56,451.41l-154.94,1.8c-2.33.03-4.35,1.82-4.35,5.37s1.92,5.15,4.5,5.15h154.94c2.44-.01,4.41-1.98,4.43-4.42v-3.36c.02-2.52-2.05-4.57-4.56-4.53Z"/>
        <path class="cls-6" d="M451.51,454.31l-131.43,1.8c-2.33.03-4.23,1.86-4.36,4.19h0c-.14,2.57,1.92,4.75,4.5,4.75h131.42c2.44-.01,4.41-1.98,4.43-4.42v-1.79c.02-2.52-2.05-4.57-4.56-4.53Z"/>
        <path class="cls-6" d="M241.35,456.78l-7.32.37c-2.33,0-4.25,1.82-4.4,4.15h0c-.16,2.57,1.88,4.77,4.45,4.79l7.45-.21c2.44.02,4.44-1.24,4.48-3.68l.03-1.79c.04-2.52-2.17-3.64-4.68-3.64Z"/>
        <path class="cls-6" d="M835.62,491.69l-14.91.07c-1.27-.02-2.29.95-2.35,2.23h0c-.07,1.4,1.06,2.62,2.46,2.66l14.98.02c1.33.04,2.4-.64,2.4-1.97v-.97c0-1.37-1.21-2.01-2.58-2.03Z"/>
        <path class="cls-6" d="M790.4,457.69l-16.6-6.16c-1.45-.56-3.66.87-4.19,2.34l-.39.87c-.58,1.63.45,4.47,2.04,5.11l17.15,6.43c1.51.61,3.32-.82,3.8-2.4l.45-1.47c.49-1.62-.7-4.13-2.26-4.73Z"/>
      </g>
      <g>
        <g>
          <path class="cls-2" d="M154.68,270.79l-.16-7.26c-.14-6.2,6.46-11.35,14.65-11.45l31.59-.4.27,29.8-31.21.39c-8.19.1-15-4.88-15.14-11.08Z"/>
          <path class="cls-9" d="M342.47,261.18c-.01-.68-.12-1.35-.29-2v.33c.14,6.2-6.45,11.35-14.64,11.45l-158.16,1.98c-7.29.09-13.47-3.85-14.85-9.08l.15,6.93c.14,6.2,6.95,11.18,15.14,11.08l158.16-1.98c8.19-.1,14.78-5.26,14.65-11.45l-.16-7.26Z"/>
          <path class="cls-2" d="M801.02,319.27l-550.51,12.32c-48.46,0-64.26-36.29-64.26-65.6h0c0-29.31,12.07-65.6,65.35-65.6l549.42,12.32v106.57Z"/>
          <path class="cls-9" d="M187.23,252.06c-.68,4.7-.97,9.4-.97,13.93h0c0,29.31,15.8,65.6,64.26,65.6l550.51-12.32v-26.51l-550.51,12.32c-41.69,0-59.2-26.85-63.29-53.02Z"/>
        </g>
        <g>
          <path class="cls-2" d="M276.89,346.39l-2.41-.02c-9.2-.08-16.74-8.01-16.75-17.62l-.09-128.03c0-9.61,7.52-17.41,16.72-17.33l2.41.02c9.2.08,16.74,8.01,16.75,17.62l.09,128.03c0,9.61-7.52,17.41-16.72,17.33Z"/>
          <path class="cls-8" d="M293.61,329.06c0,7.39-4.44,13.71-10.68,16.2l-.12-160.6c6.25,2.59,10.7,8.98,10.71,16.38l.1,128.03Z"/>
          <path class="cls-9" d="M257.69,200.52c-4.93-.28-9.95-.22-15.22.25l.03,130.51c4.73.44,9.88.36,15.29.21l-.09-130.96Z"/>
        </g>
        <g>
          <path class="cls-2" d="M522.48,346.45l-2.41-.02c-9.2-.07-16.75-7.99-16.77-17.6l-.24-128.03c-.02-9.61,7.5-17.42,16.7-17.35l2.41.02c9.2.07,16.75,7.99,16.77,17.6l.24,128.03c.02,9.61-7.5,17.42-16.7,17.35Z"/>
          <path class="cls-8" d="M539.23,329.11c.02,7.39-4.42,13.71-10.67,16.21l-.3-160.6c6.25,2.58,10.71,8.97,10.73,16.36l.24,128.03Z"/>
          <polygon class="cls-9" points="503.07 206.02 487.95 205.68 487.89 326.27 503.3 325.93 503.07 206.02"/>
        </g>
        <g>
          <path class="cls-2" d="M734.64,336.9l-2.41-.03c-9.2-.11-16.74-7.15-16.76-15.64l-.18-113.13c-.01-8.49,7.5-15.35,16.71-15.24l2.41.03c9.2.11,16.74,7.15,16.76,15.64l.18,113.13c.01,8.49-7.5,15.35-16.71,15.24Z"/>
          <path class="cls-8" d="M751.54,321.56c.01,6.52-4.43,12.08-10.67,14.25l-.24-141.76c6.25,2.31,10.71,7.97,10.72,14.5l.19,113.01Z"/>
          <polygon class="cls-9" points="715.29 210.78 700.17 210.44 700.21 321.42 715.47 321.24 715.29 210.78"/>
        </g>
        <g>
          <path class="cls-2" d="M809.23,336.9l-2.41-.03c-9.2-.1-16.75-7.14-16.77-15.63l-.25-113.13c-.02-8.49,7.5-15.36,16.7-15.25l2.41.03c9.2.1,16.75,7.14,16.77,15.63l.25,113.13c.02,8.49-7.5,15.36-16.7,15.25Z"/>
          <path class="cls-8" d="M825.93,321.55c.02,6.52-4.42,12.08-10.66,14.26l-.32-141.76c6.25,2.31,10.71,7.97,10.73,14.49l.26,113.01Z"/>
          <polygon class="cls-9" points="789.88 212.45 774.76 212.11 774.72 319.31 790.05 319.28 789.88 212.45"/>
        </g>
        <path class="cls-8" d="M306.89,216.41l154.94,1.8c2.33.03,4.35,1.82,4.35,5.37s-1.92,5.15-4.5,5.15h-154.94c-2.44-.01-4.41-1.98-4.43-4.42v-3.36c-.02-2.52,2.05-4.57,4.56-4.53Z"/>
        <path class="cls-8" d="M548.94,219.31l131.43,1.8c2.33.03,4.23,1.86,4.36,4.19h0c.14,2.57-1.92,4.75-4.5,4.75h-131.42c-2.44-.01-4.41-1.98-4.43-4.42v-1.79c-.02-2.52,2.05-4.57,4.56-4.53Z"/>
        <path class="cls-8" d="M759.1,221.78l7.32.37c2.33,0,4.25,1.82,4.4,4.15h0c.16,2.57-1.88,4.77-4.45,4.79l-7.45-.21c-2.44.02-4.44-1.24-4.48-3.68l-.03-1.79c-.04-2.52,2.17-3.64,4.68-3.64Z"/>
        <path class="cls-8" d="M164.83,256.69l14.91.07c1.27-.02,2.29.95,2.35,2.23h0c.07,1.4-1.06,2.62-2.46,2.66l-14.98.02c-1.33.04-2.4-.64-2.4-1.97v-.97c0-1.37,1.21-2.01,2.58-2.03Z"/>
        <path class="cls-8" d="M210.05,222.69l16.6-6.16c1.45-.56,3.66.87,4.19,2.34l.39.87c.58,1.63-.45,4.47-2.04,5.11l-17.15,6.43c-1.51.61-3.32-.82-3.8-2.4l-.45-1.47c-.49-1.62.7-4.13,2.26-4.73Z"/>
      </g>
    </g>
    <g id="rahmen_unraid">
      <g id="rahmen_innen">
        <path class="cls-1" d="M865.8,134.48v731.32H134.48V134.48h731.32M885.8,114.48H114.48v771.32h771.32V114.48h0Z"/>
      </g>
      <path id="rahmen_mitte" class="cls-3" d="M885.8,885.8H114.48V114.48h771.32v771.32ZM916.83,20H83.45c-35.04,0-63.45,28.41-63.45,63.45v833.38c0,35.04,28.41,63.45,63.45,63.45h833.38c35.04,0,63.45-28.41,63.45-63.45V83.45c0-35.04-28.41-63.45-63.45-63.45h0Z"/>
      <g id="rahmen_auÃen">
        <path class="cls-1" d="M916.83,20c35.04,0,63.45,28.41,63.45,63.45v833.38c0,35.04-28.41,63.45-63.45,63.45H83.45c-35.04,0-63.45-28.41-63.45-63.45V83.45c0-35.04,28.41-63.45,63.45-63.45h833.38M916.83,0H83.45C37.44,0,0,37.44,0,83.45v833.38c0,46.01,37.44,83.45,83.45,83.45h833.38c46.02,0,83.45-37.44,83.45-83.45V83.45c0-46.02-37.44-83.45-83.45-83.45h0Z"/>
      </g>
    </g>
    <g id="schattierung">
      <path class="cls-11" d="M916.83,20H83.45c-23.24,0-43.55,12.5-54.6,31.13,10.99-8.94,25.16-14.33,40.63-14.33h830.53c34.92,0,63.23,27.41,63.23,61.23v804.21c0,33.82-28.31,61.23-63.23,61.23H69.48c-15.47,0-29.64-5.39-40.63-14.33,11.05,18.63,31.36,31.13,54.6,31.13h833.38c35.04,0,63.45-28.41,63.45-63.45V83.45c0-35.04-28.41-63.45-63.45-63.45Z"/>
      <polygon class="cls-11" points="99.27 901.75 839.14 901.75 885.8 890.11 885.8 885.8 114.48 885.8 114.48 114.48 885.8 114.48 885.81 110.94 833.64 98.52 99.27 98.52 99.27 901.75"/>
    </g>
  </g>
</svg>