<?xml version="1.0" encoding="UTF-8"?>
<svg xmlns="http://www.w3.org/2000/svg" viewBox="0 0 1600 500" width="1600" height="500" role="img" aria-label="CannonadeCommand">
  <rect width="1600" height="500" fill="#ffffff"/>
  <g transform="translate(120,50) scale(0.402099)">

  <defs>
    <style>
      .cls-1 {
        fill: #fff;
      }

      .cls-2 {
        fill: #575756;
      }

      .cls-3 {
        fill: #353738;
      }

      .cls-4 {
        fill: #575756;
      }

      .cls-5 {
        fill: #242626;
      }
    </style>
  </defs>
  <g id="logo">
    <rect class="cls-1" x="40" y="40" width="914.78" height="914.78" rx="60.44" ry="60.44"/>
    <g>
      <path class="cls-3" d="M118.96,309.83l1.04-.46v-1.24l-1.04,1.7ZM118.96,309.83l1.04-.46v-1.24l-1.04,1.7ZM874.78,307.98v.54l.45.2-.45-.74ZM874.78,207.42v31.12l55.45-16.31-55.45-14.81ZM894.33,40H100.45c-33.39,0-60.45,27.06-60.45,60.45v116.26l53.55-32.33-35.43-106.84,100.57,42.46h2.05l43.75-71.67,30.01,71.67h524.72l30.47-72.78,44.17,72.36,102.2-43.15-35.42,106.84,54.14,32.69v-115.51c0-33.39-27.06-60.45-60.45-60.45ZM884.79,266.86l26.69,68.54-36.7-19.94v559.32H120V316.24l-37.3,20.27,26.7-68.53-69.4-40.93v667.28c0,33.39,27.06,60.45,60.45,60.45h793.88c33.39,0,60.45-27.06,60.45-60.45V225.59l-69.99,41.27ZM118.96,309.83l1.04-.46v-1.24l-1.04,1.7ZM118.96,309.83l1.04-.46v-1.24l-1.04,1.7Z"/>
      <path class="cls-1" d="M894.33,40c33.38,0,60.44,27.06,60.44,60.44v793.89c0,33.38-27.06,60.44-60.44,60.44H100.44c-33.38,0-60.44-27.06-60.44-60.44V100.44c0-33.38,27.06-60.44,60.44-60.44h793.89ZM894.33,0H100.44C45.06,0,0,45.06,0,100.44v793.89c0,55.39,45.06,100.44,100.44,100.44h793.89c55.39,0,100.44-45.06,100.44-100.44V100.44c0-55.39-45.06-100.44-100.44-100.44h0Z"/>
    </g>
    <g>
      <g>
        <polygon class="cls-4" points="909.93 107.8 817.66 166.22 794.15 92.36 771.6 185 710.35 151.4 743 217.09 808.66 279.71 875.82 309.22 839.36 249.63 930.83 222.73 855.94 202.73 909.93 107.8"/>
        <polygon class="cls-3" points="909.93 107.8 817.66 166.22 794.15 92.36 771.6 185 710.35 151.4 743 217.09 771.58 244.35 746.79 187.36 778.59 205.06 793.81 138.69 806.22 192.09 863.48 156.5 830.64 215.38 884.57 225.25 818.99 243.59 838.17 274.52 776.66 249.19 808.66 279.71 875.82 309.22 839.36 249.63 930.83 222.73 855.94 202.73 909.93 107.8"/>
      </g>
      <g>
        <path class="cls-3" d="M190.06,844.16l-6.42-6.15c-5.48-5.25-4.24-15.42,2.77-22.6l27.01-27.7,26.03,25.57-26.68,27.36c-7,7.18-17.22,8.76-22.7,3.52Z"/>
        <path class="cls-5" d="M344.34,673.23c-.6-.58-1.28-1.06-1.98-1.47l.29.28c5.48,5.25,4.24,15.42-2.77,22.6l-135.23,138.67c-6.23,6.39-15,8.33-20.72,4.99l6.13,5.87c5.48,5.25,15.7,3.67,22.7-3.52l135.23-138.67c7-7.18,8.25-17.35,2.77-22.6l-6.42-6.15Z"/>
        <path class="cls-3" d="M453.34,646.68l16.08,16.82-106.25,111.12h-.01l-8.94,9.36-21.17,22.13-.11.12-7.25,7.58c-1,1-2.01,1.96-3.01,2.9-.46.42-.92.84-1.38,1.25-.53.48-1.07.96-1.6,1.41-.02.02-.03.04-.05.05-16.27,14.03-32.85,19.55-48.42,19.55s-30.71-5.74-43.11-14.06c-3.09-2.07-6.03-4.3-8.79-6.65-2.14-1.8-4.17-3.68-6.09-5.6-2.04-2.04-4.06-4.2-6.01-6.45-.38-.43-.75-.86-1.11-1.29-.04-.05-.08-.09-.11-.13-.4-.48-.8-.96-1.2-1.45-.52-.64-1.04-1.29-1.55-1.95-.31-.39-.61-.79-.91-1.2-.11-.14-.21-.28-.31-.42-.01,0-.01-.01-.02-.01-.05-.06-.1-.13-.14-.2-9.28-12.49-16.13-27.47-16.13-44.08,0-14.54,5.24-30.31,18.7-46.76.32-.4.64-.79.97-1.17.23-.29.48-.58.73-.88,1.05-1.22,2.15-2.45,3.29-3.69,1.07-1.15,2.18-2.3,3.34-3.46.17-.18.33-.34.5-.5l3.97-3.79s-.01,0,0-.01l.03-.03,22.26-21.28,9.48-9.06,115.81-110.73,11.45,11.98,7.74,8.09c-.23,1.24-.42,2.48-.56,3.72-1.23,10.18.13,20.42,4,29.93.37.9.76,1.77,1.18,2.63,2.85,6.17,6.69,11.74,11.44,16.6l2.06,2.11c10.22,10.44,23.62,16.67,38.16,17.82,1.64.13,3.3.2,4.97.2,2.72,0,5.41-.18,8.07-.52Z"/>
        <path class="cls-3" d="M791.69,326.48l-8.32,8.7h0s-12.97,13.57-12.97,13.57l-19.58,20.47-.17.17-8.88,9.3-21.48,22.46-.07.08-12.84,13.42-79.31,82.94-8.99-8.59c.75-3.65,1.16-7.38,1.22-11.13.09-5.8-.63-11.48-2.11-16.91-2.64-9.69-7.7-18.58-14.89-25.93l-2.06-2.11c-4.81-4.91-10.38-8.91-16.59-11.92-.74-.38-1.5-.74-2.27-1.08-.79-.35-1.47-.61-1.96-.8-7.12-2.82-14.65-4.24-22.37-4.24-3.41-.01-6.78.27-10.09.82-1.54.25-3.06.56-4.57.93l-6.96-6.65-10.42-9.97,83.08-79.44,13.39-12.8h0l22.48-21.5,9.3-8.89.17-.16,20.75-19.85,13.33-12.74.06-.06,10.84-10.36,69.31,69.32,22.96,22.95Z"/>
        <path class="cls-5" d="M453.34,646.68l16.08,16.82-106.25,111.12h-.01l-8.94,9.36-21.17,22.13-.11.12-7.25,7.58c-1,1-2.01,1.96-3.01,2.9-.46.42-.92.84-1.38,1.25-.53.48-1.07.96-1.6,1.41-.02.02-.03.04-.05.05-16.27,14.03-32.85,19.55-48.42,19.55s-30.71-5.74-43.11-14.06c-3.09-2.07-6.03-4.3-8.79-6.65-2.14-1.8-4.17-3.68-6.09-5.6-2.04-2.04-4.06-4.2-6.01-6.45-.38-.43-.75-.86-1.11-1.29-.04-.05-.08-.09-.11-.13-.4-.48-.8-.96-1.2-1.45-.52-.64-1.04-1.29-1.55-1.95-.31-.39-.61-.79-.91-1.2-.11-.14-.22-.29-.33-.43.01,0,.01.01.02.01,6.99,5.1,14.85,9.41,23.31,12.31,3.97,1.36,8.07,2.41,12.28,3.07,18.36,2.94,38.68-1.33,58.57-18.26,2.18-1.85,4.36-3.86,6.53-6.03l6.76-7.07.04-.04,21.27-22.25,9.05-9.46,100.45-105.04c1.64.13,3.3.2,4.97.2,2.72,0,5.41-.18,8.07-.52Z"/>
        <path class="cls-5" d="M791.69,326.48l-8.32,8.7h0s-12.97,13.57-12.97,13.57l-19.58,20.47-.17.17-8.88,9.3-21.48,22.46-.07.08-12.84,13.42-79.31,82.94-8.99-8.59c.75-3.65,1.16-7.38,1.22-11.13.09-5.8-.63-11.48-2.11-16.91l65.74-68.75,12.83-13.41.05-.06,21.48-22.46,8.89-9.3.16-.17,19.64-20.54,12.91-13.5h.02s8.82-9.24,8.82-9.24l22.96,22.95Z"/>
      </g>
      <g>
        <path class="cls-3" d="M362.57,802.24l-2.06,2.11c-7.88,8.06-21.28,7.98-29.77-.17l-113.1-108.57c-8.49-8.15-8.99-21.41-1.11-29.47l2.06-2.11c7.88-8.06,21.28-7.98,29.77.17l113.1,108.57c8.49,8.15,8.99,21.41,1.11,29.47Z"/>
        <path class="cls-2" d="M361.46,772.78c6.53,6.27,8.33,15.55,5.23,23.18l-141.87-136.19c7.59-3.32,17.01-1.82,23.54,4.44l113.1,108.57Z"/>
        <path class="cls-5" d="M217.28,695.19c-4.43,4.11-8.77,8.47-12.83,13.52l115.2,110.7c4.4-3.8,8.84-8.29,13.3-13.19l-115.67-111.03Z"/>
      </g>
      <g>
        <path class="cls-3" d="M750.64,397.72l-2.07,2.11c-7.89,8.05-20.5,8.75-28.02,1.57l-100.19-95.66c-7.52-7.18-7.22-19.64.67-27.69l2.07-2.11c7.89-8.05,20.5-8.75,28.02-1.57l100.19,95.66c7.52,7.18,7.22,19.64-.67,27.69Z"/>
        <path class="cls-2" d="M751.4,369.78c5.78,5.52,6.93,14.15,3.56,21.51l-125.56-119.87c7.34-3.57,16.12-2.71,21.9,2.8l100.09,95.56Z"/>
        <polygon class="cls-5" points="622.48 307.77 609.09 320.57 707.79 415.04 720.64 401.63 622.48 307.77"/>
      </g>
      <g>
        <path class="cls-3" d="M815.19,333.17l-2.07,2.11c-7.89,8.05-20.5,8.75-28.02,1.57l-100.19-95.66c-7.52-7.18-7.22-19.64.67-27.69l2.07-2.11c7.89-8.05,20.5-8.75,28.02-1.57l100.19,95.66c7.52,7.18,7.22,19.64-.67,27.69Z"/>
        <path class="cls-2" d="M815.78,305.39c5.78,5.52,6.93,14.15,3.56,21.51l-125.56-119.87c7.34-3.57,16.12-2.71,21.9,2.8l100.09,95.56Z"/>
        <polygon class="cls-5" points="688.58 244.57 675.19 257.37 770.4 348.75 783.37 335.19 688.58 244.57"/>
      </g>
      <path class="cls-2" d="M384.02,574.19c-.23,1.24-.42,2.48-.56,3.72l-98.16,98.14c-2.11,2.11-5.52,2.12-7.65.01l-2.91-2.91c-2.19-2.16-2.18-5.73.03-7.87l101.51-99.18,7.74,8.09Z"/>
      <path class="cls-2" d="M611.46,349.93c0,1.41-.53,2.82-1.61,3.9l-61.89,61.87c-1.54.25-3.06.56-4.57.93l-6.96-6.65,65.8-64.02c2.05-1.99,5.27-2.06,7.4-.14,1.22,1.09,1.83,2.6,1.83,4.11Z"/>
      <path class="cls-2" d="M670.97,278.37l6.66-6.02c2.03-2.01,5.26-2.11,7.4-.22h0c2.37,2.09,2.5,5.76.3,8.01l-6.63,6.27c-2.09,2.14-4.92,2.77-7.07.69l-1.57-1.52c-2.21-2.15-1.28-5.03.9-7.2Z"/>
      <path class="cls-2" d="M186.64,823.17l12.97-12.85c1.08-1.11,2.81-1.16,3.96-.11h0c1.27,1.16,1.35,3.19.17,4.43l-12.95,12.99c-1.12,1.18-2.63,1.53-3.78.37l-.84-.85c-1.19-1.19-.69-2.79.47-3.99Z"/>
      <path class="cls-2" d="M196.35,754.57l9.04-19.71c.77-1.74,3.92-2.42,5.66-1.6l1.09.41c1.92.91,3.48,4.26,2.66,6.19l-9.28,20.42c-.78,1.83-3.59,2.16-5.37,1.21l-1.66-.88c-1.83-.98-2.97-4.18-2.14-6.05Z"/>
    </g>
    <g>
      <g>
        <polygon class="cls-4" points="84.85 108.41 177.12 166.83 200.63 92.97 223.18 185.61 284.43 152.01 251.78 217.7 186.12 280.32 118.96 309.83 155.42 250.24 63.95 223.34 138.84 203.34 84.85 108.41"/>
        <polygon class="cls-3" points="84.85 108.41 177.12 166.83 200.63 92.97 223.18 185.61 284.43 152.01 251.78 217.7 223.2 244.96 247.99 187.97 216.19 205.67 200.97 139.3 188.55 192.7 131.3 157.11 164.14 215.99 110.21 225.86 175.79 244.2 156.6 275.13 218.12 249.8 186.12 280.32 118.96 309.83 155.42 250.24 63.95 223.34 138.84 203.34 84.85 108.41"/>
      </g>
      <g>
        <path class="cls-3" d="M804.72,844.77l6.42-6.15c5.48-5.25,4.24-15.42-2.77-22.6l-27.01-27.7-26.03,25.57,26.68,27.36c7,7.18,17.22,8.76,22.7,3.52Z"/>
        <path class="cls-5" d="M650.44,673.84c.6-.58,1.28-1.06,1.98-1.47l-.29.28c-5.48,5.25-4.24,15.42,2.77,22.6l135.23,138.67c6.23,6.39,15,8.33,20.72,4.99l-6.13,5.87c-5.48,5.25-15.7,3.67-22.7-3.52l-135.23-138.67c-7-7.18-8.25-17.35-2.77-22.6l6.42-6.15Z"/>
        <path class="cls-3" d="M203.09,327.09l466.01,487.34c41.96,41.96,87.07,24.22,112.44-1.16h0c25.38-25.38,46.35-67.25.22-113.39L295.36,234.82l-92.27,92.27Z"/>
        <path class="cls-5" d="M792.76,800.37c-3.48,4.66-7.3,8.98-11.22,12.9h0c-25.38,25.38-70.48,43.12-112.44,1.16L203.09,327.09l22.96-22.96,466.01,487.34c36.1,36.1,74.52,28.01,100.7,8.9Z"/>
      </g>
      <g>
        <path class="cls-3" d="M632.21,802.85l2.06,2.11c7.88,8.06,21.28,7.98,29.77-.17l113.1-108.57c8.49-8.15,8.99-21.41,1.11-29.47l-2.06-2.11c-7.88-8.06-21.28-7.98-29.77.17l-113.1,108.57c-8.49,8.15-8.99,21.41-1.11,29.47Z"/>
        <path class="cls-2" d="M633.32,773.39c-6.53,6.27-8.33,15.55-5.23,23.18l141.87-136.19c-7.59-3.32-17.01-1.82-23.54,4.44l-113.1,108.57Z"/>
        <path class="cls-5" d="M777.5,695.8c4.43,4.11,8.77,8.47,12.83,13.52l-115.2,110.7c-4.4-3.8-8.84-8.29-13.3-13.19l115.67-111.03Z"/>
      </g>
      <g>
        <path class="cls-3" d="M428.67,599.09l2.06,2.11c7.88,8.06,21.28,7.98,29.77-.17l113.1-108.57c8.49-8.15,8.99-21.41,1.11-29.47l-2.06-2.11c-7.88-8.06-21.28-7.98-29.77.17l-113.1,108.57c-8.49,8.15-8.99,21.41-1.11,29.47Z"/>
        <path class="cls-2" d="M429.74,569.59c-6.53,6.27-8.33,15.55-5.23,23.18l141.87-136.19c-7.59-3.32-17.01-1.82-23.54,4.44l-113.1,108.57Z"/>
        <polygon class="cls-5" points="569.26 496.66 582.62 509.49 475.27 612.5 462.28 599.32 569.26 496.66"/>
      </g>
      <g>
        <path class="cls-3" d="M244.14,398.33l2.07,2.11c7.89,8.05,20.5,8.75,28.02,1.57l100.19-95.66c7.52-7.18,7.22-19.64-.67-27.69l-2.07-2.11c-7.89-8.05-20.5-8.75-28.02-1.57l-100.19,95.66c-7.52,7.18-7.22,19.64.67,27.69Z"/>
        <path class="cls-2" d="M243.38,370.39c-5.78,5.52-6.93,14.15-3.56,21.51l125.56-119.87c-7.34-3.57-16.12-2.71-21.9,2.8l-100.09,95.56Z"/>
        <polygon class="cls-5" points="372.29 308.38 385.69 321.18 286.99 415.65 274.14 402.24 372.29 308.38"/>
      </g>
      <g>
        <path class="cls-3" d="M179.59,333.78l2.07,2.11c7.89,8.05,20.5,8.75,28.02,1.57l100.19-95.66c7.52-7.18,7.22-19.64-.67-27.69l-2.07-2.11c-7.89-8.05-20.5-8.75-28.02-1.57l-100.19,95.66c-7.52,7.18-7.22,19.64.67,27.69Z"/>
        <path class="cls-2" d="M179,306c-5.78,5.52-6.93,14.15-3.56,21.51l125.56-119.87c-7.34-3.57-16.12-2.71-21.9,2.8l-100.09,95.56Z"/>
        <polygon class="cls-5" points="306.2 245.18 319.59 257.98 224.38 349.36 211.41 335.8 306.2 245.18"/>
      </g>
      <path class="cls-2" d="M720.01,665.89l-135.72-132.61c-2.05-1.99-5.34-2.19-8.42.88-3.07,3.06-2.79,6.13-.56,8.36l134.17,134.15c2.12,2.12,5.52,2.12,7.65.01l2.91-2.91c2.19-2.17,2.18-5.73-.03-7.88Z"/>
      <path class="cls-2" d="M507.91,458.81l-115.36-112.24c-2.05-1.99-5.28-2.06-7.4-.14h0c-2.35,2.11-2.45,5.78-.22,8.01l113.8,113.78c2.12,2.12,5.52,2.12,7.65.01l1.55-1.54c2.19-2.17,2.18-5.73-.03-7.88Z"/>
      <path class="cls-2" d="M323.81,278.98l-6.66-6.02c-2.03-2.01-5.26-2.11-7.4-.22h0c-2.37,2.09-2.5,5.76-.3,8.01l6.63,6.27c2.09,2.14,4.92,2.77,7.07.69l1.57-1.52c2.21-2.15,1.28-5.03-.9-7.2Z"/>
      <path class="cls-2" d="M808.14,823.78l-12.97-12.85c-1.08-1.11-2.81-1.16-3.96-.11h0c-1.27,1.16-1.35,3.19-.17,4.43l12.95,12.99c1.12,1.18,2.63,1.53,3.78.37l.84-.85c1.19-1.19.69-2.79-.47-3.99Z"/>
      <path class="cls-2" d="M798.43,755.18l-9.04-19.71c-.77-1.74-3.92-2.42-5.66-1.6l-1.09.41c-1.92.91-3.48,4.26-2.66,6.19l9.28,20.42c.78,1.83,3.59,2.16,5.37,1.21l1.66-.88c1.83-.98,2.97-4.18,2.14-6.05Z"/>
    </g>
  </g>

  </g>
  <path d="M630.11 183.57Q629.10 181.82 622.57 181.82Q614.01 181.82 609.60 187.62Q605.18 193.42 605.18 204.36Q605.18 227.09 622.20 227.09Q622.48 227.09 624.64 227.09Q626.80 227.09 628.73 226.49Q630.66 225.89 631.03 225.25Q631.40 224.60 631.40 223.22L631.40 215.86L640.78 216.51L640.78 232.42Q633.61 236.20 622.57 236.20Q608.49 236.20 601.09 228.28Q593.68 220.37 593.68 204.73Q593.68 196.08 596.16 189.64Q598.65 183.20 602.88 179.62Q611.16 172.72 622.57 172.72Q631.77 172.72 639.86 176.49L639.86 192.13L630.48 192.77L630.48 185.60Q630.48 184.22 630.11 183.57M689.73 190.56L689.73 224.79Q689.73 226.26 690.23 226.81Q690.74 227.36 692.03 227.46L694.97 227.64L694.97 235L680.34 235L680.34 229.66L680.07 229.57Q675.47 236.20 667.46 236.20Q658.08 236.20 653.57 230.22Q649.06 224.24 649.06 213.84Q649.06 201.33 655.14 194.34Q661.21 187.34 673.35 187.34Q681.17 187.34 689.73 190.56M679.06 220.37L679.06 196.54Q676.48 195.35 671.97 195.35Q665.81 195.35 663.05 200.32Q660.29 205.28 660.29 213.47Q660.29 228.38 669.86 228.38Q673.90 228.38 676.48 225.94Q679.06 223.50 679.06 220.37M703.90 196.36L700.03 196.08L700.03 188.72L715.58 188.72L715.58 194.70Q717.97 191.30 721.93 189.32Q725.88 187.34 730.48 187.34Q737.48 187.34 741.29 191.35Q745.11 195.35 745.11 203.35L745.11 227.36L750.36 227.64L750.36 235L728.46 235L728.46 228.01L731.50 227.73Q732.88 227.55 733.52 226.95Q734.16 226.35 734.16 224.70L734.16 205.74Q734.16 200.68 732.60 198.25Q731.04 195.81 726.67 195.81Q722.30 195.81 719.72 198.57Q717.14 201.33 717.14 205.10L717.14 227.36L722.39 227.64L722.39 235L700.49 235L700.49 228.01L703.53 227.73Q704.91 227.55 705.55 226.95Q706.20 226.35 706.20 224.70L706.20 199.21Q706.20 196.45 703.90 196.36M759.10 196.36L755.23 196.08L755.23 188.72L770.78 188.72L770.78 194.70Q773.17 191.30 777.13 189.32Q781.08 187.34 785.68 187.34Q792.68 187.34 796.49 191.35Q800.31 195.35 800.31 203.35L800.31 227.36L805.56 227.64L805.56 235L783.66 235L783.66 228.01L786.70 227.73Q788.08 227.55 788.72 226.95Q789.36 226.35 789.36 224.70L789.36 205.74Q789.36 200.68 787.80 198.25Q786.24 195.81 781.87 195.81Q777.50 195.81 774.92 198.57Q772.34 201.33 772.34 205.10L772.34 227.36L777.59 227.64L777.59 235L755.69 235L755.69 228.01L758.73 227.73Q760.11 227.55 760.75 226.95Q761.40 226.35 761.40 224.70L761.40 199.21Q761.40 196.45 759.10 196.36M831.22 228.28Q841.25 228.28 841.25 212.09Q841.25 203.90 839 199.67Q836.74 195.44 831.45 195.44Q826.16 195.44 823.68 199.49Q821.20 203.54 821.20 210.53Q821.20 223.50 825.98 226.81Q828.10 228.28 831.22 228.28M810.06 211.82Q810.06 205.01 812.09 199.99Q814.11 194.98 817.52 192.31Q824.05 187.34 831.96 187.34Q837.48 187.34 841.30 189.14Q845.12 190.93 847.28 193.28Q849.44 195.62 850.96 200.09Q852.48 204.55 852.48 210.62Q852.48 223.32 846.31 229.85Q840.15 236.38 830.53 236.38Q820.92 236.38 815.49 230.17Q810.06 223.96 810.06 211.82M861.95 196.36L858.09 196.08L858.09 188.72L873.64 188.72L873.64 194.70Q876.03 191.30 879.98 189.32Q883.94 187.34 888.54 187.34Q895.53 187.34 899.35 191.35Q903.17 195.35 903.17 203.35L903.17 227.36L908.41 227.64L908.41 235L886.52 235L886.52 228.01L889.55 227.73Q890.93 227.55 891.58 226.95Q892.22 226.35 892.22 224.70L892.22 205.74Q892.22 200.68 890.66 198.25Q889.09 195.81 884.72 195.81Q880.35 195.81 877.78 198.57Q875.20 201.33 875.20 205.10L875.20 227.36L880.44 227.64L880.44 235L858.55 235L858.55 228.01L861.58 227.73Q862.96 227.55 863.61 226.95Q864.25 226.35 864.25 224.70L864.25 199.21Q864.25 196.45 861.95 196.36M955.15 190.56L955.15 224.79Q955.15 226.26 955.65 226.81Q956.16 227.36 957.45 227.46L960.39 227.64L960.39 235L945.76 235L945.76 229.66L945.49 229.57Q940.89 236.20 932.88 236.20Q923.50 236.20 918.99 230.22Q914.48 224.24 914.48 213.84Q914.48 201.33 920.56 194.34Q926.63 187.34 938.77 187.34Q946.59 187.34 955.15 190.56M944.48 220.37L944.48 196.54Q941.90 195.35 937.39 195.35Q931.23 195.35 928.47 200.32Q925.71 205.28 925.71 213.47Q925.71 228.38 935.28 228.38Q939.32 228.38 941.90 225.94Q944.48 223.50 944.48 220.37M989.10 187.34Q993.05 187.34 996.64 188.45L996.64 179.16Q996.64 177.13 994.25 176.95L990.29 176.67L990.29 169.40L1007.40 169.40L1007.40 225.34Q1007.50 227.46 1009.70 227.46L1012.92 227.64L1012.92 235L998.02 235L998.02 229.57L997.74 229.48Q993.60 236.20 985.23 236.20Q974.74 236.20 970.51 229.20Q966.65 222.86 966.65 213.66Q966.65 201.70 972.58 194.52Q978.52 187.34 989.10 187.34M996.64 220.65L996.64 196.82Q993.33 195.35 989.65 195.35Q983.58 195.35 980.77 200.22Q977.96 205.10 977.96 212.64Q977.96 228.10 987.90 228.10Q991.67 228.10 994.16 225.94Q996.64 223.78 996.64 220.65M1041.35 187.34Q1048.25 187.34 1052.30 190.70Q1056.35 194.06 1056.35 200.13Q1056.35 204.18 1054.60 207.26Q1052.85 210.34 1050.28 212.09Q1047.70 213.84 1044.02 214.94Q1037.86 216.78 1030.13 216.78Q1030.40 221.66 1033.16 224.65Q1035.92 227.64 1041.63 227.64Q1047.33 227.64 1053.04 223.59L1056.53 231.04Q1054.69 232.70 1050.32 234.45Q1045.95 236.20 1040.34 236.20Q1029.12 236.20 1023.87 229.99Q1018.63 223.78 1018.63 212.92Q1018.63 202.06 1024.61 194.70Q1030.59 187.34 1041.35 187.34M1037.17 208.37Q1040.52 207.77 1043.38 205.70Q1046.23 203.63 1046.23 200.78Q1046.23 195.16 1040.71 195.16Q1035.56 195.16 1032.80 199.26Q1030.04 203.35 1029.76 209.06Q1033.81 208.96 1037.17 208.37M1099.86 183.57Q1098.85 181.82 1092.32 181.82Q1083.76 181.82 1079.35 187.62Q1074.93 193.42 1074.93 204.36Q1074.93 227.09 1091.95 227.09Q1092.23 227.09 1094.39 227.09Q1096.55 227.09 1098.48 226.49Q1100.42 225.89 1100.78 225.25Q1101.15 224.60 1101.15 223.22L1101.15 215.86L1110.54 216.51L1110.54 232.42Q1103.36 236.20 1092.32 236.20Q1078.24 236.20 1070.84 228.28Q1063.43 220.37 1063.43 204.73Q1063.43 196.08 1065.92 189.64Q1068.40 183.20 1072.63 179.62Q1080.91 172.72 1092.32 172.72Q1101.52 172.72 1109.62 176.49L1109.62 192.13L1100.23 192.77L1100.23 185.60Q1100.23 184.22 1099.86 183.57M1139.33 228.28Q1149.36 228.28 1149.36 212.09Q1149.36 203.90 1147.11 199.67Q1144.85 195.44 1139.56 195.44Q1134.27 195.44 1131.79 199.49Q1129.30 203.54 1129.30 210.53Q1129.30 223.50 1134.09 226.81Q1136.20 228.28 1139.33 228.28M1118.17 211.82Q1118.17 205.01 1120.20 199.99Q1122.22 194.98 1125.62 192.31Q1132.16 187.34 1140.07 187.34Q1145.59 187.34 1149.41 189.14Q1153.22 190.93 1155.39 193.28Q1157.55 195.62 1159.07 200.09Q1160.58 204.55 1160.58 210.62Q1160.58 223.32 1154.42 229.85Q1148.26 236.38 1138.64 236.38Q1129.03 236.38 1123.60 230.17Q1118.17 223.96 1118.17 211.82M1170.06 196.45L1166.20 196.18L1166.20 188.72L1181.74 188.72L1181.74 194.70Q1186.90 187.34 1195.87 187.34Q1204.84 187.34 1207.96 194.70Q1213.12 187.34 1221.95 187.34Q1228.57 187.34 1232.16 191.35Q1235.75 195.35 1235.75 203.35L1235.75 227.36L1240.99 227.64L1240.99 235L1219.10 235L1219.10 228.01L1222.13 227.73Q1223.51 227.55 1224.11 226.95Q1224.71 226.35 1224.80 224.79L1224.80 205.74Q1224.80 200.68 1223.65 198.25Q1222.50 195.81 1218.27 195.81Q1214.04 195.81 1211.78 198.38Q1209.53 200.96 1209.53 205.28L1209.53 227.36L1214.59 227.64L1214.59 235L1192.88 235L1192.88 228.01L1195.91 227.73Q1197.29 227.55 1197.94 226.95Q1198.58 226.35 1198.58 224.70L1198.58 205.74Q1198.58 200.68 1197.43 198.25Q1196.28 195.81 1192 195.81Q1187.72 195.81 1185.52 198.48Q1183.31 201.14 1183.31 205.10L1183.31 227.36L1188.28 227.64L1188.28 235L1166.56 235L1166.56 228.01L1169.60 227.73Q1170.98 227.55 1171.62 226.95Q1172.27 226.35 1172.27 224.70L1172.36 224.70L1172.36 199.30Q1172.36 197.74 1171.85 197.14Q1171.35 196.54 1170.06 196.45M1249.73 196.45L1245.87 196.18L1245.87 188.72L1261.42 188.72L1261.42 194.70Q1266.57 187.34 1275.54 187.34Q1284.51 187.34 1287.64 194.70Q1292.79 187.34 1301.62 187.34Q1308.24 187.34 1311.83 191.35Q1315.42 195.35 1315.42 203.35L1315.42 227.36L1320.66 227.64L1320.66 235L1298.77 235L1298.77 228.01L1301.80 227.73Q1303.18 227.55 1303.78 226.95Q1304.38 226.35 1304.47 224.79L1304.47 205.74Q1304.47 200.68 1303.32 198.25Q1302.17 195.81 1297.94 195.81Q1293.71 195.81 1291.45 198.38Q1289.20 200.96 1289.20 205.28L1289.20 227.36L1294.26 227.64L1294.26 235L1272.55 235L1272.55 228.01L1275.58 227.73Q1276.96 227.55 1277.61 226.95Q1278.25 226.35 1278.25 224.70L1278.25 205.74Q1278.25 200.68 1277.10 198.25Q1275.95 195.81 1271.67 195.81Q1267.40 195.81 1265.19 198.48Q1262.98 201.14 1262.98 205.10L1262.98 227.36L1267.95 227.64L1267.95 235L1246.24 235L1246.24 228.01L1249.27 227.73Q1250.65 227.55 1251.30 226.95Q1251.94 226.35 1251.94 224.70L1252.03 224.70L1252.03 199.30Q1252.03 197.74 1251.53 197.14Q1251.02 196.54 1249.73 196.45M1367.40 190.56L1367.40 224.79Q1367.40 226.26 1367.91 226.81Q1368.41 227.36 1369.70 227.46L1372.64 227.64L1372.64 235L1358.02 235L1358.02 229.66L1357.74 229.57Q1353.14 236.20 1345.14 236.20Q1335.75 236.20 1331.24 230.22Q1326.74 224.24 1326.74 213.84Q1326.74 201.33 1332.81 194.34Q1338.88 187.34 1351.02 187.34Q1358.84 187.34 1367.40 190.56M1356.73 220.37L1356.73 196.54Q1354.15 195.35 1349.64 195.35Q1343.48 195.35 1340.72 200.32Q1337.96 205.28 1337.96 213.47Q1337.96 228.38 1347.53 228.38Q1351.58 228.38 1354.15 225.94Q1356.73 223.50 1356.73 220.37M1381.57 196.36L1377.70 196.08L1377.70 188.72L1393.25 188.72L1393.25 194.70Q1395.64 191.30 1399.60 189.32Q1403.56 187.34 1408.16 187.34Q1415.15 187.34 1418.97 191.35Q1422.78 195.35 1422.78 203.35L1422.78 227.36L1428.03 227.64L1428.03 235L1406.13 235L1406.13 228.01L1409.17 227.73Q1410.55 227.55 1411.19 226.95Q1411.84 226.35 1411.84 224.70L1411.84 205.74Q1411.84 200.68 1410.27 198.25Q1408.71 195.81 1404.34 195.81Q1399.97 195.81 1397.39 198.57Q1394.82 201.33 1394.82 205.10L1394.82 227.36L1400.06 227.64L1400.06 235L1378.16 235L1378.16 228.01L1381.20 227.73Q1382.58 227.55 1383.22 226.95Q1383.87 226.35 1383.87 224.70L1383.87 199.21Q1383.87 196.45 1381.57 196.36M1456.55 187.34Q1460.50 187.34 1464.09 188.45L1464.09 179.16Q1464.09 177.13 1461.70 176.95L1457.74 176.67L1457.74 169.40L1474.86 169.40L1474.86 225.34Q1474.95 227.46 1477.16 227.46L1480.38 227.64L1480.38 235L1465.47 235L1465.47 229.57L1465.20 229.48Q1461.06 236.20 1452.68 236.20Q1442.20 236.20 1437.96 229.20Q1434.10 222.86 1434.10 213.66Q1434.10 201.70 1440.03 194.52Q1445.97 187.34 1456.55 187.34M1464.09 220.65L1464.09 196.82Q1460.78 195.35 1457.10 195.35Q1451.03 195.35 1448.22 200.22Q1445.42 205.10 1445.42 212.64Q1445.42 228.10 1455.35 228.10Q1459.12 228.10 1461.61 225.94Q1464.09 223.78 1464.09 220.65" fill="#242626"/>
  <path d="M613.74 293.33L612.78 295.22Q612.59 295.52 612.38 295.68Q612.16 295.83 611.86 295.83Q611.51 295.83 611.04 295.48Q610.56 295.13 609.86 294.71Q609.15 294.29 608.16 293.94Q607.16 293.60 605.75 293.60Q604.41 293.60 603.40 293.95Q602.38 294.31 601.70 294.93Q601.01 295.54 600.66 296.37Q600.31 297.20 600.31 298.17Q600.31 299.40 600.92 300.21Q601.52 301.02 602.52 301.59Q603.51 302.17 604.77 302.59Q606.03 303.01 607.36 303.46Q608.68 303.91 609.94 304.47Q611.20 305.04 612.19 305.90Q613.19 306.76 613.79 308.01Q614.40 309.26 614.40 311.08Q614.40 313.01 613.74 314.70Q613.09 316.39 611.82 317.64Q610.56 318.89 608.73 319.61Q606.89 320.33 604.56 320.33Q601.69 320.33 599.35 319.29Q597.01 318.26 595.35 316.49L596.50 314.61Q596.66 314.38 596.90 314.23Q597.14 314.08 597.42 314.08Q597.69 314.08 598.03 314.29Q598.37 314.51 598.80 314.83Q599.23 315.16 599.78 315.55Q600.33 315.94 601.04 316.27Q601.75 316.60 602.65 316.81Q603.55 317.03 604.68 317.03Q606.10 317.03 607.20 316.64Q608.31 316.25 609.08 315.54Q609.85 314.83 610.26 313.85Q610.67 312.87 610.67 311.66Q610.67 310.32 610.06 309.47Q609.46 308.62 608.47 308.05Q607.49 307.47 606.22 307.07Q604.95 306.68 603.63 306.25Q602.32 305.83 601.05 305.28Q599.78 304.73 598.80 303.85Q597.81 302.96 597.21 301.64Q596.60 300.32 596.60 298.37Q596.60 296.81 597.21 295.36Q597.81 293.90 598.97 292.78Q600.13 291.65 601.82 290.97Q603.51 290.30 605.71 290.30Q608.17 290.30 610.18 291.07Q612.20 291.85 613.74 293.33M622.80 289.80L622.80 302Q624.13 300.59 625.75 299.75Q627.37 298.91 629.49 298.91Q631.19 298.91 632.49 299.47Q633.79 300.03 634.66 301.07Q635.53 302.10 635.98 303.56Q636.43 305.01 636.43 306.78L636.43 320L632.77 320L632.77 306.78Q632.77 304.42 631.69 303.12Q630.61 301.82 628.42 301.82Q626.80 301.82 625.40 302.60Q623.99 303.37 622.80 304.71L622.80 320L619.13 320L619.13 289.80L622.80 289.80M650.76 298.91Q653.04 298.91 654.86 299.66Q656.69 300.42 657.98 301.82Q659.27 303.21 659.96 305.19Q660.65 307.17 660.65 309.61Q660.65 312.07 659.96 314.03Q659.27 316 657.98 317.40Q656.69 318.79 654.86 319.54Q653.04 320.29 650.76 320.29Q648.47 320.29 646.63 319.54Q644.80 318.79 643.51 317.40Q642.22 316 641.53 314.03Q640.84 312.07 640.84 309.61Q640.84 307.17 641.53 305.19Q642.22 303.21 643.51 301.82Q644.80 300.42 646.63 299.66Q648.47 298.91 650.76 298.91M650.76 317.44Q653.84 317.44 655.36 315.38Q656.87 313.32 656.87 309.63Q656.87 305.92 655.36 303.85Q653.84 301.78 650.76 301.78Q649.21 301.78 648.05 302.31Q646.89 302.84 646.12 303.85Q645.35 304.85 644.97 306.32Q644.59 307.78 644.59 309.63Q644.59 313.32 646.12 315.38Q647.65 317.44 650.76 317.44M674.01 298.91Q676.29 298.91 678.11 299.66Q679.94 300.42 681.23 301.82Q682.52 303.21 683.21 305.19Q683.89 307.17 683.89 309.61Q683.89 312.07 683.21 314.03Q682.52 316 681.23 317.40Q679.94 318.79 678.11 319.54Q676.29 320.29 674.01 320.29Q671.72 320.29 669.88 319.54Q668.05 318.79 666.75 317.40Q665.46 316 664.78 314.03Q664.09 312.07 664.09 309.61Q664.09 307.17 664.78 305.19Q665.46 303.21 666.75 301.82Q668.05 300.42 669.88 299.66Q671.72 298.91 674.01 298.91M674.01 317.44Q677.09 317.44 678.60 315.38Q680.12 313.32 680.12 309.63Q680.12 305.92 678.60 303.85Q677.09 301.78 674.01 301.78Q672.45 301.78 671.30 302.31Q670.14 302.84 669.37 303.85Q668.60 304.85 668.22 306.32Q667.84 307.78 667.84 309.63Q667.84 313.32 669.37 315.38Q670.90 317.44 674.01 317.44M694.88 320.33Q692.42 320.33 691.10 318.95Q689.78 317.58 689.78 315L689.78 302.29L687.27 302.29Q686.95 302.29 686.72 302.09Q686.50 301.90 686.50 301.49L686.50 300.03L689.90 299.60L690.74 293.19Q690.80 292.88 691.02 292.68Q691.23 292.49 691.58 292.49L693.42 292.49L693.42 299.64L699.43 299.64L699.43 302.29L693.42 302.29L693.42 314.75Q693.42 316.06 694.06 316.70Q694.70 317.33 695.70 317.33Q696.27 317.33 696.69 317.18Q697.11 317.03 697.42 316.84Q697.73 316.66 697.95 316.50Q698.16 316.35 698.32 316.35Q698.61 316.35 698.84 316.70L699.90 318.44Q698.96 319.32 697.63 319.83Q696.29 320.33 694.88 320.33M716.12 301.32L715.30 302.66Q715.05 303.11 714.54 303.11Q714.23 303.11 713.84 302.88Q713.45 302.66 712.89 302.38Q712.33 302.10 711.55 301.87Q710.77 301.63 709.70 301.63Q708.78 301.63 708.04 301.87Q707.30 302.10 706.78 302.51Q706.26 302.92 705.98 303.47Q705.70 304.01 705.70 304.65Q705.70 305.44 706.17 305.98Q706.63 306.51 707.39 306.90Q708.14 307.29 709.11 307.59Q710.07 307.88 711.09 308.22Q712.10 308.56 713.06 308.97Q714.03 309.38 714.79 310Q715.54 310.61 716.01 311.50Q716.47 312.39 716.47 313.64Q716.47 315.08 715.95 316.30Q715.44 317.52 714.44 318.41Q713.43 319.30 711.98 319.82Q710.52 320.33 708.62 320.33Q706.44 320.33 704.68 319.62Q702.92 318.91 701.69 317.81L702.55 316.41Q702.71 316.15 702.94 316Q703.16 315.86 703.51 315.86Q703.88 315.86 704.29 316.15Q704.70 316.43 705.28 316.78Q705.87 317.13 706.71 317.42Q707.55 317.70 708.80 317.70Q709.87 317.70 710.67 317.43Q711.46 317.15 712 316.68Q712.53 316.21 712.79 315.59Q713.04 314.98 713.04 314.28Q713.04 313.42 712.58 312.86Q712.12 312.29 711.36 311.89Q710.60 311.49 709.63 311.20Q708.66 310.90 707.64 310.57Q706.63 310.24 705.65 309.82Q704.68 309.40 703.92 308.77Q703.16 308.13 702.70 307.20Q702.24 306.26 702.24 304.93Q702.24 303.74 702.73 302.65Q703.22 301.55 704.17 300.72Q705.11 299.89 706.48 299.40Q707.86 298.91 709.62 298.91Q711.67 298.91 713.30 299.55Q714.93 300.20 716.12 301.32M746.48 299.23L749.37 299.23L737.79 326.13Q737.60 326.54 737.33 326.79Q737.05 327.03 736.47 327.03L733.77 327.03L737.56 318.79L728.99 299.23L732.15 299.23Q732.62 299.23 732.90 299.47Q733.17 299.70 733.28 299.99L738.83 313.07Q739.16 313.93 739.39 314.88Q739.67 313.91 740 313.05L745.39 299.99Q745.52 299.66 745.81 299.45Q746.11 299.23 746.48 299.23M761.34 298.91Q763.62 298.91 765.44 299.66Q767.27 300.42 768.56 301.82Q769.85 303.21 770.54 305.19Q771.22 307.17 771.22 309.61Q771.22 312.07 770.54 314.03Q769.85 316 768.56 317.40Q767.27 318.79 765.44 319.54Q763.62 320.29 761.34 320.29Q759.05 320.29 757.21 319.54Q755.38 318.79 754.08 317.40Q752.79 316 752.11 314.03Q751.42 312.07 751.42 309.61Q751.42 307.17 752.11 305.19Q752.79 303.21 754.08 301.82Q755.38 300.42 757.21 299.66Q759.05 298.91 761.34 298.91M761.34 317.44Q764.42 317.44 765.93 315.38Q767.45 313.32 767.45 309.63Q767.45 305.92 765.93 303.85Q764.42 301.78 761.34 301.78Q759.78 301.78 758.63 302.31Q757.47 302.84 756.70 303.85Q755.93 304.85 755.55 306.32Q755.17 307.78 755.17 309.63Q755.17 313.32 756.70 315.38Q758.23 317.44 761.34 317.44M789.26 299.23L792.91 299.23L792.91 320L790.74 320Q789.96 320 789.75 319.24L789.47 317.01Q788.11 318.50 786.43 319.42Q784.75 320.33 782.58 320.33Q780.88 320.33 779.58 319.76Q778.27 319.20 777.39 318.18Q776.51 317.15 776.07 315.69Q775.63 314.24 775.63 312.48L775.63 299.23L779.28 299.23L779.28 312.48Q779.28 314.83 780.36 316.13Q781.43 317.42 783.65 317.42Q785.26 317.42 786.67 316.65Q788.07 315.88 789.26 314.53L789.26 299.23M801.91 300.24L802.16 303.39Q803.14 301.26 804.58 300.06Q806.01 298.86 808.08 298.86Q808.74 298.86 809.34 299.01Q809.95 299.15 810.42 299.46L810.15 302.19Q810.03 302.70 809.54 302.70Q809.25 302.70 808.70 302.57Q808.14 302.45 807.45 302.45Q806.46 302.45 805.69 302.74Q804.92 303.03 804.32 303.59Q803.71 304.15 803.23 304.98Q802.75 305.81 802.36 306.88L802.36 320L798.69 320L798.69 299.23L800.78 299.23Q801.38 299.23 801.60 299.46Q801.83 299.68 801.91 300.24M839.53 301.61L838.56 302.92Q838.40 303.15 838.24 303.27Q838.07 303.39 837.79 303.39Q837.48 303.39 837.11 303.14Q836.74 302.88 836.20 302.57Q835.65 302.27 834.86 302.01Q834.08 301.75 832.93 301.75Q831.39 301.75 830.22 302.30Q829.05 302.84 828.26 303.87Q827.47 304.89 827.07 306.35Q826.67 307.80 826.67 309.61Q826.67 311.49 827.11 312.96Q827.54 314.42 828.33 315.42Q829.11 316.41 830.23 316.94Q831.35 317.46 832.74 317.46Q834.08 317.46 834.94 317.14Q835.80 316.82 836.36 316.43Q836.92 316.04 837.30 315.73Q837.68 315.41 838.05 315.41Q838.50 315.41 838.75 315.76L839.77 317.09Q839.10 317.93 838.24 318.52Q837.38 319.12 836.38 319.52Q835.39 319.92 834.30 320.10Q833.21 320.29 832.09 320.29Q830.14 320.29 828.47 319.57Q826.80 318.85 825.57 317.49Q824.34 316.13 823.64 314.14Q822.94 312.15 822.94 309.61Q822.94 307.29 823.59 305.32Q824.24 303.35 825.48 301.93Q826.72 300.50 828.53 299.70Q830.34 298.91 832.70 298.91Q834.90 298.91 836.57 299.61Q838.24 300.32 839.53 301.61M852.44 298.91Q854.72 298.91 856.54 299.66Q858.37 300.42 859.66 301.82Q860.95 303.21 861.64 305.19Q862.32 307.17 862.32 309.61Q862.32 312.07 861.64 314.03Q860.95 316 859.66 317.40Q858.37 318.79 856.54 319.54Q854.72 320.29 852.44 320.29Q850.15 320.29 848.31 319.54Q846.48 318.79 845.19 317.40Q843.89 316 843.21 314.03Q842.52 312.07 842.52 309.61Q842.52 307.17 843.21 305.19Q843.89 303.21 845.19 301.82Q846.48 300.42 848.31 299.66Q850.15 298.91 852.44 298.91M852.44 317.44Q855.52 317.44 857.04 315.38Q858.55 313.32 858.55 309.63Q858.55 305.92 857.04 303.85Q855.52 301.78 852.44 301.78Q850.89 301.78 849.73 302.31Q848.57 302.84 847.80 303.85Q847.03 304.85 846.65 306.32Q846.27 307.78 846.27 309.63Q846.27 313.32 847.80 315.38Q849.33 317.44 852.44 317.44M870.61 320L866.94 320L866.94 299.23L869.13 299.23Q869.91 299.23 870.09 299.99L870.36 302.12Q871.51 300.71 872.94 299.81Q874.38 298.91 876.26 298.91Q878.36 298.91 879.66 300.07Q880.96 301.24 881.53 303.23Q881.98 302.10 882.69 301.28Q883.40 300.46 884.28 299.93Q885.16 299.40 886.16 299.15Q887.15 298.91 888.17 298.91Q889.81 298.91 891.10 299.43Q892.38 299.95 893.27 300.96Q894.16 301.96 894.63 303.43Q895.10 304.89 895.10 306.78L895.10 320L891.43 320L891.43 306.78Q891.43 304.34 890.37 303.08Q889.30 301.82 887.29 301.82Q886.39 301.82 885.58 302.13Q884.77 302.45 884.16 303.07Q883.54 303.68 883.18 304.61Q882.82 305.55 882.82 306.78L882.82 320L879.15 320L879.15 306.78Q879.15 304.28 878.15 303.05Q877.15 301.82 875.22 301.82Q873.87 301.82 872.72 302.54Q871.57 303.27 870.61 304.52L870.61 320M904.33 320L900.66 320L900.66 299.23L902.85 299.23Q903.63 299.23 903.82 299.99L904.08 302.12Q905.23 300.71 906.67 299.81Q908.10 298.91 909.99 298.91Q912.08 298.91 913.38 300.07Q914.68 301.24 915.26 303.23Q915.71 302.10 916.41 301.28Q917.12 300.46 918 299.93Q918.88 299.40 919.88 299.15Q920.87 298.91 921.90 298.91Q923.54 298.91 924.82 299.43Q926.10 299.95 926.99 300.96Q927.88 301.96 928.35 303.43Q928.83 304.89 928.83 306.78L928.83 320L925.16 320L925.16 306.78Q925.16 304.34 924.09 303.08Q923.02 301.82 921.02 301.82Q920.11 301.82 919.30 302.13Q918.49 302.45 917.88 303.07Q917.26 303.68 916.91 304.61Q916.55 305.55 916.55 306.78L916.55 320L912.88 320L912.88 306.78Q912.88 304.28 911.87 303.05Q910.87 301.82 908.94 301.82Q907.59 301.82 906.44 302.54Q905.29 303.27 904.33 304.52L904.33 320M945.64 314.96L945.64 310.65Q943.11 310.73 941.34 311.05Q939.57 311.37 938.45 311.88Q937.33 312.39 936.83 313.09Q936.33 313.79 936.33 314.65Q936.33 315.47 936.60 316.06Q936.86 316.66 937.32 317.04Q937.78 317.42 938.41 317.59Q939.04 317.77 939.75 317.77Q940.72 317.77 941.52 317.57Q942.32 317.38 943.02 317.01Q943.73 316.64 944.38 316.13Q945.02 315.61 945.64 314.96M934.50 303.33L933.85 302.17Q935.57 300.50 937.56 299.68Q939.55 298.86 941.97 298.86Q943.71 298.86 945.06 299.44Q946.42 300.01 947.34 301.04Q948.26 302.06 948.73 303.52Q949.20 304.97 949.20 306.72L949.20 320L947.58 320Q947.05 320 946.76 319.83Q946.48 319.65 946.31 319.14L945.90 317.17Q945.08 317.93 944.30 318.51Q943.52 319.10 942.66 319.50Q941.80 319.90 940.83 320.11Q939.86 320.33 938.67 320.33Q937.46 320.33 936.39 319.99Q935.32 319.65 934.54 318.98Q933.75 318.30 933.29 317.26Q932.82 316.23 932.82 314.81Q932.82 313.58 933.50 312.45Q934.18 311.31 935.69 310.43Q937.21 309.55 939.65 308.98Q942.09 308.42 945.64 308.34L945.64 306.72Q945.64 304.30 944.59 303.06Q943.55 301.82 941.54 301.82Q940.18 301.82 939.27 302.15Q938.36 302.49 937.69 302.91Q937.03 303.33 936.54 303.67Q936.06 304.01 935.59 304.01Q935.22 304.01 934.96 303.82Q934.69 303.62 934.50 303.33M957.92 299.99L958.20 302.25Q958.88 301.49 959.64 300.87Q960.40 300.26 961.25 299.82Q962.10 299.38 963.05 299.14Q964 298.91 965.11 298.91Q966.81 298.91 968.11 299.47Q969.42 300.03 970.29 301.07Q971.16 302.10 971.61 303.56Q972.06 305.01 972.06 306.78L972.06 320L968.39 320L968.39 306.78Q968.39 304.42 967.32 303.12Q966.24 301.82 964.05 301.82Q962.43 301.82 961.02 302.60Q959.62 303.37 958.43 304.71L958.43 320L954.76 320L954.76 299.23L956.95 299.23Q957.73 299.23 957.92 299.99M991.17 314.20L991.17 304.17Q990.14 302.80 988.95 302.26Q987.76 301.71 986.29 301.71Q983.40 301.71 981.84 303.78Q980.28 305.86 980.28 309.69Q980.28 311.72 980.63 313.16Q980.98 314.61 981.65 315.54Q982.33 316.47 983.32 316.90Q984.30 317.33 985.55 317.33Q987.35 317.33 988.70 316.51Q990.04 315.69 991.17 314.20M991.17 289.80L994.82 289.80L994.82 320L992.64 320Q991.86 320 991.66 319.24L991.33 316.72Q990 318.32 988.30 319.30Q986.60 320.29 984.36 320.29Q982.58 320.29 981.12 319.60Q979.67 318.91 978.64 317.58Q977.62 316.25 977.06 314.26Q976.51 312.27 976.51 309.69Q976.51 307.39 977.12 305.41Q977.74 303.44 978.89 301.98Q980.04 300.52 981.71 299.69Q983.38 298.86 985.47 298.86Q987.37 298.86 988.74 299.51Q990.10 300.16 991.17 301.30L991.17 289.80M1013.51 301.32L1012.69 302.66Q1012.45 303.11 1011.93 303.11Q1011.63 303.11 1011.24 302.88Q1010.85 302.66 1010.28 302.38Q1009.72 302.10 1008.94 301.87Q1008.16 301.63 1007.10 301.63Q1006.17 301.63 1005.43 301.87Q1004.70 302.10 1004.17 302.51Q1003.65 302.92 1003.37 303.47Q1003.10 304.01 1003.10 304.65Q1003.10 305.44 1003.56 305.98Q1004.02 306.51 1004.78 306.90Q1005.54 307.29 1006.50 307.59Q1007.46 307.88 1008.48 308.22Q1009.49 308.56 1010.46 308.97Q1011.42 309.38 1012.18 310Q1012.94 310.61 1013.40 311.50Q1013.86 312.39 1013.86 313.64Q1013.86 315.08 1013.35 316.30Q1012.84 317.52 1011.83 318.41Q1010.83 319.30 1009.37 319.82Q1007.92 320.33 1006.01 320.33Q1003.84 320.33 1002.07 319.62Q1000.31 318.91 999.08 317.81L999.94 316.41Q1000.10 316.15 1000.33 316Q1000.56 315.86 1000.90 315.86Q1001.27 315.86 1001.68 316.15Q1002.09 316.43 1002.68 316.78Q1003.26 317.13 1004.10 317.42Q1004.94 317.70 1006.19 317.70Q1007.26 317.70 1008.06 317.43Q1008.86 317.15 1009.39 316.68Q1009.92 316.21 1010.18 315.59Q1010.44 314.98 1010.44 314.28Q1010.44 313.42 1009.98 312.86Q1009.51 312.29 1008.76 311.89Q1008 311.49 1007.02 311.20Q1006.05 310.90 1005.04 310.57Q1004.02 310.24 1003.05 309.82Q1002.07 309.40 1001.31 308.77Q1000.56 308.13 1000.09 307.20Q999.63 306.26 999.63 304.93Q999.63 303.74 1000.13 302.65Q1000.62 301.55 1001.56 300.72Q1002.50 299.89 1003.88 299.40Q1005.25 298.91 1007.01 298.91Q1009.06 298.91 1010.69 299.55Q1012.32 300.20 1013.51 301.32M1054.74 299.23L1057.48 299.23L1050.76 320L1047.87 320Q1047.34 320 1047.13 319.30L1042.54 305.22Q1042.38 304.75 1042.27 304.27Q1042.17 303.78 1042.07 303.31Q1041.97 303.78 1041.86 304.27Q1041.76 304.75 1041.60 305.24L1036.92 319.30Q1036.74 320 1036.10 320L1033.36 320L1026.63 299.23L1029.50 299.23Q1029.93 299.23 1030.23 299.46Q1030.53 299.68 1030.63 299.99L1034.61 313.36Q1034.95 314.83 1035.16 316.15Q1035.34 315.47 1035.54 314.77Q1035.73 314.08 1035.96 313.36L1040.35 299.91Q1040.45 299.60 1040.71 299.40Q1040.96 299.19 1041.33 299.19L1042.93 299.19Q1043.34 299.19 1043.61 299.40Q1043.87 299.60 1043.97 299.91L1048.26 313.36Q1048.48 314.08 1048.67 314.77Q1048.85 315.47 1049.02 316.15Q1049.12 315.47 1049.27 314.78Q1049.43 314.10 1049.61 313.36L1053.67 299.99Q1053.77 299.66 1054.06 299.45Q1054.35 299.23 1054.74 299.23M1064.72 289.80L1064.72 302Q1066.05 300.59 1067.67 299.75Q1069.29 298.91 1071.40 298.91Q1073.11 298.91 1074.41 299.47Q1075.71 300.03 1076.58 301.07Q1077.45 302.10 1077.90 303.56Q1078.35 305.01 1078.35 306.78L1078.35 320L1074.68 320L1074.68 306.78Q1074.68 304.42 1073.61 303.12Q1072.53 301.82 1070.34 301.82Q1068.72 301.82 1067.31 302.60Q1065.91 303.37 1064.72 304.71L1064.72 320L1061.05 320L1061.05 289.80L1064.72 289.80M1086.47 307.35L1097.83 307.35Q1097.83 306.08 1097.47 305.02Q1097.11 303.97 1096.42 303.20Q1095.74 302.43 1094.75 302.01Q1093.77 301.59 1092.52 301.59Q1089.89 301.59 1088.37 303.12Q1086.84 304.65 1086.47 307.35M1099.76 315.76L1100.78 317.09Q1100.10 317.91 1099.16 318.51Q1098.22 319.12 1097.14 319.51Q1096.07 319.90 1094.92 320.09Q1093.77 320.29 1092.64 320.29Q1090.49 320.29 1088.68 319.56Q1086.86 318.83 1085.54 317.43Q1084.22 316.02 1083.48 313.95Q1082.74 311.88 1082.74 309.20Q1082.74 307.02 1083.41 305.14Q1084.07 303.25 1085.32 301.87Q1086.57 300.48 1088.38 299.69Q1090.18 298.91 1092.44 298.91Q1094.30 298.91 1095.89 299.53Q1097.48 300.16 1098.64 301.33Q1099.80 302.51 1100.45 304.25Q1101.11 305.98 1101.11 308.19Q1101.11 309.05 1100.92 309.34Q1100.74 309.63 1100.23 309.63L1086.35 309.63Q1086.41 311.60 1086.89 313.05Q1087.37 314.51 1088.23 315.48Q1089.10 316.45 1090.28 316.94Q1091.47 317.42 1092.95 317.42Q1094.32 317.42 1095.32 317.10Q1096.31 316.78 1097.03 316.41Q1097.75 316.04 1098.23 315.73Q1098.71 315.41 1099.06 315.41Q1099.51 315.41 1099.76 315.76M1108.80 300.24L1109.04 303.39Q1110.03 301.26 1111.46 300.06Q1112.90 298.86 1114.97 298.86Q1115.62 298.86 1116.23 299.01Q1116.83 299.15 1117.30 299.46L1117.04 302.19Q1116.91 302.70 1116.42 302.70Q1116.13 302.70 1115.58 302.57Q1115.03 302.45 1114.33 302.45Q1113.35 302.45 1112.58 302.74Q1111.81 303.03 1111.20 303.59Q1110.60 304.15 1110.12 304.98Q1109.64 305.81 1109.25 306.88L1109.25 320L1105.58 320L1105.58 299.23L1107.67 299.23Q1108.26 299.23 1108.49 299.46Q1108.71 299.68 1108.80 300.24M1123.04 307.35L1134.40 307.35Q1134.40 306.08 1134.04 305.02Q1133.68 303.97 1133 303.20Q1132.31 302.43 1131.33 302.01Q1130.34 301.59 1129.09 301.59Q1126.47 301.59 1124.94 303.12Q1123.41 304.65 1123.04 307.35M1136.33 315.76L1137.35 317.09Q1136.68 317.91 1135.73 318.51Q1134.79 319.12 1133.71 319.51Q1132.64 319.90 1131.49 320.09Q1130.34 320.29 1129.21 320.29Q1127.06 320.29 1125.25 319.56Q1123.43 318.83 1122.11 317.43Q1120.79 316.02 1120.05 313.95Q1119.31 311.88 1119.31 309.20Q1119.31 307.02 1119.98 305.14Q1120.64 303.25 1121.90 301.87Q1123.15 300.48 1124.95 299.69Q1126.75 298.91 1129.01 298.91Q1130.87 298.91 1132.46 299.53Q1134.05 300.16 1135.21 301.33Q1136.37 302.51 1137.02 304.25Q1137.68 305.98 1137.68 308.19Q1137.68 309.05 1137.50 309.34Q1137.31 309.63 1136.80 309.63L1122.92 309.63Q1122.98 311.60 1123.46 313.05Q1123.95 314.51 1124.81 315.48Q1125.67 316.45 1126.86 316.94Q1128.05 317.42 1129.52 317.42Q1130.89 317.42 1131.89 317.10Q1132.88 316.78 1133.60 316.41Q1134.32 316.04 1134.80 315.73Q1135.28 315.41 1135.63 315.41Q1136.08 315.41 1136.33 315.76M1167.67 299.23L1170.56 299.23L1158.98 326.13Q1158.80 326.54 1158.52 326.79Q1158.24 327.03 1157.67 327.03L1154.96 327.03L1158.75 318.79L1150.19 299.23L1153.34 299.23Q1153.81 299.23 1154.09 299.47Q1154.37 299.70 1154.47 299.99L1160.03 313.07Q1160.35 313.93 1160.58 314.88Q1160.87 313.91 1161.19 313.05L1166.59 299.99Q1166.71 299.66 1167.01 299.45Q1167.30 299.23 1167.67 299.23M1182.53 298.91Q1184.81 298.91 1186.63 299.66Q1188.46 300.42 1189.75 301.82Q1191.04 303.21 1191.73 305.19Q1192.42 307.17 1192.42 309.61Q1192.42 312.07 1191.73 314.03Q1191.04 316 1189.75 317.40Q1188.46 318.79 1186.63 319.54Q1184.81 320.29 1182.53 320.29Q1180.24 320.29 1178.40 319.54Q1176.57 318.79 1175.28 317.40Q1173.99 316 1173.30 314.03Q1172.61 312.07 1172.61 309.61Q1172.61 307.17 1173.30 305.19Q1173.99 303.21 1175.28 301.82Q1176.57 300.42 1178.40 299.66Q1180.24 298.91 1182.53 298.91M1182.53 317.44Q1185.61 317.44 1187.13 315.38Q1188.64 313.32 1188.64 309.63Q1188.64 305.92 1187.13 303.85Q1185.61 301.78 1182.53 301.78Q1180.98 301.78 1179.82 302.31Q1178.66 302.84 1177.89 303.85Q1177.12 304.85 1176.74 306.32Q1176.36 307.78 1176.36 309.63Q1176.36 313.32 1177.89 315.38Q1179.42 317.44 1182.53 317.44M1210.46 299.23L1214.10 299.23L1214.10 320L1211.93 320Q1211.15 320 1210.95 319.24L1210.66 317.01Q1209.31 318.50 1207.63 319.42Q1205.95 320.33 1203.77 320.33Q1202.07 320.33 1200.77 319.76Q1199.47 319.20 1198.59 318.18Q1197.70 317.15 1197.26 315.69Q1196.82 314.24 1196.82 312.48L1196.82 299.23L1200.47 299.23L1200.47 312.48Q1200.47 314.83 1201.55 316.13Q1202.62 317.42 1204.84 317.42Q1206.46 317.42 1207.86 316.65Q1209.27 315.88 1210.46 314.53L1210.46 299.23M1233.54 299.99L1233.83 302.25Q1234.50 301.49 1235.26 300.87Q1236.02 300.26 1236.87 299.82Q1237.72 299.38 1238.67 299.14Q1239.63 298.91 1240.73 298.91Q1242.44 298.91 1243.74 299.47Q1245.04 300.03 1245.91 301.07Q1246.78 302.10 1247.23 303.56Q1247.68 305.01 1247.68 306.78L1247.68 320L1244.01 320L1244.01 306.78Q1244.01 304.42 1242.94 303.12Q1241.86 301.82 1239.67 301.82Q1238.05 301.82 1236.64 302.60Q1235.24 303.37 1234.05 304.71L1234.05 320L1230.38 320L1230.38 299.23L1232.58 299.23Q1233.35 299.23 1233.54 299.99M1255.80 307.35L1267.16 307.35Q1267.16 306.08 1266.80 305.02Q1266.44 303.97 1265.75 303.20Q1265.07 302.43 1264.08 302.01Q1263.10 301.59 1261.85 301.59Q1259.22 301.59 1257.70 303.12Q1256.17 304.65 1255.80 307.35M1269.09 315.76L1270.11 317.09Q1269.43 317.91 1268.49 318.51Q1267.55 319.12 1266.47 319.51Q1265.40 319.90 1264.25 320.09Q1263.10 320.29 1261.97 320.29Q1259.82 320.29 1258.01 319.56Q1256.19 318.83 1254.87 317.43Q1253.55 316.02 1252.81 313.95Q1252.07 311.88 1252.07 309.20Q1252.07 307.02 1252.74 305.14Q1253.40 303.25 1254.65 301.87Q1255.90 300.48 1257.71 299.69Q1259.51 298.91 1261.77 298.91Q1263.63 298.91 1265.22 299.53Q1266.81 300.16 1267.97 301.33Q1269.13 302.51 1269.78 304.25Q1270.44 305.98 1270.44 308.19Q1270.44 309.05 1270.25 309.34Q1270.07 309.63 1269.56 309.63L1255.68 309.63Q1255.74 311.60 1256.22 313.05Q1256.70 314.51 1257.56 315.48Q1258.43 316.45 1259.61 316.94Q1260.80 317.42 1262.28 317.42Q1263.65 317.42 1264.65 317.10Q1265.64 316.78 1266.36 316.41Q1267.08 316.04 1267.56 315.73Q1268.04 315.41 1268.39 315.41Q1268.84 315.41 1269.09 315.76M1277.45 307.35L1288.81 307.35Q1288.81 306.08 1288.45 305.02Q1288.09 303.97 1287.40 303.20Q1286.72 302.43 1285.73 302.01Q1284.75 301.59 1283.50 301.59Q1280.87 301.59 1279.35 303.12Q1277.82 304.65 1277.45 307.35M1290.73 315.76L1291.76 317.09Q1291.08 317.91 1290.14 318.51Q1289.20 319.12 1288.12 319.51Q1287.04 319.90 1285.90 320.09Q1284.75 320.29 1283.62 320.29Q1281.47 320.29 1279.65 319.56Q1277.84 318.83 1276.52 317.43Q1275.19 316.02 1274.46 313.95Q1273.72 311.88 1273.72 309.20Q1273.72 307.02 1274.38 305.14Q1275.05 303.25 1276.30 301.87Q1277.55 300.48 1279.36 299.69Q1281.16 298.91 1283.41 298.91Q1285.28 298.91 1286.87 299.53Q1288.46 300.16 1289.62 301.33Q1290.77 302.51 1291.43 304.25Q1292.09 305.98 1292.09 308.19Q1292.09 309.05 1291.90 309.34Q1291.72 309.63 1291.20 309.63L1277.33 309.63Q1277.39 311.60 1277.87 313.05Q1278.35 314.51 1279.21 315.48Q1280.07 316.45 1281.26 316.94Q1282.45 317.42 1283.93 317.42Q1285.30 317.42 1286.30 317.10Q1287.29 316.78 1288.01 316.41Q1288.72 316.04 1289.21 315.73Q1289.69 315.41 1290.04 315.41Q1290.49 315.41 1290.73 315.76M1310.09 314.20L1310.09 304.17Q1309.06 302.80 1307.87 302.26Q1306.68 301.71 1305.21 301.71Q1302.32 301.71 1300.76 303.78Q1299.20 305.86 1299.20 309.69Q1299.20 311.72 1299.55 313.16Q1299.90 314.61 1300.57 315.54Q1301.25 316.47 1302.23 316.90Q1303.22 317.33 1304.47 317.33Q1306.27 317.33 1307.62 316.51Q1308.96 315.69 1310.09 314.20M1310.09 289.80L1313.73 289.80L1313.73 320L1311.56 320Q1310.78 320 1310.58 319.24L1310.25 316.72Q1308.92 318.32 1307.22 319.30Q1305.51 320.29 1303.28 320.29Q1301.50 320.29 1300.04 319.60Q1298.58 318.91 1297.56 317.58Q1296.53 316.25 1295.98 314.26Q1295.43 312.27 1295.43 309.69Q1295.43 307.39 1296.04 305.41Q1296.66 303.44 1297.81 301.98Q1298.95 300.52 1300.62 299.69Q1302.30 298.86 1304.39 298.86Q1306.29 298.86 1307.66 299.51Q1309.02 300.16 1310.09 301.30L1310.09 289.80M1336.39 320.33Q1333.93 320.33 1332.60 318.95Q1331.28 317.58 1331.28 315L1331.28 302.29L1328.78 302.29Q1328.45 302.29 1328.23 302.09Q1328 301.90 1328 301.49L1328 300.03L1331.41 299.60L1332.25 293.19Q1332.31 292.88 1332.52 292.68Q1332.74 292.49 1333.09 292.49L1334.93 292.49L1334.93 299.64L1340.94 299.64L1340.94 302.29L1334.93 302.29L1334.93 314.75Q1334.93 316.06 1335.57 316.70Q1336.20 317.33 1337.21 317.33Q1337.78 317.33 1338.20 317.18Q1338.62 317.03 1338.93 316.84Q1339.24 316.66 1339.45 316.50Q1339.67 316.35 1339.83 316.35Q1340.12 316.35 1340.34 316.70L1341.41 318.44Q1340.47 319.32 1339.13 319.83Q1337.80 320.33 1336.39 320.33M1348.38 289.80L1348.38 302Q1349.71 300.59 1351.33 299.75Q1352.95 298.91 1355.06 298.91Q1356.76 298.91 1358.07 299.47Q1359.37 300.03 1360.24 301.07Q1361.11 302.10 1361.56 303.56Q1362.01 305.01 1362.01 306.78L1362.01 320L1358.34 320L1358.34 306.78Q1358.34 304.42 1357.27 303.12Q1356.19 301.82 1354 301.82Q1352.38 301.82 1350.97 302.60Q1349.57 303.37 1348.38 304.71L1348.38 320L1344.71 320L1344.71 289.80L1348.38 289.80M1370.13 307.35L1381.49 307.35Q1381.49 306.08 1381.13 305.02Q1380.77 303.97 1380.08 303.20Q1379.40 302.43 1378.41 302.01Q1377.43 301.59 1376.18 301.59Q1373.55 301.59 1372.03 303.12Q1370.50 304.65 1370.13 307.35M1383.41 315.76L1384.44 317.09Q1383.76 317.91 1382.82 318.51Q1381.88 319.12 1380.80 319.51Q1379.72 319.90 1378.58 320.09Q1377.43 320.29 1376.30 320.29Q1374.15 320.29 1372.33 319.56Q1370.52 318.83 1369.20 317.43Q1367.87 316.02 1367.14 313.95Q1366.40 311.88 1366.40 309.20Q1366.40 307.02 1367.07 305.14Q1367.73 303.25 1368.98 301.87Q1370.23 300.48 1372.04 299.69Q1373.84 298.91 1376.10 298.91Q1377.96 298.91 1379.55 299.53Q1381.14 300.16 1382.30 301.33Q1383.45 302.51 1384.11 304.25Q1384.77 305.98 1384.77 308.19Q1384.77 309.05 1384.58 309.34Q1384.40 309.63 1383.89 309.63L1370.01 309.63Q1370.07 311.60 1370.55 313.05Q1371.03 314.51 1371.89 315.48Q1372.75 316.45 1373.94 316.94Q1375.13 317.42 1376.61 317.42Q1377.98 317.42 1378.98 317.10Q1379.97 316.78 1380.69 316.41Q1381.40 316.04 1381.89 315.73Q1382.37 315.41 1382.72 315.41Q1383.17 315.41 1383.41 315.76M1392.91 320L1389.24 320L1389.24 299.23L1391.43 299.23Q1392.21 299.23 1392.39 299.99L1392.66 302.12Q1393.81 300.71 1395.24 299.81Q1396.68 298.91 1398.56 298.91Q1400.65 298.91 1401.96 300.07Q1403.26 301.24 1403.83 303.23Q1404.28 302.10 1404.99 301.28Q1405.70 300.46 1406.58 299.93Q1407.46 299.40 1408.45 299.15Q1409.45 298.91 1410.47 298.91Q1412.11 298.91 1413.40 299.43Q1414.68 299.95 1415.57 300.96Q1416.46 301.96 1416.93 303.43Q1417.40 304.89 1417.40 306.78L1417.40 320L1413.73 320L1413.73 306.78Q1413.73 304.34 1412.67 303.08Q1411.60 301.82 1409.59 301.82Q1408.69 301.82 1407.88 302.13Q1407.07 302.45 1406.46 303.07Q1405.84 303.68 1405.48 304.61Q1405.12 305.55 1405.12 306.78L1405.12 320L1401.45 320L1401.45 306.78Q1401.45 304.28 1400.45 303.05Q1399.44 301.82 1397.52 301.82Q1396.16 301.82 1395.02 302.54Q1393.87 303.27 1392.91 304.52L1392.91 320M1433.19 309.24L1433.19 306.57L1460.45 306.57L1460.45 309.24" fill="#5a5d5e"/>
  <path d="M608.14 379.96L608.14 375.65Q605.62 375.73 603.85 376.05Q602.08 376.37 600.96 376.88Q599.84 377.39 599.34 378.09Q598.84 378.79 598.84 379.65Q598.84 380.47 599.10 381.06Q599.37 381.66 599.83 382.04Q600.29 382.42 600.92 382.59Q601.54 382.77 602.26 382.77Q603.23 382.77 604.02 382.57Q604.82 382.38 605.53 382.01Q606.24 381.64 606.88 381.13Q607.53 380.61 608.14 379.96M597.01 368.33L596.36 367.17Q598.08 365.50 600.07 364.68Q602.06 363.86 604.48 363.86Q606.22 363.86 607.57 364.44Q608.92 365.01 609.85 366.04Q610.77 367.06 611.24 368.52Q611.71 369.97 611.71 371.72L611.71 385L610.09 385Q609.56 385 609.27 384.83Q608.99 384.65 608.82 384.14L608.41 382.17Q607.59 382.93 606.81 383.51Q606.03 384.10 605.17 384.50Q604.31 384.90 603.34 385.11Q602.36 385.33 601.17 385.33Q599.97 385.33 598.90 384.99Q597.83 384.65 597.04 383.98Q596.25 383.30 595.79 382.26Q595.33 381.23 595.33 379.81Q595.33 378.58 596.01 377.45Q596.69 376.31 598.20 375.43Q599.72 374.55 602.16 373.98Q604.60 373.42 608.14 373.34L608.14 371.72Q608.14 369.30 607.10 368.06Q606.05 366.82 604.04 366.82Q602.69 366.82 601.78 367.15Q600.87 367.49 600.20 367.91Q599.53 368.33 599.05 368.67Q598.57 369.01 598.10 369.01Q597.73 369.01 597.46 368.82Q597.20 368.62 597.01 368.33M620.42 364.99L620.71 367.25Q621.39 366.49 622.15 365.87Q622.90 365.26 623.76 364.82Q624.61 364.38 625.56 364.14Q626.51 363.91 627.62 363.91Q629.32 363.91 630.62 364.47Q631.92 365.03 632.80 366.07Q633.67 367.10 634.12 368.56Q634.57 370.01 634.57 371.78L634.57 385L630.90 385L630.90 371.78Q630.90 369.42 629.82 368.12Q628.75 366.82 626.55 366.82Q624.93 366.82 623.53 367.60Q622.13 368.37 620.94 369.71L620.94 385L617.27 385L617.27 364.23L619.46 364.23Q620.24 364.23 620.42 364.99M653.68 379.20L653.68 369.17Q652.65 367.80 651.46 367.26Q650.27 366.71 648.80 366.71Q645.91 366.71 644.35 368.78Q642.79 370.86 642.79 374.69Q642.79 376.72 643.14 378.16Q643.49 379.61 644.16 380.54Q644.84 381.47 645.82 381.90Q646.81 382.33 648.06 382.33Q649.86 382.33 651.21 381.51Q652.55 380.69 653.68 379.20M653.68 354.80L657.32 354.80L657.32 385L655.15 385Q654.37 385 654.17 384.24L653.84 381.72Q652.51 383.32 650.81 384.30Q649.10 385.29 646.87 385.29Q645.09 385.29 643.63 384.60Q642.17 383.91 641.15 382.58Q640.13 381.25 639.57 379.26Q639.02 377.27 639.02 374.69Q639.02 372.39 639.63 370.41Q640.25 368.44 641.40 366.98Q642.54 365.52 644.21 364.69Q645.89 363.86 647.98 363.86Q649.88 363.86 651.25 364.51Q652.61 365.16 653.68 366.30L653.68 354.80M679.98 385.33Q677.52 385.33 676.19 383.95Q674.87 382.58 674.87 380L674.87 367.29L672.37 367.29Q672.04 367.29 671.82 367.09Q671.59 366.90 671.59 366.49L671.59 365.03L675 364.60L675.84 358.19Q675.90 357.88 676.11 357.68Q676.33 357.49 676.68 357.49L678.52 357.49L678.52 364.64L684.53 364.64L684.53 367.29L678.52 367.29L678.52 379.75Q678.52 381.06 679.16 381.70Q679.79 382.33 680.80 382.33Q681.37 382.33 681.79 382.18Q682.21 382.03 682.52 381.84Q682.83 381.66 683.04 381.50Q683.26 381.35 683.42 381.35Q683.71 381.35 683.93 381.70L685 383.44Q684.06 384.32 682.72 384.83Q681.39 385.33 679.98 385.33M691.97 354.80L691.97 367Q693.30 365.59 694.92 364.75Q696.54 363.91 698.65 363.91Q700.35 363.91 701.66 364.47Q702.96 365.03 703.83 366.07Q704.70 367.10 705.15 368.56Q705.60 370.01 705.60 371.78L705.60 385L701.93 385L701.93 371.78Q701.93 369.42 700.86 368.12Q699.78 366.82 697.59 366.82Q695.97 366.82 694.56 367.60Q693.16 368.37 691.97 369.71L691.97 385L688.30 385L688.30 354.80L691.97 354.80M722.43 379.96L722.43 375.65Q719.91 375.73 718.14 376.05Q716.36 376.37 715.25 376.88Q714.13 377.39 713.63 378.09Q713.13 378.79 713.13 379.65Q713.13 380.47 713.39 381.06Q713.66 381.66 714.12 382.04Q714.58 382.42 715.21 382.59Q715.83 382.77 716.55 382.77Q717.51 382.77 718.31 382.57Q719.11 382.38 719.82 382.01Q720.53 381.64 721.17 381.13Q721.82 380.61 722.43 379.96M711.30 368.33L710.64 367.17Q712.37 365.50 714.36 364.68Q716.34 363.86 718.76 363.86Q720.51 363.86 721.86 364.44Q723.21 365.01 724.13 366.04Q725.06 367.06 725.53 368.52Q726 369.97 726 371.72L726 385L724.38 385Q723.85 385 723.56 384.83Q723.27 384.65 723.11 384.14L722.70 382.17Q721.88 382.93 721.10 383.51Q720.32 384.10 719.46 384.50Q718.60 384.90 717.63 385.11Q716.65 385.33 715.46 385.33Q714.25 385.33 713.19 384.99Q712.12 384.65 711.33 383.98Q710.54 383.30 710.08 382.26Q709.62 381.23 709.62 379.81Q709.62 378.58 710.30 377.45Q710.97 376.31 712.49 375.43Q714.01 374.55 716.45 373.98Q718.89 373.42 722.43 373.34L722.43 371.72Q722.43 369.30 721.39 368.06Q720.34 366.82 718.33 366.82Q716.98 366.82 716.07 367.15Q715.15 367.49 714.49 367.91Q713.82 368.33 713.34 368.67Q712.86 369.01 712.39 369.01Q712.02 369.01 711.75 368.82Q711.49 368.62 711.30 368.33M737.93 385.33Q735.47 385.33 734.15 383.95Q732.83 382.58 732.83 380L732.83 367.29L730.32 367.29Q730 367.29 729.77 367.09Q729.55 366.90 729.55 366.49L729.55 365.03L732.95 364.60L733.79 358.19Q733.85 357.88 734.07 357.68Q734.28 357.49 734.63 357.49L736.48 357.49L736.48 364.64L742.48 364.64L742.48 367.29L736.48 367.29L736.48 379.75Q736.48 381.06 737.11 381.70Q737.75 382.33 738.75 382.33Q739.32 382.33 739.74 382.18Q740.16 382.03 740.47 381.84Q740.78 381.66 741 381.50Q741.21 381.35 741.37 381.35Q741.66 381.35 741.89 381.70L742.95 383.44Q742.01 384.32 740.68 384.83Q739.35 385.33 737.93 385.33M771.69 364.23L774.54 364.23L766.08 385L762.80 385L754.33 364.23L757.30 364.23Q757.75 364.23 758.04 364.46Q758.33 364.68 758.43 364.99L763.70 378.36Q763.94 379.12 764.13 379.83Q764.31 380.55 764.48 381.27Q764.64 380.55 764.83 379.83Q765.01 379.12 765.28 378.36L770.61 364.99Q770.73 364.66 771.02 364.45Q771.30 364.23 771.69 364.23M780.45 372.35L791.80 372.35Q791.80 371.08 791.45 370.02Q791.09 368.97 790.40 368.20Q789.71 367.43 788.73 367.01Q787.75 366.59 786.49 366.59Q783.87 366.59 782.34 368.12Q780.82 369.65 780.45 372.35M793.73 380.76L794.76 382.09Q794.08 382.91 793.14 383.51Q792.19 384.12 791.12 384.51Q790.04 384.90 788.89 385.09Q787.75 385.29 786.62 385.29Q784.47 385.29 782.65 384.56Q780.84 383.83 779.51 382.43Q778.19 381.02 777.45 378.95Q776.72 376.88 776.72 374.20Q776.72 372.02 777.38 370.14Q778.05 368.25 779.30 366.87Q780.55 365.48 782.35 364.69Q784.16 363.91 786.41 363.91Q788.28 363.91 789.87 364.53Q791.46 365.16 792.61 366.33Q793.77 367.51 794.43 369.25Q795.08 370.98 795.08 373.19Q795.08 374.05 794.90 374.34Q794.72 374.63 794.20 374.63L780.32 374.63Q780.39 376.60 780.87 378.05Q781.35 379.51 782.21 380.48Q783.07 381.45 784.26 381.94Q785.45 382.42 786.93 382.42Q788.30 382.42 789.29 382.10Q790.29 381.78 791 381.41Q791.72 381.04 792.20 380.73Q792.69 380.41 793.03 380.41Q793.49 380.41 793.73 380.76M802.77 365.24L803.02 368.39Q804 366.26 805.44 365.06Q806.87 363.86 808.94 363.86Q809.60 363.86 810.20 364.01Q810.81 364.15 811.28 364.46L811.01 367.19Q810.89 367.70 810.40 367.70Q810.11 367.70 809.56 367.57Q809 367.45 808.31 367.45Q807.32 367.45 806.55 367.74Q805.79 368.03 805.18 368.59Q804.58 369.15 804.09 369.98Q803.61 370.81 803.22 371.88L803.22 385L799.55 385L799.55 364.23L801.64 364.23Q802.24 364.23 802.46 364.46Q802.69 364.68 802.77 365.24M829.50 364.23L832.39 364.23L820.81 391.13Q820.63 391.54 820.35 391.79Q820.07 392.03 819.50 392.03L816.79 392.03L820.59 383.79L812.02 364.23L815.17 364.23Q815.65 364.23 815.92 364.47Q816.20 364.70 816.30 364.99L821.86 378.07Q822.19 378.93 822.41 379.88Q822.70 378.91 823.03 378.05L828.42 364.99Q828.54 364.66 828.84 364.45Q829.13 364.23 829.50 364.23M849.27 364.99L849.55 367.25Q850.23 366.49 850.99 365.87Q851.75 365.26 852.60 364.82Q853.45 364.38 854.40 364.14Q855.35 363.91 856.46 363.91Q858.16 363.91 859.46 364.47Q860.77 365.03 861.64 366.07Q862.51 367.10 862.96 368.56Q863.41 370.01 863.41 371.78L863.41 385L859.74 385L859.74 371.78Q859.74 369.42 858.67 368.12Q857.59 366.82 855.40 366.82Q853.78 366.82 852.37 367.60Q850.97 368.37 849.78 369.71L849.78 385L846.11 385L846.11 364.23L848.30 364.23Q849.08 364.23 849.27 364.99M869.19 364.23L872.84 364.23L872.84 385L869.19 385L869.19 364.23M873.62 357.71Q873.62 358.25 873.40 358.71Q873.19 359.17 872.83 359.53Q872.47 359.89 871.99 360.09Q871.51 360.30 870.98 360.30Q870.44 360.30 869.98 360.09Q869.52 359.89 869.17 359.53Q868.82 359.17 868.62 358.71Q868.41 358.25 868.41 357.71Q868.41 357.18 868.62 356.70Q868.82 356.22 869.17 355.86Q869.52 355.50 869.98 355.30Q870.44 355.09 870.98 355.09Q871.51 355.09 871.99 355.30Q872.47 355.50 872.83 355.86Q873.19 356.22 873.40 356.70Q873.62 357.18 873.62 357.71M894.24 366.61L893.28 367.92Q893.12 368.15 892.95 368.27Q892.79 368.39 892.50 368.39Q892.19 368.39 891.82 368.14Q891.45 367.88 890.91 367.57Q890.37 367.27 889.58 367.01Q888.79 366.75 887.64 366.75Q886.10 366.75 884.94 367.30Q883.77 367.84 882.98 368.87Q882.19 369.89 881.79 371.35Q881.39 372.80 881.39 374.61Q881.39 376.49 881.82 377.96Q882.25 379.42 883.04 380.42Q883.83 381.41 884.95 381.94Q886.06 382.46 887.46 382.46Q888.79 382.46 889.65 382.14Q890.51 381.82 891.08 381.43Q891.64 381.04 892.02 380.73Q892.40 380.41 892.77 380.41Q893.22 380.41 893.46 380.76L894.49 382.09Q893.81 382.93 892.95 383.52Q892.09 384.12 891.10 384.52Q890.10 384.92 889.02 385.10Q887.93 385.29 886.80 385.29Q884.85 385.29 883.18 384.57Q881.51 383.85 880.28 382.49Q879.05 381.13 878.36 379.14Q877.66 377.15 877.66 374.61Q877.66 372.29 878.30 370.32Q878.95 368.35 880.19 366.93Q881.43 365.50 883.24 364.70Q885.06 363.91 887.42 363.91Q889.61 363.91 891.28 364.61Q892.95 365.32 894.24 366.61M900.95 372.35L912.30 372.35Q912.30 371.08 911.94 370.02Q911.59 368.97 910.90 368.20Q910.21 367.43 909.23 367.01Q908.24 366.59 906.99 366.59Q904.37 366.59 902.84 368.12Q901.32 369.65 900.95 372.35M914.23 380.76L915.26 382.09Q914.58 382.91 913.64 383.51Q912.69 384.12 911.62 384.51Q910.54 384.90 909.39 385.09Q908.24 385.29 907.12 385.29Q904.96 385.29 903.15 384.56Q901.34 383.83 900.01 382.43Q898.69 381.02 897.95 378.95Q897.22 376.88 897.22 374.20Q897.22 372.02 897.88 370.14Q898.55 368.25 899.80 366.87Q901.05 365.48 902.85 364.69Q904.66 363.91 906.91 363.91Q908.78 363.91 910.37 364.53Q911.95 365.16 913.11 366.33Q914.27 367.51 914.93 369.25Q915.58 370.98 915.58 373.19Q915.58 374.05 915.40 374.34Q915.21 374.63 914.70 374.63L900.82 374.63Q900.88 376.60 901.37 378.05Q901.85 379.51 902.71 380.48Q903.57 381.45 904.76 381.94Q905.95 382.42 907.42 382.42Q908.80 382.42 909.79 382.10Q910.79 381.78 911.50 381.41Q912.22 381.04 912.70 380.73Q913.18 380.41 913.53 380.41Q913.98 380.41 914.23 380.76M920.18 354.80L923.82 354.80L923.82 385L920.18 385L920.18 354.80M944.75 364.23L947.65 364.23L936.06 391.13Q935.88 391.54 935.60 391.79Q935.32 392.03 934.75 392.03L932.04 392.03L935.84 383.79L927.27 364.23L930.43 364.23Q930.90 364.23 931.17 364.47Q931.45 364.70 931.55 364.99L937.11 378.07Q937.44 378.93 937.66 379.88Q937.95 378.91 938.28 378.05L943.67 364.99Q943.79 364.66 944.09 364.45Q944.39 364.23 944.75 364.23M950.25 382.75Q950.25 382.21 950.44 381.74Q950.64 381.27 950.98 380.92Q951.31 380.57 951.79 380.37Q952.26 380.16 952.79 380.16Q953.32 380.16 953.80 380.37Q954.27 380.57 954.62 380.92Q954.96 381.27 955.17 381.74Q955.37 382.21 955.37 382.75Q955.37 383.30 955.17 383.76Q954.96 384.22 954.62 384.57Q954.27 384.92 953.80 385.11Q953.32 385.31 952.79 385.31Q952.26 385.31 951.79 385.11Q951.31 384.92 950.98 384.57Q950.64 384.22 950.44 383.76Q950.25 383.30 950.25 382.75" fill="#5a5d5e"/>
</svg>
