<?xml version="1.0" encoding="UTF-8"?>
<svg xmlns="http://www.w3.org/2000/svg" viewBox="0 0 1600 500" width="1600" height="500" role="img" aria-label="CannonadeCommand">
  <rect width="1600" height="500" fill="#ffffff"/>
  <g transform="translate(120,50) scale(0.416545)">

  <defs>
    <style>
      .cls-1 {
        fill: #1d1b1b;
      }

      .cls-2 {
        fill: #786b25;
      }

      .cls-3 {
        fill: #022107;
      }

      .cls-4 {
        fill: #6a85b4;
      }

      .cls-5 {
        fill: #5c9d63;
      }

      .cls-6 {
        fill: #2c5632;
      }

      .cls-7 {
        fill: #cec179;
      }

      .cls-8 {
        fill: #2f290c;
      }

      .cls-9 {
        fill: #2a3f65;
      }

      .cls-10 {
        fill: #3c3c3b;
      }

      .cls-11 {
        fill: #0e1a36;
      }
    </style>
  </defs>
  <g id="logo">
    <g id="kannonen">
      <g>
        <g>
          <path class="cls-9" d="M134.68,732.79l-.16-7.26c-.14-6.2,6.46-11.35,14.65-11.45l31.59-.4.27,29.8-31.21.39c-8.19.1-15-4.88-15.14-11.08Z"/>
          <path class="cls-11" d="M322.47,723.18c-.01-.68-.12-1.35-.29-2v.33c.14,6.2-6.45,11.35-14.64,11.45l-158.16,1.98c-7.29.09-13.47-3.85-14.85-9.08l.15,6.93c.14,6.2,6.95,11.18,15.14,11.08l158.16-1.98c8.19-.1,14.78-5.26,14.65-11.45l-.16-7.26Z"/>
          <path class="cls-9" d="M781.02,781.27l-550.51,12.32c-48.46,0-64.26-36.29-64.26-65.6h0c0-29.31,12.07-65.6,65.35-65.6l549.42,12.32v106.57Z"/>
          <path class="cls-11" d="M167.23,714.06c-.68,4.7-.97,9.4-.97,13.93h0c0,29.31,15.8,65.6,64.26,65.6l550.51-12.32v-26.51l-550.51,12.32c-41.69,0-59.2-26.85-63.29-53.02Z"/>
        </g>
        <g>
          <path class="cls-9" d="M256.89,808.39l-2.41-.02c-9.2-.08-16.74-8.01-16.75-17.62l-.09-128.03c0-9.61,7.52-17.41,16.72-17.33l2.41.02c9.2.08,16.74,8.01,16.75,17.62l.09,128.03c0,9.61-7.52,17.41-16.72,17.33Z"/>
          <path class="cls-4" d="M273.61,791.06c0,7.39-4.44,13.71-10.68,16.2l-.12-160.6c6.25,2.59,10.7,8.98,10.71,16.38l.1,128.03Z"/>
          <path class="cls-11" d="M237.69,662.52c-4.93-.28-9.95-.22-15.22.25l.03,130.51c4.73.44,9.88.36,15.29.21l-.09-130.96Z"/>
        </g>
        <g>
          <path class="cls-9" d="M502.48,808.45l-2.41-.02c-9.2-.07-16.75-7.99-16.77-17.6l-.24-128.03c-.02-9.61,7.5-17.42,16.7-17.35l2.41.02c9.2.07,16.75,7.99,16.77,17.6l.24,128.03c.02,9.61-7.5,17.42-16.7,17.35Z"/>
          <path class="cls-4" d="M519.23,791.11c.02,7.39-4.42,13.71-10.67,16.21l-.3-160.6c6.25,2.58,10.71,8.97,10.73,16.36l.24,128.03Z"/>
          <polygon class="cls-11" points="483.07 668.02 467.95 667.68 467.89 788.27 483.3 787.93 483.07 668.02"/>
        </g>
        <g>
          <path class="cls-9" d="M714.64,798.9l-2.41-.03c-9.2-.11-16.74-7.15-16.76-15.64l-.18-113.13c-.01-8.49,7.5-15.35,16.71-15.24l2.41.03c9.2.11,16.74,7.15,16.76,15.64l.18,113.13c.01,8.49-7.5,15.35-16.71,15.24Z"/>
          <path class="cls-4" d="M731.54,783.56c.01,6.52-4.43,12.08-10.67,14.25l-.24-141.76c6.25,2.31,10.71,7.97,10.72,14.5l.19,113.01Z"/>
          <polygon class="cls-11" points="695.29 672.78 680.17 672.44 680.21 783.42 695.47 783.24 695.29 672.78"/>
        </g>
        <g>
          <path class="cls-9" d="M789.23,798.9l-2.41-.03c-9.2-.1-16.75-7.14-16.77-15.63l-.25-113.13c-.02-8.49,7.5-15.36,16.7-15.25l2.41.03c9.2.1,16.75,7.14,16.77,15.63l.25,113.13c.02,8.49-7.5,15.36-16.7,15.25Z"/>
          <path class="cls-4" d="M805.93,783.55c.02,6.52-4.42,12.08-10.66,14.26l-.32-141.76c6.25,2.31,10.71,7.97,10.73,14.49l.26,113.01Z"/>
          <polygon class="cls-11" points="769.88 674.45 754.76 674.11 754.72 781.31 770.05 781.28 769.88 674.45"/>
        </g>
        <path class="cls-4" d="M286.89,678.41l154.94,1.8c2.33.03,4.35,1.82,4.35,5.37s-1.92,5.15-4.5,5.15h-154.94c-2.44-.01-4.41-1.98-4.43-4.42v-3.36c-.02-2.52,2.05-4.57,4.56-4.53Z"/>
        <path class="cls-4" d="M528.94,681.31l131.43,1.8c2.33.03,4.23,1.86,4.36,4.19h0c.14,2.57-1.92,4.75-4.5,4.75h-131.42c-2.44-.01-4.41-1.98-4.43-4.42v-1.79c-.02-2.52,2.05-4.57,4.56-4.53Z"/>
        <path class="cls-4" d="M739.1,683.78l7.32.37c2.33,0,4.25,1.82,4.4,4.15h0c.16,2.57-1.88,4.77-4.45,4.79l-7.45-.21c-2.44.02-4.44-1.24-4.48-3.68l-.03-1.79c-.04-2.52,2.17-3.64,4.68-3.64Z"/>
        <path class="cls-4" d="M144.83,718.69l14.91.07c1.27-.02,2.29.95,2.35,2.23h0c.07,1.4-1.06,2.62-2.46,2.66l-14.98.02c-1.33.04-2.4-.64-2.4-1.97v-.97c0-1.37,1.21-2.01,2.58-2.03Z"/>
        <path class="cls-4" d="M190.05,684.69l16.6-6.16c1.45-.56,3.66.87,4.19,2.34l.39.87c.58,1.63-.45,4.47-2.04,5.11l-17.15,6.43c-1.51.61-3.32-.82-3.8-2.4l-.45-1.47c-.49-1.62.7-4.13,2.26-4.73Z"/>
      </g>
      <g>
        <g>
          <path class="cls-6" d="M825.77,485.79l.16-7.26c.14-6.2-6.46-11.35-14.65-11.45l-31.59-.4-.27,29.8,31.21.39c8.19.1,15-4.88,15.14-11.08Z"/>
          <path class="cls-3" d="M637.98,476.18c.01-.68.12-1.35.29-2v.33c-.14,6.2,6.45,11.35,14.64,11.45l158.16,1.98c7.29.09,13.47-3.85,14.85-9.08l-.15,6.93c-.14,6.2-6.95,11.18-15.14,11.08l-158.16-1.98c-8.19-.1-14.78-5.26-14.65-11.45l.16-7.26Z"/>
          <path class="cls-6" d="M179.43,534.27l550.51,12.32c48.46,0,64.26-36.29,64.26-65.6h0c0-29.31-12.07-65.6-65.35-65.6l-549.42,12.32v106.57Z"/>
          <path class="cls-3" d="M793.22,467.06c.68,4.7.97,9.4.97,13.93h0c0,29.31-15.8,65.6-64.26,65.6l-550.51-12.32v-26.51s550.51,12.32,550.51,12.32c41.69,0,59.2-26.85,63.29-53.02Z"/>
        </g>
        <g>
          <path class="cls-6" d="M703.56,561.39l2.41-.02c9.2-.08,16.74-8.01,16.75-17.62l.09-128.03c0-9.61-7.52-17.41-16.72-17.33l-2.41.02c-9.2.08-16.74,8.01-16.75,17.62l-.09,128.03c0,9.61,7.52,17.41,16.72,17.33Z"/>
          <path class="cls-5" d="M686.84,544.06c0,7.39,4.44,13.71,10.68,16.2l.12-160.6c-6.25,2.59-10.7,8.98-10.71,16.38l-.1,128.03Z"/>
          <path class="cls-3" d="M722.76,415.52c4.93-.28,9.95-.22,15.22.25l-.03,130.51c-4.73.44-9.88.36-15.29.21l.09-130.96Z"/>
        </g>
        <g>
          <path class="cls-6" d="M457.97,561.45l2.41-.02c9.2-.07,16.75-7.99,16.77-17.6l.24-128.03c.02-9.61-7.5-17.42-16.7-17.35l-2.41.02c-9.2.07-16.75,7.99-16.77,17.6l-.24,128.03c-.02,9.61,7.5,17.42,16.7,17.35Z"/>
          <path class="cls-5" d="M441.22,544.11c-.02,7.39,4.42,13.71,10.67,16.21l.3-160.6c-6.25,2.58-10.71,8.97-10.73,16.36l-.24,128.03Z"/>
          <polygon class="cls-3" points="477.38 421.02 492.5 420.68 492.56 541.27 477.15 540.93 477.38 421.02"/>
        </g>
        <g>
          <path class="cls-6" d="M245.81,551.9l2.41-.03c9.2-.11,16.74-7.15,16.76-15.64l.18-113.13c.01-8.49-7.5-15.35-16.71-15.24l-2.41.03c-9.2.11-16.74,7.15-16.76,15.64l-.18,113.13c-.01,8.49,7.5,15.35,16.71,15.24Z"/>
          <path class="cls-5" d="M228.91,536.56c-.01,6.52,4.43,12.08,10.67,14.25l.24-141.76c-6.25,2.31-10.71,7.97-10.72,14.5l-.19,113.01Z"/>
          <polygon class="cls-3" points="265.16 425.78 280.28 425.44 280.24 536.42 264.98 536.24 265.16 425.78"/>
        </g>
        <g>
          <path class="cls-6" d="M171.22,551.9l2.41-.03c9.2-.1,16.75-7.14,16.77-15.63l.25-113.13c.02-8.49-7.5-15.36-16.7-15.25l-2.41.03c-9.2.1-16.75,7.14-16.77,15.63l-.25,113.13c-.02,8.49,7.5,15.36,16.7,15.25Z"/>
          <path class="cls-5" d="M154.52,536.55c-.02,6.52,4.42,12.08,10.66,14.26l.32-141.76c-6.25,2.31-10.71,7.97-10.73,14.49l-.26,113.01Z"/>
          <polygon class="cls-3" points="190.57 427.45 205.69 427.11 205.73 534.31 190.4 534.28 190.57 427.45"/>
        </g>
        <path class="cls-5" d="M673.56,431.41l-154.94,1.8c-2.33.03-4.35,1.82-4.35,5.37s1.92,5.15,4.5,5.15h154.94c2.44-.01,4.41-1.98,4.43-4.42v-3.36c.02-2.52-2.05-4.57-4.56-4.53Z"/>
        <path class="cls-5" d="M431.51,434.31l-131.43,1.8c-2.33.03-4.23,1.86-4.36,4.19h0c-.14,2.57,1.92,4.75,4.5,4.75h131.42c2.44-.01,4.41-1.98,4.43-4.42v-1.79c.02-2.52-2.05-4.57-4.56-4.53Z"/>
        <path class="cls-5" d="M221.35,436.78l-7.32.37c-2.33,0-4.25,1.82-4.4,4.15h0c-.16,2.57,1.88,4.77,4.45,4.79l7.45-.21c2.44.02,4.44-1.24,4.48-3.68l.03-1.79c.04-2.52-2.17-3.64-4.68-3.64Z"/>
        <path class="cls-5" d="M815.62,471.69l-14.91.07c-1.27-.02-2.29.95-2.35,2.23h0c-.07,1.4,1.06,2.62,2.46,2.66l14.98.02c1.33.04,2.4-.64,2.4-1.97v-.97c0-1.37-1.21-2.01-2.58-2.03Z"/>
        <path class="cls-5" d="M770.4,437.69l-16.6-6.16c-1.45-.56-3.66.87-4.19,2.34l-.39.87c-.58,1.63.45,4.47,2.04,5.11l17.15,6.43c1.51.61,3.32-.82,3.8-2.4l.45-1.47c.49-1.62-.7-4.13-2.26-4.73Z"/>
      </g>
      <g>
        <g>
          <path class="cls-2" d="M134.68,250.79l-.16-7.26c-.14-6.2,6.46-11.35,14.65-11.45l31.59-.4.27,29.8-31.21.39c-8.19.1-15-4.88-15.14-11.08Z"/>
          <path class="cls-8" d="M322.47,241.18c-.01-.68-.12-1.35-.29-2v.33c.14,6.2-6.45,11.35-14.64,11.45l-158.16,1.98c-7.29.09-13.47-3.85-14.85-9.08l.15,6.93c.14,6.2,6.95,11.18,15.14,11.08l158.16-1.98c8.19-.1,14.78-5.26,14.65-11.45l-.16-7.26Z"/>
          <path class="cls-2" d="M781.02,299.27l-550.51,12.32c-48.46,0-64.26-36.29-64.26-65.6h0c0-29.31,12.07-65.6,65.35-65.6l549.42,12.32v106.57Z"/>
          <path class="cls-8" d="M167.23,232.06c-.68,4.7-.97,9.4-.97,13.93h0c0,29.31,15.8,65.6,64.26,65.6l550.51-12.32v-26.51l-550.51,12.32c-41.69,0-59.2-26.85-63.29-53.02Z"/>
        </g>
        <g>
          <path class="cls-2" d="M256.89,326.39l-2.41-.02c-9.2-.08-16.74-8.01-16.75-17.62l-.09-128.03c0-9.61,7.52-17.41,16.72-17.33l2.41.02c9.2.08,16.74,8.01,16.75,17.62l.09,128.03c0,9.61-7.52,17.41-16.72,17.33Z"/>
          <path class="cls-7" d="M273.61,309.06c0,7.39-4.44,13.71-10.68,16.2l-.12-160.6c6.25,2.59,10.7,8.98,10.71,16.38l.1,128.03Z"/>
          <path class="cls-8" d="M237.69,180.52c-4.93-.28-9.95-.22-15.22.25l.03,130.51c4.73.44,9.88.36,15.29.21l-.09-130.96Z"/>
        </g>
        <g>
          <path class="cls-2" d="M502.48,326.45l-2.41-.02c-9.2-.07-16.75-7.99-16.77-17.6l-.24-128.03c-.02-9.61,7.5-17.42,16.7-17.35l2.41.02c9.2.07,16.75,7.99,16.77,17.6l.24,128.03c.02,9.61-7.5,17.42-16.7,17.35Z"/>
          <path class="cls-7" d="M519.23,309.11c.02,7.39-4.42,13.71-10.67,16.21l-.3-160.6c6.25,2.58,10.71,8.97,10.73,16.36l.24,128.03Z"/>
          <polygon class="cls-8" points="483.07 186.02 467.95 185.68 467.89 306.27 483.3 305.93 483.07 186.02"/>
        </g>
        <g>
          <path class="cls-2" d="M714.64,316.9l-2.41-.03c-9.2-.11-16.74-7.15-16.76-15.64l-.18-113.13c-.01-8.49,7.5-15.35,16.71-15.24l2.41.03c9.2.11,16.74,7.15,16.76,15.64l.18,113.13c.01,8.49-7.5,15.35-16.71,15.24Z"/>
          <path class="cls-7" d="M731.54,301.56c.01,6.52-4.43,12.08-10.67,14.25l-.24-141.76c6.25,2.31,10.71,7.97,10.72,14.5l.19,113.01Z"/>
          <polygon class="cls-8" points="695.29 190.78 680.17 190.44 680.21 301.42 695.47 301.24 695.29 190.78"/>
        </g>
        <g>
          <path class="cls-2" d="M789.23,316.9l-2.41-.03c-9.2-.1-16.75-7.14-16.77-15.63l-.25-113.13c-.02-8.49,7.5-15.36,16.7-15.25l2.41.03c9.2.1,16.75,7.14,16.77,15.63l.25,113.13c.02,8.49-7.5,15.36-16.7,15.25Z"/>
          <path class="cls-7" d="M805.93,301.55c.02,6.52-4.42,12.08-10.66,14.26l-.32-141.76c6.25,2.31,10.71,7.97,10.73,14.49l.26,113.01Z"/>
          <polygon class="cls-8" points="769.88 192.45 754.76 192.11 754.72 299.31 770.05 299.28 769.88 192.45"/>
        </g>
        <path class="cls-7" d="M286.89,196.41l154.94,1.8c2.33.03,4.35,1.82,4.35,5.37s-1.92,5.15-4.5,5.15h-154.94c-2.44-.01-4.41-1.98-4.43-4.42v-3.36c-.02-2.52,2.05-4.57,4.56-4.53Z"/>
        <path class="cls-7" d="M528.94,199.31l131.43,1.8c2.33.03,4.23,1.86,4.36,4.19h0c.14,2.57-1.92,4.75-4.5,4.75h-131.42c-2.44-.01-4.41-1.98-4.43-4.42v-1.79c-.02-2.52,2.05-4.57,4.56-4.53Z"/>
        <path class="cls-7" d="M739.1,201.78l7.32.37c2.33,0,4.25,1.82,4.4,4.15h0c.16,2.57-1.88,4.77-4.45,4.79l-7.45-.21c-2.44.02-4.44-1.24-4.48-3.68l-.03-1.79c-.04-2.52,2.17-3.64,4.68-3.64Z"/>
        <path class="cls-7" d="M144.83,236.69l14.91.07c1.27-.02,2.29.95,2.35,2.23h0c.07,1.4-1.06,2.62-2.46,2.66l-14.98.02c-1.33.04-2.4-.64-2.4-1.97v-.97c0-1.37,1.21-2.01,2.58-2.03Z"/>
        <path class="cls-7" d="M190.05,202.69l16.6-6.16c1.45-.56,3.66.87,4.19,2.34l.39.87c.58,1.63-.45,4.47-2.04,5.11l-17.15,6.43c-1.51.61-3.32-.82-3.8-2.4l-.45-1.47c-.49-1.62.7-4.13,2.26-4.73Z"/>
      </g>
    </g>
    <path id="rahmen_dunkel" class="cls-1" d="M865.8,94.48v771.32H94.48V94.48h771.32M896.83,0H63.45C28.41,0,0,28.41,0,63.45v833.38c0,35.04,28.41,63.45,63.45,63.45h833.38c35.04,0,63.45-28.41,63.45-63.45V63.45C960.28,28.41,931.87,0,896.83,0h0Z"/>
    <g id="schattierung">
      <path class="cls-10" d="M896.83,0H63.45C40.21,0,19.91,12.5,8.85,31.13c10.99-8.94,25.16-14.33,40.63-14.33h830.53c34.92,0,63.23,27.41,63.23,61.23v804.21c0,33.82-28.31,61.23-63.23,61.23H49.48c-15.47,0-29.64-5.39-40.63-14.33,11.05,18.63,31.36,31.13,54.6,31.13h833.38c35.04,0,63.45-28.41,63.45-63.45V63.45c0-35.04-28.41-63.45-63.45-63.45Z"/>
      <polygon class="cls-10" points="79.27 881.75 819.14 881.75 865.8 870.11 865.8 865.8 94.48 865.8 94.48 94.48 865.8 94.48 865.81 90.94 813.64 78.52 79.27 78.52 79.27 881.75"/>
    </g>
  </g>

  </g>
  <path d="M630.11 167.57Q629.10 165.82 622.57 165.82Q614.01 165.82 609.60 171.62Q605.18 177.42 605.18 188.36Q605.18 211.09 622.20 211.09Q622.48 211.09 624.64 211.09Q626.80 211.09 628.73 210.49Q630.66 209.89 631.03 209.25Q631.40 208.60 631.40 207.22L631.40 199.86L640.78 200.51L640.78 216.42Q633.61 220.20 622.57 220.20Q608.49 220.20 601.09 212.28Q593.68 204.37 593.68 188.73Q593.68 180.08 596.16 173.64Q598.65 167.20 602.88 163.62Q611.16 156.72 622.57 156.72Q631.77 156.72 639.86 160.49L639.86 176.13L630.48 176.77L630.48 169.60Q630.48 168.22 630.11 167.57M689.73 174.56L689.73 208.79Q689.73 210.26 690.23 210.81Q690.74 211.36 692.03 211.46L694.97 211.64L694.97 219L680.34 219L680.34 213.66L680.07 213.57Q675.47 220.20 667.46 220.20Q658.08 220.20 653.57 214.22Q649.06 208.24 649.06 197.84Q649.06 185.33 655.14 178.34Q661.21 171.34 673.35 171.34Q681.17 171.34 689.73 174.56M679.06 204.37L679.06 180.54Q676.48 179.35 671.97 179.35Q665.81 179.35 663.05 184.32Q660.29 189.28 660.29 197.47Q660.29 212.38 669.86 212.38Q673.90 212.38 676.48 209.94Q679.06 207.50 679.06 204.37M703.90 180.36L700.03 180.08L700.03 172.72L715.58 172.72L715.58 178.70Q717.97 175.30 721.93 173.32Q725.88 171.34 730.48 171.34Q737.48 171.34 741.29 175.35Q745.11 179.35 745.11 187.35L745.11 211.36L750.36 211.64L750.36 219L728.46 219L728.46 212.01L731.50 211.73Q732.88 211.55 733.52 210.95Q734.16 210.35 734.16 208.70L734.16 189.74Q734.16 184.68 732.60 182.25Q731.04 179.81 726.67 179.81Q722.30 179.81 719.72 182.57Q717.14 185.33 717.14 189.10L717.14 211.36L722.39 211.64L722.39 219L700.49 219L700.49 212.01L703.53 211.73Q704.91 211.55 705.55 210.95Q706.20 210.35 706.20 208.70L706.20 183.21Q706.20 180.45 703.90 180.36M759.10 180.36L755.23 180.08L755.23 172.72L770.78 172.72L770.78 178.70Q773.17 175.30 777.13 173.32Q781.08 171.34 785.68 171.34Q792.68 171.34 796.49 175.35Q800.31 179.35 800.31 187.35L800.31 211.36L805.56 211.64L805.56 219L783.66 219L783.66 212.01L786.70 211.73Q788.08 211.55 788.72 210.95Q789.36 210.35 789.36 208.70L789.36 189.74Q789.36 184.68 787.80 182.25Q786.24 179.81 781.87 179.81Q777.50 179.81 774.92 182.57Q772.34 185.33 772.34 189.10L772.34 211.36L777.59 211.64L777.59 219L755.69 219L755.69 212.01L758.73 211.73Q760.11 211.55 760.75 210.95Q761.40 210.35 761.40 208.70L761.40 183.21Q761.40 180.45 759.10 180.36M831.22 212.28Q841.25 212.28 841.25 196.09Q841.25 187.90 839 183.67Q836.74 179.44 831.45 179.44Q826.16 179.44 823.68 183.49Q821.20 187.54 821.20 194.53Q821.20 207.50 825.98 210.81Q828.10 212.28 831.22 212.28M810.06 195.82Q810.06 189.01 812.09 183.99Q814.11 178.98 817.52 176.31Q824.05 171.34 831.96 171.34Q837.48 171.34 841.30 173.14Q845.12 174.93 847.28 177.28Q849.44 179.62 850.96 184.09Q852.48 188.55 852.48 194.62Q852.48 207.32 846.31 213.85Q840.15 220.38 830.53 220.38Q820.92 220.38 815.49 214.17Q810.06 207.96 810.06 195.82M861.95 180.36L858.09 180.08L858.09 172.72L873.64 172.72L873.64 178.70Q876.03 175.30 879.98 173.32Q883.94 171.34 888.54 171.34Q895.53 171.34 899.35 175.35Q903.17 179.35 903.17 187.35L903.17 211.36L908.41 211.64L908.41 219L886.52 219L886.52 212.01L889.55 211.73Q890.93 211.55 891.58 210.95Q892.22 210.35 892.22 208.70L892.22 189.74Q892.22 184.68 890.66 182.25Q889.09 179.81 884.72 179.81Q880.35 179.81 877.78 182.57Q875.20 185.33 875.20 189.10L875.20 211.36L880.44 211.64L880.44 219L858.55 219L858.55 212.01L861.58 211.73Q862.96 211.55 863.61 210.95Q864.25 210.35 864.25 208.70L864.25 183.21Q864.25 180.45 861.95 180.36M955.15 174.56L955.15 208.79Q955.15 210.26 955.65 210.81Q956.16 211.36 957.45 211.46L960.39 211.64L960.39 219L945.76 219L945.76 213.66L945.49 213.57Q940.89 220.20 932.88 220.20Q923.50 220.20 918.99 214.22Q914.48 208.24 914.48 197.84Q914.48 185.33 920.56 178.34Q926.63 171.34 938.77 171.34Q946.59 171.34 955.15 174.56M944.48 204.37L944.48 180.54Q941.90 179.35 937.39 179.35Q931.23 179.35 928.47 184.32Q925.71 189.28 925.71 197.47Q925.71 212.38 935.28 212.38Q939.32 212.38 941.90 209.94Q944.48 207.50 944.48 204.37M989.10 171.34Q993.05 171.34 996.64 172.45L996.64 163.16Q996.64 161.13 994.25 160.95L990.29 160.67L990.29 153.40L1007.40 153.40L1007.40 209.34Q1007.50 211.46 1009.70 211.46L1012.92 211.64L1012.92 219L998.02 219L998.02 213.57L997.74 213.48Q993.60 220.20 985.23 220.20Q974.74 220.20 970.51 213.20Q966.65 206.86 966.65 197.66Q966.65 185.70 972.58 178.52Q978.52 171.34 989.10 171.34M996.64 204.65L996.64 180.82Q993.33 179.35 989.65 179.35Q983.58 179.35 980.77 184.22Q977.96 189.10 977.96 196.64Q977.96 212.10 987.90 212.10Q991.67 212.10 994.16 209.94Q996.64 207.78 996.64 204.65M1041.35 171.34Q1048.25 171.34 1052.30 174.70Q1056.35 178.06 1056.35 184.13Q1056.35 188.18 1054.60 191.26Q1052.85 194.34 1050.28 196.09Q1047.70 197.84 1044.02 198.94Q1037.86 200.78 1030.13 200.78Q1030.40 205.66 1033.16 208.65Q1035.92 211.64 1041.63 211.64Q1047.33 211.64 1053.04 207.59L1056.53 215.04Q1054.69 216.70 1050.32 218.45Q1045.95 220.20 1040.34 220.20Q1029.12 220.20 1023.87 213.99Q1018.63 207.78 1018.63 196.92Q1018.63 186.06 1024.61 178.70Q1030.59 171.34 1041.35 171.34M1037.17 192.37Q1040.52 191.77 1043.38 189.70Q1046.23 187.63 1046.23 184.78Q1046.23 179.16 1040.71 179.16Q1035.56 179.16 1032.80 183.26Q1030.04 187.35 1029.76 193.06Q1033.81 192.96 1037.17 192.37M1099.86 167.57Q1098.85 165.82 1092.32 165.82Q1083.76 165.82 1079.35 171.62Q1074.93 177.42 1074.93 188.36Q1074.93 211.09 1091.95 211.09Q1092.23 211.09 1094.39 211.09Q1096.55 211.09 1098.48 210.49Q1100.42 209.89 1100.78 209.25Q1101.15 208.60 1101.15 207.22L1101.15 199.86L1110.54 200.51L1110.54 216.42Q1103.36 220.20 1092.32 220.20Q1078.24 220.20 1070.84 212.28Q1063.43 204.37 1063.43 188.73Q1063.43 180.08 1065.92 173.64Q1068.40 167.20 1072.63 163.62Q1080.91 156.72 1092.32 156.72Q1101.52 156.72 1109.62 160.49L1109.62 176.13L1100.23 176.77L1100.23 169.60Q1100.23 168.22 1099.86 167.57M1139.33 212.28Q1149.36 212.28 1149.36 196.09Q1149.36 187.90 1147.11 183.67Q1144.85 179.44 1139.56 179.44Q1134.27 179.44 1131.79 183.49Q1129.30 187.54 1129.30 194.53Q1129.30 207.50 1134.09 210.81Q1136.20 212.28 1139.33 212.28M1118.17 195.82Q1118.17 189.01 1120.20 183.99Q1122.22 178.98 1125.62 176.31Q1132.16 171.34 1140.07 171.34Q1145.59 171.34 1149.41 173.14Q1153.22 174.93 1155.39 177.28Q1157.55 179.62 1159.07 184.09Q1160.58 188.55 1160.58 194.62Q1160.58 207.32 1154.42 213.85Q1148.26 220.38 1138.64 220.38Q1129.03 220.38 1123.60 214.17Q1118.17 207.96 1118.17 195.82M1170.06 180.45L1166.20 180.18L1166.20 172.72L1181.74 172.72L1181.74 178.70Q1186.90 171.34 1195.87 171.34Q1204.84 171.34 1207.96 178.70Q1213.12 171.34 1221.95 171.34Q1228.57 171.34 1232.16 175.35Q1235.75 179.35 1235.75 187.35L1235.75 211.36L1240.99 211.64L1240.99 219L1219.10 219L1219.10 212.01L1222.13 211.73Q1223.51 211.55 1224.11 210.95Q1224.71 210.35 1224.80 208.79L1224.80 189.74Q1224.80 184.68 1223.65 182.25Q1222.50 179.81 1218.27 179.81Q1214.04 179.81 1211.78 182.38Q1209.53 184.96 1209.53 189.28L1209.53 211.36L1214.59 211.64L1214.59 219L1192.88 219L1192.88 212.01L1195.91 211.73Q1197.29 211.55 1197.94 210.95Q1198.58 210.35 1198.58 208.70L1198.58 189.74Q1198.58 184.68 1197.43 182.25Q1196.28 179.81 1192 179.81Q1187.72 179.81 1185.52 182.48Q1183.31 185.14 1183.31 189.10L1183.31 211.36L1188.28 211.64L1188.28 219L1166.56 219L1166.56 212.01L1169.60 211.73Q1170.98 211.55 1171.62 210.95Q1172.27 210.35 1172.27 208.70L1172.36 208.70L1172.36 183.30Q1172.36 181.74 1171.85 181.14Q1171.35 180.54 1170.06 180.45M1249.73 180.45L1245.87 180.18L1245.87 172.72L1261.42 172.72L1261.42 178.70Q1266.57 171.34 1275.54 171.34Q1284.51 171.34 1287.64 178.70Q1292.79 171.34 1301.62 171.34Q1308.24 171.34 1311.83 175.35Q1315.42 179.35 1315.42 187.35L1315.42 211.36L1320.66 211.64L1320.66 219L1298.77 219L1298.77 212.01L1301.80 211.73Q1303.18 211.55 1303.78 210.95Q1304.38 210.35 1304.47 208.79L1304.47 189.74Q1304.47 184.68 1303.32 182.25Q1302.17 179.81 1297.94 179.81Q1293.71 179.81 1291.45 182.38Q1289.20 184.96 1289.20 189.28L1289.20 211.36L1294.26 211.64L1294.26 219L1272.55 219L1272.55 212.01L1275.58 211.73Q1276.96 211.55 1277.61 210.95Q1278.25 210.35 1278.25 208.70L1278.25 189.74Q1278.25 184.68 1277.10 182.25Q1275.95 179.81 1271.67 179.81Q1267.40 179.81 1265.19 182.48Q1262.98 185.14 1262.98 189.10L1262.98 211.36L1267.95 211.64L1267.95 219L1246.24 219L1246.24 212.01L1249.27 211.73Q1250.65 211.55 1251.30 210.95Q1251.94 210.35 1251.94 208.70L1252.03 208.70L1252.03 183.30Q1252.03 181.74 1251.53 181.14Q1251.02 180.54 1249.73 180.45M1367.40 174.56L1367.40 208.79Q1367.40 210.26 1367.91 210.81Q1368.41 211.36 1369.70 211.46L1372.64 211.64L1372.64 219L1358.02 219L1358.02 213.66L1357.74 213.57Q1353.14 220.20 1345.14 220.20Q1335.75 220.20 1331.24 214.22Q1326.74 208.24 1326.74 197.84Q1326.74 185.33 1332.81 178.34Q1338.88 171.34 1351.02 171.34Q1358.84 171.34 1367.40 174.56M1356.73 204.37L1356.73 180.54Q1354.15 179.35 1349.64 179.35Q1343.48 179.35 1340.72 184.32Q1337.96 189.28 1337.96 197.47Q1337.96 212.38 1347.53 212.38Q1351.58 212.38 1354.15 209.94Q1356.73 207.50 1356.73 204.37M1381.57 180.36L1377.70 180.08L1377.70 172.72L1393.25 172.72L1393.25 178.70Q1395.64 175.30 1399.60 173.32Q1403.56 171.34 1408.16 171.34Q1415.15 171.34 1418.97 175.35Q1422.78 179.35 1422.78 187.35L1422.78 211.36L1428.03 211.64L1428.03 219L1406.13 219L1406.13 212.01L1409.17 211.73Q1410.55 211.55 1411.19 210.95Q1411.84 210.35 1411.84 208.70L1411.84 189.74Q1411.84 184.68 1410.27 182.25Q1408.71 179.81 1404.34 179.81Q1399.97 179.81 1397.39 182.57Q1394.82 185.33 1394.82 189.10L1394.82 211.36L1400.06 211.64L1400.06 219L1378.16 219L1378.16 212.01L1381.20 211.73Q1382.58 211.55 1383.22 210.95Q1383.87 210.35 1383.87 208.70L1383.87 183.21Q1383.87 180.45 1381.57 180.36M1456.55 171.34Q1460.50 171.34 1464.09 172.45L1464.09 163.16Q1464.09 161.13 1461.70 160.95L1457.74 160.67L1457.74 153.40L1474.86 153.40L1474.86 209.34Q1474.95 211.46 1477.16 211.46L1480.38 211.64L1480.38 219L1465.47 219L1465.47 213.57L1465.20 213.48Q1461.06 220.20 1452.68 220.20Q1442.20 220.20 1437.96 213.20Q1434.10 206.86 1434.10 197.66Q1434.10 185.70 1440.03 178.52Q1445.97 171.34 1456.55 171.34M1464.09 204.65L1464.09 180.82Q1460.78 179.35 1457.10 179.35Q1451.03 179.35 1448.22 184.22Q1445.42 189.10 1445.42 196.64Q1445.42 212.10 1455.35 212.10Q1459.12 212.10 1461.61 209.94Q1464.09 207.78 1464.09 204.65" fill="#242626"/>
  <path d="M621.18 271.49L603.61 271.49L603.61 284.26L618.63 284.26L618.63 288.29L603.61 288.29L603.61 304L598.67 304L598.67 267.46L621.18 267.46L621.18 271.49M626.69 278.17L631.23 278.17L631.23 304L626.69 304L626.69 278.17M632.20 270.06Q632.20 270.72 631.93 271.30Q631.66 271.87 631.22 272.32Q630.77 272.76 630.17 273.02Q629.57 273.27 628.91 273.27Q628.25 273.27 627.67 273.02Q627.10 272.76 626.67 272.32Q626.23 271.87 625.98 271.30Q625.72 270.72 625.72 270.06Q625.72 269.40 625.98 268.80Q626.23 268.20 626.67 267.75Q627.10 267.31 627.67 267.05Q628.25 266.80 628.91 266.80Q629.57 266.80 630.17 267.05Q630.77 267.31 631.22 267.75Q631.66 268.20 631.93 268.80Q632.20 269.40 632.20 270.06M642.68 279.42L642.99 283.35Q644.21 280.69 645.99 279.20Q647.78 277.71 650.36 277.71Q651.17 277.71 651.92 277.89Q652.68 278.07 653.26 278.45L652.93 281.84Q652.78 282.48 652.17 282.48Q651.81 282.48 651.12 282.32Q650.43 282.17 649.56 282.17Q648.34 282.17 647.38 282.53Q646.43 282.89 645.68 283.59Q644.92 284.29 644.32 285.32Q643.73 286.35 643.24 287.68L643.24 304L638.68 304L638.68 278.17L641.28 278.17Q642.02 278.17 642.30 278.45Q642.58 278.73 642.68 279.42M660.40 288.27L674.53 288.27Q674.53 286.69 674.08 285.37Q673.64 284.06 672.78 283.10Q671.93 282.15 670.70 281.62Q669.48 281.10 667.92 281.10Q664.66 281.10 662.76 283Q660.86 284.90 660.40 288.27M676.93 298.72L678.20 300.38Q677.36 301.40 676.19 302.15Q675.01 302.90 673.67 303.39Q672.34 303.87 670.91 304.11Q669.48 304.36 668.08 304.36Q665.40 304.36 663.14 303.45Q660.89 302.55 659.24 300.80Q657.60 299.05 656.68 296.48Q655.76 293.90 655.76 290.56Q655.76 287.86 656.59 285.51Q657.42 283.17 658.97 281.45Q660.53 279.72 662.77 278.74Q665.02 277.76 667.82 277.76Q670.14 277.76 672.12 278.54Q674.10 279.32 675.54 280.78Q676.98 282.25 677.79 284.40Q678.61 286.56 678.61 289.31Q678.61 290.38 678.38 290.74Q678.15 291.10 677.51 291.10L660.25 291.10Q660.33 293.55 660.92 295.36Q661.52 297.17 662.60 298.38Q663.67 299.59 665.14 300.19Q666.62 300.79 668.46 300.79Q670.17 300.79 671.41 300.39Q672.64 300 673.53 299.54Q674.43 299.08 675.03 298.68Q675.63 298.29 676.06 298.29Q676.62 298.29 676.93 298.72M688.73 285.28L688.73 297.78Q689.98 299.46 691.46 300.15Q692.94 300.84 694.78 300.84Q698.40 300.84 700.34 298.26Q702.27 295.69 702.27 290.92Q702.27 288.39 701.83 286.58Q701.38 284.77 700.54 283.61Q699.70 282.45 698.47 281.92Q697.25 281.38 695.69 281.38Q693.48 281.38 691.81 282.40Q690.13 283.42 688.73 285.28M688.10 279.11L688.50 282.17Q690.13 280.16 692.28 278.93Q694.42 277.71 697.17 277.71Q699.42 277.71 701.23 278.56Q703.04 279.42 704.31 281.09Q705.59 282.76 706.28 285.23Q706.97 287.71 706.97 290.92Q706.97 293.77 706.20 296.24Q705.43 298.70 703.99 300.49Q702.55 302.29 700.48 303.32Q698.40 304.36 695.80 304.36Q693.42 304.36 691.73 303.55Q690.03 302.75 688.73 301.32L688.73 312.75L684.17 312.75L684.17 278.17L686.90 278.17Q687.87 278.17 688.10 279.11M723.64 277.76Q726.47 277.76 728.74 278.70Q731.01 279.65 732.62 281.38Q734.22 283.12 735.08 285.58Q735.93 288.04 735.93 291.07Q735.93 294.13 735.08 296.58Q734.22 299.03 732.62 300.76Q731.01 302.50 728.74 303.43Q726.47 304.36 723.64 304.36Q720.79 304.36 718.50 303.43Q716.22 302.50 714.62 300.76Q713.01 299.03 712.15 296.58Q711.30 294.13 711.30 291.07Q711.30 288.04 712.15 285.58Q713.01 283.12 714.62 281.38Q716.22 279.65 718.50 278.70Q720.79 277.76 723.64 277.76M723.64 300.81Q727.47 300.81 729.35 298.25Q731.24 295.69 731.24 291.10Q731.24 286.48 729.35 283.91Q727.47 281.33 723.64 281.33Q721.70 281.33 720.26 281.99Q718.82 282.66 717.87 283.91Q716.91 285.16 716.44 286.98Q715.97 288.80 715.97 291.10Q715.97 295.69 717.87 298.25Q719.77 300.81 723.64 300.81M773.88 278.17L777.29 278.17L768.93 304L765.33 304Q764.67 304 764.42 303.13L758.70 285.61Q758.50 285.03 758.37 284.43Q758.25 283.83 758.12 283.24Q757.99 283.83 757.86 284.43Q757.74 285.03 757.53 285.64L751.72 303.13Q751.49 304 750.70 304L747.28 304L738.92 278.17L742.49 278.17Q743.02 278.17 743.39 278.45Q743.76 278.73 743.89 279.11L748.84 295.74Q749.27 297.57 749.52 299.21Q749.75 298.36 750 297.50Q750.24 296.63 750.52 295.74L755.98 279.01Q756.10 278.63 756.42 278.37Q756.74 278.12 757.20 278.12L759.19 278.12Q759.70 278.12 760.03 278.37Q760.36 278.63 760.49 279.01L765.82 295.74Q766.10 296.63 766.33 297.50Q766.56 298.36 766.76 299.21Q766.89 298.36 767.08 297.51Q767.27 296.66 767.50 295.74L772.55 279.11Q772.68 278.70 773.04 278.44Q773.39 278.17 773.88 278.17M784.89 288.27L799.02 288.27Q799.02 286.69 798.57 285.37Q798.13 284.06 797.27 283.10Q796.42 282.15 795.20 281.62Q793.97 281.10 792.42 281.10Q789.15 281.10 787.25 283Q785.35 284.90 784.89 288.27M801.42 298.72L802.69 300.38Q801.85 301.40 800.68 302.15Q799.50 302.90 798.17 303.39Q796.83 303.87 795.40 304.11Q793.97 304.36 792.57 304.36Q789.89 304.36 787.63 303.45Q785.38 302.55 783.73 300.80Q782.09 299.05 781.17 296.48Q780.25 293.90 780.25 290.56Q780.25 287.86 781.08 285.51Q781.91 283.17 783.47 281.45Q785.02 279.72 787.26 278.74Q789.51 277.76 792.31 277.76Q794.63 277.76 796.61 278.54Q798.59 279.32 800.03 280.78Q801.47 282.25 802.28 284.40Q803.10 286.56 803.10 289.31Q803.10 290.38 802.87 290.74Q802.64 291.10 802 291.10L784.74 291.10Q784.82 293.55 785.42 295.36Q786.02 297.17 787.09 298.38Q788.16 299.59 789.64 300.19Q791.12 300.79 792.95 300.79Q794.66 300.79 795.90 300.39Q797.13 300 798.03 299.54Q798.92 299.08 799.52 298.68Q800.12 298.29 800.55 298.29Q801.11 298.29 801.42 298.72M812.66 279.42L812.97 283.35Q814.19 280.69 815.98 279.20Q817.76 277.71 820.34 277.71Q821.15 277.71 821.91 277.89Q822.66 278.07 823.25 278.45L822.91 281.84Q822.76 282.48 822.15 282.48Q821.79 282.48 821.10 282.32Q820.41 282.17 819.55 282.17Q818.32 282.17 817.37 282.53Q816.41 282.89 815.66 283.59Q814.91 284.29 814.31 285.32Q813.71 286.35 813.22 287.68L813.22 304L808.66 304L808.66 278.17L811.26 278.17Q812 278.17 812.28 278.45Q812.56 278.73 812.66 279.42M854.28 297.73L854.28 292.37Q851.14 292.47 848.94 292.87Q846.73 293.26 845.34 293.90Q843.95 294.54 843.33 295.41Q842.70 296.27 842.70 297.34Q842.70 298.36 843.03 299.10Q843.36 299.84 843.94 300.32Q844.51 300.79 845.29 301Q846.07 301.22 846.96 301.22Q848.16 301.22 849.15 300.98Q850.15 300.74 851.03 300.28Q851.91 299.82 852.71 299.18Q853.51 298.54 854.28 297.73M840.43 283.27L839.62 281.81Q841.76 279.75 844.23 278.73Q846.71 277.71 849.71 277.71Q851.88 277.71 853.56 278.42Q855.25 279.14 856.40 280.41Q857.54 281.69 858.13 283.50Q858.72 285.31 858.72 287.48L858.72 304L856.70 304Q856.04 304 855.68 303.78Q855.32 303.57 855.12 302.93L854.61 300.48Q853.59 301.42 852.62 302.15Q851.65 302.88 850.58 303.38Q849.51 303.87 848.30 304.14Q847.09 304.41 845.61 304.41Q844.10 304.41 842.78 303.99Q841.45 303.57 840.47 302.73Q839.49 301.88 838.91 300.60Q838.34 299.31 838.34 297.55Q838.34 296.02 839.18 294.60Q840.02 293.19 841.91 292.09Q843.80 291 846.83 290.29Q849.87 289.59 854.28 289.49L854.28 287.48Q854.28 284.47 852.98 282.92Q851.68 281.38 849.18 281.38Q847.50 281.38 846.36 281.80Q845.23 282.22 844.40 282.75Q843.57 283.27 842.97 283.69Q842.37 284.11 841.78 284.11Q841.32 284.11 840.99 283.87Q840.66 283.63 840.43 283.27M869.55 279.11L869.91 281.92Q870.75 280.97 871.70 280.21Q872.64 279.44 873.70 278.90Q874.76 278.35 875.94 278.05Q877.13 277.76 878.50 277.76Q880.62 277.76 882.24 278.46Q883.86 279.16 884.94 280.45Q886.03 281.74 886.59 283.55Q887.15 285.36 887.15 287.55L887.15 304L882.58 304L882.58 287.55Q882.58 284.62 881.24 283Q879.91 281.38 877.18 281.38Q875.16 281.38 873.42 282.35Q871.67 283.32 870.19 284.98L870.19 304L865.63 304L865.63 278.17L868.35 278.17Q869.32 278.17 869.55 279.11M910.91 296.78L910.91 284.31Q909.64 282.61 908.16 281.93Q906.68 281.25 904.85 281.25Q901.25 281.25 899.31 283.83Q897.37 286.40 897.37 291.17Q897.37 293.70 897.81 295.50Q898.24 297.29 899.08 298.45Q899.92 299.61 901.15 300.15Q902.37 300.69 903.93 300.69Q906.17 300.69 907.84 299.67Q909.51 298.64 910.91 296.78M910.91 266.44L915.45 266.44L915.45 304L912.75 304Q911.78 304 911.53 303.06L911.12 299.92Q909.46 301.91 907.34 303.13Q905.23 304.36 902.45 304.36Q900.23 304.36 898.42 303.50Q896.61 302.65 895.33 300.99Q894.06 299.33 893.37 296.86Q892.68 294.39 892.68 291.17Q892.68 288.32 893.45 285.86Q894.21 283.40 895.64 281.59Q897.07 279.77 899.15 278.74Q901.22 277.71 903.83 277.71Q906.20 277.71 907.89 278.51Q909.59 279.32 910.91 280.74L910.91 266.44M941.95 304L937.38 304L937.38 282.04L934.53 281.71Q933.99 281.59 933.65 281.32Q933.30 281.05 933.30 280.54L933.30 278.68L937.38 278.68L937.38 276.18Q937.38 273.96 938.01 272.24Q938.63 270.52 939.79 269.33Q940.95 268.15 942.59 267.53Q944.22 266.92 946.26 266.92Q947.99 266.92 949.44 267.43L949.34 269.70Q949.29 270.31 948.67 270.37Q948.04 270.42 947 270.42Q945.82 270.42 944.87 270.72Q943.91 271.03 943.22 271.72Q942.53 272.41 942.16 273.53Q941.79 274.65 941.79 276.31L941.79 278.68L949.24 278.68L949.24 281.97L941.95 281.97L941.95 304M953.83 278.17L958.37 278.17L958.37 304L953.83 304L953.83 278.17M959.34 270.06Q959.34 270.72 959.07 271.30Q958.80 271.87 958.36 272.32Q957.91 272.76 957.31 273.02Q956.71 273.27 956.05 273.27Q955.39 273.27 954.81 273.02Q954.24 272.76 953.81 272.32Q953.37 271.87 953.12 271.30Q952.86 270.72 952.86 270.06Q952.86 269.40 953.12 268.80Q953.37 268.20 953.81 267.75Q954.24 267.31 954.81 267.05Q955.39 266.80 956.05 266.80Q956.71 266.80 957.31 267.05Q957.91 267.31 958.36 267.75Q958.80 268.20 959.07 268.80Q959.34 269.40 959.34 270.06M969.74 279.11L970.10 281.92Q970.94 280.97 971.88 280.21Q972.83 279.44 973.89 278.90Q974.94 278.35 976.13 278.05Q977.32 277.76 978.69 277.76Q980.81 277.76 982.43 278.46Q984.05 279.16 985.13 280.45Q986.22 281.74 986.78 283.55Q987.34 285.36 987.34 287.55L987.34 304L982.77 304L982.77 287.55Q982.77 284.62 981.43 283Q980.10 281.38 977.37 281.38Q975.35 281.38 973.61 282.35Q971.86 283.32 970.38 284.98L970.38 304L965.82 304L965.82 278.17L968.54 278.17Q969.51 278.17 969.74 279.11M994.53 278.17L999.07 278.17L999.07 304L994.53 304L994.53 278.17M1000.04 270.06Q1000.04 270.72 999.77 271.30Q999.50 271.87 999.05 272.32Q998.61 272.76 998.01 273.02Q997.41 273.27 996.75 273.27Q996.08 273.27 995.51 273.02Q994.94 272.76 994.50 272.32Q994.07 271.87 993.81 271.30Q993.56 270.72 993.56 270.06Q993.56 269.40 993.81 268.80Q994.07 268.20 994.50 267.75Q994.94 267.31 995.51 267.05Q996.08 266.80 996.75 266.80Q997.41 266.80 998.01 267.05Q998.61 267.31 999.05 267.75Q999.50 268.20 999.77 268.80Q1000.04 269.40 1000.04 270.06M1022.58 280.77L1021.56 282.43Q1021.25 282.99 1020.62 282.99Q1020.23 282.99 1019.75 282.71Q1019.26 282.43 1018.56 282.08Q1017.86 281.74 1016.89 281.45Q1015.92 281.15 1014.60 281.15Q1013.45 281.15 1012.53 281.45Q1011.61 281.74 1010.96 282.25Q1010.31 282.76 1009.97 283.43Q1009.62 284.11 1009.62 284.90Q1009.62 285.89 1010.20 286.56Q1010.77 287.22 1011.72 287.71Q1012.66 288.19 1013.86 288.56Q1015.06 288.93 1016.32 289.35Q1017.58 289.77 1018.78 290.28Q1019.98 290.79 1020.92 291.56Q1021.86 292.32 1022.44 293.43Q1023.01 294.54 1023.01 296.10Q1023.01 297.88 1022.37 299.40Q1021.74 300.91 1020.49 302.02Q1019.24 303.13 1017.43 303.77Q1015.62 304.41 1013.25 304.41Q1010.54 304.41 1008.35 303.53Q1006.16 302.65 1004.63 301.27L1005.70 299.54Q1005.90 299.21 1006.18 299.03Q1006.46 298.85 1006.90 298.85Q1007.36 298.85 1007.87 299.21Q1008.38 299.56 1009.10 300Q1009.83 300.43 1010.87 300.79Q1011.92 301.14 1013.48 301.14Q1014.80 301.14 1015.80 300.80Q1016.79 300.46 1017.45 299.87Q1018.12 299.28 1018.43 298.52Q1018.75 297.75 1018.75 296.89Q1018.75 295.81 1018.18 295.11Q1017.61 294.41 1016.66 293.91Q1015.72 293.42 1014.51 293.05Q1013.30 292.68 1012.03 292.27Q1010.77 291.86 1009.56 291.34Q1008.35 290.82 1007.41 290.03Q1006.46 289.24 1005.89 288.08Q1005.32 286.92 1005.32 285.26Q1005.32 283.78 1005.93 282.41Q1006.54 281.05 1007.71 280.02Q1008.89 278.98 1010.59 278.37Q1012.30 277.76 1014.50 277.76Q1017.05 277.76 1019.07 278.56Q1021.10 279.37 1022.58 280.77M1033.16 266.44L1033.16 281.61Q1034.82 279.85 1036.83 278.81Q1038.85 277.76 1041.47 277.76Q1043.59 277.76 1045.21 278.46Q1046.83 279.16 1047.91 280.45Q1049 281.74 1049.56 283.55Q1050.12 285.36 1050.12 287.55L1050.12 304L1045.55 304L1045.55 287.55Q1045.55 284.62 1044.22 283Q1042.88 281.38 1040.15 281.38Q1038.13 281.38 1036.39 282.35Q1034.64 283.32 1033.16 284.98L1033.16 304L1028.60 304L1028.60 266.44L1033.16 266.44M1076.36 304L1071.79 304L1071.79 282.04L1068.94 281.71Q1068.40 281.59 1068.06 281.32Q1067.71 281.05 1067.71 280.54L1067.71 278.68L1071.79 278.68L1071.79 276.18Q1071.79 273.96 1072.42 272.24Q1073.04 270.52 1074.20 269.33Q1075.36 268.15 1077 267.53Q1078.63 266.92 1080.67 266.92Q1082.40 266.92 1083.86 267.43L1083.75 269.70Q1083.70 270.31 1083.08 270.37Q1082.45 270.42 1081.41 270.42Q1080.23 270.42 1079.28 270.72Q1078.32 271.03 1077.63 271.72Q1076.94 272.41 1076.57 273.53Q1076.21 274.65 1076.21 276.31L1076.21 278.68L1083.65 278.68L1083.65 281.97L1076.36 281.97L1076.36 304M1098.87 277.76Q1101.71 277.76 1103.97 278.70Q1106.24 279.65 1107.85 281.38Q1109.46 283.12 1110.31 285.58Q1111.17 288.04 1111.17 291.07Q1111.17 294.13 1110.31 296.58Q1109.46 299.03 1107.85 300.76Q1106.24 302.50 1103.97 303.43Q1101.71 304.36 1098.87 304.36Q1096.02 304.36 1093.74 303.43Q1091.45 302.50 1089.85 300.76Q1088.24 299.03 1087.39 296.58Q1086.53 294.13 1086.53 291.07Q1086.53 288.04 1087.39 285.58Q1088.24 283.12 1089.85 281.38Q1091.45 279.65 1093.74 278.70Q1096.02 277.76 1098.87 277.76M1098.87 300.81Q1102.70 300.81 1104.59 298.25Q1106.47 295.69 1106.47 291.10Q1106.47 286.48 1104.59 283.91Q1102.70 281.33 1098.87 281.33Q1096.94 281.33 1095.50 281.99Q1094.06 282.66 1093.10 283.91Q1092.14 285.16 1091.67 286.98Q1091.20 288.80 1091.20 291.10Q1091.20 295.69 1093.10 298.25Q1095 300.81 1098.87 300.81M1120.91 279.42L1121.21 283.35Q1122.44 280.69 1124.22 279.20Q1126.01 277.71 1128.58 277.71Q1129.40 277.71 1130.15 277.89Q1130.90 278.07 1131.49 278.45L1131.16 281.84Q1131 282.48 1130.39 282.48Q1130.04 282.48 1129.35 282.32Q1128.66 282.17 1127.79 282.17Q1126.57 282.17 1125.61 282.53Q1124.66 282.89 1123.90 283.59Q1123.15 284.29 1122.55 285.32Q1121.95 286.35 1121.47 287.68L1121.47 304L1116.90 304L1116.90 278.17L1119.50 278.17Q1120.24 278.17 1120.52 278.45Q1120.80 278.73 1120.91 279.42M1167.21 278.17L1170.81 278.17L1156.40 311.62Q1156.17 312.13 1155.83 312.44Q1155.48 312.75 1154.77 312.75L1151.40 312.75L1156.12 302.50L1145.46 278.17L1149.39 278.17Q1149.98 278.17 1150.32 278.46Q1150.67 278.75 1150.79 279.11L1157.70 295.38Q1158.11 296.45 1158.39 297.63Q1158.75 296.43 1159.16 295.36L1165.86 279.11Q1166.02 278.70 1166.39 278.44Q1166.76 278.17 1167.21 278.17M1185.70 277.76Q1188.53 277.76 1190.80 278.70Q1193.07 279.65 1194.68 281.38Q1196.28 283.12 1197.14 285.58Q1197.99 288.04 1197.99 291.07Q1197.99 294.13 1197.14 296.58Q1196.28 299.03 1194.68 300.76Q1193.07 302.50 1190.80 303.43Q1188.53 304.36 1185.70 304.36Q1182.85 304.36 1180.56 303.43Q1178.28 302.50 1176.68 300.76Q1175.07 299.03 1174.21 296.58Q1173.36 294.13 1173.36 291.07Q1173.36 288.04 1174.21 285.58Q1175.07 283.12 1176.68 281.38Q1178.28 279.65 1180.56 278.70Q1182.85 277.76 1185.70 277.76M1185.70 300.81Q1189.53 300.81 1191.41 298.25Q1193.30 295.69 1193.30 291.10Q1193.30 286.48 1191.41 283.91Q1189.53 281.33 1185.70 281.33Q1183.76 281.33 1182.32 281.99Q1180.88 282.66 1179.93 283.91Q1178.97 285.16 1178.50 286.98Q1178.03 288.80 1178.03 291.10Q1178.03 295.69 1179.93 298.25Q1181.83 300.81 1185.70 300.81M1220.43 278.17L1224.97 278.17L1224.97 304L1222.27 304Q1221.30 304 1221.05 303.06L1220.69 300.28Q1219.01 302.14 1216.91 303.27Q1214.82 304.41 1212.12 304.41Q1210 304.41 1208.38 303.71Q1206.77 303.01 1205.67 301.73Q1204.57 300.46 1204.02 298.64Q1203.48 296.83 1203.48 294.64L1203.48 278.17L1208.01 278.17L1208.01 294.64Q1208.01 297.57 1209.35 299.18Q1210.69 300.79 1213.45 300.79Q1215.46 300.79 1217.21 299.83Q1218.95 298.87 1220.43 297.19L1220.43 278.17M1236.17 279.42L1236.47 283.35Q1237.70 280.69 1239.48 279.20Q1241.27 277.71 1243.84 277.71Q1244.66 277.71 1245.41 277.89Q1246.16 278.07 1246.75 278.45L1246.42 281.84Q1246.26 282.48 1245.65 282.48Q1245.30 282.48 1244.61 282.32Q1243.92 282.17 1243.05 282.17Q1241.83 282.17 1240.87 282.53Q1239.92 282.89 1239.16 283.59Q1238.41 284.29 1237.81 285.32Q1237.21 286.35 1236.73 287.68L1236.73 304L1232.16 304L1232.16 278.17L1234.76 278.17Q1235.50 278.17 1235.78 278.45Q1236.06 278.73 1236.17 279.42M1295.99 278.17L1299.41 278.17L1291.04 304L1287.45 304Q1286.78 304 1286.53 303.13L1280.82 285.61Q1280.61 285.03 1280.49 284.43Q1280.36 283.83 1280.23 283.24Q1280.10 283.83 1279.98 284.43Q1279.85 285.03 1279.64 285.64L1273.83 303.13Q1273.60 304 1272.81 304L1269.39 304L1261.03 278.17L1264.60 278.17Q1265.13 278.17 1265.50 278.45Q1265.87 278.73 1266 279.11L1270.95 295.74Q1271.38 297.57 1271.64 299.21Q1271.87 298.36 1272.11 297.50Q1272.35 296.63 1272.63 295.74L1278.09 279.01Q1278.22 278.63 1278.53 278.37Q1278.85 278.12 1279.31 278.12L1281.30 278.12Q1281.81 278.12 1282.14 278.37Q1282.47 278.63 1282.60 279.01L1287.93 295.74Q1288.21 296.63 1288.44 297.50Q1288.67 298.36 1288.88 299.21Q1289 298.36 1289.19 297.51Q1289.39 296.66 1289.61 295.74L1294.66 279.11Q1294.79 278.70 1295.15 278.44Q1295.51 278.17 1295.99 278.17M1308.41 266.44L1308.41 281.61Q1310.07 279.85 1312.08 278.81Q1314.09 277.76 1316.72 277.76Q1318.84 277.76 1320.46 278.46Q1322.08 279.16 1323.16 280.45Q1324.24 281.74 1324.80 283.55Q1325.37 285.36 1325.37 287.55L1325.37 304L1320.80 304L1320.80 287.55Q1320.80 284.62 1319.46 283Q1318.12 281.38 1315.40 281.38Q1313.38 281.38 1311.63 282.35Q1309.89 283.32 1308.41 284.98L1308.41 304L1303.84 304L1303.84 266.44L1308.41 266.44M1343.19 277.76Q1346.02 277.76 1348.29 278.70Q1350.56 279.65 1352.17 281.38Q1353.77 283.12 1354.63 285.58Q1355.48 288.04 1355.48 291.07Q1355.48 294.13 1354.63 296.58Q1353.77 299.03 1352.17 300.76Q1350.56 302.50 1348.29 303.43Q1346.02 304.36 1343.19 304.36Q1340.33 304.36 1338.05 303.43Q1335.77 302.50 1334.16 300.76Q1332.56 299.03 1331.70 296.58Q1330.85 294.13 1330.85 291.07Q1330.85 288.04 1331.70 285.58Q1332.56 283.12 1334.16 281.38Q1335.77 279.65 1338.05 278.70Q1340.33 277.76 1343.19 277.76M1343.19 300.81Q1347.02 300.81 1348.90 298.25Q1350.79 295.69 1350.79 291.10Q1350.79 286.48 1348.90 283.91Q1347.02 281.33 1343.19 281.33Q1341.25 281.33 1339.81 281.99Q1338.37 282.66 1337.41 283.91Q1336.46 285.16 1335.99 286.98Q1335.51 288.80 1335.51 291.10Q1335.51 295.69 1337.41 298.25Q1339.31 300.81 1343.19 300.81M1361.37 266.44L1365.91 266.44L1365.91 304L1361.37 304L1361.37 266.44M1376.42 288.27L1390.54 288.27Q1390.54 286.69 1390.10 285.37Q1389.65 284.06 1388.80 283.10Q1387.94 282.15 1386.72 281.62Q1385.49 281.10 1383.94 281.10Q1380.68 281.10 1378.78 283Q1376.88 284.90 1376.42 288.27M1392.94 298.72L1394.22 300.38Q1393.37 301.40 1392.20 302.15Q1391.03 302.90 1389.69 303.39Q1388.35 303.87 1386.92 304.11Q1385.49 304.36 1384.09 304.36Q1381.41 304.36 1379.16 303.45Q1376.90 302.55 1375.26 300.80Q1373.61 299.05 1372.69 296.48Q1371.78 293.90 1371.78 290.56Q1371.78 287.86 1372.60 285.51Q1373.43 283.17 1374.99 281.45Q1376.54 279.72 1378.79 278.74Q1381.03 277.76 1383.84 277.76Q1386.16 277.76 1388.13 278.54Q1390.11 279.32 1391.55 280.78Q1392.99 282.25 1393.81 284.40Q1394.62 286.56 1394.62 289.31Q1394.62 290.38 1394.39 290.74Q1394.16 291.10 1393.53 291.10L1376.26 291.10Q1376.34 293.55 1376.94 295.36Q1377.54 297.17 1378.61 298.38Q1379.68 299.59 1381.16 300.19Q1382.64 300.79 1384.47 300.79Q1386.18 300.79 1387.42 300.39Q1388.66 300 1389.55 299.54Q1390.44 299.08 1391.04 298.68Q1391.64 298.29 1392.07 298.29Q1392.63 298.29 1392.94 298.72" fill="#5a5d5e"/>
  <path d="M612.77 365.07Q615.04 365.07 616.82 364.31Q618.61 363.54 619.84 362.17Q621.08 360.79 621.73 358.88Q622.38 356.96 622.38 354.67L622.38 332.46L627.30 332.46L627.30 354.67Q627.30 357.83 626.30 360.53Q625.29 363.24 623.41 365.21Q621.54 367.19 618.84 368.31Q616.13 369.43 612.77 369.43Q609.40 369.43 606.70 368.31Q604 367.19 602.11 365.21Q600.22 363.24 599.21 360.53Q598.21 357.83 598.21 354.67L598.21 332.46L603.13 332.46L603.13 354.64Q603.13 356.94 603.78 358.85Q604.43 360.76 605.67 362.14Q606.90 363.52 608.70 364.30Q610.50 365.07 612.77 365.07M639.03 344.11L639.39 346.92Q640.23 345.97 641.17 345.21Q642.12 344.44 643.18 343.90Q644.24 343.35 645.42 343.05Q646.61 342.76 647.98 342.76Q650.10 342.76 651.72 343.46Q653.34 344.16 654.42 345.45Q655.51 346.74 656.07 348.55Q656.63 350.36 656.63 352.55L656.63 369L652.06 369L652.06 352.55Q652.06 349.62 650.72 348Q649.39 346.38 646.66 346.38Q644.64 346.38 642.90 347.35Q641.15 348.32 639.67 349.98L639.67 369L635.11 369L635.11 343.17L637.83 343.17Q638.80 343.17 639.03 344.11M667.57 344.42L667.87 348.35Q669.10 345.69 670.88 344.20Q672.67 342.71 675.24 342.71Q676.06 342.71 676.81 342.89Q677.56 343.07 678.15 343.45L677.82 346.84Q677.67 347.48 677.05 347.48Q676.70 347.48 676.01 347.32Q675.32 347.17 674.45 347.17Q673.23 347.17 672.27 347.53Q671.32 347.89 670.56 348.59Q669.81 349.29 669.21 350.32Q668.61 351.35 668.13 352.68L668.13 369L663.56 369L663.56 343.17L666.16 343.17Q666.90 343.17 667.18 343.45Q667.47 343.73 667.57 344.42M696.13 362.73L696.13 357.37Q692.99 357.47 690.79 357.87Q688.58 358.26 687.19 358.90Q685.80 359.54 685.18 360.41Q684.55 361.27 684.55 362.34Q684.55 363.36 684.88 364.10Q685.21 364.84 685.79 365.32Q686.36 365.79 687.14 366Q687.92 366.22 688.81 366.22Q690.01 366.22 691 365.98Q692 365.74 692.88 365.28Q693.76 364.82 694.56 364.18Q695.36 363.54 696.13 362.73M682.28 348.27L681.46 346.81Q683.61 344.75 686.08 343.73Q688.55 342.71 691.56 342.71Q693.73 342.71 695.41 343.42Q697.10 344.14 698.24 345.41Q699.39 346.69 699.98 348.50Q700.56 350.31 700.56 352.48L700.56 369L698.55 369Q697.89 369 697.53 368.78Q697.17 368.57 696.97 367.93L696.46 365.48Q695.44 366.42 694.47 367.15Q693.50 367.88 692.43 368.38Q691.36 368.87 690.15 369.14Q688.94 369.41 687.46 369.41Q685.95 369.41 684.63 368.99Q683.30 368.57 682.32 367.73Q681.34 366.88 680.76 365.60Q680.19 364.31 680.19 362.55Q680.19 361.02 681.03 359.60Q681.87 358.19 683.76 357.09Q685.65 356 688.68 355.29Q691.72 354.59 696.13 354.49L696.13 352.48Q696.13 349.47 694.83 347.92Q693.53 346.38 691.03 346.38Q689.34 346.38 688.21 346.80Q687.07 347.22 686.25 347.75Q685.42 348.27 684.82 348.69Q684.22 349.11 683.63 349.11Q683.17 349.11 682.84 348.87Q682.51 348.63 682.28 348.27M707.73 343.17L712.27 343.17L712.27 369L707.73 369L707.73 343.17M713.24 335.06Q713.24 335.72 712.97 336.30Q712.70 336.87 712.26 337.32Q711.81 337.76 711.21 338.02Q710.61 338.27 709.95 338.27Q709.29 338.27 708.71 338.02Q708.14 337.76 707.70 337.32Q707.27 336.87 707.02 336.30Q706.76 335.72 706.76 335.06Q706.76 334.40 707.02 333.80Q707.27 333.20 707.70 332.75Q708.14 332.31 708.71 332.05Q709.29 331.80 709.95 331.80Q710.61 331.80 711.21 332.05Q711.81 332.31 712.26 332.75Q712.70 333.20 712.97 333.80Q713.24 334.40 713.24 335.06M736.54 361.78L736.54 349.31Q735.27 347.61 733.79 346.93Q732.31 346.25 730.48 346.25Q726.88 346.25 724.94 348.83Q723 351.40 723 356.17Q723 358.70 723.44 360.50Q723.87 362.29 724.71 363.45Q725.55 364.61 726.78 365.15Q728 365.69 729.56 365.69Q731.80 365.69 733.47 364.67Q735.14 363.64 736.54 361.78M736.54 331.44L741.08 331.44L741.08 369L738.38 369Q737.41 369 737.16 368.06L736.75 364.92Q735.09 366.91 732.97 368.13Q730.86 369.36 728.08 369.36Q725.86 369.36 724.05 368.50Q722.24 367.65 720.96 365.99Q719.69 364.33 719 361.86Q718.31 359.39 718.31 356.17Q718.31 353.32 719.08 350.86Q719.84 348.40 721.27 346.59Q722.70 344.77 724.78 343.74Q726.85 342.71 729.46 342.71Q731.83 342.71 733.52 343.51Q735.22 344.32 736.54 345.74L736.54 331.44M778.16 361.78L778.16 349.31Q776.89 347.61 775.41 346.93Q773.93 346.25 772.09 346.25Q768.50 346.25 766.56 348.83Q764.62 351.40 764.62 356.17Q764.62 358.70 765.05 360.50Q765.49 362.29 766.33 363.45Q767.17 364.61 768.39 365.15Q769.62 365.69 771.17 365.69Q773.42 365.69 775.09 364.67Q776.76 363.64 778.16 361.78M778.16 331.44L782.70 331.44L782.70 369L780 369Q779.03 369 778.77 368.06L778.37 364.92Q776.71 366.91 774.59 368.13Q772.47 369.36 769.70 369.36Q767.48 369.36 765.67 368.50Q763.86 367.65 762.58 365.99Q761.31 364.33 760.62 361.86Q759.93 359.39 759.93 356.17Q759.93 353.32 760.69 350.86Q761.46 348.40 762.89 346.59Q764.31 344.77 766.39 343.74Q768.47 342.71 771.07 342.71Q773.44 342.71 775.14 343.51Q776.84 344.32 778.16 345.74L778.16 331.44M803.89 362.73L803.89 357.37Q800.75 357.47 798.55 357.87Q796.34 358.26 794.95 358.90Q793.56 359.54 792.94 360.41Q792.31 361.27 792.31 362.34Q792.31 363.36 792.64 364.10Q792.98 364.84 793.55 365.32Q794.12 365.79 794.90 366Q795.68 366.22 796.57 366.22Q797.77 366.22 798.76 365.98Q799.76 365.74 800.64 365.28Q801.52 364.82 802.32 364.18Q803.13 363.54 803.89 362.73M790.04 348.27L789.23 346.81Q791.37 344.75 793.84 343.73Q796.32 342.71 799.33 342.71Q801.49 342.71 803.18 343.42Q804.86 344.14 806.01 345.41Q807.15 346.69 807.74 348.50Q808.33 350.31 808.33 352.48L808.33 369L806.31 369Q805.65 369 805.29 368.78Q804.94 368.57 804.73 367.93L804.22 365.48Q803.20 366.42 802.23 367.15Q801.26 367.88 800.19 368.38Q799.12 368.87 797.91 369.14Q796.70 369.41 795.22 369.41Q793.72 369.41 792.39 368.99Q791.06 368.57 790.08 367.73Q789.10 366.88 788.53 365.60Q787.95 364.31 787.95 362.55Q787.95 361.02 788.79 359.60Q789.64 358.19 791.52 357.09Q793.41 356 796.44 355.29Q799.48 354.59 803.89 354.49L803.89 352.48Q803.89 349.47 802.59 347.92Q801.29 346.38 798.79 346.38Q797.11 346.38 795.97 346.80Q794.84 347.22 794.01 347.75Q793.18 348.27 792.58 348.69Q791.98 349.11 791.40 349.11Q790.94 349.11 790.60 348.87Q790.27 348.63 790.04 348.27M831.30 345.77L830.28 347.43Q829.98 347.99 829.34 347.99Q828.96 347.99 828.47 347.71Q827.99 347.43 827.29 347.08Q826.59 346.74 825.62 346.45Q824.65 346.15 823.32 346.15Q822.17 346.15 821.26 346.45Q820.34 346.74 819.69 347.25Q819.04 347.76 818.69 348.43Q818.35 349.11 818.35 349.90Q818.35 350.89 818.92 351.56Q819.50 352.22 820.44 352.71Q821.38 353.19 822.58 353.56Q823.78 353.93 825.04 354.35Q826.30 354.77 827.50 355.28Q828.70 355.79 829.65 356.56Q830.59 357.32 831.16 358.43Q831.74 359.54 831.74 361.10Q831.74 362.88 831.10 364.40Q830.46 365.91 829.21 367.02Q827.96 368.13 826.15 368.77Q824.34 369.41 821.97 369.41Q819.27 369.41 817.07 368.53Q814.88 367.65 813.35 366.27L814.42 364.54Q814.63 364.21 814.91 364.03Q815.19 363.85 815.62 363.85Q816.08 363.85 816.59 364.21Q817.10 364.56 817.83 365Q818.55 365.43 819.60 365.79Q820.64 366.14 822.20 366.14Q823.53 366.14 824.52 365.80Q825.51 365.46 826.18 364.87Q826.84 364.28 827.16 363.52Q827.48 362.75 827.48 361.89Q827.48 360.81 826.90 360.11Q826.33 359.41 825.39 358.91Q824.44 358.42 823.23 358.05Q822.02 357.68 820.76 357.27Q819.50 356.86 818.29 356.34Q817.07 355.82 816.13 355.03Q815.19 354.24 814.61 353.08Q814.04 351.92 814.04 350.26Q814.04 348.78 814.65 347.41Q815.26 346.05 816.44 345.02Q817.61 343.98 819.32 343.37Q821.03 342.76 823.22 342.76Q825.77 342.76 827.80 343.56Q829.82 344.37 831.30 345.77M841.89 331.44L841.89 346.61Q843.54 344.85 845.56 343.81Q847.57 342.76 850.20 342.76Q852.31 342.76 853.93 343.46Q855.55 344.16 856.64 345.45Q857.72 346.74 858.28 348.55Q858.84 350.36 858.84 352.55L858.84 369L854.28 369L854.28 352.55Q854.28 349.62 852.94 348Q851.60 346.38 848.87 346.38Q846.86 346.38 845.11 347.35Q843.36 348.32 841.89 349.98L841.89 369L837.32 369L837.32 331.44L841.89 331.44M870.34 350.28L870.34 362.78Q871.59 364.46 873.08 365.15Q874.58 365.84 876.36 365.84Q880.01 365.84 881.95 363.26Q883.88 360.69 883.88 355.59Q883.88 350.84 882.16 348.61Q880.44 346.38 877.25 346.38Q875.04 346.38 873.39 347.40Q871.75 348.42 870.34 350.28M870.34 331.44L870.34 346.89Q871.98 345 874.03 343.88Q876.08 342.76 878.76 342.76Q881.03 342.76 882.85 343.63Q884.67 344.49 885.95 346.14Q887.22 347.78 887.90 350.13Q888.58 352.48 888.58 355.41Q888.58 358.55 887.81 361.12Q887.05 363.70 885.61 365.52Q884.16 367.34 882.10 368.35Q880.03 369.36 877.46 369.36Q874.91 369.36 873.16 368.40Q871.41 367.44 870.11 365.69L869.88 368.03Q869.68 369 868.71 369L865.78 369L865.78 331.44L870.34 331.44M905.23 342.76Q908.06 342.76 910.33 343.70Q912.60 344.65 914.20 346.38Q915.81 348.12 916.66 350.58Q917.52 353.04 917.52 356.07Q917.52 359.13 916.66 361.58Q915.81 364.03 914.20 365.76Q912.60 367.50 910.33 368.43Q908.06 369.36 905.23 369.36Q902.37 369.36 900.09 368.43Q897.81 367.50 896.20 365.76Q894.59 364.03 893.74 361.58Q892.89 359.13 892.89 356.07Q892.89 353.04 893.74 350.58Q894.59 348.12 896.20 346.38Q897.81 344.65 900.09 343.70Q902.37 342.76 905.23 342.76M905.23 365.81Q909.05 365.81 910.94 363.25Q912.83 360.69 912.83 356.10Q912.83 351.48 910.94 348.91Q909.05 346.33 905.23 346.33Q903.29 346.33 901.85 346.99Q900.41 347.66 899.45 348.91Q898.50 350.16 898.02 351.98Q897.55 353.80 897.55 356.10Q897.55 360.69 899.45 363.25Q901.35 365.81 905.23 365.81M937.26 362.73L937.26 357.37Q934.12 357.47 931.91 357.87Q929.71 358.26 928.32 358.90Q926.93 359.54 926.30 360.41Q925.68 361.27 925.68 362.34Q925.68 363.36 926.01 364.10Q926.34 364.84 926.92 365.32Q927.49 365.79 928.27 366Q929.04 366.22 929.94 366.22Q931.14 366.22 932.13 365.98Q933.12 365.74 934 365.28Q934.88 364.82 935.69 364.18Q936.49 363.54 937.26 362.73M923.41 348.27L922.59 346.81Q924.73 344.75 927.21 343.73Q929.68 342.71 932.69 342.71Q934.86 342.71 936.54 343.42Q938.22 344.14 939.37 345.41Q940.52 346.69 941.11 348.50Q941.69 350.31 941.69 352.48L941.69 369L939.68 369Q939.01 369 938.66 368.78Q938.30 368.57 938.10 367.93L937.59 365.48Q936.57 366.42 935.60 367.15Q934.63 367.88 933.56 368.38Q932.49 368.87 931.28 369.14Q930.06 369.41 928.59 369.41Q927.08 369.41 925.75 368.99Q924.43 368.57 923.45 367.73Q922.47 366.88 921.89 365.60Q921.32 364.31 921.32 362.55Q921.32 361.02 922.16 359.60Q923 358.19 924.89 357.09Q926.77 356 929.81 355.29Q932.84 354.59 937.26 354.49L937.26 352.48Q937.26 349.47 935.95 347.92Q934.65 346.38 932.16 346.38Q930.47 346.38 929.34 346.80Q928.20 347.22 927.37 347.75Q926.55 348.27 925.95 348.69Q925.35 349.11 924.76 349.11Q924.30 349.11 923.97 348.87Q923.64 348.63 923.41 348.27M952.61 344.42L952.91 348.35Q954.14 345.69 955.92 344.20Q957.71 342.71 960.28 342.71Q961.10 342.71 961.85 342.89Q962.60 343.07 963.19 343.45L962.86 346.84Q962.70 347.48 962.09 347.48Q961.74 347.48 961.05 347.32Q960.36 347.17 959.49 347.17Q958.27 347.17 957.31 347.53Q956.35 347.89 955.60 348.59Q954.85 349.29 954.25 350.32Q953.65 351.35 953.17 352.68L953.17 369L948.60 369L948.60 343.17L951.20 343.17Q951.94 343.17 952.22 343.45Q952.50 343.73 952.61 344.42M984 361.78L984 349.31Q982.72 347.61 981.24 346.93Q979.76 346.25 977.93 346.25Q974.33 346.25 972.39 348.83Q970.46 351.40 970.46 356.17Q970.46 358.70 970.89 360.50Q971.32 362.29 972.16 363.45Q973.01 364.61 974.23 365.15Q975.45 365.69 977.01 365.69Q979.25 365.69 980.92 364.67Q982.59 363.64 984 361.78M984 331.44L988.54 331.44L988.54 369L985.83 369Q984.86 369 984.61 368.06L984.20 364.92Q982.54 366.91 980.43 368.13Q978.31 369.36 975.53 369.36Q973.31 369.36 971.50 368.50Q969.69 367.65 968.42 365.99Q967.14 364.33 966.45 361.86Q965.76 359.39 965.76 356.17Q965.76 353.32 966.53 350.86Q967.29 348.40 968.72 346.59Q970.15 344.77 972.23 343.74Q974.31 342.71 976.91 342.71Q979.28 342.71 980.98 343.51Q982.67 344.32 984 345.74L984 331.44M994.96 366.19Q994.96 365.53 995.20 364.95Q995.45 364.36 995.87 363.93Q996.29 363.49 996.87 363.24Q997.46 362.98 998.12 362.98Q998.79 362.98 999.37 363.24Q999.96 363.49 1000.39 363.93Q1000.83 364.36 1001.08 364.95Q1001.34 365.53 1001.34 366.19Q1001.34 366.88 1001.08 367.46Q1000.83 368.03 1000.39 368.46Q999.96 368.90 999.37 369.14Q998.79 369.38 998.12 369.38Q997.46 369.38 996.87 369.14Q996.29 368.90 995.87 368.46Q995.45 368.03 995.20 367.46Q994.96 366.88 994.96 366.19M1044.41 336.49L1026.84 336.49L1026.84 349.26L1041.86 349.26L1041.86 353.29L1026.84 353.29L1026.84 369L1021.89 369L1021.89 332.46L1044.41 332.46L1044.41 336.49M1049.91 343.17L1054.45 343.17L1054.45 369L1049.91 369L1049.91 343.17M1055.42 335.06Q1055.42 335.72 1055.15 336.30Q1054.89 336.87 1054.44 337.32Q1053.99 337.76 1053.40 338.02Q1052.80 338.27 1052.13 338.27Q1051.47 338.27 1050.90 338.02Q1050.32 337.76 1049.89 337.32Q1049.46 336.87 1049.20 336.30Q1048.95 335.72 1048.95 335.06Q1048.95 334.40 1049.20 333.80Q1049.46 333.20 1049.89 332.75Q1050.32 332.31 1050.90 332.05Q1051.47 331.80 1052.13 331.80Q1052.80 331.80 1053.40 332.05Q1053.99 332.31 1054.44 332.75Q1054.89 333.20 1055.15 333.80Q1055.42 334.40 1055.42 335.06M1065.90 344.42L1066.21 348.35Q1067.43 345.69 1069.22 344.20Q1071 342.71 1073.58 342.71Q1074.39 342.71 1075.15 342.89Q1075.90 343.07 1076.49 343.45L1076.15 346.84Q1076 347.48 1075.39 347.48Q1075.03 347.48 1074.34 347.32Q1073.65 347.17 1072.79 347.17Q1071.56 347.17 1070.61 347.53Q1069.65 347.89 1068.90 348.59Q1068.15 349.29 1067.55 350.32Q1066.95 351.35 1066.46 352.68L1066.46 369L1061.90 369L1061.90 343.17L1064.50 343.17Q1065.24 343.17 1065.52 343.45Q1065.80 343.73 1065.90 344.42M1083.63 353.27L1097.75 353.27Q1097.75 351.69 1097.31 350.37Q1096.86 349.06 1096.01 348.10Q1095.15 347.15 1093.93 346.62Q1092.70 346.10 1091.15 346.10Q1087.88 346.10 1085.98 348Q1084.08 349.90 1083.63 353.27M1100.15 363.72L1101.42 365.38Q1100.58 366.40 1099.41 367.15Q1098.24 367.90 1096.90 368.39Q1095.56 368.87 1094.13 369.11Q1092.70 369.36 1091.30 369.36Q1088.62 369.36 1086.37 368.45Q1084.11 367.55 1082.47 365.80Q1080.82 364.05 1079.90 361.48Q1078.98 358.90 1078.98 355.56Q1078.98 352.86 1079.81 350.51Q1080.64 348.17 1082.20 346.45Q1083.75 344.72 1086 343.74Q1088.24 342.76 1091.05 342.76Q1093.37 342.76 1095.34 343.54Q1097.32 344.32 1098.76 345.78Q1100.20 347.25 1101.02 349.40Q1101.83 351.56 1101.83 354.31Q1101.83 355.38 1101.60 355.74Q1101.37 356.10 1100.74 356.10L1083.47 356.10Q1083.55 358.55 1084.15 360.36Q1084.75 362.17 1085.82 363.38Q1086.89 364.59 1088.37 365.19Q1089.85 365.79 1091.68 365.79Q1093.39 365.79 1094.63 365.39Q1095.87 365 1096.76 364.54Q1097.65 364.08 1098.25 363.68Q1098.85 363.29 1099.28 363.29Q1099.84 363.29 1100.15 363.72M1152.65 343.17L1156.07 343.17L1147.71 369L1144.11 369Q1143.45 369 1143.19 368.13L1137.48 350.61Q1137.28 350.03 1137.15 349.43Q1137.02 348.83 1136.89 348.24Q1136.77 348.83 1136.64 349.43Q1136.51 350.03 1136.31 350.64L1130.49 368.13Q1130.27 369 1129.47 369L1126.06 369L1117.69 343.17L1121.26 343.17Q1121.80 343.17 1122.17 343.45Q1122.54 343.73 1122.67 344.11L1127.61 360.74Q1128.05 362.57 1128.30 364.21Q1128.53 363.36 1128.77 362.50Q1129.02 361.63 1129.30 360.74L1134.75 344.01Q1134.88 343.63 1135.20 343.37Q1135.52 343.12 1135.98 343.12L1137.97 343.12Q1138.48 343.12 1138.81 343.37Q1139.14 343.63 1139.27 344.01L1144.60 360.74Q1144.88 361.63 1145.11 362.50Q1145.34 363.36 1145.54 364.21Q1145.67 363.36 1145.86 362.51Q1146.05 361.66 1146.28 360.74L1151.33 344.11Q1151.46 343.70 1151.81 343.44Q1152.17 343.17 1152.65 343.17M1165.07 331.44L1165.07 346.61Q1166.73 344.85 1168.74 343.81Q1170.76 342.76 1173.39 342.76Q1175.50 342.76 1177.12 343.46Q1178.74 344.16 1179.82 345.45Q1180.91 346.74 1181.47 348.55Q1182.03 350.36 1182.03 352.55L1182.03 369L1177.47 369L1177.47 352.55Q1177.47 349.62 1176.13 348Q1174.79 346.38 1172.06 346.38Q1170.05 346.38 1168.30 347.35Q1166.55 348.32 1165.07 349.98L1165.07 369L1160.51 369L1160.51 331.44L1165.07 331.44M1192.13 353.27L1206.26 353.27Q1206.26 351.69 1205.81 350.37Q1205.36 349.06 1204.51 348.10Q1203.65 347.15 1202.43 346.62Q1201.21 346.10 1199.65 346.10Q1196.39 346.10 1194.49 348Q1192.59 349.90 1192.13 353.27M1208.65 363.72L1209.93 365.38Q1209.09 366.40 1207.91 367.15Q1206.74 367.90 1205.40 368.39Q1204.06 368.87 1202.63 369.11Q1201.21 369.36 1199.80 369.36Q1197.13 369.36 1194.87 368.45Q1192.61 367.55 1190.97 365.80Q1189.32 364.05 1188.41 361.48Q1187.49 358.90 1187.49 355.56Q1187.49 352.86 1188.32 350.51Q1189.14 348.17 1190.70 346.45Q1192.26 344.72 1194.50 343.74Q1196.74 342.76 1199.55 342.76Q1201.87 342.76 1203.85 343.54Q1205.82 344.32 1207.26 345.78Q1208.70 347.25 1209.52 349.40Q1210.34 351.56 1210.34 354.31Q1210.34 355.38 1210.11 355.74Q1209.88 356.10 1209.24 356.10L1191.98 356.10Q1192.05 358.55 1192.65 360.36Q1193.25 362.17 1194.32 363.38Q1195.39 364.59 1196.87 365.19Q1198.35 365.79 1200.19 365.79Q1201.89 365.79 1203.13 365.39Q1204.37 365 1205.26 364.54Q1206.15 364.08 1206.75 363.68Q1207.35 363.29 1207.79 363.29Q1208.35 363.29 1208.65 363.72M1219.82 344.11L1220.18 346.92Q1221.02 345.97 1221.96 345.21Q1222.91 344.44 1223.96 343.90Q1225.02 343.35 1226.21 343.05Q1227.39 342.76 1228.77 342.76Q1230.89 342.76 1232.51 343.46Q1234.13 344.16 1235.21 345.45Q1236.29 346.74 1236.86 348.55Q1237.42 350.36 1237.42 352.55L1237.42 369L1232.85 369L1232.85 352.55Q1232.85 349.62 1231.51 348Q1230.17 346.38 1227.45 346.38Q1225.43 346.38 1223.68 347.35Q1221.94 348.32 1220.46 349.98L1220.46 369L1215.89 369L1215.89 343.17L1218.62 343.17Q1219.59 343.17 1219.82 344.11M1261.41 344.42L1261.72 348.35Q1262.94 345.69 1264.73 344.20Q1266.51 342.71 1269.09 342.71Q1269.90 342.71 1270.66 342.89Q1271.41 343.07 1271.99 343.45L1271.66 346.84Q1271.51 347.48 1270.90 347.48Q1270.54 347.48 1269.85 347.32Q1269.16 347.17 1268.30 347.17Q1267.07 347.17 1266.12 347.53Q1265.16 347.89 1264.41 348.59Q1263.66 349.29 1263.06 350.32Q1262.46 351.35 1261.97 352.68L1261.97 369L1257.41 369L1257.41 343.17L1260.01 343.17Q1260.75 343.17 1261.03 343.45Q1261.31 343.73 1261.41 344.42M1279.13 353.27L1293.26 353.27Q1293.26 351.69 1292.81 350.37Q1292.37 349.06 1291.51 348.10Q1290.66 347.15 1289.44 346.62Q1288.21 346.10 1286.66 346.10Q1283.39 346.10 1281.49 348Q1279.59 349.90 1279.13 353.27M1295.66 363.72L1296.93 365.38Q1296.09 366.40 1294.92 367.15Q1293.75 367.90 1292.41 368.39Q1291.07 368.87 1289.64 369.11Q1288.21 369.36 1286.81 369.36Q1284.13 369.36 1281.88 368.45Q1279.62 367.55 1277.97 365.80Q1276.33 364.05 1275.41 361.48Q1274.49 358.90 1274.49 355.56Q1274.49 352.86 1275.32 350.51Q1276.15 348.17 1277.71 346.45Q1279.26 344.72 1281.51 343.74Q1283.75 342.76 1286.55 342.76Q1288.88 342.76 1290.85 343.54Q1292.83 344.32 1294.27 345.78Q1295.71 347.25 1296.53 349.40Q1297.34 351.56 1297.34 354.31Q1297.34 355.38 1297.11 355.74Q1296.88 356.10 1296.24 356.10L1278.98 356.10Q1279.06 358.55 1279.66 360.36Q1280.26 362.17 1281.33 363.38Q1282.40 364.59 1283.88 365.19Q1285.36 365.79 1287.19 365.79Q1288.90 365.79 1290.14 365.39Q1291.37 365 1292.27 364.54Q1293.16 364.08 1293.76 363.68Q1294.36 363.29 1294.79 363.29Q1295.35 363.29 1295.66 363.72M1316.90 362.73L1316.90 357.37Q1313.76 357.47 1311.56 357.87Q1309.35 358.26 1307.96 358.90Q1306.57 359.54 1305.95 360.41Q1305.32 361.27 1305.32 362.34Q1305.32 363.36 1305.65 364.10Q1305.99 364.84 1306.56 365.32Q1307.13 365.79 1307.91 366Q1308.69 366.22 1309.58 366.22Q1310.78 366.22 1311.77 365.98Q1312.77 365.74 1313.65 365.28Q1314.53 364.82 1315.33 364.18Q1316.13 363.54 1316.90 362.73M1303.05 348.27L1302.24 346.81Q1304.38 344.75 1306.85 343.73Q1309.33 342.71 1312.34 342.71Q1314.50 342.71 1316.19 343.42Q1317.87 344.14 1319.02 345.41Q1320.16 346.69 1320.75 348.50Q1321.34 350.31 1321.34 352.48L1321.34 369L1319.32 369Q1318.66 369 1318.30 368.78Q1317.95 368.57 1317.74 367.93L1317.23 365.48Q1316.21 366.42 1315.24 367.15Q1314.27 367.88 1313.20 368.38Q1312.13 368.87 1310.92 369.14Q1309.71 369.41 1308.23 369.41Q1306.73 369.41 1305.40 368.99Q1304.07 368.57 1303.09 367.73Q1302.11 366.88 1301.54 365.60Q1300.96 364.31 1300.96 362.55Q1300.96 361.02 1301.80 359.60Q1302.65 358.19 1304.53 357.09Q1306.42 356 1309.45 355.29Q1312.49 354.59 1316.90 354.49L1316.90 352.48Q1316.90 349.47 1315.60 347.92Q1314.30 346.38 1311.80 346.38Q1310.12 346.38 1308.98 346.80Q1307.85 347.22 1307.02 347.75Q1306.19 348.27 1305.59 348.69Q1304.99 349.11 1304.40 349.11Q1303.95 349.11 1303.61 348.87Q1303.28 348.63 1303.05 348.27M1345.08 361.78L1345.08 349.31Q1343.80 347.61 1342.32 346.93Q1340.84 346.25 1339.01 346.25Q1335.41 346.25 1333.47 348.83Q1331.54 351.40 1331.54 356.17Q1331.54 358.70 1331.97 360.50Q1332.40 362.29 1333.25 363.45Q1334.09 364.61 1335.31 365.15Q1336.53 365.69 1338.09 365.69Q1340.33 365.69 1342 364.67Q1343.67 363.64 1345.08 361.78M1345.08 331.44L1349.62 331.44L1349.62 369L1346.91 369Q1345.94 369 1345.69 368.06L1345.28 364.92Q1343.62 366.91 1341.51 368.13Q1339.39 369.36 1336.61 369.36Q1334.39 369.36 1332.58 368.50Q1330.77 367.65 1329.50 365.99Q1328.22 364.33 1327.53 361.86Q1326.84 359.39 1326.84 356.17Q1326.84 353.32 1327.61 350.86Q1328.37 348.40 1329.80 346.59Q1331.23 344.77 1333.31 343.74Q1335.39 342.71 1337.99 342.71Q1340.36 342.71 1342.06 343.51Q1343.75 344.32 1345.08 345.74L1345.08 331.44M1375.50 343.17L1379.09 343.17L1364.69 376.62Q1364.46 377.13 1364.11 377.44Q1363.77 377.75 1363.05 377.75L1359.69 377.75L1364.41 367.50L1353.75 343.17L1357.67 343.17Q1358.26 343.17 1358.60 343.46Q1358.95 343.75 1359.08 344.11L1365.99 360.38Q1366.40 361.45 1366.68 362.63Q1367.03 361.43 1367.44 360.36L1374.15 344.11Q1374.30 343.70 1374.67 343.44Q1375.04 343.17 1375.50 343.17M1382.33 366.19Q1382.33 365.53 1382.57 364.95Q1382.82 364.36 1383.24 363.93Q1383.66 363.49 1384.25 363.24Q1384.83 362.98 1385.49 362.98Q1386.16 362.98 1386.74 363.24Q1387.33 363.49 1387.76 363.93Q1388.20 364.36 1388.45 364.95Q1388.71 365.53 1388.71 366.19Q1388.71 366.88 1388.45 367.46Q1388.20 368.03 1387.76 368.46Q1387.33 368.90 1386.74 369.14Q1386.16 369.38 1385.49 369.38Q1384.83 369.38 1384.25 369.14Q1383.66 368.90 1383.24 368.46Q1382.82 368.03 1382.57 367.46Q1382.33 366.88 1382.33 366.19" fill="#5a5d5e"/>
</svg>
