<?xml version="1.0" encoding="UTF-8"?>
<svg id="Ebene_2" data-name="Ebene 2" xmlns="http://www.w3.org/2000/svg" viewBox="0 0 960.28 960.28">
  <defs>
    <style>
      .cls-1 {
        fill: #786b25;
      }

      .cls-2 {
        fill: #fff;
      }

      .cls-3 {
        fill: #022107;
      }

      .cls-4 {
        fill: #6a85b4;
      }

      .cls-5 {
        fill: #5c9d63;
      }

      .cls-6 {
        fill: #2c5632;
      }

      .cls-7 {
        fill: #cec179;
      }

      .cls-8 {
        fill: #2f290c;
      }

      .cls-9 {
        fill: #2a3f65;
      }

      .cls-10 {
        fill: #3c3c3b;
      }

      .cls-11 {
        fill: #0e1a36;
      }
    </style>
  </defs>
  <g id="logo">
    <g id="kannonen">
      <g>
        <g>
          <path class="cls-9" d="M134.68,732.79l-.16-7.26c-.14-6.2,6.46-11.35,14.65-11.45l31.59-.4.27,29.8-31.21.39c-8.19.1-15-4.88-15.14-11.08Z"/>
          <path class="cls-11" d="M322.47,723.18c-.01-.68-.12-1.35-.29-2v.33c.14,6.2-6.45,11.35-14.64,11.45l-158.16,1.98c-7.29.09-13.47-3.85-14.85-9.08l.15,6.93c.14,6.2,6.95,11.18,15.14,11.08l158.16-1.98c8.19-.1,14.78-5.26,14.65-11.45l-.16-7.26Z"/>
          <path class="cls-9" d="M781.02,781.27l-550.51,12.32c-48.46,0-64.26-36.29-64.26-65.6h0c0-29.31,12.07-65.6,65.35-65.6l549.42,12.32v106.57Z"/>
          <path class="cls-11" d="M167.23,714.06c-.68,4.7-.97,9.4-.97,13.93h0c0,29.31,15.8,65.6,64.26,65.6l550.51-12.32v-26.51l-550.51,12.32c-41.69,0-59.2-26.85-63.29-53.02Z"/>
        </g>
        <g>
          <path class="cls-9" d="M256.89,808.39l-2.41-.02c-9.2-.08-16.74-8.01-16.75-17.62l-.09-128.03c0-9.61,7.52-17.41,16.72-17.33l2.41.02c9.2.08,16.74,8.01,16.75,17.62l.09,128.03c0,9.61-7.52,17.41-16.72,17.33Z"/>
          <path class="cls-4" d="M273.61,791.06c0,7.39-4.44,13.71-10.68,16.2l-.12-160.6c6.25,2.59,10.7,8.98,10.71,16.38l.1,128.03Z"/>
          <path class="cls-11" d="M237.69,662.52c-4.93-.28-9.95-.22-15.22.25l.03,130.51c4.73.44,9.88.36,15.29.21l-.09-130.96Z"/>
        </g>
        <g>
          <path class="cls-9" d="M502.48,808.45l-2.41-.02c-9.2-.07-16.75-7.99-16.77-17.6l-.24-128.03c-.02-9.61,7.5-17.42,16.7-17.35l2.41.02c9.2.07,16.75,7.99,16.77,17.6l.24,128.03c.02,9.61-7.5,17.42-16.7,17.35Z"/>
          <path class="cls-4" d="M519.23,791.11c.02,7.39-4.42,13.71-10.67,16.21l-.3-160.6c6.25,2.58,10.71,8.97,10.73,16.36l.24,128.03Z"/>
          <polygon class="cls-11" points="483.07 668.02 467.95 667.68 467.89 788.27 483.3 787.93 483.07 668.02"/>
        </g>
        <g>
          <path class="cls-9" d="M714.64,798.9l-2.41-.03c-9.2-.11-16.74-7.15-16.76-15.64l-.18-113.13c-.01-8.49,7.5-15.35,16.71-15.24l2.41.03c9.2.11,16.74,7.15,16.76,15.64l.18,113.13c.01,8.49-7.5,15.35-16.71,15.24Z"/>
          <path class="cls-4" d="M731.54,783.56c.01,6.52-4.43,12.08-10.67,14.25l-.24-141.76c6.25,2.31,10.71,7.97,10.72,14.5l.19,113.01Z"/>
          <polygon class="cls-11" points="695.29 672.78 680.17 672.44 680.21 783.42 695.47 783.24 695.29 672.78"/>
        </g>
        <g>
          <path class="cls-9" d="M789.23,798.9l-2.41-.03c-9.2-.1-16.75-7.14-16.77-15.63l-.25-113.13c-.02-8.49,7.5-15.36,16.7-15.25l2.41.03c9.2.1,16.75,7.14,16.77,15.63l.25,113.13c.02,8.49-7.5,15.36-16.7,15.25Z"/>
          <path class="cls-4" d="M805.93,783.55c.02,6.52-4.42,12.08-10.66,14.26l-.32-141.76c6.25,2.31,10.71,7.97,10.73,14.49l.26,113.01Z"/>
          <polygon class="cls-11" points="769.88 674.45 754.76 674.11 754.72 781.31 770.05 781.28 769.88 674.45"/>
        </g>
        <path class="cls-4" d="M286.89,678.41l154.94,1.8c2.33.03,4.35,1.82,4.35,5.37s-1.92,5.15-4.5,5.15h-154.94c-2.44-.01-4.41-1.98-4.43-4.42v-3.36c-.02-2.52,2.05-4.57,4.56-4.53Z"/>
        <path class="cls-4" d="M528.94,681.31l131.43,1.8c2.33.03,4.23,1.86,4.36,4.19h0c.14,2.57-1.92,4.75-4.5,4.75h-131.42c-2.44-.01-4.41-1.98-4.43-4.42v-1.79c-.02-2.52,2.05-4.57,4.56-4.53Z"/>
        <path class="cls-4" d="M739.1,683.78l7.32.37c2.33,0,4.25,1.82,4.4,4.15h0c.16,2.57-1.88,4.77-4.45,4.79l-7.45-.21c-2.44.02-4.44-1.24-4.48-3.68l-.03-1.79c-.04-2.52,2.17-3.64,4.68-3.64Z"/>
        <path class="cls-4" d="M144.83,718.69l14.91.07c1.27-.02,2.29.95,2.35,2.23h0c.07,1.4-1.06,2.62-2.46,2.66l-14.98.02c-1.33.04-2.4-.64-2.4-1.97v-.97c0-1.37,1.21-2.01,2.58-2.03Z"/>
        <path class="cls-4" d="M190.05,684.69l16.6-6.16c1.45-.56,3.66.87,4.19,2.34l.39.87c.58,1.63-.45,4.47-2.04,5.11l-17.15,6.43c-1.51.61-3.32-.82-3.8-2.4l-.45-1.47c-.49-1.62.7-4.13,2.26-4.73Z"/>
      </g>
      <g>
        <g>
          <path class="cls-6" d="M825.77,485.79l.16-7.26c.14-6.2-6.46-11.35-14.65-11.45l-31.59-.4-.27,29.8,31.21.39c8.19.1,15-4.88,15.14-11.08Z"/>
          <path class="cls-3" d="M637.98,476.18c.01-.68.12-1.35.29-2v.33c-.14,6.2,6.45,11.35,14.64,11.45l158.16,1.98c7.29.09,13.47-3.85,14.85-9.08l-.15,6.93c-.14,6.2-6.95,11.18-15.14,11.08l-158.16-1.98c-8.19-.1-14.78-5.26-14.65-11.45l.16-7.26Z"/>
          <path class="cls-6" d="M179.43,534.27l550.51,12.32c48.46,0,64.26-36.29,64.26-65.6h0c0-29.31-12.07-65.6-65.35-65.6l-549.42,12.32v106.57Z"/>
          <path class="cls-3" d="M793.22,467.06c.68,4.7.97,9.4.97,13.93h0c0,29.31-15.8,65.6-64.26,65.6l-550.51-12.32v-26.51s550.51,12.32,550.51,12.32c41.69,0,59.2-26.85,63.29-53.02Z"/>
        </g>
        <g>
          <path class="cls-6" d="M703.56,561.39l2.41-.02c9.2-.08,16.74-8.01,16.75-17.62l.09-128.03c0-9.61-7.52-17.41-16.72-17.33l-2.41.02c-9.2.08-16.74,8.01-16.75,17.62l-.09,128.03c0,9.61,7.52,17.41,16.72,17.33Z"/>
          <path class="cls-5" d="M686.84,544.06c0,7.39,4.44,13.71,10.68,16.2l.12-160.6c-6.25,2.59-10.7,8.98-10.71,16.38l-.1,128.03Z"/>
          <path class="cls-3" d="M722.76,415.52c4.93-.28,9.95-.22,15.22.25l-.03,130.51c-4.73.44-9.88.36-15.29.21l.09-130.96Z"/>
        </g>
        <g>
          <path class="cls-6" d="M457.97,561.45l2.41-.02c9.2-.07,16.75-7.99,16.77-17.6l.24-128.03c.02-9.61-7.5-17.42-16.7-17.35l-2.41.02c-9.2.07-16.75,7.99-16.77,17.6l-.24,128.03c-.02,9.61,7.5,17.42,16.7,17.35Z"/>
          <path class="cls-5" d="M441.22,544.11c-.02,7.39,4.42,13.71,10.67,16.21l.3-160.6c-6.25,2.58-10.71,8.97-10.73,16.36l-.24,128.03Z"/>
          <polygon class="cls-3" points="477.38 421.02 492.5 420.68 492.56 541.27 477.15 540.93 477.38 421.02"/>
        </g>
        <g>
          <path class="cls-6" d="M245.81,551.9l2.41-.03c9.2-.11,16.74-7.15,16.76-15.64l.18-113.13c.01-8.49-7.5-15.35-16.71-15.24l-2.41.03c-9.2.11-16.74,7.15-16.76,15.64l-.18,113.13c-.01,8.49,7.5,15.35,16.71,15.24Z"/>
          <path class="cls-5" d="M228.91,536.56c-.01,6.52,4.43,12.08,10.67,14.25l.24-141.76c-6.25,2.31-10.71,7.97-10.72,14.5l-.19,113.01Z"/>
          <polygon class="cls-3" points="265.16 425.78 280.28 425.44 280.24 536.42 264.98 536.24 265.16 425.78"/>
        </g>
        <g>
          <path class="cls-6" d="M171.22,551.9l2.41-.03c9.2-.1,16.75-7.14,16.77-15.63l.25-113.13c.02-8.49-7.5-15.36-16.7-15.25l-2.41.03c-9.2.1-16.75,7.14-16.77,15.63l-.25,113.13c-.02,8.49,7.5,15.36,16.7,15.25Z"/>
          <path class="cls-5" d="M154.52,536.55c-.02,6.52,4.42,12.08,10.66,14.26l.32-141.76c-6.25,2.31-10.71,7.97-10.73,14.49l-.26,113.01Z"/>
          <polygon class="cls-3" points="190.57 427.45 205.69 427.11 205.73 534.31 190.4 534.28 190.57 427.45"/>
        </g>
        <path class="cls-5" d="M673.56,431.41l-154.94,1.8c-2.33.03-4.35,1.82-4.35,5.37s1.92,5.15,4.5,5.15h154.94c2.44-.01,4.41-1.98,4.43-4.42v-3.36c.02-2.52-2.05-4.57-4.56-4.53Z"/>
        <path class="cls-5" d="M431.51,434.31l-131.43,1.8c-2.33.03-4.23,1.86-4.36,4.19h0c-.14,2.57,1.92,4.75,4.5,4.75h131.42c2.44-.01,4.41-1.98,4.43-4.42v-1.79c.02-2.52-2.05-4.57-4.56-4.53Z"/>
        <path class="cls-5" d="M221.35,436.78l-7.32.37c-2.33,0-4.25,1.82-4.4,4.15h0c-.16,2.57,1.88,4.77,4.45,4.79l7.45-.21c2.44.02,4.44-1.24,4.48-3.68l.03-1.79c.04-2.52-2.17-3.64-4.68-3.64Z"/>
        <path class="cls-5" d="M815.62,471.69l-14.91.07c-1.27-.02-2.29.95-2.35,2.23h0c-.07,1.4,1.06,2.62,2.46,2.66l14.98.02c1.33.04,2.4-.64,2.4-1.97v-.97c0-1.37-1.21-2.01-2.58-2.03Z"/>
        <path class="cls-5" d="M770.4,437.69l-16.6-6.16c-1.45-.56-3.66.87-4.19,2.34l-.39.87c-.58,1.63.45,4.47,2.04,5.11l17.15,6.43c1.51.61,3.32-.82,3.8-2.4l.45-1.47c.49-1.62-.7-4.13-2.26-4.73Z"/>
      </g>
      <g>
        <g>
          <path class="cls-1" d="M134.68,250.79l-.16-7.26c-.14-6.2,6.46-11.35,14.65-11.45l31.59-.4.27,29.8-31.21.39c-8.19.1-15-4.88-15.14-11.08Z"/>
          <path class="cls-8" d="M322.47,241.18c-.01-.68-.12-1.35-.29-2v.33c.14,6.2-6.45,11.35-14.64,11.45l-158.16,1.98c-7.29.09-13.47-3.85-14.85-9.08l.15,6.93c.14,6.2,6.95,11.18,15.14,11.08l158.16-1.98c8.19-.1,14.78-5.26,14.65-11.45l-.16-7.26Z"/>
          <path class="cls-1" d="M781.02,299.27l-550.51,12.32c-48.46,0-64.26-36.29-64.26-65.6h0c0-29.31,12.07-65.6,65.35-65.6l549.42,12.32v106.57Z"/>
          <path class="cls-8" d="M167.23,232.06c-.68,4.7-.97,9.4-.97,13.93h0c0,29.31,15.8,65.6,64.26,65.6l550.51-12.32v-26.51l-550.51,12.32c-41.69,0-59.2-26.85-63.29-53.02Z"/>
        </g>
        <g>
          <path class="cls-1" d="M256.89,326.39l-2.41-.02c-9.2-.08-16.74-8.01-16.75-17.62l-.09-128.03c0-9.61,7.52-17.41,16.72-17.33l2.41.02c9.2.08,16.74,8.01,16.75,17.62l.09,128.03c0,9.61-7.52,17.41-16.72,17.33Z"/>
          <path class="cls-7" d="M273.61,309.06c0,7.39-4.44,13.71-10.68,16.2l-.12-160.6c6.25,2.59,10.7,8.98,10.71,16.38l.1,128.03Z"/>
          <path class="cls-8" d="M237.69,180.52c-4.93-.28-9.95-.22-15.22.25l.03,130.51c4.73.44,9.88.36,15.29.21l-.09-130.96Z"/>
        </g>
        <g>
          <path class="cls-1" d="M502.48,326.45l-2.41-.02c-9.2-.07-16.75-7.99-16.77-17.6l-.24-128.03c-.02-9.61,7.5-17.42,16.7-17.35l2.41.02c9.2.07,16.75,7.99,16.77,17.6l.24,128.03c.02,9.61-7.5,17.42-16.7,17.35Z"/>
          <path class="cls-7" d="M519.23,309.11c.02,7.39-4.42,13.71-10.67,16.21l-.3-160.6c6.25,2.58,10.71,8.97,10.73,16.36l.24,128.03Z"/>
          <polygon class="cls-8" points="483.07 186.02 467.95 185.68 467.89 306.27 483.3 305.93 483.07 186.02"/>
        </g>
        <g>
          <path class="cls-1" d="M714.64,316.9l-2.41-.03c-9.2-.11-16.74-7.15-16.76-15.64l-.18-113.13c-.01-8.49,7.5-15.35,16.71-15.24l2.41.03c9.2.11,16.74,7.15,16.76,15.64l.18,113.13c.01,8.49-7.5,15.35-16.71,15.24Z"/>
          <path class="cls-7" d="M731.54,301.56c.01,6.52-4.43,12.08-10.67,14.25l-.24-141.76c6.25,2.31,10.71,7.97,10.72,14.5l.19,113.01Z"/>
          <polygon class="cls-8" points="695.29 190.78 680.17 190.44 680.21 301.42 695.47 301.24 695.29 190.78"/>
        </g>
        <g>
          <path class="cls-1" d="M789.23,316.9l-2.41-.03c-9.2-.1-16.75-7.14-16.77-15.63l-.25-113.13c-.02-8.49,7.5-15.36,16.7-15.25l2.41.03c9.2.1,16.75,7.14,16.77,15.63l.25,113.13c.02,8.49-7.5,15.36-16.7,15.25Z"/>
          <path class="cls-7" d="M805.93,301.55c.02,6.52-4.42,12.08-10.66,14.26l-.32-141.76c6.25,2.31,10.71,7.97,10.73,14.49l.26,113.01Z"/>
          <polygon class="cls-8" points="769.88 192.45 754.76 192.11 754.72 299.31 770.05 299.28 769.88 192.45"/>
        </g>
        <path class="cls-7" d="M286.89,196.41l154.94,1.8c2.33.03,4.35,1.82,4.35,5.37s-1.92,5.15-4.5,5.15h-154.94c-2.44-.01-4.41-1.98-4.43-4.42v-3.36c-.02-2.52,2.05-4.57,4.56-4.53Z"/>
        <path class="cls-7" d="M528.94,199.31l131.43,1.8c2.33.03,4.23,1.86,4.36,4.19h0c.14,2.57-1.92,4.75-4.5,4.75h-131.42c-2.44-.01-4.41-1.98-4.43-4.42v-1.79c-.02-2.52,2.05-4.57,4.56-4.53Z"/>
        <path class="cls-7" d="M739.1,201.78l7.32.37c2.33,0,4.25,1.82,4.4,4.15h0c.16,2.57-1.88,4.77-4.45,4.79l-7.45-.21c-2.44.02-4.44-1.24-4.48-3.68l-.03-1.79c-.04-2.52,2.17-3.64,4.68-3.64Z"/>
        <path class="cls-7" d="M144.83,236.69l14.91.07c1.27-.02,2.29.95,2.35,2.23h0c.07,1.4-1.06,2.62-2.46,2.66l-14.98.02c-1.33.04-2.4-.64-2.4-1.97v-.97c0-1.37,1.21-2.01,2.58-2.03Z"/>
        <path class="cls-7" d="M190.05,202.69l16.6-6.16c1.45-.56,3.66.87,4.19,2.34l.39.87c.58,1.63-.45,4.47-2.04,5.11l-17.15,6.43c-1.51.61-3.32-.82-3.8-2.4l-.45-1.47c-.49-1.62.7-4.13,2.26-4.73Z"/>
      </g>
    </g>
    <path id="rahmen_hell" class="cls-2" d="M865.8,94.48v771.32H94.48V94.48h771.32M896.83,0H63.45C28.41,0,0,28.41,0,63.45v833.38c0,35.04,28.41,63.45,63.45,63.45h833.38c35.04,0,63.45-28.41,63.45-63.45V63.45C960.28,28.41,931.87,0,896.83,0h0Z"/>
    <g id="schattierung">
      <path class="cls-10" d="M896.83,0H63.45C40.21,0,19.91,12.5,8.85,31.13c10.99-8.94,25.16-14.33,40.63-14.33h830.53c34.92,0,63.23,27.41,63.23,61.23v804.21c0,33.82-28.31,61.23-63.23,61.23H49.48c-15.47,0-29.64-5.39-40.63-14.33,11.05,18.63,31.36,31.13,54.6,31.13h833.38c35.04,0,63.45-28.41,63.45-63.45V63.45c0-35.04-28.41-63.45-63.45-63.45Z"/>
      <polygon class="cls-10" points="79.27 881.75 819.14 881.75 865.8 870.11 865.8 865.8 94.48 865.8 94.48 94.48 865.8 94.48 865.81 90.94 813.64 78.52 79.27 78.52 79.27 881.75"/>
    </g>
  </g>
</svg>